<svg width="288" height="61" viewBox="0 0 288 61" fill="none" xmlns="http://www.w3.org/2000/svg">
<g filter="url(#filter0_ddd_18_19)">
<rect x="1" y="1" width="284" height="56" rx="6" fill="#F8FAFB"/>
<path d="M41 16.3C38.65 14.85 35.95 14 33 14V16.3H41Z" fill="#ED4C5C"/>
<path d="M33 18.6H43.8C42.95 17.75 42 16.95 41 16.3H33V18.6Z" fill="white"/>
<path d="M33 20.9001H45.65C45.1 20.0501 44.5 19.3001 43.85 18.6001H33V20.9001Z" fill="#ED4C5C"/>
<path d="M33 23.1999H46.85C46.5 22.3999 46.1 21.5999 45.65 20.8999H33V23.1999Z" fill="white"/>
<path d="M33 25.5H47.6C47.4 24.7 47.15 23.95 46.85 23.2H33V25.5Z" fill="#ED4C5C"/>
<path d="M33 27.85H47.95C47.9 27.05 47.75 26.3 47.6 25.55H33V27.85" fill="white"/>
<path d="M47.95 27.8501H33V29.0001H18C18 29.4001 18 29.7501 18.05 30.1501H47.95C48 29.7501 48 29.4001 48 29.0001C48 28.6001 48 28.2001 47.95 27.8501" fill="#ED4C5C"/>
<path d="M18.4 32.4499H47.6C47.8 31.6999 47.9001 30.9499 47.9501 30.1499H18.05C18.1 30.8999 18.2 31.6999 18.4 32.4499Z" fill="white"/>
<path d="M19.1499 34.75H46.8499C47.1499 34 47.3999 33.25 47.5999 32.45H18.3999C18.5999 33.25 18.8499 34 19.1499 34.75Z" fill="#ED4C5C"/>
<path d="M20.3499 37.05H45.6499C46.0999 36.3 46.4999 35.55 46.8499 34.75H19.1499C19.4999 35.55 19.8999 36.3 20.3499 37.05" fill="white"/>
<path d="M22.1501 39.35H43.8501C44.5001 38.65 45.1501 37.85 45.6501 37.05H20.3501C20.8501 37.9 21.5001 38.65 22.1501 39.35Z" fill="#ED4C5C"/>
<path d="M24.9499 41.6501H41.0499C42.0999 41.0001 42.9999 40.2001 43.8499 39.3501H22.1499C22.9999 40.2501 23.9499 41.0001 24.9499 41.6501Z" fill="white"/>
<path d="M33 43.9999C35.95 43.9999 38.6999 43.1499 41.0499 41.6499H24.95C27.3 43.1499 30.05 43.9999 33 43.9999Z" fill="#ED4C5C"/>
<path d="M25 16.3C23.95 16.95 23 17.75 22.15 18.6C21.45 19.3 20.85 20.1 20.35 20.9C19.9 21.65 19.45 22.4 19.15 23.2C18.85 23.95 18.6 24.7 18.4 25.5C18.2 26.25 18.1 27 18.05 27.8C18 28.2 18 28.6 18 29H33V14C30.05 14 27.35 14.85 25 16.3Z" fill="#428BC1"/>
<path d="M29.5 14.5L29.75 15.25H30.5L29.9 15.75L30.1 16.5L29.5 16.05L28.9 16.5L29.1 15.75L28.5 15.25H29.25L29.5 14.5ZM31.5 17.5L31.75 18.25H32.5L31.9 18.75L32.1 19.5L31.5 19.05L30.9 19.5L31.1 18.75L30.5 18.25H31.25L31.5 17.5ZM27.5 17.5L27.75 18.25H28.5L27.9 18.75L28.1 19.5L27.5 19.05L26.9 19.5L27.1 18.75L26.5 18.25H27.25L27.5 17.5ZM29.5 20.5L29.75 21.25H30.5L29.9 21.75L30.1 22.5L29.5 22.05L28.9 22.5L29.1 21.75L28.5 21.25H29.25L29.5 20.5ZM25.5 20.5L25.75 21.25H26.5L25.9 21.75L26.1 22.5L25.5 22.05L24.9 22.5L25.1 21.75L24.5 21.25H25.25L25.5 20.5ZM21.5 20.5L21.75 21.25H22.5L21.9 21.75L22.1 22.5L21.5 22.05L20.9 22.5L21.1 21.75L20.5 21.25H21.25L21.5 20.5ZM31.5 23.5L31.75 24.25H32.5L31.9 24.75L32.1 25.5L31.5 25.05L30.9 25.5L31.1 24.75L30.5 24.25H31.25L31.5 23.5ZM27.5 23.5L27.75 24.25H28.5L27.9 24.75L28.1 25.5L27.5 25.05L26.9 25.5L27.1 24.75L26.5 24.25H27.25L27.5 23.5ZM23.5 23.5L23.75 24.25H24.5L23.9 24.75L24.1 25.5L23.5 25.05L22.9 25.5L23.1 24.75L22.5 24.25H23.25L23.5 23.5ZM29.5 26.5L29.75 27.25H30.5L29.9 27.75L30.1 28.5L29.5 28.05L28.9 28.5L29.1 27.75L28.5 27.25H29.25L29.5 26.5ZM25.5 26.5L25.75 27.25H26.5L25.9 27.75L26.1 28.5L25.5 28.05L24.9 28.5L25.1 27.75L24.5 27.25H25.25L25.5 26.5ZM21.5 26.5L21.75 27.25H22.5L21.9 27.75L22.1 28.5L21.5 28.05L20.9 28.5L21.1 27.75L20.5 27.25H21.25L21.5 26.5ZM22.9 19.5L23.5 19.05L24.1 19.5L23.85 18.75L24.45 18.25H23.7L23.5 17.5L23.25 18.25H22.55L23.15 18.7L22.9 19.5V19.5ZM18.9 25.5L19.5 25.05L20.1 25.5L19.85 24.75L20.45 24.25H19.75L19.5 23.5L19.25 24.25H18.75C18.75 24.3 18.7 24.35 18.7 24.4L19.1 24.7L18.9 25.5" fill="white"/>
<path d="M69.96 29.632C70.632 29.632 71.224 29.552 71.736 29.392C72.256 29.224 72.688 28.992 73.032 28.696C73.384 28.392 73.648 28.032 73.824 27.616C74 27.2 74.088 26.74 74.088 26.236C74.088 25.212 73.752 24.44 73.08 23.92C72.408 23.4 71.4 23.14 70.056 23.14H67.512V29.632H69.96ZM77.904 38.5H75.84C75.416 38.5 75.104 38.336 74.904 38.008L70.44 31.864C70.304 31.672 70.156 31.536 69.996 31.456C69.844 31.368 69.604 31.324 69.276 31.324H67.512V38.5H65.196V21.304H70.056C71.144 21.304 72.084 21.416 72.876 21.64C73.668 21.856 74.32 22.172 74.832 22.588C75.352 23.004 75.736 23.508 75.984 24.1C76.232 24.684 76.356 25.34 76.356 26.068C76.356 26.676 76.26 27.244 76.068 27.772C75.876 28.3 75.596 28.776 75.228 29.2C74.868 29.616 74.424 29.972 73.896 30.268C73.376 30.564 72.784 30.788 72.12 30.94C72.416 31.108 72.672 31.352 72.888 31.672L77.904 38.5ZM90.8509 36.604L90.8389 38.5H80.2429V21.304H90.8389V23.2H82.5709V28.912H89.2669V30.736H82.5709V36.604H90.8509ZM103.226 32.116L100.526 25.12C100.446 24.912 100.362 24.672 100.274 24.4C100.186 24.12 100.102 23.824 100.022 23.512C99.8544 24.16 99.6824 24.7 99.5064 25.132L96.8064 32.116H103.226ZM108.074 38.5H106.274C106.066 38.5 105.898 38.448 105.77 38.344C105.642 38.24 105.546 38.108 105.482 37.948L103.874 33.796H96.1584L94.5504 37.948C94.5024 38.092 94.4104 38.22 94.2744 38.332C94.1384 38.444 93.9704 38.5 93.7704 38.5H91.9704L98.8464 21.304H101.198L108.074 38.5ZM125.241 29.908C125.241 31.196 125.037 32.368 124.629 33.424C124.221 34.48 123.645 35.384 122.901 36.136C122.157 36.888 121.261 37.472 120.213 37.888C119.173 38.296 118.021 38.5 116.757 38.5H110.337V21.304H116.757C118.021 21.304 119.173 21.512 120.213 21.928C121.261 22.336 122.157 22.92 122.901 23.68C123.645 24.432 124.221 25.336 124.629 26.392C125.037 27.448 125.241 28.62 125.241 29.908ZM122.853 29.908C122.853 28.852 122.709 27.908 122.421 27.076C122.133 26.244 121.725 25.54 121.197 24.964C120.669 24.388 120.029 23.948 119.277 23.644C118.525 23.34 117.685 23.188 116.757 23.188H112.665V36.616H116.757C117.685 36.616 118.525 36.464 119.277 36.16C120.029 35.856 120.669 35.42 121.197 34.852C121.725 34.276 122.133 33.572 122.421 32.74C122.709 31.908 122.853 30.964 122.853 29.908ZM146.486 21.304V38.5H144.446V25.864C144.446 25.696 144.45 25.516 144.458 25.324C144.474 25.132 144.49 24.936 144.506 24.736L138.602 35.488C138.418 35.848 138.138 36.028 137.762 36.028H137.426C137.05 36.028 136.77 35.848 136.586 35.488L130.562 24.688C130.61 25.112 130.634 25.504 130.634 25.864V38.5H128.594V21.304H130.31C130.518 21.304 130.678 21.324 130.79 21.364C130.902 21.404 131.01 21.516 131.114 21.7L137.054 32.284C137.15 32.476 137.242 32.676 137.33 32.884C137.426 33.092 137.514 33.304 137.594 33.52C137.674 33.304 137.758 33.092 137.846 32.884C137.934 32.668 138.03 32.464 138.134 32.272L143.966 21.7C144.062 21.516 144.166 21.404 144.278 21.364C144.398 21.324 144.562 21.304 144.77 21.304H146.486ZM161.492 36.604L161.48 38.5H150.884V21.304H161.48V23.2H153.212V28.912H159.908V30.736H153.212V36.604H161.492ZM172.628 26.344V38.5H170.492V26.344H172.628ZM173.084 22.528C173.084 22.736 173.04 22.932 172.952 23.116C172.872 23.292 172.76 23.452 172.616 23.596C172.48 23.732 172.316 23.84 172.124 23.92C171.94 24 171.744 24.04 171.536 24.04C171.328 24.04 171.132 24 170.948 23.92C170.772 23.84 170.616 23.732 170.48 23.596C170.344 23.452 170.236 23.292 170.156 23.116C170.076 22.932 170.036 22.736 170.036 22.528C170.036 22.32 170.076 22.124 170.156 21.94C170.236 21.748 170.344 21.584 170.48 21.448C170.616 21.304 170.772 21.192 170.948 21.112C171.132 21.032 171.328 20.992 171.536 20.992C171.744 20.992 171.94 21.032 172.124 21.112C172.316 21.192 172.48 21.304 172.616 21.448C172.76 21.584 172.872 21.748 172.952 21.94C173.04 22.124 173.084 22.32 173.084 22.528ZM178.153 28.108C178.417 27.812 178.697 27.544 178.993 27.304C179.289 27.064 179.601 26.86 179.929 26.692C180.265 26.516 180.617 26.384 180.985 26.296C181.361 26.2 181.765 26.152 182.197 26.152C182.861 26.152 183.445 26.264 183.949 26.488C184.461 26.704 184.885 27.016 185.221 27.424C185.565 27.824 185.825 28.308 186.001 28.876C186.177 29.444 186.265 30.072 186.265 30.76V38.5H184.117V30.76C184.117 29.84 183.905 29.128 183.481 28.624C183.065 28.112 182.429 27.856 181.573 27.856C180.941 27.856 180.349 28.008 179.797 28.312C179.253 28.616 178.749 29.028 178.285 29.548V38.5H176.137V26.344H177.421C177.725 26.344 177.913 26.492 177.985 26.788L178.153 28.108ZM206.773 36.604L206.761 38.5H196.165V21.304H206.761V23.2H198.493V28.912H205.189V30.736H198.493V36.604H206.773ZM211.2 28.108C211.464 27.812 211.744 27.544 212.04 27.304C212.336 27.064 212.648 26.86 212.976 26.692C213.312 26.516 213.664 26.384 214.032 26.296C214.408 26.2 214.812 26.152 215.244 26.152C215.908 26.152 216.492 26.264 216.996 26.488C217.508 26.704 217.932 27.016 218.268 27.424C218.612 27.824 218.872 28.308 219.048 28.876C219.224 29.444 219.312 30.072 219.312 30.76V38.5H217.164V30.76C217.164 29.84 216.952 29.128 216.528 28.624C216.112 28.112 215.476 27.856 214.62 27.856C213.988 27.856 213.396 28.008 212.844 28.312C212.3 28.616 211.796 29.028 211.332 29.548V38.5H209.184V26.344H210.468C210.772 26.344 210.96 26.492 211.032 26.788L211.2 28.108ZM226.803 32.56C227.235 32.56 227.615 32.5 227.943 32.38C228.271 32.26 228.547 32.092 228.771 31.876C228.995 31.66 229.163 31.404 229.275 31.108C229.387 30.804 229.443 30.472 229.443 30.112C229.443 29.368 229.215 28.776 228.759 28.336C228.311 27.896 227.659 27.676 226.803 27.676C225.939 27.676 225.279 27.896 224.823 28.336C224.375 28.776 224.151 29.368 224.151 30.112C224.151 30.472 224.207 30.804 224.319 31.108C224.439 31.404 224.611 31.66 224.835 31.876C225.059 32.092 225.335 32.26 225.663 32.38C225.991 32.5 226.371 32.56 226.803 32.56ZM230.655 39.16C230.655 38.864 230.571 38.624 230.403 38.44C230.235 38.256 230.007 38.112 229.719 38.008C229.439 37.904 229.111 37.832 228.735 37.792C228.359 37.744 227.959 37.708 227.535 37.684C227.119 37.66 226.695 37.636 226.263 37.612C225.831 37.588 225.415 37.548 225.015 37.492C224.567 37.7 224.199 37.964 223.911 38.284C223.631 38.596 223.491 38.964 223.491 39.388C223.491 39.66 223.559 39.912 223.695 40.144C223.839 40.384 224.055 40.588 224.343 40.756C224.631 40.932 224.991 41.068 225.423 41.164C225.863 41.268 226.379 41.32 226.971 41.32C227.547 41.32 228.063 41.268 228.519 41.164C228.975 41.06 229.359 40.912 229.671 40.72C229.991 40.528 230.235 40.3 230.403 40.036C230.571 39.772 230.655 39.48 230.655 39.16ZM232.827 26.824V27.616C232.827 27.88 232.659 28.048 232.323 28.12L230.943 28.3C231.215 28.828 231.351 29.412 231.351 30.052C231.351 30.644 231.235 31.184 231.003 31.672C230.779 32.152 230.467 32.564 230.067 32.908C229.667 33.252 229.187 33.516 228.627 33.7C228.067 33.884 227.459 33.976 226.803 33.976C226.235 33.976 225.699 33.908 225.195 33.772C224.939 33.932 224.743 34.104 224.607 34.288C224.471 34.464 224.403 34.644 224.403 34.828C224.403 35.116 224.519 35.336 224.751 35.488C224.991 35.632 225.303 35.736 225.687 35.8C226.071 35.864 226.507 35.904 226.995 35.92C227.491 35.936 227.995 35.964 228.507 36.004C229.027 36.036 229.531 36.096 230.019 36.184C230.515 36.272 230.955 36.416 231.339 36.616C231.723 36.816 232.031 37.092 232.263 37.444C232.503 37.796 232.623 38.252 232.623 38.812C232.623 39.332 232.491 39.836 232.227 40.324C231.971 40.812 231.599 41.244 231.111 41.62C230.623 42.004 230.023 42.308 229.311 42.532C228.607 42.764 227.811 42.88 226.923 42.88C226.035 42.88 225.259 42.792 224.595 42.616C223.931 42.44 223.379 42.204 222.939 41.908C222.499 41.612 222.167 41.268 221.943 40.876C221.727 40.492 221.619 40.088 221.619 39.664C221.619 39.064 221.807 38.556 222.183 38.14C222.559 37.724 223.075 37.392 223.731 37.144C223.371 36.984 223.083 36.772 222.867 36.508C222.659 36.236 222.555 35.872 222.555 35.416C222.555 35.24 222.587 35.06 222.651 34.876C222.715 34.684 222.811 34.496 222.939 34.312C223.075 34.12 223.239 33.94 223.431 33.772C223.623 33.604 223.847 33.456 224.103 33.328C223.503 32.992 223.035 32.548 222.699 31.996C222.363 31.436 222.195 30.788 222.195 30.052C222.195 29.46 222.307 28.924 222.531 28.444C222.763 27.956 223.083 27.544 223.491 27.208C223.899 26.864 224.383 26.6 224.943 26.416C225.511 26.232 226.131 26.14 226.803 26.14C227.331 26.14 227.823 26.2 228.279 26.32C228.735 26.432 229.151 26.6 229.527 26.824H232.827ZM237.244 20.824V38.5H235.108V20.824H237.244ZM242.964 26.344V38.5H240.828V26.344H242.964ZM243.42 22.528C243.42 22.736 243.376 22.932 243.288 23.116C243.208 23.292 243.096 23.452 242.952 23.596C242.816 23.732 242.652 23.84 242.46 23.92C242.276 24 242.08 24.04 241.872 24.04C241.664 24.04 241.468 24 241.284 23.92C241.108 23.84 240.952 23.732 240.816 23.596C240.68 23.452 240.572 23.292 240.492 23.116C240.412 22.932 240.372 22.736 240.372 22.528C240.372 22.32 240.412 22.124 240.492 21.94C240.572 21.748 240.68 21.584 240.816 21.448C240.952 21.304 241.108 21.192 241.284 21.112C241.468 21.032 241.664 20.992 241.872 20.992C242.08 20.992 242.276 21.032 242.46 21.112C242.652 21.192 242.816 21.304 242.952 21.448C243.096 21.584 243.208 21.748 243.288 21.94C243.376 22.124 243.42 22.32 243.42 22.528ZM253.553 28.348C253.457 28.524 253.309 28.612 253.109 28.612C252.989 28.612 252.853 28.568 252.701 28.48C252.549 28.392 252.361 28.296 252.137 28.192C251.921 28.08 251.661 27.98 251.357 27.892C251.053 27.796 250.693 27.748 250.277 27.748C249.917 27.748 249.593 27.796 249.305 27.892C249.017 27.98 248.769 28.104 248.561 28.264C248.361 28.424 248.205 28.612 248.093 28.828C247.989 29.036 247.937 29.264 247.937 29.512C247.937 29.824 248.025 30.084 248.201 30.292C248.385 30.5 248.625 30.68 248.921 30.832C249.217 30.984 249.553 31.12 249.929 31.24C250.305 31.352 250.689 31.476 251.081 31.612C251.481 31.74 251.869 31.884 252.245 32.044C252.621 32.204 252.957 32.404 253.253 32.644C253.549 32.884 253.785 33.18 253.961 33.532C254.145 33.876 254.237 34.292 254.237 34.78C254.237 35.34 254.137 35.86 253.937 36.34C253.737 36.812 253.441 37.224 253.049 37.576C252.657 37.92 252.177 38.192 251.609 38.392C251.041 38.592 250.385 38.692 249.641 38.692C248.793 38.692 248.025 38.556 247.337 38.284C246.649 38.004 246.065 37.648 245.585 37.216L246.089 36.4C246.153 36.296 246.229 36.216 246.317 36.16C246.405 36.104 246.517 36.076 246.653 36.076C246.797 36.076 246.949 36.132 247.109 36.244C247.269 36.356 247.461 36.48 247.685 36.616C247.917 36.752 248.197 36.876 248.525 36.988C248.853 37.1 249.261 37.156 249.749 37.156C250.165 37.156 250.529 37.104 250.841 37C251.153 36.888 251.413 36.74 251.621 36.556C251.829 36.372 251.981 36.16 252.077 35.92C252.181 35.68 252.233 35.424 252.233 35.152C252.233 34.816 252.141 34.54 251.957 34.324C251.781 34.1 251.545 33.912 251.249 33.76C250.953 33.6 250.613 33.464 250.229 33.352C249.853 33.232 249.465 33.108 249.065 32.98C248.673 32.852 248.285 32.708 247.901 32.548C247.525 32.38 247.189 32.172 246.893 31.924C246.597 31.676 246.357 31.372 246.173 31.012C245.997 30.644 245.909 30.2 245.909 29.68C245.909 29.216 246.005 28.772 246.197 28.348C246.389 27.916 246.669 27.54 247.037 27.22C247.405 26.892 247.857 26.632 248.393 26.44C248.929 26.248 249.541 26.152 250.229 26.152C251.029 26.152 251.745 26.28 252.377 26.536C253.017 26.784 253.569 27.128 254.033 27.568L253.553 28.348ZM259.004 27.964C259.524 27.412 260.1 26.972 260.732 26.644C261.364 26.316 262.092 26.152 262.916 26.152C263.58 26.152 264.164 26.264 264.668 26.488C265.18 26.704 265.604 27.016 265.94 27.424C266.284 27.824 266.544 28.308 266.72 28.876C266.896 29.444 266.984 30.072 266.984 30.76V38.5H264.836V30.76C264.836 29.84 264.624 29.128 264.2 28.624C263.784 28.112 263.148 27.856 262.292 27.856C261.66 27.856 261.068 28.008 260.516 28.312C259.972 28.616 259.468 29.028 259.004 29.548V38.5H256.856V20.824H259.004V27.964Z" fill="#0B1113"/>
</g>
<defs>
<filter id="filter0_ddd_18_19" x="0.6" y="0.8" width="287.1" height="59.5" filterUnits="userSpaceOnUse" color-interpolation-filters="sRGB">
<feFlood flood-opacity="0" result="BackgroundImageFix"/>
<feColorMatrix in="SourceAlpha" type="matrix" values="0 0 0 0 0 0 0 0 0 0 0 0 0 0 0 0 0 0 127 0" result="hardAlpha"/>
<feOffset dx="0.3" dy="0.5"/>
<feGaussianBlur stdDeviation="0.35"/>
<feComposite in2="hardAlpha" operator="out"/>
<feColorMatrix type="matrix" values="0 0 0 0 0.633333 0 0 0 0 0.633333 0 0 0 0 0.633333 0 0 0 0.23 0"/>
<feBlend mode="normal" in2="BackgroundImageFix" result="effect1_dropShadow_18_19"/>
<feColorMatrix in="SourceAlpha" type="matrix" values="0 0 0 0 0 0 0 0 0 0 0 0 0 0 0 0 0 0 127 0" result="hardAlpha"/>
<feMorphology radius="0.8" operator="erode" in="SourceAlpha" result="effect2_dropShadow_18_19"/>
<feOffset dx="0.6" dy="0.9"/>
<feGaussianBlur stdDeviation="0.65"/>
<feComposite in2="hardAlpha" operator="out"/>
<feColorMatrix type="matrix" values="0 0 0 0 0.631373 0 0 0 0 0.631373 0 0 0 0 0.631373 0 0 0 0.31 0"/>
<feBlend mode="normal" in2="effect1_dropShadow_18_19" result="effect2_dropShadow_18_19"/>
<feColorMatrix in="SourceAlpha" type="matrix" values="0 0 0 0 0 0 0 0 0 0 0 0 0 0 0 0 0 0 127 0" result="hardAlpha"/>
<feMorphology radius="1.7" operator="erode" in="SourceAlpha" result="effect3_dropShadow_18_19"/>
<feOffset dx="1.4" dy="2"/>
<feGaussianBlur stdDeviation="1.5"/>
<feComposite in2="hardAlpha" operator="out"/>
<feColorMatrix type="matrix" values="0 0 0 0 0.631373 0 0 0 0 0.631373 0 0 0 0 0.631373 0 0 0 0.38 0"/>
<feBlend mode="normal" in2="effect2_dropShadow_18_19" result="effect3_dropShadow_18_19"/>
<feBlend mode="normal" in="SourceGraphic" in2="effect3_dropShadow_18_19" result="shape"/>
</filter>
</defs>
</svg>
