<svg width="310" height="61" viewBox="0 0 310 61" fill="none" xmlns="http://www.w3.org/2000/svg">
<g filter="url(#filter0_ddd_18_44)">
<rect x="1" y="1" width="306" height="56" rx="6" fill="#F8FAFB"/>
<path d="M32.9501 14C26.4501 14 20.9001 18.2 18.8501 24H47.1501C45.0501 18.2 39.5001 14 32.9501 14Z" fill="#F9F9F9"/>
<path d="M32.9501 44C39.5001 44 45.0501 39.8 47.1001 34H18.8501C20.9001 39.85 26.4501 44 32.9501 44Z" fill="#ED4C5C"/>
<path d="M18.85 24C18.3 25.55 18 27.25 18 29C18 30.75 18.3 32.45 18.85 34H47.15C47.7 32.45 48 30.75 48 29C48 27.25 47.7 25.55 47.15 24H18.85Z" fill="#428BC1"/>
<path d="M69.96 29.632C70.632 29.632 71.224 29.552 71.736 29.392C72.256 29.224 72.688 28.992 73.032 28.696C73.384 28.392 73.648 28.032 73.824 27.616C74 27.2 74.088 26.74 74.088 26.236C74.088 25.212 73.752 24.44 73.08 23.92C72.408 23.4 71.4 23.14 70.056 23.14H67.512V29.632H69.96ZM77.904 38.5H75.84C75.416 38.5 75.104 38.336 74.904 38.008L70.44 31.864C70.304 31.672 70.156 31.536 69.996 31.456C69.844 31.368 69.604 31.324 69.276 31.324H67.512V38.5H65.196V21.304H70.056C71.144 21.304 72.084 21.416 72.876 21.64C73.668 21.856 74.32 22.172 74.832 22.588C75.352 23.004 75.736 23.508 75.984 24.1C76.232 24.684 76.356 25.34 76.356 26.068C76.356 26.676 76.26 27.244 76.068 27.772C75.876 28.3 75.596 28.776 75.228 29.2C74.868 29.616 74.424 29.972 73.896 30.268C73.376 30.564 72.784 30.788 72.12 30.94C72.416 31.108 72.672 31.352 72.888 31.672L77.904 38.5ZM90.8509 36.604L90.8389 38.5H80.2429V21.304H90.8389V23.2H82.5709V28.912H89.2669V30.736H82.5709V36.604H90.8509ZM103.226 32.116L100.526 25.12C100.446 24.912 100.362 24.672 100.274 24.4C100.186 24.12 100.102 23.824 100.022 23.512C99.8544 24.16 99.6824 24.7 99.5064 25.132L96.8064 32.116H103.226ZM108.074 38.5H106.274C106.066 38.5 105.898 38.448 105.77 38.344C105.642 38.24 105.546 38.108 105.482 37.948L103.874 33.796H96.1584L94.5504 37.948C94.5024 38.092 94.4104 38.22 94.2744 38.332C94.1384 38.444 93.9704 38.5 93.7704 38.5H91.9704L98.8464 21.304H101.198L108.074 38.5ZM125.241 29.908C125.241 31.196 125.037 32.368 124.629 33.424C124.221 34.48 123.645 35.384 122.901 36.136C122.157 36.888 121.261 37.472 120.213 37.888C119.173 38.296 118.021 38.5 116.757 38.5H110.337V21.304H116.757C118.021 21.304 119.173 21.512 120.213 21.928C121.261 22.336 122.157 22.92 122.901 23.68C123.645 24.432 124.221 25.336 124.629 26.392C125.037 27.448 125.241 28.62 125.241 29.908ZM122.853 29.908C122.853 28.852 122.709 27.908 122.421 27.076C122.133 26.244 121.725 25.54 121.197 24.964C120.669 24.388 120.029 23.948 119.277 23.644C118.525 23.34 117.685 23.188 116.757 23.188H112.665V36.616H116.757C117.685 36.616 118.525 36.464 119.277 36.16C120.029 35.856 120.669 35.42 121.197 34.852C121.725 34.276 122.133 33.572 122.421 32.74C122.709 31.908 122.853 30.964 122.853 29.908ZM146.486 21.304V38.5H144.446V25.864C144.446 25.696 144.45 25.516 144.458 25.324C144.474 25.132 144.49 24.936 144.506 24.736L138.602 35.488C138.418 35.848 138.138 36.028 137.762 36.028H137.426C137.05 36.028 136.77 35.848 136.586 35.488L130.562 24.688C130.61 25.112 130.634 25.504 130.634 25.864V38.5H128.594V21.304H130.31C130.518 21.304 130.678 21.324 130.79 21.364C130.902 21.404 131.01 21.516 131.114 21.7L137.054 32.284C137.15 32.476 137.242 32.676 137.33 32.884C137.426 33.092 137.514 33.304 137.594 33.52C137.674 33.304 137.758 33.092 137.846 32.884C137.934 32.668 138.03 32.464 138.134 32.272L143.966 21.7C144.062 21.516 144.166 21.404 144.278 21.364C144.398 21.324 144.562 21.304 144.77 21.304H146.486ZM161.492 36.604L161.48 38.5H150.884V21.304H161.48V23.2H153.212V28.912H159.908V30.736H153.212V36.604H161.492ZM180.5 26.344V38.5H178.352V32.812H172.52V38.5H170.372V26.344H172.52V31.192H178.352V26.344H180.5ZM190.483 33.028C189.499 33.06 188.659 33.14 187.963 33.268C187.275 33.388 186.711 33.548 186.271 33.748C185.839 33.948 185.523 34.184 185.323 34.456C185.131 34.728 185.035 35.032 185.035 35.368C185.035 35.688 185.087 35.964 185.191 36.196C185.295 36.428 185.435 36.62 185.611 36.772C185.795 36.916 186.007 37.024 186.247 37.096C186.495 37.16 186.759 37.192 187.039 37.192C187.415 37.192 187.759 37.156 188.071 37.084C188.383 37.004 188.675 36.892 188.947 36.748C189.227 36.604 189.491 36.432 189.739 36.232C189.995 36.032 190.243 35.804 190.483 35.548V33.028ZM183.583 28.06C184.255 27.412 184.979 26.928 185.755 26.608C186.531 26.288 187.391 26.128 188.335 26.128C189.015 26.128 189.619 26.24 190.147 26.464C190.675 26.688 191.119 27 191.479 27.4C191.839 27.8 192.111 28.284 192.295 28.852C192.479 29.42 192.571 30.044 192.571 30.724V38.5H191.623C191.415 38.5 191.255 38.468 191.143 38.404C191.031 38.332 190.943 38.196 190.879 37.996L190.639 36.844C190.319 37.14 190.007 37.404 189.703 37.636C189.399 37.86 189.079 38.052 188.743 38.212C188.407 38.364 188.047 38.48 187.663 38.56C187.287 38.648 186.867 38.692 186.403 38.692C185.931 38.692 185.487 38.628 185.071 38.5C184.655 38.364 184.291 38.164 183.979 37.9C183.675 37.636 183.431 37.304 183.247 36.904C183.071 36.496 182.983 36.016 182.983 35.464C182.983 34.984 183.115 34.524 183.379 34.084C183.643 33.636 184.071 33.24 184.663 32.896C185.255 32.552 186.027 32.272 186.979 32.056C187.931 31.832 189.099 31.704 190.483 31.672V30.724C190.483 29.78 190.279 29.068 189.871 28.588C189.463 28.1 188.867 27.856 188.083 27.856C187.555 27.856 187.111 27.924 186.751 28.06C186.399 28.188 186.091 28.336 185.827 28.504C185.571 28.664 185.347 28.812 185.155 28.948C184.971 29.076 184.787 29.14 184.603 29.14C184.459 29.14 184.335 29.104 184.231 29.032C184.127 28.952 184.039 28.856 183.967 28.744L183.583 28.06ZM204.113 35.572C204.505 36.1 204.933 36.472 205.397 36.688C205.861 36.904 206.381 37.012 206.957 37.012C208.093 37.012 208.965 36.608 209.573 35.8C210.181 34.992 210.485 33.84 210.485 32.344C210.485 31.552 210.413 30.872 210.269 30.304C210.133 29.736 209.933 29.272 209.669 28.912C209.405 28.544 209.081 28.276 208.697 28.108C208.313 27.94 207.877 27.856 207.389 27.856C206.693 27.856 206.081 28.016 205.553 28.336C205.033 28.656 204.553 29.108 204.113 29.692V35.572ZM204.005 28.228C204.517 27.596 205.109 27.088 205.781 26.704C206.453 26.32 207.221 26.128 208.085 26.128C208.789 26.128 209.425 26.264 209.993 26.536C210.561 26.8 211.045 27.196 211.445 27.724C211.845 28.244 212.153 28.892 212.369 29.668C212.585 30.444 212.693 31.336 212.693 32.344C212.693 33.24 212.573 34.076 212.333 34.852C212.093 35.62 211.745 36.288 211.289 36.856C210.841 37.416 210.289 37.86 209.633 38.188C208.985 38.508 208.253 38.668 207.437 38.668C206.693 38.668 206.053 38.544 205.517 38.296C204.989 38.04 204.521 37.688 204.113 37.24V42.616H201.965V26.344H203.249C203.553 26.344 203.741 26.492 203.813 26.788L204.005 28.228ZM225.555 26.344L218.775 42.088C218.703 42.248 218.611 42.376 218.499 42.472C218.395 42.568 218.231 42.616 218.007 42.616H216.423L218.643 37.792L213.627 26.344H215.475C215.659 26.344 215.803 26.392 215.907 26.488C216.019 26.576 216.095 26.676 216.135 26.788L219.387 34.444C219.515 34.78 219.623 35.132 219.711 35.5C219.823 35.124 219.943 34.768 220.071 34.432L223.227 26.788C223.275 26.66 223.355 26.556 223.467 26.476C223.587 26.388 223.719 26.344 223.863 26.344H225.555ZM235.574 28.504C235.51 28.592 235.446 28.66 235.382 28.708C235.318 28.756 235.23 28.78 235.118 28.78C234.998 28.78 234.866 28.732 234.722 28.636C234.578 28.532 234.398 28.42 234.182 28.3C233.974 28.18 233.714 28.072 233.402 27.976C233.098 27.872 232.722 27.82 232.274 27.82C231.674 27.82 231.146 27.928 230.69 28.144C230.234 28.352 229.85 28.656 229.538 29.056C229.234 29.456 229.002 29.94 228.842 30.508C228.69 31.076 228.614 31.712 228.614 32.416C228.614 33.152 228.698 33.808 228.866 34.384C229.034 34.952 229.27 35.432 229.574 35.824C229.886 36.208 230.258 36.504 230.69 36.712C231.13 36.912 231.622 37.012 232.166 37.012C232.686 37.012 233.114 36.952 233.45 36.832C233.786 36.704 234.062 36.564 234.278 36.412C234.502 36.26 234.686 36.124 234.83 36.004C234.982 35.876 235.13 35.812 235.274 35.812C235.45 35.812 235.586 35.88 235.682 36.016L236.282 36.796C236.018 37.124 235.718 37.404 235.382 37.636C235.046 37.868 234.682 38.064 234.29 38.224C233.906 38.376 233.502 38.488 233.078 38.56C232.654 38.632 232.222 38.668 231.782 38.668C231.022 38.668 230.314 38.528 229.658 38.248C229.01 37.968 228.446 37.564 227.966 37.036C227.486 36.5 227.11 35.844 226.838 35.068C226.566 34.292 226.43 33.408 226.43 32.416C226.43 31.512 226.554 30.676 226.802 29.908C227.058 29.14 227.426 28.48 227.906 27.928C228.394 27.368 228.99 26.932 229.694 26.62C230.406 26.308 231.222 26.152 232.142 26.152C232.998 26.152 233.75 26.292 234.398 26.572C235.054 26.844 235.634 27.232 236.138 27.736L235.574 28.504ZM246.824 28.504C246.76 28.592 246.696 28.66 246.632 28.708C246.568 28.756 246.48 28.78 246.368 28.78C246.248 28.78 246.116 28.732 245.972 28.636C245.828 28.532 245.648 28.42 245.432 28.3C245.224 28.18 244.964 28.072 244.652 27.976C244.348 27.872 243.972 27.82 243.524 27.82C242.924 27.82 242.396 27.928 241.94 28.144C241.484 28.352 241.1 28.656 240.788 29.056C240.484 29.456 240.252 29.94 240.092 30.508C239.94 31.076 239.864 31.712 239.864 32.416C239.864 33.152 239.948 33.808 240.116 34.384C240.284 34.952 240.52 35.432 240.824 35.824C241.136 36.208 241.508 36.504 241.94 36.712C242.38 36.912 242.872 37.012 243.416 37.012C243.936 37.012 244.364 36.952 244.7 36.832C245.036 36.704 245.312 36.564 245.528 36.412C245.752 36.26 245.936 36.124 246.08 36.004C246.232 35.876 246.38 35.812 246.524 35.812C246.7 35.812 246.836 35.88 246.932 36.016L247.532 36.796C247.268 37.124 246.968 37.404 246.632 37.636C246.296 37.868 245.932 38.064 245.54 38.224C245.156 38.376 244.752 38.488 244.328 38.56C243.904 38.632 243.472 38.668 243.032 38.668C242.272 38.668 241.564 38.528 240.908 38.248C240.26 37.968 239.696 37.564 239.216 37.036C238.736 36.5 238.36 35.844 238.088 35.068C237.816 34.292 237.68 33.408 237.68 32.416C237.68 31.512 237.804 30.676 238.052 29.908C238.308 29.14 238.676 28.48 239.156 27.928C239.644 27.368 240.24 26.932 240.944 26.62C241.656 26.308 242.472 26.152 243.392 26.152C244.248 26.152 245 26.292 245.648 26.572C246.304 26.844 246.884 27.232 247.388 27.736L246.824 28.504ZM257.205 26.944C257.317 26.768 257.465 26.624 257.649 26.512C257.833 26.4 258.029 26.344 258.237 26.344H259.905L256.749 30.976C256.557 31.272 256.357 31.516 256.149 31.708C255.941 31.892 255.685 32.036 255.381 32.14C255.765 32.244 256.089 32.408 256.353 32.632C256.617 32.848 256.853 33.128 257.061 33.472L260.253 38.5H258.765C258.381 38.5 258.085 38.436 257.877 38.308C257.669 38.18 257.489 37.996 257.337 37.756L254.973 33.976C254.597 33.352 254.033 33.04 253.281 33.04H251.973V38.512H249.825V26.344H251.973V31.6H253.125C253.765 31.6 254.265 31.328 254.625 30.784L257.205 26.944ZM266.902 26.152C267.79 26.152 268.59 26.3 269.302 26.596C270.014 26.892 270.622 27.312 271.126 27.856C271.63 28.4 272.014 29.06 272.278 29.836C272.55 30.604 272.686 31.464 272.686 32.416C272.686 33.376 272.55 34.24 272.278 35.008C272.014 35.776 271.63 36.432 271.126 36.976C270.622 37.52 270.014 37.94 269.302 38.236C268.59 38.524 267.79 38.668 266.902 38.668C266.006 38.668 265.198 38.524 264.478 38.236C263.766 37.94 263.158 37.52 262.654 36.976C262.15 36.432 261.762 35.776 261.49 35.008C261.226 34.24 261.094 33.376 261.094 32.416C261.094 31.464 261.226 30.604 261.49 29.836C261.762 29.06 262.15 28.4 262.654 27.856C263.158 27.312 263.766 26.892 264.478 26.596C265.198 26.3 266.006 26.152 266.902 26.152ZM266.902 37C268.102 37 268.998 36.6 269.59 35.8C270.182 34.992 270.478 33.868 270.478 32.428C270.478 30.98 270.182 29.852 269.59 29.044C268.998 28.236 268.102 27.832 266.902 27.832C266.294 27.832 265.762 27.936 265.306 28.144C264.858 28.352 264.482 28.652 264.178 29.044C263.882 29.436 263.658 29.92 263.506 30.496C263.362 31.064 263.29 31.708 263.29 32.428C263.29 33.868 263.586 34.992 264.178 35.8C264.778 36.6 265.686 37 266.902 37ZM288.943 26.308V38.5H287.011V30.424C287.011 30.2 287.023 29.952 287.047 29.68C287.079 29.4 287.119 29.14 287.167 28.9L282.943 36.304C282.879 36.424 282.795 36.52 282.691 36.592C282.587 36.664 282.467 36.7 282.331 36.7H282.091C281.955 36.7 281.831 36.664 281.719 36.592C281.615 36.52 281.531 36.424 281.467 36.304L277.171 28.876C277.211 29.116 277.247 29.38 277.279 29.668C277.311 29.948 277.327 30.2 277.327 30.424V38.5H275.395V26.308H277.111C277.263 26.308 277.411 26.344 277.555 26.416C277.699 26.48 277.823 26.604 277.927 26.788L281.719 33.124C281.903 33.492 282.067 33.88 282.211 34.288C282.347 33.864 282.507 33.476 282.691 33.124L286.411 26.788C286.515 26.596 286.639 26.468 286.783 26.404C286.927 26.34 287.075 26.308 287.227 26.308H288.943Z" fill="#0B1113"/>
</g>
<defs>
<filter id="filter0_ddd_18_44" x="0.6" y="0.8" width="309.1" height="59.5" filterUnits="userSpaceOnUse" color-interpolation-filters="sRGB">
<feFlood flood-opacity="0" result="BackgroundImageFix"/>
<feColorMatrix in="SourceAlpha" type="matrix" values="0 0 0 0 0 0 0 0 0 0 0 0 0 0 0 0 0 0 127 0" result="hardAlpha"/>
<feOffset dx="0.3" dy="0.5"/>
<feGaussianBlur stdDeviation="0.35"/>
<feComposite in2="hardAlpha" operator="out"/>
<feColorMatrix type="matrix" values="0 0 0 0 0.633333 0 0 0 0 0.633333 0 0 0 0 0.633333 0 0 0 0.23 0"/>
<feBlend mode="normal" in2="BackgroundImageFix" result="effect1_dropShadow_18_44"/>
<feColorMatrix in="SourceAlpha" type="matrix" values="0 0 0 0 0 0 0 0 0 0 0 0 0 0 0 0 0 0 127 0" result="hardAlpha"/>
<feMorphology radius="0.8" operator="erode" in="SourceAlpha" result="effect2_dropShadow_18_44"/>
<feOffset dx="0.6" dy="0.9"/>
<feGaussianBlur stdDeviation="0.65"/>
<feComposite in2="hardAlpha" operator="out"/>
<feColorMatrix type="matrix" values="0 0 0 0 0.631373 0 0 0 0 0.631373 0 0 0 0 0.631373 0 0 0 0.31 0"/>
<feBlend mode="normal" in2="effect1_dropShadow_18_44" result="effect2_dropShadow_18_44"/>
<feColorMatrix in="SourceAlpha" type="matrix" values="0 0 0 0 0 0 0 0 0 0 0 0 0 0 0 0 0 0 127 0" result="hardAlpha"/>
<feMorphology radius="1.7" operator="erode" in="SourceAlpha" result="effect3_dropShadow_18_44"/>
<feOffset dx="1.4" dy="2"/>
<feGaussianBlur stdDeviation="1.5"/>
<feComposite in2="hardAlpha" operator="out"/>
<feColorMatrix type="matrix" values="0 0 0 0 0.631373 0 0 0 0 0.631373 0 0 0 0 0.631373 0 0 0 0.38 0"/>
<feBlend mode="normal" in2="effect2_dropShadow_18_44" result="effect3_dropShadow_18_44"/>
<feBlend mode="normal" in="SourceGraphic" in2="effect3_dropShadow_18_44" result="shape"/>
</filter>
</defs>
</svg>
