<svg width="241" height="61" viewBox="0 0 241 61" fill="none" xmlns="http://www.w3.org/2000/svg">
<g filter="url(#filter0_ddd_18_62)">
<rect x="1" y="1" width="237" height="56" rx="6" fill="#27393F"/>
<path d="M41 16.3C38.65 14.85 35.95 14 33 14V16.3H41Z" fill="#ED4C5C"/>
<path d="M33 18.6H43.8C42.95 17.75 42 16.95 41 16.3H33V18.6Z" fill="white"/>
<path d="M33 20.9001H45.65C45.1 20.0501 44.5 19.3001 43.85 18.6001H33V20.9001Z" fill="#ED4C5C"/>
<path d="M33 23.1999H46.85C46.5 22.3999 46.1 21.5999 45.65 20.8999H33V23.1999Z" fill="white"/>
<path d="M33 25.5H47.6C47.4 24.7 47.15 23.95 46.85 23.2H33V25.5Z" fill="#ED4C5C"/>
<path d="M33 27.85H47.95C47.9 27.05 47.75 26.3 47.6 25.55H33V27.85" fill="white"/>
<path d="M47.95 27.8501H33V29.0001H18C18 29.4001 18 29.7501 18.05 30.1501H47.95C48 29.7501 48 29.4001 48 29.0001C48 28.6001 48 28.2001 47.95 27.8501" fill="#ED4C5C"/>
<path d="M18.4 32.4499H47.6C47.8 31.6999 47.9001 30.9499 47.9501 30.1499H18.05C18.1 30.8999 18.2 31.6999 18.4 32.4499Z" fill="white"/>
<path d="M19.1499 34.75H46.8499C47.1499 34 47.3999 33.25 47.5999 32.45H18.3999C18.5999 33.25 18.8499 34 19.1499 34.75Z" fill="#ED4C5C"/>
<path d="M20.3499 37.05H45.6499C46.0999 36.3 46.4999 35.55 46.8499 34.75H19.1499C19.4999 35.55 19.8999 36.3 20.3499 37.05" fill="white"/>
<path d="M22.1501 39.35H43.8501C44.5001 38.65 45.1501 37.85 45.6501 37.05H20.3501C20.8501 37.9 21.5001 38.65 22.1501 39.35Z" fill="#ED4C5C"/>
<path d="M24.9499 41.6501H41.0499C42.0999 41.0001 42.9999 40.2001 43.8499 39.3501H22.1499C22.9999 40.2501 23.9499 41.0001 24.9499 41.6501Z" fill="white"/>
<path d="M33 43.9999C35.95 43.9999 38.6999 43.1499 41.0499 41.6499H24.95C27.3 43.1499 30.05 43.9999 33 43.9999Z" fill="#ED4C5C"/>
<path d="M25 16.3C23.95 16.95 23 17.75 22.15 18.6C21.45 19.3 20.85 20.1 20.35 20.9C19.9 21.65 19.45 22.4 19.15 23.2C18.85 23.95 18.6 24.7 18.4 25.5C18.2 26.25 18.1 27 18.05 27.8C18 28.2 18 28.6 18 29H33V14C30.05 14 27.35 14.85 25 16.3Z" fill="#428BC1"/>
<path d="M29.5 14.5L29.75 15.25H30.5L29.9 15.75L30.1 16.5L29.5 16.05L28.9 16.5L29.1 15.75L28.5 15.25H29.25L29.5 14.5ZM31.5 17.5L31.75 18.25H32.5L31.9 18.75L32.1 19.5L31.5 19.05L30.9 19.5L31.1 18.75L30.5 18.25H31.25L31.5 17.5ZM27.5 17.5L27.75 18.25H28.5L27.9 18.75L28.1 19.5L27.5 19.05L26.9 19.5L27.1 18.75L26.5 18.25H27.25L27.5 17.5ZM29.5 20.5L29.75 21.25H30.5L29.9 21.75L30.1 22.5L29.5 22.05L28.9 22.5L29.1 21.75L28.5 21.25H29.25L29.5 20.5ZM25.5 20.5L25.75 21.25H26.5L25.9 21.75L26.1 22.5L25.5 22.05L24.9 22.5L25.1 21.75L24.5 21.25H25.25L25.5 20.5ZM21.5 20.5L21.75 21.25H22.5L21.9 21.75L22.1 22.5L21.5 22.05L20.9 22.5L21.1 21.75L20.5 21.25H21.25L21.5 20.5ZM31.5 23.5L31.75 24.25H32.5L31.9 24.75L32.1 25.5L31.5 25.05L30.9 25.5L31.1 24.75L30.5 24.25H31.25L31.5 23.5ZM27.5 23.5L27.75 24.25H28.5L27.9 24.75L28.1 25.5L27.5 25.05L26.9 25.5L27.1 24.75L26.5 24.25H27.25L27.5 23.5ZM23.5 23.5L23.75 24.25H24.5L23.9 24.75L24.1 25.5L23.5 25.05L22.9 25.5L23.1 24.75L22.5 24.25H23.25L23.5 23.5ZM29.5 26.5L29.75 27.25H30.5L29.9 27.75L30.1 28.5L29.5 28.05L28.9 28.5L29.1 27.75L28.5 27.25H29.25L29.5 26.5ZM25.5 26.5L25.75 27.25H26.5L25.9 27.75L26.1 28.5L25.5 28.05L24.9 28.5L25.1 27.75L24.5 27.25H25.25L25.5 26.5ZM21.5 26.5L21.75 27.25H22.5L21.9 27.75L22.1 28.5L21.5 28.05L20.9 28.5L21.1 27.75L20.5 27.25H21.25L21.5 26.5ZM22.9 19.5L23.5 19.05L24.1 19.5L23.85 18.75L24.45 18.25H23.7L23.5 17.5L23.25 18.25H22.55L23.15 18.7L22.9 19.5V19.5ZM18.9 25.5L19.5 25.05L20.1 25.5L19.85 24.75L20.45 24.25H19.75L19.5 23.5L19.25 24.25H18.75C18.75 24.3 18.7 24.35 18.7 24.4L19.1 24.7L18.9 25.5" fill="white"/>
<path d="M69.96 29.632C70.632 29.632 71.224 29.552 71.736 29.392C72.256 29.224 72.688 28.992 73.032 28.696C73.384 28.392 73.648 28.032 73.824 27.616C74 27.2 74.088 26.74 74.088 26.236C74.088 25.212 73.752 24.44 73.08 23.92C72.408 23.4 71.4 23.14 70.056 23.14H67.512V29.632H69.96ZM77.904 38.5H75.84C75.416 38.5 75.104 38.336 74.904 38.008L70.44 31.864C70.304 31.672 70.156 31.536 69.996 31.456C69.844 31.368 69.604 31.324 69.276 31.324H67.512V38.5H65.196V21.304H70.056C71.144 21.304 72.084 21.416 72.876 21.64C73.668 21.856 74.32 22.172 74.832 22.588C75.352 23.004 75.736 23.508 75.984 24.1C76.232 24.684 76.356 25.34 76.356 26.068C76.356 26.676 76.26 27.244 76.068 27.772C75.876 28.3 75.596 28.776 75.228 29.2C74.868 29.616 74.424 29.972 73.896 30.268C73.376 30.564 72.784 30.788 72.12 30.94C72.416 31.108 72.672 31.352 72.888 31.672L77.904 38.5ZM87.1014 31.096C87.1014 30.6 87.0294 30.148 86.8854 29.74C86.7494 29.324 86.5454 28.968 86.2734 28.672C86.0094 28.368 85.6854 28.136 85.3014 27.976C84.9174 27.808 84.4814 27.724 83.9934 27.724C82.9694 27.724 82.1574 28.024 81.5574 28.624C80.9654 29.216 80.5974 30.04 80.4534 31.096H87.1014ZM88.8294 36.796C88.5654 37.116 88.2494 37.396 87.8814 37.636C87.5134 37.868 87.1174 38.06 86.6934 38.212C86.2774 38.364 85.8454 38.476 85.3974 38.548C84.9494 38.628 84.5054 38.668 84.0654 38.668C83.2254 38.668 82.4494 38.528 81.7374 38.248C81.0334 37.96 80.4214 37.544 79.9014 37C79.3894 36.448 78.9894 35.768 78.7014 34.96C78.4134 34.152 78.2694 33.224 78.2694 32.176C78.2694 31.328 78.3974 30.536 78.6534 29.8C78.9174 29.064 79.2934 28.428 79.7814 27.892C80.2694 27.348 80.8654 26.924 81.5694 26.62C82.2734 26.308 83.0654 26.152 83.9454 26.152C84.6734 26.152 85.3454 26.276 85.9614 26.524C86.5854 26.764 87.1214 27.116 87.5694 27.58C88.0254 28.036 88.3814 28.604 88.6374 29.284C88.8934 29.956 89.0214 30.724 89.0214 31.588C89.0214 31.924 88.9854 32.148 88.9134 32.26C88.8414 32.372 88.7054 32.428 88.5054 32.428H80.3814C80.4054 33.196 80.5094 33.864 80.6934 34.432C80.8854 35 81.1494 35.476 81.4854 35.86C81.8214 36.236 82.2214 36.52 82.6854 36.712C83.1494 36.896 83.6694 36.988 84.2454 36.988C84.7814 36.988 85.2414 36.928 85.6254 36.808C86.0174 36.68 86.3534 36.544 86.6334 36.4C86.9134 36.256 87.1454 36.124 87.3294 36.004C87.5214 35.876 87.6854 35.812 87.8214 35.812C87.9974 35.812 88.1334 35.88 88.2294 36.016L88.8294 36.796ZM98.2331 33.028C97.2491 33.06 96.4091 33.14 95.7131 33.268C95.0251 33.388 94.4611 33.548 94.0211 33.748C93.5891 33.948 93.2731 34.184 93.0731 34.456C92.8811 34.728 92.7851 35.032 92.7851 35.368C92.7851 35.688 92.8371 35.964 92.9411 36.196C93.0451 36.428 93.1851 36.62 93.3611 36.772C93.5451 36.916 93.7571 37.024 93.9971 37.096C94.2451 37.16 94.5091 37.192 94.7891 37.192C95.1651 37.192 95.5091 37.156 95.8211 37.084C96.1331 37.004 96.4251 36.892 96.6971 36.748C96.9771 36.604 97.2411 36.432 97.4891 36.232C97.7451 36.032 97.9931 35.804 98.2331 35.548V33.028ZM91.3331 28.06C92.0051 27.412 92.7291 26.928 93.5051 26.608C94.2811 26.288 95.1411 26.128 96.0851 26.128C96.7651 26.128 97.3691 26.24 97.8971 26.464C98.4251 26.688 98.8691 27 99.2291 27.4C99.5891 27.8 99.8611 28.284 100.045 28.852C100.229 29.42 100.321 30.044 100.321 30.724V38.5H99.3731C99.1651 38.5 99.0051 38.468 98.8931 38.404C98.7811 38.332 98.6931 38.196 98.6291 37.996L98.3891 36.844C98.0691 37.14 97.7571 37.404 97.4531 37.636C97.1491 37.86 96.8291 38.052 96.4931 38.212C96.1571 38.364 95.7971 38.48 95.4131 38.56C95.0371 38.648 94.6171 38.692 94.1531 38.692C93.6811 38.692 93.2371 38.628 92.8211 38.5C92.4051 38.364 92.0411 38.164 91.7291 37.9C91.4251 37.636 91.1811 37.304 90.9971 36.904C90.8211 36.496 90.7331 36.016 90.7331 35.464C90.7331 34.984 90.8651 34.524 91.1291 34.084C91.3931 33.636 91.8211 33.24 92.4131 32.896C93.0051 32.552 93.7771 32.272 94.7291 32.056C95.6811 31.832 96.8491 31.704 98.2331 31.672V30.724C98.2331 29.78 98.0291 29.068 97.6211 28.588C97.2131 28.1 96.6171 27.856 95.8331 27.856C95.3051 27.856 94.8611 27.924 94.5011 28.06C94.1491 28.188 93.8411 28.336 93.5771 28.504C93.3211 28.664 93.0971 28.812 92.9051 28.948C92.7211 29.076 92.5371 29.14 92.3531 29.14C92.2091 29.14 92.0851 29.104 91.9811 29.032C91.8771 28.952 91.7891 28.856 91.7171 28.744L91.3331 28.06ZM111.495 29.236C111.095 28.7 110.663 28.328 110.199 28.12C109.735 27.904 109.215 27.796 108.639 27.796C107.511 27.796 106.643 28.2 106.035 29.008C105.427 29.816 105.123 30.968 105.123 32.464C105.123 33.256 105.191 33.936 105.327 34.504C105.463 35.064 105.663 35.528 105.927 35.896C106.191 36.256 106.515 36.52 106.899 36.688C107.283 36.856 107.719 36.94 108.207 36.94C108.911 36.94 109.523 36.78 110.043 36.46C110.571 36.14 111.055 35.688 111.495 35.104V29.236ZM113.631 20.824V38.5H112.359C112.055 38.5 111.863 38.352 111.783 38.056L111.591 36.58C111.071 37.204 110.479 37.708 109.815 38.092C109.151 38.476 108.383 38.668 107.511 38.668C106.815 38.668 106.183 38.536 105.615 38.272C105.047 38 104.563 37.604 104.163 37.084C103.763 36.564 103.455 35.916 103.239 35.14C103.023 34.364 102.915 33.472 102.915 32.464C102.915 31.568 103.035 30.736 103.275 29.968C103.515 29.192 103.859 28.52 104.307 27.952C104.755 27.384 105.303 26.94 105.951 26.62C106.607 26.292 107.343 26.128 108.159 26.128C108.903 26.128 109.539 26.256 110.067 26.512C110.603 26.76 111.079 27.108 111.495 27.556V20.824H113.631ZM125.401 26.344V38.5H123.265V26.344H125.401ZM125.857 22.528C125.857 22.736 125.813 22.932 125.725 23.116C125.645 23.292 125.533 23.452 125.389 23.596C125.253 23.732 125.089 23.84 124.897 23.92C124.713 24 124.517 24.04 124.309 24.04C124.101 24.04 123.905 24 123.721 23.92C123.545 23.84 123.389 23.732 123.253 23.596C123.117 23.452 123.009 23.292 122.929 23.116C122.849 22.932 122.809 22.736 122.809 22.528C122.809 22.32 122.849 22.124 122.929 21.94C123.009 21.748 123.117 21.584 123.253 21.448C123.389 21.304 123.545 21.192 123.721 21.112C123.905 21.032 124.101 20.992 124.309 20.992C124.517 20.992 124.713 21.032 124.897 21.112C125.089 21.192 125.253 21.304 125.389 21.448C125.533 21.584 125.645 21.748 125.725 21.94C125.813 22.124 125.857 22.32 125.857 22.528ZM130.927 28.108C131.191 27.812 131.471 27.544 131.767 27.304C132.063 27.064 132.375 26.86 132.703 26.692C133.039 26.516 133.391 26.384 133.759 26.296C134.135 26.2 134.539 26.152 134.971 26.152C135.635 26.152 136.219 26.264 136.723 26.488C137.235 26.704 137.659 27.016 137.995 27.424C138.339 27.824 138.599 28.308 138.775 28.876C138.951 29.444 139.039 30.072 139.039 30.76V38.5H136.891V30.76C136.891 29.84 136.679 29.128 136.255 28.624C135.839 28.112 135.203 27.856 134.347 27.856C133.715 27.856 133.123 28.008 132.571 28.312C132.027 28.616 131.523 29.028 131.059 29.548V38.5H128.911V26.344H130.195C130.499 26.344 130.687 26.492 130.759 26.788L130.927 28.108ZM159.546 36.604L159.534 38.5H148.938V21.304H159.534V23.2H151.266V28.912H157.962V30.736H151.266V36.604H159.546ZM163.974 28.108C164.238 27.812 164.518 27.544 164.814 27.304C165.11 27.064 165.422 26.86 165.75 26.692C166.086 26.516 166.438 26.384 166.806 26.296C167.182 26.2 167.586 26.152 168.018 26.152C168.682 26.152 169.266 26.264 169.77 26.488C170.282 26.704 170.706 27.016 171.042 27.424C171.386 27.824 171.646 28.308 171.822 28.876C171.998 29.444 172.086 30.072 172.086 30.76V38.5H169.938V30.76C169.938 29.84 169.726 29.128 169.302 28.624C168.886 28.112 168.25 27.856 167.394 27.856C166.762 27.856 166.17 28.008 165.618 28.312C165.074 28.616 164.57 29.028 164.106 29.548V38.5H161.958V26.344H163.242C163.546 26.344 163.734 26.492 163.806 26.788L163.974 28.108ZM179.576 32.56C180.008 32.56 180.388 32.5 180.716 32.38C181.044 32.26 181.32 32.092 181.544 31.876C181.768 31.66 181.936 31.404 182.048 31.108C182.16 30.804 182.216 30.472 182.216 30.112C182.216 29.368 181.988 28.776 181.532 28.336C181.084 27.896 180.432 27.676 179.576 27.676C178.712 27.676 178.052 27.896 177.596 28.336C177.148 28.776 176.924 29.368 176.924 30.112C176.924 30.472 176.98 30.804 177.092 31.108C177.212 31.404 177.384 31.66 177.608 31.876C177.832 32.092 178.108 32.26 178.436 32.38C178.764 32.5 179.144 32.56 179.576 32.56ZM183.428 39.16C183.428 38.864 183.344 38.624 183.176 38.44C183.008 38.256 182.78 38.112 182.492 38.008C182.212 37.904 181.884 37.832 181.508 37.792C181.132 37.744 180.732 37.708 180.308 37.684C179.892 37.66 179.468 37.636 179.036 37.612C178.604 37.588 178.188 37.548 177.788 37.492C177.34 37.7 176.972 37.964 176.684 38.284C176.404 38.596 176.264 38.964 176.264 39.388C176.264 39.66 176.332 39.912 176.468 40.144C176.612 40.384 176.828 40.588 177.116 40.756C177.404 40.932 177.764 41.068 178.196 41.164C178.636 41.268 179.152 41.32 179.744 41.32C180.32 41.32 180.836 41.268 181.292 41.164C181.748 41.06 182.132 40.912 182.444 40.72C182.764 40.528 183.008 40.3 183.176 40.036C183.344 39.772 183.428 39.48 183.428 39.16ZM185.6 26.824V27.616C185.6 27.88 185.432 28.048 185.096 28.12L183.716 28.3C183.988 28.828 184.124 29.412 184.124 30.052C184.124 30.644 184.008 31.184 183.776 31.672C183.552 32.152 183.24 32.564 182.84 32.908C182.44 33.252 181.96 33.516 181.4 33.7C180.84 33.884 180.232 33.976 179.576 33.976C179.008 33.976 178.472 33.908 177.968 33.772C177.712 33.932 177.516 34.104 177.38 34.288C177.244 34.464 177.176 34.644 177.176 34.828C177.176 35.116 177.292 35.336 177.524 35.488C177.764 35.632 178.076 35.736 178.46 35.8C178.844 35.864 179.28 35.904 179.768 35.92C180.264 35.936 180.768 35.964 181.28 36.004C181.8 36.036 182.304 36.096 182.792 36.184C183.288 36.272 183.728 36.416 184.112 36.616C184.496 36.816 184.804 37.092 185.036 37.444C185.276 37.796 185.396 38.252 185.396 38.812C185.396 39.332 185.264 39.836 185 40.324C184.744 40.812 184.372 41.244 183.884 41.62C183.396 42.004 182.796 42.308 182.084 42.532C181.38 42.764 180.584 42.88 179.696 42.88C178.808 42.88 178.032 42.792 177.368 42.616C176.704 42.44 176.152 42.204 175.712 41.908C175.272 41.612 174.94 41.268 174.716 40.876C174.5 40.492 174.392 40.088 174.392 39.664C174.392 39.064 174.58 38.556 174.956 38.14C175.332 37.724 175.848 37.392 176.504 37.144C176.144 36.984 175.856 36.772 175.64 36.508C175.432 36.236 175.328 35.872 175.328 35.416C175.328 35.24 175.36 35.06 175.424 34.876C175.488 34.684 175.584 34.496 175.712 34.312C175.848 34.12 176.012 33.94 176.204 33.772C176.396 33.604 176.62 33.456 176.876 33.328C176.276 32.992 175.808 32.548 175.472 31.996C175.136 31.436 174.968 30.788 174.968 30.052C174.968 29.46 175.08 28.924 175.304 28.444C175.536 27.956 175.856 27.544 176.264 27.208C176.672 26.864 177.156 26.6 177.716 26.416C178.284 26.232 178.904 26.14 179.576 26.14C180.104 26.14 180.596 26.2 181.052 26.32C181.508 26.432 181.924 26.6 182.3 26.824H185.6ZM190.017 20.824V38.5H187.881V20.824H190.017ZM195.737 26.344V38.5H193.601V26.344H195.737ZM196.193 22.528C196.193 22.736 196.149 22.932 196.061 23.116C195.981 23.292 195.869 23.452 195.725 23.596C195.589 23.732 195.425 23.84 195.233 23.92C195.049 24 194.853 24.04 194.645 24.04C194.437 24.04 194.241 24 194.057 23.92C193.881 23.84 193.725 23.732 193.589 23.596C193.453 23.452 193.345 23.292 193.265 23.116C193.185 22.932 193.145 22.736 193.145 22.528C193.145 22.32 193.185 22.124 193.265 21.94C193.345 21.748 193.453 21.584 193.589 21.448C193.725 21.304 193.881 21.192 194.057 21.112C194.241 21.032 194.437 20.992 194.645 20.992C194.853 20.992 195.049 21.032 195.233 21.112C195.425 21.192 195.589 21.304 195.725 21.448C195.869 21.584 195.981 21.748 196.061 21.94C196.149 22.124 196.193 22.32 196.193 22.528ZM206.327 28.348C206.231 28.524 206.083 28.612 205.883 28.612C205.763 28.612 205.627 28.568 205.475 28.48C205.323 28.392 205.135 28.296 204.911 28.192C204.695 28.08 204.435 27.98 204.131 27.892C203.827 27.796 203.467 27.748 203.051 27.748C202.691 27.748 202.367 27.796 202.079 27.892C201.791 27.98 201.543 28.104 201.335 28.264C201.135 28.424 200.979 28.612 200.867 28.828C200.763 29.036 200.711 29.264 200.711 29.512C200.711 29.824 200.799 30.084 200.975 30.292C201.159 30.5 201.399 30.68 201.695 30.832C201.991 30.984 202.327 31.12 202.703 31.24C203.079 31.352 203.463 31.476 203.855 31.612C204.255 31.74 204.643 31.884 205.019 32.044C205.395 32.204 205.731 32.404 206.027 32.644C206.323 32.884 206.559 33.18 206.735 33.532C206.919 33.876 207.011 34.292 207.011 34.78C207.011 35.34 206.911 35.86 206.711 36.34C206.511 36.812 206.215 37.224 205.823 37.576C205.431 37.92 204.951 38.192 204.383 38.392C203.815 38.592 203.159 38.692 202.415 38.692C201.567 38.692 200.799 38.556 200.111 38.284C199.423 38.004 198.839 37.648 198.359 37.216L198.863 36.4C198.927 36.296 199.003 36.216 199.091 36.16C199.179 36.104 199.291 36.076 199.427 36.076C199.571 36.076 199.723 36.132 199.883 36.244C200.043 36.356 200.235 36.48 200.459 36.616C200.691 36.752 200.971 36.876 201.299 36.988C201.627 37.1 202.035 37.156 202.523 37.156C202.939 37.156 203.303 37.104 203.615 37C203.927 36.888 204.187 36.74 204.395 36.556C204.603 36.372 204.755 36.16 204.851 35.92C204.955 35.68 205.007 35.424 205.007 35.152C205.007 34.816 204.915 34.54 204.731 34.324C204.555 34.1 204.319 33.912 204.023 33.76C203.727 33.6 203.387 33.464 203.003 33.352C202.627 33.232 202.239 33.108 201.839 32.98C201.447 32.852 201.059 32.708 200.675 32.548C200.299 32.38 199.963 32.172 199.667 31.924C199.371 31.676 199.131 31.372 198.947 31.012C198.771 30.644 198.683 30.2 198.683 29.68C198.683 29.216 198.779 28.772 198.971 28.348C199.163 27.916 199.443 27.54 199.811 27.22C200.179 26.892 200.631 26.632 201.167 26.44C201.703 26.248 202.315 26.152 203.003 26.152C203.803 26.152 204.519 26.28 205.151 26.536C205.791 26.784 206.343 27.128 206.807 27.568L206.327 28.348ZM211.778 27.964C212.298 27.412 212.874 26.972 213.506 26.644C214.138 26.316 214.866 26.152 215.69 26.152C216.354 26.152 216.938 26.264 217.442 26.488C217.954 26.704 218.378 27.016 218.714 27.424C219.058 27.824 219.318 28.308 219.494 28.876C219.67 29.444 219.758 30.072 219.758 30.76V38.5H217.61V30.76C217.61 29.84 217.398 29.128 216.974 28.624C216.558 28.112 215.922 27.856 215.066 27.856C214.434 27.856 213.842 28.008 213.29 28.312C212.746 28.616 212.242 29.028 211.778 29.548V38.5H209.63V20.824H211.778V27.964Z" fill="#F9FBFB"/>
</g>
<defs>
<filter id="filter0_ddd_18_62" x="0.6" y="0.8" width="240.1" height="59.5" filterUnits="userSpaceOnUse" color-interpolation-filters="sRGB">
<feFlood flood-opacity="0" result="BackgroundImageFix"/>
<feColorMatrix in="SourceAlpha" type="matrix" values="0 0 0 0 0 0 0 0 0 0 0 0 0 0 0 0 0 0 127 0" result="hardAlpha"/>
<feOffset dx="0.3" dy="0.5"/>
<feGaussianBlur stdDeviation="0.35"/>
<feComposite in2="hardAlpha" operator="out"/>
<feColorMatrix type="matrix" values="0 0 0 0 0.633333 0 0 0 0 0.633333 0 0 0 0 0.633333 0 0 0 0.23 0"/>
<feBlend mode="normal" in2="BackgroundImageFix" result="effect1_dropShadow_18_62"/>
<feColorMatrix in="SourceAlpha" type="matrix" values="0 0 0 0 0 0 0 0 0 0 0 0 0 0 0 0 0 0 127 0" result="hardAlpha"/>
<feMorphology radius="0.8" operator="erode" in="SourceAlpha" result="effect2_dropShadow_18_62"/>
<feOffset dx="0.6" dy="0.9"/>
<feGaussianBlur stdDeviation="0.65"/>
<feComposite in2="hardAlpha" operator="out"/>
<feColorMatrix type="matrix" values="0 0 0 0 0.631373 0 0 0 0 0.631373 0 0 0 0 0.631373 0 0 0 0.31 0"/>
<feBlend mode="normal" in2="effect1_dropShadow_18_62" result="effect2_dropShadow_18_62"/>
<feColorMatrix in="SourceAlpha" type="matrix" values="0 0 0 0 0 0 0 0 0 0 0 0 0 0 0 0 0 0 127 0" result="hardAlpha"/>
<feMorphology radius="1.7" operator="erode" in="SourceAlpha" result="effect3_dropShadow_18_62"/>
<feOffset dx="1.4" dy="2"/>
<feGaussianBlur stdDeviation="1.5"/>
<feComposite in2="hardAlpha" operator="out"/>
<feColorMatrix type="matrix" values="0 0 0 0 0.631373 0 0 0 0 0.631373 0 0 0 0 0.631373 0 0 0 0.38 0"/>
<feBlend mode="normal" in2="effect2_dropShadow_18_62" result="effect3_dropShadow_18_62"/>
<feBlend mode="normal" in="SourceGraphic" in2="effect3_dropShadow_18_62" result="shape"/>
</filter>
</defs>
</svg>
