<svg width="287" height="61" viewBox="0 0 287 61" fill="none" xmlns="http://www.w3.org/2000/svg">
<g filter="url(#filter0_ddd_18_80)">
<rect x="1" y="1" width="283" height="56" rx="6" fill="#27393F"/>
<path d="M32.9501 14C26.4501 14 20.9001 18.2 18.8501 24H47.1501C45.0501 18.2 39.5001 14 32.9501 14Z" fill="#F9F9F9"/>
<path d="M32.9501 44C39.5001 44 45.0501 39.8 47.1001 34H18.8501C20.9001 39.85 26.4501 44 32.9501 44Z" fill="#ED4C5C"/>
<path d="M18.85 24C18.3 25.55 18 27.25 18 29C18 30.75 18.3 32.45 18.85 34H47.15C47.7 32.45 48 30.75 48 29C48 27.25 47.7 25.55 47.15 24H18.85Z" fill="#428BC1"/>
<path d="M76.68 21.304V38.5H74.34V31.06C73.428 31.3 72.54 31.492 71.676 31.636C70.812 31.772 70 31.836 69.24 31.828C68.488 31.82 67.796 31.728 67.164 31.552C66.532 31.376 65.988 31.096 65.532 30.712C65.084 30.32 64.732 29.816 64.476 29.2C64.228 28.576 64.104 27.816 64.104 26.92V21.304H66.432V26.932C66.432 27.724 66.592 28.364 66.912 28.852C67.232 29.34 67.72 29.68 68.376 29.872C69.032 30.064 69.852 30.116 70.836 30.028C71.828 29.94 72.996 29.72 74.34 29.368V21.304H76.68ZM90.7997 26.344V38.5H88.6637V30.244C88.6637 30.084 88.6717 29.912 88.6877 29.728C88.7037 29.544 88.7237 29.36 88.7477 29.176C88.6757 29.336 88.6037 29.484 88.5317 29.62C88.4597 29.756 88.3837 29.88 88.3037 29.992L82.4357 37.972C82.3477 38.1 82.2357 38.224 82.0997 38.344C81.9717 38.456 81.8277 38.512 81.6677 38.512H80.3717V26.356H82.5197V34.612C82.5197 34.764 82.5117 34.932 82.4957 35.116C82.4797 35.292 82.4597 35.472 82.4357 35.656C82.5077 35.504 82.5797 35.364 82.6517 35.236C82.7237 35.1 82.7957 34.976 82.8677 34.864L88.7357 26.884C88.8237 26.756 88.9357 26.636 89.0717 26.524C89.2077 26.404 89.3557 26.344 89.5157 26.344H90.7997ZM104.28 27.976H99.6124V38.5H97.4764V27.976H92.8084V26.344H104.28V27.976ZM112.788 33.028C111.804 33.06 110.964 33.14 110.268 33.268C109.58 33.388 109.016 33.548 108.576 33.748C108.144 33.948 107.828 34.184 107.628 34.456C107.436 34.728 107.34 35.032 107.34 35.368C107.34 35.688 107.392 35.964 107.496 36.196C107.6 36.428 107.74 36.62 107.916 36.772C108.1 36.916 108.312 37.024 108.552 37.096C108.8 37.16 109.064 37.192 109.344 37.192C109.72 37.192 110.064 37.156 110.376 37.084C110.688 37.004 110.98 36.892 111.252 36.748C111.532 36.604 111.796 36.432 112.044 36.232C112.3 36.032 112.548 35.804 112.788 35.548V33.028ZM105.888 28.06C106.56 27.412 107.284 26.928 108.06 26.608C108.836 26.288 109.696 26.128 110.64 26.128C111.32 26.128 111.924 26.24 112.452 26.464C112.98 26.688 113.424 27 113.784 27.4C114.144 27.8 114.416 28.284 114.6 28.852C114.784 29.42 114.876 30.044 114.876 30.724V38.5H113.928C113.72 38.5 113.56 38.468 113.448 38.404C113.336 38.332 113.248 38.196 113.184 37.996L112.944 36.844C112.624 37.14 112.312 37.404 112.008 37.636C111.704 37.86 111.384 38.052 111.048 38.212C110.712 38.364 110.352 38.48 109.968 38.56C109.592 38.648 109.172 38.692 108.708 38.692C108.236 38.692 107.792 38.628 107.376 38.5C106.96 38.364 106.596 38.164 106.284 37.9C105.98 37.636 105.736 37.304 105.552 36.904C105.376 36.496 105.288 36.016 105.288 35.464C105.288 34.984 105.42 34.524 105.684 34.084C105.948 33.636 106.376 33.24 106.968 32.896C107.56 32.552 108.332 32.272 109.284 32.056C110.236 31.832 111.404 31.704 112.788 31.672V30.724C112.788 29.78 112.584 29.068 112.176 28.588C111.768 28.1 111.172 27.856 110.388 27.856C109.86 27.856 109.416 27.924 109.056 28.06C108.704 28.188 108.396 28.336 108.132 28.504C107.876 28.664 107.652 28.812 107.46 28.948C107.276 29.076 107.092 29.14 106.908 29.14C106.764 29.14 106.64 29.104 106.536 29.032C106.432 28.952 106.344 28.856 106.272 28.744L105.888 28.06ZM127.929 27.976H123.261V38.5H121.125V27.976H116.457V26.344H127.929V27.976ZM134.633 36.94C135.065 36.94 135.437 36.888 135.749 36.784C136.069 36.672 136.333 36.52 136.541 36.328C136.749 36.128 136.905 35.896 137.009 35.632C137.113 35.368 137.165 35.08 137.165 34.768C137.165 34.48 137.121 34.212 137.033 33.964C136.945 33.708 136.797 33.484 136.589 33.292C136.389 33.1 136.125 32.948 135.797 32.836C135.469 32.724 135.069 32.668 134.597 32.668H132.017V36.94H134.633ZM134.597 31.108C135.437 31.108 136.141 31.208 136.709 31.408C137.285 31.608 137.745 31.876 138.089 32.212C138.441 32.548 138.693 32.936 138.845 33.376C138.997 33.816 139.073 34.272 139.073 34.744C139.073 35.288 138.977 35.792 138.785 36.256C138.593 36.712 138.309 37.108 137.933 37.444C137.557 37.772 137.093 38.032 136.541 38.224C135.989 38.408 135.353 38.5 134.633 38.5H129.965V26.344H132.017V31.108H134.597ZM157.718 26.344V38.5H155.57V32.812H149.738V38.5H147.59V26.344H149.738V31.192H155.57V26.344H157.718ZM167.702 33.028C166.718 33.06 165.878 33.14 165.182 33.268C164.494 33.388 163.93 33.548 163.49 33.748C163.058 33.948 162.742 34.184 162.542 34.456C162.35 34.728 162.254 35.032 162.254 35.368C162.254 35.688 162.306 35.964 162.41 36.196C162.514 36.428 162.654 36.62 162.83 36.772C163.014 36.916 163.226 37.024 163.466 37.096C163.714 37.16 163.978 37.192 164.258 37.192C164.634 37.192 164.978 37.156 165.29 37.084C165.602 37.004 165.894 36.892 166.166 36.748C166.446 36.604 166.71 36.432 166.958 36.232C167.214 36.032 167.462 35.804 167.702 35.548V33.028ZM160.802 28.06C161.474 27.412 162.198 26.928 162.974 26.608C163.75 26.288 164.61 26.128 165.554 26.128C166.234 26.128 166.838 26.24 167.366 26.464C167.894 26.688 168.338 27 168.698 27.4C169.058 27.8 169.33 28.284 169.514 28.852C169.698 29.42 169.79 30.044 169.79 30.724V38.5H168.842C168.634 38.5 168.474 38.468 168.362 38.404C168.25 38.332 168.162 38.196 168.098 37.996L167.858 36.844C167.538 37.14 167.226 37.404 166.922 37.636C166.618 37.86 166.298 38.052 165.962 38.212C165.626 38.364 165.266 38.48 164.882 38.56C164.506 38.648 164.086 38.692 163.622 38.692C163.15 38.692 162.706 38.628 162.29 38.5C161.874 38.364 161.51 38.164 161.198 37.9C160.894 37.636 160.65 37.304 160.466 36.904C160.29 36.496 160.202 36.016 160.202 35.464C160.202 34.984 160.334 34.524 160.598 34.084C160.862 33.636 161.29 33.24 161.882 32.896C162.474 32.552 163.246 32.272 164.198 32.056C165.15 31.832 166.318 31.704 167.702 31.672V30.724C167.702 29.78 167.498 29.068 167.09 28.588C166.682 28.1 166.086 27.856 165.302 27.856C164.774 27.856 164.33 27.924 163.97 28.06C163.618 28.188 163.31 28.336 163.046 28.504C162.79 28.664 162.566 28.812 162.374 28.948C162.19 29.076 162.006 29.14 161.822 29.14C161.678 29.14 161.554 29.104 161.45 29.032C161.346 28.952 161.258 28.856 161.186 28.744L160.802 28.06ZM181.332 35.572C181.724 36.1 182.152 36.472 182.616 36.688C183.08 36.904 183.6 37.012 184.176 37.012C185.312 37.012 186.184 36.608 186.792 35.8C187.4 34.992 187.704 33.84 187.704 32.344C187.704 31.552 187.632 30.872 187.488 30.304C187.352 29.736 187.152 29.272 186.888 28.912C186.624 28.544 186.3 28.276 185.916 28.108C185.532 27.94 185.096 27.856 184.608 27.856C183.912 27.856 183.3 28.016 182.772 28.336C182.252 28.656 181.772 29.108 181.332 29.692V35.572ZM181.224 28.228C181.736 27.596 182.328 27.088 183 26.704C183.672 26.32 184.44 26.128 185.304 26.128C186.008 26.128 186.644 26.264 187.212 26.536C187.78 26.8 188.264 27.196 188.664 27.724C189.064 28.244 189.372 28.892 189.588 29.668C189.804 30.444 189.912 31.336 189.912 32.344C189.912 33.24 189.792 34.076 189.552 34.852C189.312 35.62 188.964 36.288 188.508 36.856C188.06 37.416 187.508 37.86 186.852 38.188C186.204 38.508 185.472 38.668 184.656 38.668C183.912 38.668 183.272 38.544 182.736 38.296C182.208 38.04 181.74 37.688 181.332 37.24V42.616H179.184V26.344H180.468C180.772 26.344 180.96 26.492 181.032 26.788L181.224 28.228ZM202.774 26.344L195.994 42.088C195.922 42.248 195.83 42.376 195.718 42.472C195.614 42.568 195.45 42.616 195.226 42.616H193.642L195.862 37.792L190.846 26.344H192.694C192.878 26.344 193.022 26.392 193.126 26.488C193.238 26.576 193.314 26.676 193.354 26.788L196.606 34.444C196.734 34.78 196.842 35.132 196.93 35.5C197.042 35.124 197.162 34.768 197.29 34.432L200.446 26.788C200.494 26.66 200.574 26.556 200.686 26.476C200.806 26.388 200.938 26.344 201.082 26.344H202.774ZM212.793 28.504C212.729 28.592 212.665 28.66 212.601 28.708C212.537 28.756 212.449 28.78 212.337 28.78C212.217 28.78 212.085 28.732 211.941 28.636C211.797 28.532 211.617 28.42 211.401 28.3C211.193 28.18 210.933 28.072 210.621 27.976C210.317 27.872 209.941 27.82 209.493 27.82C208.893 27.82 208.365 27.928 207.909 28.144C207.453 28.352 207.069 28.656 206.757 29.056C206.453 29.456 206.221 29.94 206.061 30.508C205.909 31.076 205.833 31.712 205.833 32.416C205.833 33.152 205.917 33.808 206.085 34.384C206.253 34.952 206.489 35.432 206.793 35.824C207.105 36.208 207.477 36.504 207.909 36.712C208.349 36.912 208.841 37.012 209.385 37.012C209.905 37.012 210.333 36.952 210.669 36.832C211.005 36.704 211.281 36.564 211.497 36.412C211.721 36.26 211.905 36.124 212.049 36.004C212.201 35.876 212.349 35.812 212.493 35.812C212.669 35.812 212.805 35.88 212.901 36.016L213.501 36.796C213.237 37.124 212.937 37.404 212.601 37.636C212.265 37.868 211.901 38.064 211.509 38.224C211.125 38.376 210.721 38.488 210.297 38.56C209.873 38.632 209.441 38.668 209.001 38.668C208.241 38.668 207.533 38.528 206.877 38.248C206.229 37.968 205.665 37.564 205.185 37.036C204.705 36.5 204.329 35.844 204.057 35.068C203.785 34.292 203.649 33.408 203.649 32.416C203.649 31.512 203.773 30.676 204.021 29.908C204.277 29.14 204.645 28.48 205.125 27.928C205.613 27.368 206.209 26.932 206.913 26.62C207.625 26.308 208.441 26.152 209.361 26.152C210.217 26.152 210.969 26.292 211.617 26.572C212.273 26.844 212.853 27.232 213.357 27.736L212.793 28.504ZM224.043 28.504C223.979 28.592 223.915 28.66 223.851 28.708C223.787 28.756 223.699 28.78 223.587 28.78C223.467 28.78 223.335 28.732 223.191 28.636C223.047 28.532 222.867 28.42 222.651 28.3C222.443 28.18 222.183 28.072 221.871 27.976C221.567 27.872 221.191 27.82 220.743 27.82C220.143 27.82 219.615 27.928 219.159 28.144C218.703 28.352 218.319 28.656 218.007 29.056C217.703 29.456 217.471 29.94 217.311 30.508C217.159 31.076 217.083 31.712 217.083 32.416C217.083 33.152 217.167 33.808 217.335 34.384C217.503 34.952 217.739 35.432 218.043 35.824C218.355 36.208 218.727 36.504 219.159 36.712C219.599 36.912 220.091 37.012 220.635 37.012C221.155 37.012 221.583 36.952 221.919 36.832C222.255 36.704 222.531 36.564 222.747 36.412C222.971 36.26 223.155 36.124 223.299 36.004C223.451 35.876 223.599 35.812 223.743 35.812C223.919 35.812 224.055 35.88 224.151 36.016L224.751 36.796C224.487 37.124 224.187 37.404 223.851 37.636C223.515 37.868 223.151 38.064 222.759 38.224C222.375 38.376 221.971 38.488 221.547 38.56C221.123 38.632 220.691 38.668 220.251 38.668C219.491 38.668 218.783 38.528 218.127 38.248C217.479 37.968 216.915 37.564 216.435 37.036C215.955 36.5 215.579 35.844 215.307 35.068C215.035 34.292 214.899 33.408 214.899 32.416C214.899 31.512 215.023 30.676 215.271 29.908C215.527 29.14 215.895 28.48 216.375 27.928C216.863 27.368 217.459 26.932 218.163 26.62C218.875 26.308 219.691 26.152 220.611 26.152C221.467 26.152 222.219 26.292 222.867 26.572C223.523 26.844 224.103 27.232 224.607 27.736L224.043 28.504ZM234.424 26.944C234.536 26.768 234.684 26.624 234.868 26.512C235.052 26.4 235.248 26.344 235.456 26.344H237.124L233.968 30.976C233.776 31.272 233.576 31.516 233.368 31.708C233.16 31.892 232.904 32.036 232.6 32.14C232.984 32.244 233.308 32.408 233.572 32.632C233.836 32.848 234.072 33.128 234.28 33.472L237.472 38.5H235.984C235.6 38.5 235.304 38.436 235.096 38.308C234.888 38.18 234.708 37.996 234.556 37.756L232.192 33.976C231.816 33.352 231.252 33.04 230.5 33.04H229.192V38.512H227.044V26.344H229.192V31.6H230.344C230.984 31.6 231.484 31.328 231.844 30.784L234.424 26.944ZM244.121 26.152C245.009 26.152 245.809 26.3 246.521 26.596C247.233 26.892 247.841 27.312 248.345 27.856C248.849 28.4 249.233 29.06 249.497 29.836C249.769 30.604 249.905 31.464 249.905 32.416C249.905 33.376 249.769 34.24 249.497 35.008C249.233 35.776 248.849 36.432 248.345 36.976C247.841 37.52 247.233 37.94 246.521 38.236C245.809 38.524 245.009 38.668 244.121 38.668C243.225 38.668 242.417 38.524 241.697 38.236C240.985 37.94 240.377 37.52 239.873 36.976C239.369 36.432 238.981 35.776 238.709 35.008C238.445 34.24 238.313 33.376 238.313 32.416C238.313 31.464 238.445 30.604 238.709 29.836C238.981 29.06 239.369 28.4 239.873 27.856C240.377 27.312 240.985 26.892 241.697 26.596C242.417 26.3 243.225 26.152 244.121 26.152ZM244.121 37C245.321 37 246.217 36.6 246.809 35.8C247.401 34.992 247.697 33.868 247.697 32.428C247.697 30.98 247.401 29.852 246.809 29.044C246.217 28.236 245.321 27.832 244.121 27.832C243.513 27.832 242.981 27.936 242.525 28.144C242.077 28.352 241.701 28.652 241.397 29.044C241.101 29.436 240.877 29.92 240.725 30.496C240.581 31.064 240.509 31.708 240.509 32.428C240.509 33.868 240.805 34.992 241.397 35.8C241.997 36.6 242.905 37 244.121 37ZM266.162 26.308V38.5H264.23V30.424C264.23 30.2 264.242 29.952 264.266 29.68C264.298 29.4 264.338 29.14 264.386 28.9L260.162 36.304C260.098 36.424 260.014 36.52 259.91 36.592C259.806 36.664 259.686 36.7 259.55 36.7H259.31C259.174 36.7 259.05 36.664 258.938 36.592C258.834 36.52 258.75 36.424 258.686 36.304L254.39 28.876C254.43 29.116 254.466 29.38 254.498 29.668C254.53 29.948 254.546 30.2 254.546 30.424V38.5H252.614V26.308H254.33C254.482 26.308 254.63 26.344 254.774 26.416C254.918 26.48 255.042 26.604 255.146 26.788L258.938 33.124C259.122 33.492 259.286 33.88 259.43 34.288C259.566 33.864 259.726 33.476 259.91 33.124L263.63 26.788C263.734 26.596 263.858 26.468 264.002 26.404C264.146 26.34 264.294 26.308 264.446 26.308H266.162Z" fill="#F9FBFB"/>
</g>
<defs>
<filter id="filter0_ddd_18_80" x="0.6" y="0.8" width="286.1" height="59.5" filterUnits="userSpaceOnUse" color-interpolation-filters="sRGB">
<feFlood flood-opacity="0" result="BackgroundImageFix"/>
<feColorMatrix in="SourceAlpha" type="matrix" values="0 0 0 0 0 0 0 0 0 0 0 0 0 0 0 0 0 0 127 0" result="hardAlpha"/>
<feOffset dx="0.3" dy="0.5"/>
<feGaussianBlur stdDeviation="0.35"/>
<feComposite in2="hardAlpha" operator="out"/>
<feColorMatrix type="matrix" values="0 0 0 0 0.633333 0 0 0 0 0.633333 0 0 0 0 0.633333 0 0 0 0.23 0"/>
<feBlend mode="normal" in2="BackgroundImageFix" result="effect1_dropShadow_18_80"/>
<feColorMatrix in="SourceAlpha" type="matrix" values="0 0 0 0 0 0 0 0 0 0 0 0 0 0 0 0 0 0 127 0" result="hardAlpha"/>
<feMorphology radius="0.8" operator="erode" in="SourceAlpha" result="effect2_dropShadow_18_80"/>
<feOffset dx="0.6" dy="0.9"/>
<feGaussianBlur stdDeviation="0.65"/>
<feComposite in2="hardAlpha" operator="out"/>
<feColorMatrix type="matrix" values="0 0 0 0 0.631373 0 0 0 0 0.631373 0 0 0 0 0.631373 0 0 0 0.31 0"/>
<feBlend mode="normal" in2="effect1_dropShadow_18_80" result="effect2_dropShadow_18_80"/>
<feColorMatrix in="SourceAlpha" type="matrix" values="0 0 0 0 0 0 0 0 0 0 0 0 0 0 0 0 0 0 127 0" result="hardAlpha"/>
<feMorphology radius="1.7" operator="erode" in="SourceAlpha" result="effect3_dropShadow_18_80"/>
<feOffset dx="1.4" dy="2"/>
<feGaussianBlur stdDeviation="1.5"/>
<feComposite in2="hardAlpha" operator="out"/>
<feColorMatrix type="matrix" values="0 0 0 0 0.631373 0 0 0 0 0.631373 0 0 0 0 0.631373 0 0 0 0.38 0"/>
<feBlend mode="normal" in2="effect2_dropShadow_18_80" result="effect3_dropShadow_18_80"/>
<feBlend mode="normal" in="SourceGraphic" in2="effect3_dropShadow_18_80" result="shape"/>
</filter>
</defs>
</svg>
