<svg width="170" height="61" viewBox="0 0 170 61" fill="none" xmlns="http://www.w3.org/2000/svg">
<g filter="url(#filter0_ddd_19_92)">
<rect x="1" y="1" width="166" height="56" rx="6" fill="#27393F"/>
<rect x="35.05" y="13.9951" width="18.2" height="24.1" transform="rotate(45 35.05 13.9951)" fill="white"/>
<path d="M48 26.95L45.1 24.05L41.85 27.3C41.7 27.45 41.45 27.45 41.35 27.3L34.7 20.65C34.55 20.5 34.55 20.25 34.7 20.15L37.95 16.9L35.05 14L18 31.05L20.9 33.95L24.05 30.8C24.2 30.65 24.45 30.65 24.55 30.8L31.15 37.4C31.3 37.55 31.3 37.8 31.15 37.9L28 41.05L30.9 43.95L48 26.95ZM44.15 26.95C44 26.8 44 26.6 44.15 26.5L45.15 25.5C45.3 25.35 45.5 25.35 45.6 25.5L46.6 26.5C46.75 26.65 46.75 26.85 46.6 26.95L45.6 27.95C45.45 28.1 45.25 28.1 45.15 27.95L44.15 26.95ZM34.05 16.85C33.9 16.7 33.9 16.5 34.05 16.4L35.05 15.4C35.2 15.25 35.4 15.25 35.5 15.4L36.5 16.4C36.65 16.55 36.65 16.75 36.5 16.85L35.5 17.85C35.35 18 35.15 18 35.05 17.85L34.05 16.85V16.85ZM21.8 31.05C21.95 31.2 21.95 31.4 21.8 31.5L20.8 32.5C20.65 32.65 20.45 32.65 20.35 32.5L19.35 31.5C19.2 31.35 19.2 31.15 19.35 31.05L20.35 30.05C20.5 29.9 20.7 29.9 20.8 30.05L21.8 31.05ZM37.8 35.25C37.95 35.4 37.95 35.6 37.8 35.7L36.8 36.7C36.65 36.85 36.45 36.85 36.35 36.7L35.35 35.7C35.2 35.55 35.2 35.35 35.35 35.25L36.35 34.25C36.5 34.1 36.7 34.1 36.8 34.25L37.8 35.25ZM40.7 32.3C40.85 32.45 40.85 32.65 40.7 32.75L39.7 33.75C39.55 33.9 39.35 33.9 39.25 33.75L38.25 32.75C38.1 32.6 38.1 32.4 38.25 32.3L39.25 31.3C39.4 31.15 39.6 31.15 39.7 31.3L40.7 32.3ZM31.1 19.75C30.95 19.6 30.95 19.4 31.1 19.3L32.1 18.3C32.25 18.15 32.45 18.15 32.55 18.3L33.55 19.3C33.7 19.45 33.7 19.65 33.55 19.75L32.55 20.75C32.4 20.9 32.2 20.9 32.1 20.75L31.1 19.75V19.75ZM41.2 29.85C41.05 29.7 41.05 29.5 41.2 29.4L42.2 28.4C42.35 28.25 42.55 28.25 42.65 28.4L43.65 29.4C43.8 29.55 43.8 29.75 43.65 29.85L42.65 30.85C42.5 31 42.3 31 42.2 30.85L41.2 29.85ZM28.2 22.7C28.05 22.55 28.05 22.35 28.2 22.25L29.2 21.25C29.35 21.1 29.55 21.1 29.65 21.25L30.65 22.25C30.8 22.4 30.8 22.6 30.65 22.7L29.65 23.7C29.5 23.85 29.3 23.85 29.2 23.7L28.2 22.7ZM25.25 25.65C25.1 25.5 25.1 25.3 25.25 25.2L26.25 24.2C26.4 24.05 26.6 24.05 26.7 24.2L27.7 25.2C27.85 25.35 27.85 25.55 27.7 25.65L26.7 26.65C26.55 26.8 26.35 26.8 26.25 26.65L25.25 25.65ZM26.15 29.25C26 29.1 26 28.85 26.15 28.75L32.75 22.15C32.9 22 33.15 22 33.25 22.15L39.85 28.75C40 28.9 40 29.15 39.85 29.25L33.25 35.85C33.1 36 32.85 36 32.75 35.85L26.15 29.25V29.25ZM22.3 28.55C22.15 28.4 22.15 28.2 22.3 28.1L23.3 27.1C23.45 26.95 23.65 26.95 23.75 27.1L24.75 28.1C24.9 28.25 24.9 28.45 24.75 28.55L23.75 29.55C23.6 29.7 23.4 29.7 23.3 29.55L22.3 28.55ZM32.4 38.65C32.25 38.5 32.25 38.3 32.4 38.2L33.4 37.2C33.55 37.05 33.75 37.05 33.85 37.2L34.85 38.2C35 38.35 35 38.55 34.85 38.65L33.85 39.65C33.7 39.8 33.5 39.8 33.4 39.65L32.4 38.65V38.65ZM29.45 41.6C29.3 41.45 29.3 41.25 29.45 41.15L30.45 40.15C30.6 40 30.8 40 30.9 40.15L31.9 41.15C32.05 41.3 32.05 41.5 31.9 41.6L30.9 42.6C30.75 42.75 30.55 42.75 30.45 42.6L29.45 41.6Z" fill="#3E4347"/>
<path d="M77.268 34.948C77.396 34.948 77.508 35 77.604 35.104L78.528 36.1C77.824 36.916 76.968 37.552 75.96 38.008C74.96 38.464 73.748 38.692 72.324 38.692C71.092 38.692 69.972 38.48 68.964 38.056C67.956 37.624 67.096 37.024 66.384 36.256C65.672 35.48 65.12 34.552 64.728 33.472C64.336 32.392 64.14 31.204 64.14 29.908C64.14 28.612 64.344 27.424 64.752 26.344C65.16 25.264 65.732 24.336 66.468 23.56C67.212 22.784 68.1 22.184 69.132 21.76C70.164 21.328 71.304 21.112 72.552 21.112C73.776 21.112 74.856 21.308 75.792 21.7C76.728 22.092 77.552 22.624 78.264 23.296L77.496 24.364C77.448 24.444 77.384 24.512 77.304 24.568C77.232 24.616 77.132 24.64 77.004 24.64C76.86 24.64 76.684 24.564 76.476 24.412C76.268 24.252 75.996 24.076 75.66 23.884C75.324 23.692 74.904 23.52 74.4 23.368C73.896 23.208 73.276 23.128 72.54 23.128C71.652 23.128 70.84 23.284 70.104 23.596C69.368 23.9 68.732 24.344 68.196 24.928C67.668 25.512 67.256 26.224 66.96 27.064C66.664 27.904 66.516 28.852 66.516 29.908C66.516 30.98 66.668 31.936 66.972 32.776C67.284 33.616 67.704 34.328 68.232 34.912C68.768 35.488 69.396 35.928 70.116 36.232C70.844 36.536 71.628 36.688 72.468 36.688C72.98 36.688 73.44 36.66 73.848 36.604C74.264 36.54 74.644 36.444 74.988 36.316C75.34 36.188 75.664 36.028 75.96 35.836C76.264 35.636 76.564 35.4 76.86 35.128C76.996 35.008 77.132 34.948 77.268 34.948ZM91.3793 38.5H89.2433V28.024H85.4033C85.3073 29.568 85.1633 30.904 84.9713 32.032C84.7793 33.152 84.5473 34.108 84.2753 34.9C84.0113 35.684 83.7113 36.324 83.3753 36.82C83.0473 37.308 82.6993 37.688 82.3313 37.96C81.9713 38.232 81.5953 38.416 81.2033 38.512C80.8193 38.608 80.4353 38.656 80.0513 38.656C79.3713 38.656 79.0312 38.548 79.0312 38.332V36.976H79.6553C79.9273 36.976 80.2033 36.928 80.4833 36.832C80.7633 36.736 81.0353 36.552 81.2993 36.28C81.5713 36.008 81.8313 35.628 82.0793 35.14C82.3273 34.644 82.5513 34.004 82.7513 33.22C82.9593 32.428 83.1353 31.472 83.2793 30.352C83.4313 29.224 83.5473 27.888 83.6273 26.344H91.3793V38.5ZM101.35 33.028C100.366 33.06 99.5263 33.14 98.8303 33.268C98.1423 33.388 97.5783 33.548 97.1383 33.748C96.7063 33.948 96.3903 34.184 96.1903 34.456C95.9983 34.728 95.9023 35.032 95.9023 35.368C95.9023 35.688 95.9543 35.964 96.0583 36.196C96.1623 36.428 96.3023 36.62 96.4783 36.772C96.6623 36.916 96.8743 37.024 97.1143 37.096C97.3623 37.16 97.6263 37.192 97.9063 37.192C98.2823 37.192 98.6263 37.156 98.9383 37.084C99.2503 37.004 99.5423 36.892 99.8143 36.748C100.094 36.604 100.358 36.432 100.606 36.232C100.862 36.032 101.11 35.804 101.35 35.548V33.028ZM94.4503 28.06C95.1223 27.412 95.8463 26.928 96.6223 26.608C97.3983 26.288 98.2583 26.128 99.2023 26.128C99.8823 26.128 100.486 26.24 101.014 26.464C101.542 26.688 101.986 27 102.346 27.4C102.706 27.8 102.978 28.284 103.162 28.852C103.346 29.42 103.438 30.044 103.438 30.724V38.5H102.49C102.282 38.5 102.122 38.468 102.01 38.404C101.898 38.332 101.81 38.196 101.746 37.996L101.506 36.844C101.186 37.14 100.874 37.404 100.57 37.636C100.266 37.86 99.9463 38.052 99.6103 38.212C99.2743 38.364 98.9143 38.48 98.5303 38.56C98.1543 38.648 97.7343 38.692 97.2703 38.692C96.7983 38.692 96.3543 38.628 95.9383 38.5C95.5223 38.364 95.1583 38.164 94.8463 37.9C94.5423 37.636 94.2983 37.304 94.1143 36.904C93.9383 36.496 93.8503 36.016 93.8503 35.464C93.8503 34.984 93.9823 34.524 94.2463 34.084C94.5103 33.636 94.9383 33.24 95.5303 32.896C96.1223 32.552 96.8943 32.272 97.8463 32.056C98.7983 31.832 99.9663 31.704 101.35 31.672V30.724C101.35 29.78 101.146 29.068 100.738 28.588C100.33 28.1 99.7343 27.856 98.9503 27.856C98.4223 27.856 97.9783 27.924 97.6183 28.06C97.2663 28.188 96.9583 28.336 96.6943 28.504C96.4383 28.664 96.2143 28.812 96.0223 28.948C95.8383 29.076 95.6543 29.14 95.4703 29.14C95.3263 29.14 95.2023 29.104 95.0983 29.032C94.9943 28.952 94.9063 28.856 94.8343 28.744L94.4503 28.06ZM117.12 26.344V38.5H114.984V30.244C114.984 30.084 114.992 29.912 115.008 29.728C115.024 29.544 115.044 29.36 115.068 29.176C114.996 29.336 114.924 29.484 114.852 29.62C114.78 29.756 114.704 29.88 114.624 29.992L108.756 37.972C108.668 38.1 108.556 38.224 108.42 38.344C108.292 38.456 108.148 38.512 107.988 38.512H106.692V26.356H108.84V34.612C108.84 34.764 108.832 34.932 108.816 35.116C108.8 35.292 108.78 35.472 108.756 35.656C108.828 35.504 108.9 35.364 108.972 35.236C109.044 35.1 109.116 34.976 109.188 34.864L115.056 26.884C115.144 26.756 115.256 26.636 115.392 26.524C115.528 26.404 115.676 26.344 115.836 26.344H117.12ZM112.044 23.404C112.372 23.404 112.648 23.368 112.872 23.296C113.096 23.216 113.276 23.092 113.412 22.924C113.556 22.756 113.66 22.54 113.724 22.276C113.788 22.012 113.82 21.688 113.82 21.304H115.068C115.22 21.304 115.336 21.372 115.416 21.508C115.496 21.644 115.536 21.792 115.536 21.952C115.536 22.352 115.456 22.712 115.296 23.032C115.136 23.352 114.904 23.628 114.6 23.86C114.304 24.084 113.94 24.256 113.508 24.376C113.076 24.496 112.588 24.556 112.044 24.556C111.5 24.556 111.012 24.496 110.58 24.376C110.148 24.256 109.78 24.084 109.476 23.86C109.18 23.628 108.952 23.352 108.792 23.032C108.632 22.712 108.552 22.352 108.552 21.952C108.552 21.792 108.592 21.644 108.672 21.508C108.752 21.372 108.868 21.304 109.02 21.304H110.268C110.268 21.688 110.3 22.012 110.364 22.276C110.428 22.54 110.528 22.756 110.664 22.924C110.808 23.092 110.992 23.216 111.216 23.296C111.44 23.368 111.716 23.404 112.044 23.404ZM128.873 36.94V28.024H125.021C124.941 29.272 124.829 30.376 124.685 31.336C124.541 32.296 124.373 33.14 124.181 33.868C123.997 34.588 123.789 35.2 123.557 35.704C123.333 36.208 123.097 36.62 122.849 36.94H128.873ZM133.169 36.88V42.028C133.169 42.236 133.109 42.396 132.989 42.508C132.877 42.628 132.729 42.688 132.545 42.688H131.237V38.5H121.013V42.076C121.013 42.228 120.965 42.368 120.869 42.496C120.781 42.624 120.633 42.688 120.425 42.688H119.081V36.94H119.477C119.757 36.94 120.033 36.892 120.305 36.796C120.585 36.7 120.853 36.52 121.109 36.256C121.365 35.984 121.605 35.604 121.829 35.116C122.061 34.628 122.269 33.992 122.453 33.208C122.637 32.424 122.797 31.472 122.933 30.352C123.069 29.224 123.177 27.888 123.257 26.344H130.949V36.88H133.169ZM140.001 36.94C140.433 36.94 140.805 36.888 141.117 36.784C141.437 36.672 141.701 36.52 141.909 36.328C142.117 36.128 142.273 35.896 142.377 35.632C142.481 35.368 142.533 35.08 142.533 34.768C142.533 34.48 142.489 34.212 142.401 33.964C142.313 33.708 142.165 33.484 141.957 33.292C141.757 33.1 141.493 32.948 141.165 32.836C140.837 32.724 140.437 32.668 139.965 32.668H137.373V36.94H140.001ZM139.965 31.108C140.805 31.108 141.509 31.208 142.077 31.408C142.653 31.608 143.113 31.876 143.457 32.212C143.809 32.548 144.061 32.936 144.213 33.376C144.365 33.816 144.441 34.272 144.441 34.744C144.441 35.288 144.345 35.792 144.153 36.256C143.961 36.712 143.677 37.108 143.301 37.444C142.925 37.772 142.461 38.032 141.909 38.224C141.357 38.408 140.721 38.5 140.001 38.5H135.333V26.344H137.373V31.108H139.965ZM149.253 26.344V38.5H147.117V26.344H149.253Z" fill="#F9FBFB"/>
</g>
<defs>
<filter id="filter0_ddd_19_92" x="0.6" y="0.8" width="169.1" height="59.5" filterUnits="userSpaceOnUse" color-interpolation-filters="sRGB">
<feFlood flood-opacity="0" result="BackgroundImageFix"/>
<feColorMatrix in="SourceAlpha" type="matrix" values="0 0 0 0 0 0 0 0 0 0 0 0 0 0 0 0 0 0 127 0" result="hardAlpha"/>
<feOffset dx="0.3" dy="0.5"/>
<feGaussianBlur stdDeviation="0.35"/>
<feComposite in2="hardAlpha" operator="out"/>
<feColorMatrix type="matrix" values="0 0 0 0 0.633333 0 0 0 0 0.633333 0 0 0 0 0.633333 0 0 0 0.23 0"/>
<feBlend mode="normal" in2="BackgroundImageFix" result="effect1_dropShadow_19_92"/>
<feColorMatrix in="SourceAlpha" type="matrix" values="0 0 0 0 0 0 0 0 0 0 0 0 0 0 0 0 0 0 127 0" result="hardAlpha"/>
<feMorphology radius="0.8" operator="erode" in="SourceAlpha" result="effect2_dropShadow_19_92"/>
<feOffset dx="0.6" dy="0.9"/>
<feGaussianBlur stdDeviation="0.65"/>
<feComposite in2="hardAlpha" operator="out"/>
<feColorMatrix type="matrix" values="0 0 0 0 0.631373 0 0 0 0 0.631373 0 0 0 0 0.631373 0 0 0 0.31 0"/>
<feBlend mode="normal" in2="effect1_dropShadow_19_92" result="effect2_dropShadow_19_92"/>
<feColorMatrix in="SourceAlpha" type="matrix" values="0 0 0 0 0 0 0 0 0 0 0 0 0 0 0 0 0 0 127 0" result="hardAlpha"/>
<feMorphology radius="1.7" operator="erode" in="SourceAlpha" result="effect3_dropShadow_19_92"/>
<feOffset dx="1.4" dy="2"/>
<feGaussianBlur stdDeviation="1.5"/>
<feComposite in2="hardAlpha" operator="out"/>
<feColorMatrix type="matrix" values="0 0 0 0 0.631373 0 0 0 0 0.631373 0 0 0 0 0.631373 0 0 0 0.38 0"/>
<feBlend mode="normal" in2="effect2_dropShadow_19_92" result="effect3_dropShadow_19_92"/>
<feBlend mode="normal" in="SourceGraphic" in2="effect3_dropShadow_19_92" result="shape"/>
</filter>
</defs>
</svg>
