<svg width="242" height="61" viewBox="0 0 242 61" fill="none" xmlns="http://www.w3.org/2000/svg">
<g filter="url(#filter0_ddd_20_114)">
<rect x="1" y="1" width="238" height="56" rx="6" fill="#27393F"/>
<rect x="35.05" y="13.9951" width="18.2" height="24.1" transform="rotate(45 35.05 13.9951)" fill="white"/>
<path d="M48 26.95L45.1 24.05L41.85 27.3C41.7 27.45 41.45 27.45 41.35 27.3L34.7 20.65C34.55 20.5 34.55 20.25 34.7 20.15L37.95 16.9L35.05 14L18 31.05L20.9 33.95L24.05 30.8C24.2 30.65 24.45 30.65 24.55 30.8L31.15 37.4C31.3 37.55 31.3 37.8 31.15 37.9L28 41.05L30.9 43.95L48 26.95ZM44.15 26.95C44 26.8 44 26.6 44.15 26.5L45.15 25.5C45.3 25.35 45.5 25.35 45.6 25.5L46.6 26.5C46.75 26.65 46.75 26.85 46.6 26.95L45.6 27.95C45.45 28.1 45.25 28.1 45.15 27.95L44.15 26.95ZM34.05 16.85C33.9 16.7 33.9 16.5 34.05 16.4L35.05 15.4C35.2 15.25 35.4 15.25 35.5 15.4L36.5 16.4C36.65 16.55 36.65 16.75 36.5 16.85L35.5 17.85C35.35 18 35.15 18 35.05 17.85L34.05 16.85V16.85ZM21.8 31.05C21.95 31.2 21.95 31.4 21.8 31.5L20.8 32.5C20.65 32.65 20.45 32.65 20.35 32.5L19.35 31.5C19.2 31.35 19.2 31.15 19.35 31.05L20.35 30.05C20.5 29.9 20.7 29.9 20.8 30.05L21.8 31.05ZM37.8 35.25C37.95 35.4 37.95 35.6 37.8 35.7L36.8 36.7C36.65 36.85 36.45 36.85 36.35 36.7L35.35 35.7C35.2 35.55 35.2 35.35 35.35 35.25L36.35 34.25C36.5 34.1 36.7 34.1 36.8 34.25L37.8 35.25ZM40.7 32.3C40.85 32.45 40.85 32.65 40.7 32.75L39.7 33.75C39.55 33.9 39.35 33.9 39.25 33.75L38.25 32.75C38.1 32.6 38.1 32.4 38.25 32.3L39.25 31.3C39.4 31.15 39.6 31.15 39.7 31.3L40.7 32.3ZM31.1 19.75C30.95 19.6 30.95 19.4 31.1 19.3L32.1 18.3C32.25 18.15 32.45 18.15 32.55 18.3L33.55 19.3C33.7 19.45 33.7 19.65 33.55 19.75L32.55 20.75C32.4 20.9 32.2 20.9 32.1 20.75L31.1 19.75V19.75ZM41.2 29.85C41.05 29.7 41.05 29.5 41.2 29.4L42.2 28.4C42.35 28.25 42.55 28.25 42.65 28.4L43.65 29.4C43.8 29.55 43.8 29.75 43.65 29.85L42.65 30.85C42.5 31 42.3 31 42.2 30.85L41.2 29.85ZM28.2 22.7C28.05 22.55 28.05 22.35 28.2 22.25L29.2 21.25C29.35 21.1 29.55 21.1 29.65 21.25L30.65 22.25C30.8 22.4 30.8 22.6 30.65 22.7L29.65 23.7C29.5 23.85 29.3 23.85 29.2 23.7L28.2 22.7ZM25.25 25.65C25.1 25.5 25.1 25.3 25.25 25.2L26.25 24.2C26.4 24.05 26.6 24.05 26.7 24.2L27.7 25.2C27.85 25.35 27.85 25.55 27.7 25.65L26.7 26.65C26.55 26.8 26.35 26.8 26.25 26.65L25.25 25.65ZM26.15 29.25C26 29.1 26 28.85 26.15 28.75L32.75 22.15C32.9 22 33.15 22 33.25 22.15L39.85 28.75C40 28.9 40 29.15 39.85 29.25L33.25 35.85C33.1 36 32.85 36 32.75 35.85L26.15 29.25V29.25ZM22.3 28.55C22.15 28.4 22.15 28.2 22.3 28.1L23.3 27.1C23.45 26.95 23.65 26.95 23.75 27.1L24.75 28.1C24.9 28.25 24.9 28.45 24.75 28.55L23.75 29.55C23.6 29.7 23.4 29.7 23.3 29.55L22.3 28.55ZM32.4 38.65C32.25 38.5 32.25 38.3 32.4 38.2L33.4 37.2C33.55 37.05 33.75 37.05 33.85 37.2L34.85 38.2C35 38.35 35 38.55 34.85 38.65L33.85 39.65C33.7 39.8 33.5 39.8 33.4 39.65L32.4 38.65V38.65ZM29.45 41.6C29.3 41.45 29.3 41.25 29.45 41.15L30.45 40.15C30.6 40 30.8 40 30.9 40.15L31.9 41.15C32.05 41.3 32.05 41.5 31.9 41.6L30.9 42.6C30.75 42.75 30.55 42.75 30.45 42.6L29.45 41.6Z" fill="#3E4347"/>
<path d="M73.992 23.992C73.92 24.112 73.84 24.204 73.752 24.268C73.672 24.324 73.572 24.352 73.452 24.352C73.316 24.352 73.156 24.284 72.972 24.148C72.788 24.012 72.556 23.864 72.276 23.704C72.004 23.536 71.672 23.384 71.28 23.248C70.896 23.112 70.428 23.044 69.876 23.044C69.356 23.044 68.896 23.116 68.496 23.26C68.104 23.396 67.772 23.584 67.5 23.824C67.236 24.064 67.036 24.348 66.9 24.676C66.764 24.996 66.696 25.344 66.696 25.72C66.696 26.2 66.812 26.6 67.044 26.92C67.284 27.232 67.596 27.5 67.98 27.724C68.372 27.948 68.812 28.144 69.3 28.312C69.796 28.472 70.3 28.64 70.812 28.816C71.332 28.992 71.836 29.192 72.324 29.416C72.82 29.632 73.26 29.908 73.644 30.244C74.036 30.58 74.348 30.992 74.58 31.48C74.82 31.968 74.94 32.568 74.94 33.28C74.94 34.032 74.812 34.74 74.556 35.404C74.3 36.06 73.924 36.632 73.428 37.12C72.94 37.608 72.336 37.992 71.616 38.272C70.904 38.552 70.092 38.692 69.18 38.692C68.06 38.692 67.044 38.492 66.132 38.092C65.22 37.684 64.44 37.136 63.792 36.448L64.464 35.344C64.528 35.256 64.604 35.184 64.692 35.128C64.788 35.064 64.892 35.032 65.004 35.032C65.108 35.032 65.224 35.076 65.352 35.164C65.488 35.244 65.64 35.348 65.808 35.476C65.976 35.604 66.168 35.744 66.384 35.896C66.6 36.048 66.844 36.188 67.116 36.316C67.396 36.444 67.712 36.552 68.064 36.64C68.416 36.72 68.812 36.76 69.252 36.76C69.804 36.76 70.296 36.684 70.728 36.532C71.16 36.38 71.524 36.168 71.82 35.896C72.124 35.616 72.356 35.284 72.516 34.9C72.676 34.516 72.756 34.088 72.756 33.616C72.756 33.096 72.636 32.672 72.396 32.344C72.164 32.008 71.856 31.728 71.472 31.504C71.088 31.28 70.648 31.092 70.152 30.94C69.656 30.78 69.152 30.62 68.64 30.46C68.128 30.292 67.624 30.1 67.128 29.884C66.632 29.668 66.192 29.388 65.808 29.044C65.424 28.7 65.112 28.272 64.872 27.76C64.64 27.24 64.524 26.6 64.524 25.84C64.524 25.232 64.64 24.644 64.872 24.076C65.112 23.508 65.456 23.004 65.904 22.564C66.36 22.124 66.916 21.772 67.572 21.508C68.236 21.244 68.996 21.112 69.852 21.112C70.812 21.112 71.684 21.264 72.468 21.568C73.26 21.872 73.956 22.312 74.556 22.888L73.992 23.992ZM79.7203 20.824V38.5H77.5843V20.824H79.7203ZM85.4402 26.344V38.5H83.3042V26.344H85.4402ZM85.8962 22.528C85.8962 22.736 85.8522 22.932 85.7642 23.116C85.6842 23.292 85.5722 23.452 85.4282 23.596C85.2922 23.732 85.1282 23.84 84.9362 23.92C84.7522 24 84.5562 24.04 84.3482 24.04C84.1402 24.04 83.9442 24 83.7602 23.92C83.5842 23.84 83.4282 23.732 83.2922 23.596C83.1562 23.452 83.0482 23.292 82.9682 23.116C82.8882 22.932 82.8482 22.736 82.8482 22.528C82.8482 22.32 82.8882 22.124 82.9682 21.94C83.0482 21.748 83.1562 21.584 83.2922 21.448C83.4282 21.304 83.5842 21.192 83.7602 21.112C83.9442 21.032 84.1402 20.992 84.3482 20.992C84.5562 20.992 84.7522 21.032 84.9362 21.112C85.1282 21.192 85.2922 21.304 85.4282 21.448C85.5722 21.584 85.6842 21.748 85.7642 21.94C85.8522 22.124 85.8962 22.32 85.8962 22.528ZM96.8698 29.236C96.4698 28.7 96.0378 28.328 95.5738 28.12C95.1098 27.904 94.5898 27.796 94.0138 27.796C92.8858 27.796 92.0178 28.2 91.4098 29.008C90.8018 29.816 90.4978 30.968 90.4978 32.464C90.4978 33.256 90.5658 33.936 90.7018 34.504C90.8378 35.064 91.0378 35.528 91.3018 35.896C91.5658 36.256 91.8898 36.52 92.2738 36.688C92.6578 36.856 93.0938 36.94 93.5818 36.94C94.2858 36.94 94.8978 36.78 95.4178 36.46C95.9458 36.14 96.4298 35.688 96.8698 35.104V29.236ZM99.0058 20.824V38.5H97.7338C97.4298 38.5 97.2378 38.352 97.1578 38.056L96.9658 36.58C96.4458 37.204 95.8538 37.708 95.1898 38.092C94.5258 38.476 93.7578 38.668 92.8858 38.668C92.1898 38.668 91.5578 38.536 90.9898 38.272C90.4218 38 89.9378 37.604 89.5378 37.084C89.1378 36.564 88.8298 35.916 88.6138 35.14C88.3978 34.364 88.2898 33.472 88.2898 32.464C88.2898 31.568 88.4098 30.736 88.6498 29.968C88.8898 29.192 89.2338 28.52 89.6818 27.952C90.1298 27.384 90.6778 26.94 91.3258 26.62C91.9818 26.292 92.7178 26.128 93.5338 26.128C94.2778 26.128 94.9138 26.256 95.4418 26.512C95.9778 26.76 96.4538 27.108 96.8698 27.556V20.824H99.0058ZM110.516 31.096C110.516 30.6 110.444 30.148 110.3 29.74C110.164 29.324 109.96 28.968 109.688 28.672C109.424 28.368 109.1 28.136 108.716 27.976C108.332 27.808 107.896 27.724 107.408 27.724C106.384 27.724 105.572 28.024 104.972 28.624C104.38 29.216 104.012 30.04 103.868 31.096H110.516ZM112.244 36.796C111.98 37.116 111.664 37.396 111.296 37.636C110.928 37.868 110.532 38.06 110.108 38.212C109.692 38.364 109.26 38.476 108.812 38.548C108.364 38.628 107.92 38.668 107.48 38.668C106.64 38.668 105.864 38.528 105.152 38.248C104.448 37.96 103.836 37.544 103.316 37C102.804 36.448 102.404 35.768 102.116 34.96C101.828 34.152 101.684 33.224 101.684 32.176C101.684 31.328 101.812 30.536 102.068 29.8C102.332 29.064 102.708 28.428 103.196 27.892C103.684 27.348 104.28 26.924 104.984 26.62C105.688 26.308 106.48 26.152 107.36 26.152C108.088 26.152 108.76 26.276 109.376 26.524C110 26.764 110.536 27.116 110.984 27.58C111.44 28.036 111.796 28.604 112.052 29.284C112.308 29.956 112.436 30.724 112.436 31.588C112.436 31.924 112.4 32.148 112.328 32.26C112.256 32.372 112.12 32.428 111.92 32.428H103.796C103.82 33.196 103.924 33.864 104.108 34.432C104.3 35 104.564 35.476 104.9 35.86C105.236 36.236 105.636 36.52 106.1 36.712C106.564 36.896 107.084 36.988 107.66 36.988C108.196 36.988 108.656 36.928 109.04 36.808C109.432 36.68 109.768 36.544 110.048 36.4C110.328 36.256 110.56 36.124 110.744 36.004C110.936 35.876 111.1 35.812 111.236 35.812C111.412 35.812 111.548 35.88 111.644 36.016L112.244 36.796ZM122.139 28.348C122.043 28.524 121.895 28.612 121.695 28.612C121.575 28.612 121.439 28.568 121.287 28.48C121.135 28.392 120.947 28.296 120.723 28.192C120.507 28.08 120.247 27.98 119.943 27.892C119.639 27.796 119.279 27.748 118.863 27.748C118.503 27.748 118.179 27.796 117.891 27.892C117.603 27.98 117.355 28.104 117.147 28.264C116.947 28.424 116.791 28.612 116.679 28.828C116.575 29.036 116.523 29.264 116.523 29.512C116.523 29.824 116.611 30.084 116.787 30.292C116.971 30.5 117.211 30.68 117.507 30.832C117.803 30.984 118.139 31.12 118.515 31.24C118.891 31.352 119.275 31.476 119.667 31.612C120.067 31.74 120.455 31.884 120.831 32.044C121.207 32.204 121.543 32.404 121.839 32.644C122.135 32.884 122.371 33.18 122.547 33.532C122.731 33.876 122.823 34.292 122.823 34.78C122.823 35.34 122.723 35.86 122.523 36.34C122.323 36.812 122.027 37.224 121.635 37.576C121.243 37.92 120.763 38.192 120.195 38.392C119.627 38.592 118.971 38.692 118.227 38.692C117.379 38.692 116.611 38.556 115.923 38.284C115.235 38.004 114.651 37.648 114.171 37.216L114.675 36.4C114.739 36.296 114.815 36.216 114.903 36.16C114.991 36.104 115.103 36.076 115.239 36.076C115.383 36.076 115.535 36.132 115.695 36.244C115.855 36.356 116.047 36.48 116.271 36.616C116.503 36.752 116.783 36.876 117.111 36.988C117.439 37.1 117.847 37.156 118.335 37.156C118.751 37.156 119.115 37.104 119.427 37C119.739 36.888 119.999 36.74 120.207 36.556C120.415 36.372 120.567 36.16 120.663 35.92C120.767 35.68 120.819 35.424 120.819 35.152C120.819 34.816 120.727 34.54 120.543 34.324C120.367 34.1 120.131 33.912 119.835 33.76C119.539 33.6 119.199 33.464 118.815 33.352C118.439 33.232 118.051 33.108 117.651 32.98C117.259 32.852 116.871 32.708 116.487 32.548C116.111 32.38 115.775 32.172 115.479 31.924C115.183 31.676 114.943 31.372 114.759 31.012C114.583 30.644 114.495 30.2 114.495 29.68C114.495 29.216 114.591 28.772 114.783 28.348C114.975 27.916 115.255 27.54 115.623 27.22C115.991 26.892 116.443 26.632 116.979 26.44C117.515 26.248 118.127 26.152 118.815 26.152C119.615 26.152 120.331 26.28 120.963 26.536C121.603 26.784 122.155 27.128 122.619 27.568L122.139 28.348ZM132.831 30.952C132.831 32.664 133.047 34.328 133.479 35.944C133.919 37.56 134.559 39.096 135.399 40.552C135.527 40.8 135.559 40.988 135.495 41.116C135.431 41.252 135.339 41.36 135.219 41.44L134.271 42.016C133.671 41.096 133.159 40.184 132.735 39.28C132.319 38.376 131.979 37.468 131.715 36.556C131.459 35.644 131.271 34.728 131.151 33.808C131.031 32.88 130.971 31.928 130.971 30.952C130.971 29.984 131.031 29.036 131.151 28.108C131.271 27.18 131.459 26.264 131.715 25.36C131.979 24.448 132.319 23.54 132.735 22.636C133.159 21.732 133.671 20.816 134.271 19.888L135.219 20.476C135.339 20.556 135.431 20.664 135.495 20.8C135.559 20.928 135.527 21.112 135.399 21.352C134.559 22.808 133.919 24.344 133.479 25.96C133.047 27.576 132.831 29.24 132.831 30.952ZM143.249 29.632C143.921 29.632 144.513 29.552 145.025 29.392C145.545 29.224 145.977 28.992 146.321 28.696C146.673 28.392 146.937 28.032 147.113 27.616C147.289 27.2 147.377 26.74 147.377 26.236C147.377 25.212 147.041 24.44 146.369 23.92C145.697 23.4 144.689 23.14 143.345 23.14H140.801V29.632H143.249ZM151.193 38.5H149.129C148.705 38.5 148.393 38.336 148.193 38.008L143.729 31.864C143.593 31.672 143.445 31.536 143.285 31.456C143.133 31.368 142.893 31.324 142.565 31.324H140.801V38.5H138.485V21.304H143.345C144.433 21.304 145.373 21.416 146.165 21.64C146.957 21.856 147.609 22.172 148.121 22.588C148.641 23.004 149.025 23.508 149.273 24.1C149.521 24.684 149.645 25.34 149.645 26.068C149.645 26.676 149.549 27.244 149.357 27.772C149.165 28.3 148.885 28.776 148.517 29.2C148.157 29.616 147.713 29.972 147.185 30.268C146.665 30.564 146.073 30.788 145.409 30.94C145.705 31.108 145.961 31.352 146.177 31.672L151.193 38.5ZM162.532 26.344V38.5H161.26C160.956 38.5 160.764 38.352 160.684 38.056L160.516 36.748C159.988 37.332 159.396 37.804 158.74 38.164C158.084 38.516 157.332 38.692 156.484 38.692C155.82 38.692 155.232 38.584 154.72 38.368C154.216 38.144 153.792 37.832 153.448 37.432C153.104 37.032 152.844 36.548 152.668 35.98C152.5 35.412 152.416 34.784 152.416 34.096V26.344H154.552V34.096C154.552 35.016 154.76 35.728 155.176 36.232C155.6 36.736 156.244 36.988 157.108 36.988C157.74 36.988 158.328 36.84 158.872 36.544C159.424 36.24 159.932 35.824 160.396 35.296V26.344H162.532ZM172.999 28.348C172.903 28.524 172.755 28.612 172.555 28.612C172.435 28.612 172.299 28.568 172.147 28.48C171.995 28.392 171.807 28.296 171.583 28.192C171.367 28.08 171.107 27.98 170.803 27.892C170.499 27.796 170.139 27.748 169.723 27.748C169.363 27.748 169.039 27.796 168.751 27.892C168.463 27.98 168.215 28.104 168.007 28.264C167.807 28.424 167.651 28.612 167.539 28.828C167.435 29.036 167.383 29.264 167.383 29.512C167.383 29.824 167.471 30.084 167.647 30.292C167.831 30.5 168.071 30.68 168.367 30.832C168.663 30.984 168.999 31.12 169.375 31.24C169.751 31.352 170.135 31.476 170.527 31.612C170.927 31.74 171.315 31.884 171.691 32.044C172.067 32.204 172.403 32.404 172.699 32.644C172.995 32.884 173.231 33.18 173.407 33.532C173.591 33.876 173.683 34.292 173.683 34.78C173.683 35.34 173.583 35.86 173.383 36.34C173.183 36.812 172.887 37.224 172.495 37.576C172.103 37.92 171.623 38.192 171.055 38.392C170.487 38.592 169.831 38.692 169.087 38.692C168.239 38.692 167.471 38.556 166.783 38.284C166.095 38.004 165.511 37.648 165.031 37.216L165.535 36.4C165.599 36.296 165.675 36.216 165.763 36.16C165.851 36.104 165.963 36.076 166.099 36.076C166.243 36.076 166.395 36.132 166.555 36.244C166.715 36.356 166.907 36.48 167.131 36.616C167.363 36.752 167.643 36.876 167.971 36.988C168.299 37.1 168.707 37.156 169.195 37.156C169.611 37.156 169.975 37.104 170.287 37C170.599 36.888 170.859 36.74 171.067 36.556C171.275 36.372 171.427 36.16 171.523 35.92C171.627 35.68 171.679 35.424 171.679 35.152C171.679 34.816 171.587 34.54 171.403 34.324C171.227 34.1 170.991 33.912 170.695 33.76C170.399 33.6 170.059 33.464 169.675 33.352C169.299 33.232 168.911 33.108 168.511 32.98C168.119 32.852 167.731 32.708 167.347 32.548C166.971 32.38 166.635 32.172 166.339 31.924C166.043 31.676 165.803 31.372 165.619 31.012C165.443 30.644 165.355 30.2 165.355 29.68C165.355 29.216 165.451 28.772 165.643 28.348C165.835 27.916 166.115 27.54 166.483 27.22C166.851 26.892 167.303 26.632 167.839 26.44C168.375 26.248 168.987 26.152 169.675 26.152C170.475 26.152 171.191 26.28 171.823 26.536C172.463 26.784 173.015 27.128 173.479 27.568L172.999 28.348ZM183.381 28.348C183.285 28.524 183.137 28.612 182.937 28.612C182.817 28.612 182.681 28.568 182.529 28.48C182.377 28.392 182.189 28.296 181.965 28.192C181.749 28.08 181.489 27.98 181.185 27.892C180.881 27.796 180.521 27.748 180.105 27.748C179.745 27.748 179.421 27.796 179.133 27.892C178.845 27.98 178.597 28.104 178.389 28.264C178.189 28.424 178.033 28.612 177.921 28.828C177.817 29.036 177.765 29.264 177.765 29.512C177.765 29.824 177.853 30.084 178.029 30.292C178.213 30.5 178.453 30.68 178.749 30.832C179.045 30.984 179.381 31.12 179.757 31.24C180.133 31.352 180.517 31.476 180.909 31.612C181.309 31.74 181.697 31.884 182.073 32.044C182.449 32.204 182.785 32.404 183.081 32.644C183.377 32.884 183.613 33.18 183.789 33.532C183.973 33.876 184.065 34.292 184.065 34.78C184.065 35.34 183.965 35.86 183.765 36.34C183.565 36.812 183.269 37.224 182.877 37.576C182.485 37.92 182.005 38.192 181.437 38.392C180.869 38.592 180.213 38.692 179.469 38.692C178.621 38.692 177.853 38.556 177.165 38.284C176.477 38.004 175.893 37.648 175.413 37.216L175.917 36.4C175.981 36.296 176.057 36.216 176.145 36.16C176.233 36.104 176.345 36.076 176.481 36.076C176.625 36.076 176.777 36.132 176.937 36.244C177.097 36.356 177.289 36.48 177.513 36.616C177.745 36.752 178.025 36.876 178.353 36.988C178.681 37.1 179.089 37.156 179.577 37.156C179.993 37.156 180.357 37.104 180.669 37C180.981 36.888 181.241 36.74 181.449 36.556C181.657 36.372 181.809 36.16 181.905 35.92C182.009 35.68 182.061 35.424 182.061 35.152C182.061 34.816 181.969 34.54 181.785 34.324C181.609 34.1 181.373 33.912 181.077 33.76C180.781 33.6 180.441 33.464 180.057 33.352C179.681 33.232 179.293 33.108 178.893 32.98C178.501 32.852 178.113 32.708 177.729 32.548C177.353 32.38 177.017 32.172 176.721 31.924C176.425 31.676 176.185 31.372 176.001 31.012C175.825 30.644 175.737 30.2 175.737 29.68C175.737 29.216 175.833 28.772 176.025 28.348C176.217 27.916 176.497 27.54 176.865 27.22C177.233 26.892 177.685 26.632 178.221 26.44C178.757 26.248 179.369 26.152 180.057 26.152C180.857 26.152 181.573 26.28 182.205 26.536C182.845 26.784 183.397 27.128 183.861 27.568L183.381 28.348ZM188.94 26.344V38.5H186.804V26.344H188.94ZM189.396 22.528C189.396 22.736 189.352 22.932 189.264 23.116C189.184 23.292 189.072 23.452 188.928 23.596C188.792 23.732 188.628 23.84 188.436 23.92C188.252 24 188.056 24.04 187.848 24.04C187.64 24.04 187.444 24 187.26 23.92C187.084 23.84 186.928 23.732 186.792 23.596C186.656 23.452 186.548 23.292 186.468 23.116C186.388 22.932 186.348 22.736 186.348 22.528C186.348 22.32 186.388 22.124 186.468 21.94C186.548 21.748 186.656 21.584 186.792 21.448C186.928 21.304 187.084 21.192 187.26 21.112C187.444 21.032 187.64 20.992 187.848 20.992C188.056 20.992 188.252 21.032 188.436 21.112C188.628 21.192 188.792 21.304 188.928 21.448C189.072 21.584 189.184 21.748 189.264 21.94C189.352 22.124 189.396 22.32 189.396 22.528ZM199.038 33.028C198.054 33.06 197.214 33.14 196.518 33.268C195.83 33.388 195.266 33.548 194.826 33.748C194.394 33.948 194.078 34.184 193.878 34.456C193.686 34.728 193.59 35.032 193.59 35.368C193.59 35.688 193.642 35.964 193.746 36.196C193.85 36.428 193.99 36.62 194.166 36.772C194.35 36.916 194.562 37.024 194.802 37.096C195.05 37.16 195.314 37.192 195.594 37.192C195.97 37.192 196.314 37.156 196.626 37.084C196.938 37.004 197.23 36.892 197.502 36.748C197.782 36.604 198.046 36.432 198.294 36.232C198.55 36.032 198.798 35.804 199.038 35.548V33.028ZM192.138 28.06C192.81 27.412 193.534 26.928 194.31 26.608C195.086 26.288 195.946 26.128 196.89 26.128C197.57 26.128 198.174 26.24 198.702 26.464C199.23 26.688 199.674 27 200.034 27.4C200.394 27.8 200.666 28.284 200.85 28.852C201.034 29.42 201.126 30.044 201.126 30.724V38.5H200.178C199.97 38.5 199.81 38.468 199.698 38.404C199.586 38.332 199.498 38.196 199.434 37.996L199.194 36.844C198.874 37.14 198.562 37.404 198.258 37.636C197.954 37.86 197.634 38.052 197.298 38.212C196.962 38.364 196.602 38.48 196.218 38.56C195.842 38.648 195.422 38.692 194.958 38.692C194.486 38.692 194.042 38.628 193.626 38.5C193.21 38.364 192.846 38.164 192.534 37.9C192.23 37.636 191.986 37.304 191.802 36.904C191.626 36.496 191.538 36.016 191.538 35.464C191.538 34.984 191.67 34.524 191.934 34.084C192.198 33.636 192.626 33.24 193.218 32.896C193.81 32.552 194.582 32.272 195.534 32.056C196.486 31.832 197.654 31.704 199.038 31.672V30.724C199.038 29.78 198.834 29.068 198.426 28.588C198.018 28.1 197.422 27.856 196.638 27.856C196.11 27.856 195.666 27.924 195.306 28.06C194.954 28.188 194.646 28.336 194.382 28.504C194.126 28.664 193.902 28.812 193.71 28.948C193.526 29.076 193.342 29.14 193.158 29.14C193.014 29.14 192.89 29.104 192.786 29.032C192.682 28.952 192.594 28.856 192.522 28.744L192.138 28.06ZM206.396 28.108C206.66 27.812 206.94 27.544 207.236 27.304C207.532 27.064 207.844 26.86 208.172 26.692C208.508 26.516 208.86 26.384 209.228 26.296C209.604 26.2 210.008 26.152 210.44 26.152C211.104 26.152 211.688 26.264 212.192 26.488C212.704 26.704 213.128 27.016 213.464 27.424C213.808 27.824 214.068 28.308 214.244 28.876C214.42 29.444 214.508 30.072 214.508 30.76V38.5H212.36V30.76C212.36 29.84 212.148 29.128 211.724 28.624C211.308 28.112 210.672 27.856 209.816 27.856C209.184 27.856 208.592 28.008 208.04 28.312C207.496 28.616 206.992 29.028 206.528 29.548V38.5H204.38V26.344H205.664C205.968 26.344 206.156 26.492 206.228 26.788L206.396 28.108ZM219.116 30.952C219.116 29.24 218.896 27.576 218.456 25.96C218.024 24.344 217.388 22.808 216.548 21.352C216.484 21.232 216.444 21.128 216.428 21.04C216.412 20.944 216.416 20.864 216.44 20.8C216.464 20.728 216.5 20.668 216.548 20.62C216.604 20.564 216.664 20.516 216.728 20.476L217.676 19.888C218.276 20.816 218.784 21.732 219.2 22.636C219.624 23.54 219.964 24.448 220.22 25.36C220.484 26.264 220.676 27.18 220.796 28.108C220.916 29.036 220.976 29.984 220.976 30.952C220.976 31.928 220.916 32.88 220.796 33.808C220.676 34.728 220.484 35.644 220.22 36.556C219.964 37.468 219.624 38.376 219.2 39.28C218.784 40.184 218.276 41.096 217.676 42.016L216.728 41.44C216.664 41.4 216.604 41.352 216.548 41.296C216.5 41.248 216.464 41.188 216.44 41.116C216.416 41.052 216.412 40.972 216.428 40.876C216.444 40.78 216.484 40.672 216.548 40.552C217.388 39.096 218.024 37.56 218.456 35.944C218.896 34.328 219.116 32.664 219.116 30.952Z" fill="#F9FBFB"/>
</g>
<defs>
<filter id="filter0_ddd_20_114" x="0.6" y="0.8" width="241.1" height="59.5" filterUnits="userSpaceOnUse" color-interpolation-filters="sRGB">
<feFlood flood-opacity="0" result="BackgroundImageFix"/>
<feColorMatrix in="SourceAlpha" type="matrix" values="0 0 0 0 0 0 0 0 0 0 0 0 0 0 0 0 0 0 127 0" result="hardAlpha"/>
<feOffset dx="0.3" dy="0.5"/>
<feGaussianBlur stdDeviation="0.35"/>
<feComposite in2="hardAlpha" operator="out"/>
<feColorMatrix type="matrix" values="0 0 0 0 0.633333 0 0 0 0 0.633333 0 0 0 0 0.633333 0 0 0 0.23 0"/>
<feBlend mode="normal" in2="BackgroundImageFix" result="effect1_dropShadow_20_114"/>
<feColorMatrix in="SourceAlpha" type="matrix" values="0 0 0 0 0 0 0 0 0 0 0 0 0 0 0 0 0 0 127 0" result="hardAlpha"/>
<feMorphology radius="0.8" operator="erode" in="SourceAlpha" result="effect2_dropShadow_20_114"/>
<feOffset dx="0.6" dy="0.9"/>
<feGaussianBlur stdDeviation="0.65"/>
<feComposite in2="hardAlpha" operator="out"/>
<feColorMatrix type="matrix" values="0 0 0 0 0.631373 0 0 0 0 0.631373 0 0 0 0 0.631373 0 0 0 0.31 0"/>
<feBlend mode="normal" in2="effect1_dropShadow_20_114" result="effect2_dropShadow_20_114"/>
<feColorMatrix in="SourceAlpha" type="matrix" values="0 0 0 0 0 0 0 0 0 0 0 0 0 0 0 0 0 0 127 0" result="hardAlpha"/>
<feMorphology radius="1.7" operator="erode" in="SourceAlpha" result="effect3_dropShadow_20_114"/>
<feOffset dx="1.4" dy="2"/>
<feGaussianBlur stdDeviation="1.5"/>
<feComposite in2="hardAlpha" operator="out"/>
<feColorMatrix type="matrix" values="0 0 0 0 0.631373 0 0 0 0 0.631373 0 0 0 0 0.631373 0 0 0 0.38 0"/>
<feBlend mode="normal" in2="effect2_dropShadow_20_114" result="effect3_dropShadow_20_114"/>
<feBlend mode="normal" in="SourceGraphic" in2="effect3_dropShadow_20_114" result="shape"/>
</filter>
</defs>
</svg>
