<svg width="258" height="61" viewBox="0 0 258 61" fill="none" xmlns="http://www.w3.org/2000/svg">
<g filter="url(#filter0_ddd_20_118)">
<rect x="1" y="1" width="254" height="56" rx="6" fill="#F8FAFB"/>
<g clip-path="url(#clip0_20_118)">
<path d="M32.5501 40L24.8501 18.1C24.8501 18.1 43.2001 13.65 43.2001 23.1V37.15C43.2001 37.55 42.7001 38.05 42.3001 38.05L32.5501 40Z" fill="#7A8084"/>
<path d="M20.2999 39.9999C19.8999 39.9999 19.3999 39.4999 19.3999 39.0999V25.0499C19.3999 15.5999 33.4499 15.5999 33.4499 25.0499V39.0999C33.4499 39.4999 32.9499 39.9999 32.5499 39.9999H20.2999Z" fill="#94989B"/>
<path d="M30.1 35.2C29.6 35.2 29.2 35.6 29.2 36.1C29.2 36.6 29.6 37 30.1 37C30.6 37 31 36.6 31 36.1C31 35.6 30.6 35.2 30.1 35.2Z" fill="#ED4C5C"/>
<path d="M22.5501 40.9C22.3001 40.9 22.1001 40.7001 22.1001 40.4501V39.5C22.1001 39.25 22.3001 39.05 22.5501 39.05H30.3001C30.5501 39.05 30.7501 39.25 30.7501 39.5V40.4501C30.7501 40.7001 30.5501 40.9 30.3001 40.9H22.5501Z" fill="#7A8084"/>
<path d="M32.6999 25.4501C32.6999 29.3501 29.7499 33.1001 24.3999 33.1001C20.4999 33.1001 19.8999 24.2001 19.8999 20.3001C19.8999 20.3001 22.0999 18.3501 25.5999 18.3501C29.5499 18.3501 32.6999 21.5501 32.6999 25.4501" fill="#3E4347"/>
<path d="M24.05 33.1C27.9436 33.1 31.1 29.9436 31.1 26.05C31.1 22.1564 27.9436 19 24.05 19C20.1564 19 17 22.1564 17 26.05C17 29.9436 20.1564 33.1 24.05 33.1Z" fill="#788287"/>
<path d="M30.35 26.05C30.35 29.5 27.55 32.35 24.05 32.35C20.6 32.3 17.8 29.5 17.8 26.05C17.8 22.6 20.6 19.75 24.1 19.75C27.55 19.75 30.35 22.55 30.35 26.05Z" fill="#212528"/>
<path d="M24.05 31.15C26.8666 31.15 29.15 28.8666 29.15 26.05C29.15 23.2333 26.8666 20.95 24.05 20.95C21.2333 20.95 18.95 23.2333 18.95 26.05C18.95 28.8666 21.2333 31.15 24.05 31.15Z" fill="#3E4347"/>
<path d="M24.05 28.8C25.5688 28.8 26.8 27.5688 26.8 26.05C26.8 24.5313 25.5688 23.3 24.05 23.3C22.5313 23.3 21.3 24.5313 21.3 26.05C21.3 27.5688 22.5313 28.8 24.05 28.8Z" fill="#212528"/>
<path opacity="0.5" d="M27.7999 23.85C27.7999 24.7 27.0999 25.45 26.1999 25.45C25.3499 25.45 24.5999 24.75 24.5999 23.85C24.5999 23 25.2999 22.25 26.1999 22.25C27.0999 22.25 27.7999 23 27.7999 23.85Z" fill="#F5F5F5"/>
<path opacity="0.5" d="M23.0999 28C23.6521 28 24.0999 27.5523 24.0999 27C24.0999 26.4477 23.6521 26 23.0999 26C22.5476 26 22.0999 26.4477 22.0999 27C22.0999 27.5523 22.5476 28 23.0999 28Z" fill="#F5F5F5"/>
<path opacity="0.5" d="M21.3 29.4C21.6313 29.4 21.9 29.1313 21.9 28.8C21.9 28.4686 21.6313 28.2 21.3 28.2C20.9686 28.2 20.7 28.4686 20.7 28.8C20.7 29.1313 20.9686 29.4 21.3 29.4Z" fill="#F5F5F5"/>
<path d="M42.5999 23.2001C42.5999 23.9501 42.1999 24.6501 41.6499 24.8001C40.9999 25.0001 40.3999 24.4001 40.3999 23.4501C40.3999 22.5001 40.9999 21.8001 41.6499 21.8501C42.1999 21.8001 42.5999 22.4501 42.5999 23.2001ZM39.6499 24.5501C39.6499 24.8501 39.2999 25.2001 38.7999 25.3001C38.2499 25.4001 37.7999 25.2501 37.7999 24.9001C37.7999 24.5501 38.2499 24.2001 38.7999 24.1001C39.2999 24.0001 39.6499 24.2001 39.6499 24.5501V24.5501ZM39.5999 22.9501C39.5999 23.2501 39.2499 23.6001 38.7499 23.7001C38.1999 23.8001 37.7499 23.6501 37.7499 23.3001C37.7499 22.9501 38.1999 22.6001 38.7499 22.5001C39.1999 22.4501 39.5999 22.6501 39.5999 22.9501V22.9501ZM35.3999 27.0001L42.7499 24.9501V29.8501L35.3999 27.0001Z" fill="#3E4347"/>
<path d="M35.85 39.25C35.6 39.25 35.4 39.05 35.4 38.8V27C35.4 26.75 35.6 26.55 35.85 26.55H46.4501C49.9001 26.55 49.9001 39.25 46.4501 39.25H35.85ZM34.05 28.85C34.05 28.6 34.2501 28.45 34.4501 28.45H35C35.25 28.45 35.4 28.65 35.4 28.85V37.05C35.4 37.3 35.2 37.45 35 37.45H34.4501C34.2501 37.45 34.05 37.25 34.05 37.05V28.85Z" fill="#94989B"/>
<path d="M36.3 27.45H46.75V38.35H36.3V27.45Z" fill="#42ADE2"/>
</g>
<path d="M64.2 22.912C64.848 22.336 65.6 21.896 66.456 21.592C67.312 21.288 68.284 21.136 69.372 21.136C70.26 21.136 71.056 21.244 71.76 21.46C72.472 21.676 73.076 21.98 73.572 22.372C74.068 22.764 74.448 23.228 74.712 23.764C74.984 24.3 75.12 24.888 75.12 25.528C75.12 26.392 74.904 27.152 74.472 27.808C74.048 28.464 73.448 28.972 72.672 29.332C73.112 29.516 73.512 29.744 73.872 30.016C74.232 30.28 74.54 30.58 74.796 30.916C75.06 31.252 75.26 31.62 75.396 32.02C75.54 32.42 75.612 32.84 75.612 33.28C75.612 34.032 75.472 34.736 75.192 35.392C74.912 36.048 74.504 36.62 73.968 37.108C73.44 37.588 72.788 37.968 72.012 38.248C71.236 38.528 70.352 38.668 69.36 38.668C68.128 38.668 67.02 38.468 66.036 38.068C65.052 37.66 64.208 37.112 63.504 36.424L64.176 35.32C64.24 35.232 64.32 35.16 64.416 35.104C64.512 35.04 64.616 35.008 64.728 35.008C64.896 35.008 65.096 35.1 65.328 35.284C65.56 35.46 65.856 35.656 66.216 35.872C66.576 36.088 67.012 36.288 67.524 36.472C68.044 36.648 68.676 36.736 69.42 36.736C70.052 36.736 70.616 36.66 71.112 36.508C71.616 36.356 72.036 36.136 72.372 35.848C72.716 35.56 72.976 35.208 73.152 34.792C73.336 34.376 73.428 33.908 73.428 33.388C73.428 32.94 73.34 32.528 73.164 32.152C72.996 31.776 72.748 31.456 72.42 31.192C72.092 30.92 71.692 30.712 71.22 30.568C70.748 30.416 70.216 30.34 69.624 30.34H67.272V28.432H69.528C70.016 28.432 70.468 28.372 70.884 28.252C71.308 28.132 71.668 27.956 71.964 27.724C72.268 27.492 72.504 27.208 72.672 26.872C72.848 26.536 72.936 26.152 72.936 25.72C72.936 25.328 72.856 24.968 72.696 24.64C72.536 24.312 72.304 24.032 72 23.8C71.696 23.56 71.324 23.376 70.884 23.248C70.444 23.12 69.944 23.056 69.384 23.056C68.736 23.056 68.184 23.124 67.728 23.26C67.272 23.396 66.888 23.548 66.576 23.716C66.264 23.876 66.008 24.024 65.808 24.16C65.616 24.296 65.448 24.364 65.304 24.364C65.176 24.364 65.072 24.336 64.992 24.28C64.912 24.224 64.836 24.132 64.764 24.004L64.2 22.912ZM84.8972 33.028C83.9132 33.06 83.0732 33.14 82.3772 33.268C81.6892 33.388 81.1252 33.548 80.6852 33.748C80.2532 33.948 79.9372 34.184 79.7372 34.456C79.5452 34.728 79.4492 35.032 79.4492 35.368C79.4492 35.688 79.5012 35.964 79.6052 36.196C79.7092 36.428 79.8492 36.62 80.0252 36.772C80.2092 36.916 80.4212 37.024 80.6612 37.096C80.9092 37.16 81.1732 37.192 81.4532 37.192C81.8292 37.192 82.1732 37.156 82.4852 37.084C82.7972 37.004 83.0892 36.892 83.3612 36.748C83.6412 36.604 83.9052 36.432 84.1532 36.232C84.4092 36.032 84.6572 35.804 84.8972 35.548V33.028ZM77.9972 28.06C78.6692 27.412 79.3932 26.928 80.1692 26.608C80.9452 26.288 81.8052 26.128 82.7492 26.128C83.4292 26.128 84.0332 26.24 84.5612 26.464C85.0892 26.688 85.5332 27 85.8932 27.4C86.2532 27.8 86.5252 28.284 86.7092 28.852C86.8932 29.42 86.9852 30.044 86.9852 30.724V38.5H86.0372C85.8292 38.5 85.6692 38.468 85.5572 38.404C85.4452 38.332 85.3572 38.196 85.2932 37.996L85.0532 36.844C84.7332 37.14 84.4212 37.404 84.1172 37.636C83.8132 37.86 83.4932 38.052 83.1572 38.212C82.8212 38.364 82.4612 38.48 82.0772 38.56C81.7012 38.648 81.2812 38.692 80.8172 38.692C80.3452 38.692 79.9012 38.628 79.4852 38.5C79.0692 38.364 78.7052 38.164 78.3932 37.9C78.0892 37.636 77.8452 37.304 77.6612 36.904C77.4852 36.496 77.3972 36.016 77.3972 35.464C77.3972 34.984 77.5292 34.524 77.7932 34.084C78.0572 33.636 78.4852 33.24 79.0772 32.896C79.6692 32.552 80.4412 32.272 81.3932 32.056C82.3452 31.832 83.5132 31.704 84.8972 31.672V30.724C84.8972 29.78 84.6932 29.068 84.2852 28.588C83.8772 28.1 83.2812 27.856 82.4972 27.856C81.9692 27.856 81.5252 27.924 81.1652 28.06C80.8132 28.188 80.5052 28.336 80.2412 28.504C79.9852 28.664 79.7612 28.812 79.5692 28.948C79.3852 29.076 79.2012 29.14 79.0172 29.14C78.8732 29.14 78.7492 29.104 78.6452 29.032C78.5412 28.952 78.4532 28.856 78.3812 28.744L77.9972 28.06ZM100.367 38.5H98.2189V27.976H92.3869V38.5H90.2389V26.344H100.367V38.5ZM114.19 26.344V38.5H112.054V30.244C112.054 30.084 112.062 29.912 112.078 29.728C112.094 29.544 112.114 29.36 112.138 29.176C112.066 29.336 111.994 29.484 111.922 29.62C111.85 29.756 111.774 29.88 111.694 29.992L105.826 37.972C105.738 38.1 105.626 38.224 105.49 38.344C105.362 38.456 105.218 38.512 105.058 38.512H103.762V26.356H105.91V34.612C105.91 34.764 105.902 34.932 105.886 35.116C105.87 35.292 105.85 35.472 105.826 35.656C105.898 35.504 105.97 35.364 106.042 35.236C106.114 35.1 106.186 34.976 106.258 34.864L112.126 26.884C112.214 26.756 112.326 26.636 112.462 26.524C112.598 26.404 112.746 26.344 112.906 26.344H114.19ZM126.027 28.504C125.963 28.592 125.899 28.66 125.835 28.708C125.771 28.756 125.683 28.78 125.571 28.78C125.451 28.78 125.319 28.732 125.175 28.636C125.031 28.532 124.851 28.42 124.635 28.3C124.427 28.18 124.167 28.072 123.855 27.976C123.551 27.872 123.175 27.82 122.727 27.82C122.127 27.82 121.599 27.928 121.143 28.144C120.687 28.352 120.303 28.656 119.991 29.056C119.687 29.456 119.455 29.94 119.295 30.508C119.143 31.076 119.067 31.712 119.067 32.416C119.067 33.152 119.151 33.808 119.319 34.384C119.487 34.952 119.723 35.432 120.027 35.824C120.339 36.208 120.711 36.504 121.143 36.712C121.583 36.912 122.075 37.012 122.619 37.012C123.139 37.012 123.567 36.952 123.903 36.832C124.239 36.704 124.515 36.564 124.731 36.412C124.955 36.26 125.139 36.124 125.283 36.004C125.435 35.876 125.583 35.812 125.727 35.812C125.903 35.812 126.039 35.88 126.135 36.016L126.735 36.796C126.471 37.124 126.171 37.404 125.835 37.636C125.499 37.868 125.135 38.064 124.743 38.224C124.359 38.376 123.955 38.488 123.531 38.56C123.107 38.632 122.675 38.668 122.235 38.668C121.475 38.668 120.767 38.528 120.111 38.248C119.463 37.968 118.899 37.564 118.419 37.036C117.939 36.5 117.563 35.844 117.291 35.068C117.019 34.292 116.883 33.408 116.883 32.416C116.883 31.512 117.007 30.676 117.255 29.908C117.511 29.14 117.879 28.48 118.359 27.928C118.847 27.368 119.443 26.932 120.147 26.62C120.859 26.308 121.675 26.152 122.595 26.152C123.451 26.152 124.203 26.292 124.851 26.572C125.507 26.844 126.087 27.232 126.591 27.736L126.027 28.504ZM133.696 36.94C134.128 36.94 134.5 36.888 134.812 36.784C135.132 36.672 135.396 36.52 135.604 36.328C135.812 36.128 135.968 35.896 136.072 35.632C136.176 35.368 136.228 35.08 136.228 34.768C136.228 34.48 136.184 34.212 136.096 33.964C136.008 33.708 135.86 33.484 135.652 33.292C135.452 33.1 135.188 32.948 134.86 32.836C134.532 32.724 134.132 32.668 133.66 32.668H131.08V36.94H133.696ZM133.66 31.108C134.5 31.108 135.204 31.208 135.772 31.408C136.348 31.608 136.808 31.876 137.152 32.212C137.504 32.548 137.756 32.936 137.908 33.376C138.06 33.816 138.136 34.272 138.136 34.744C138.136 35.288 138.04 35.792 137.848 36.256C137.656 36.712 137.372 37.108 136.996 37.444C136.62 37.772 136.156 38.032 135.604 38.224C135.052 38.408 134.416 38.5 133.696 38.5H129.028V26.344H131.08V31.108H133.66ZM155.029 36.94V28.024H151.177C151.097 29.272 150.985 30.376 150.841 31.336C150.697 32.296 150.529 33.14 150.337 33.868C150.153 34.588 149.945 35.2 149.713 35.704C149.489 36.208 149.253 36.62 149.005 36.94H155.029ZM159.325 36.88V42.028C159.325 42.236 159.265 42.396 159.145 42.508C159.033 42.628 158.885 42.688 158.701 42.688H157.393V38.5H147.169V42.076C147.169 42.228 147.121 42.368 147.025 42.496C146.937 42.624 146.789 42.688 146.581 42.688H145.237V36.94H145.633C145.913 36.94 146.189 36.892 146.461 36.796C146.741 36.7 147.009 36.52 147.265 36.256C147.521 35.984 147.761 35.604 147.985 35.116C148.217 34.628 148.425 33.992 148.609 33.208C148.793 32.424 148.953 31.472 149.089 30.352C149.225 29.224 149.333 27.888 149.413 26.344H157.105V36.88H159.325ZM166.402 26.152C167.29 26.152 168.09 26.3 168.802 26.596C169.514 26.892 170.122 27.312 170.626 27.856C171.13 28.4 171.514 29.06 171.778 29.836C172.05 30.604 172.186 31.464 172.186 32.416C172.186 33.376 172.05 34.24 171.778 35.008C171.514 35.776 171.13 36.432 170.626 36.976C170.122 37.52 169.514 37.94 168.802 38.236C168.09 38.524 167.29 38.668 166.402 38.668C165.506 38.668 164.698 38.524 163.978 38.236C163.266 37.94 162.658 37.52 162.154 36.976C161.65 36.432 161.262 35.776 160.99 35.008C160.726 34.24 160.594 33.376 160.594 32.416C160.594 31.464 160.726 30.604 160.99 29.836C161.262 29.06 161.65 28.4 162.154 27.856C162.658 27.312 163.266 26.892 163.978 26.596C164.698 26.3 165.506 26.152 166.402 26.152ZM166.402 37C167.602 37 168.498 36.6 169.09 35.8C169.682 34.992 169.978 33.868 169.978 32.428C169.978 30.98 169.682 29.852 169.09 29.044C168.498 28.236 167.602 27.832 166.402 27.832C165.794 27.832 165.262 27.936 164.806 28.144C164.358 28.352 163.982 28.652 163.678 29.044C163.382 29.436 163.158 29.92 163.006 30.496C162.862 31.064 162.79 31.708 162.79 32.428C162.79 33.868 163.086 34.992 163.678 35.8C164.278 36.6 165.186 37 166.402 37ZM182.275 26.944C182.387 26.768 182.535 26.624 182.719 26.512C182.903 26.4 183.099 26.344 183.307 26.344H184.975L181.819 30.976C181.627 31.272 181.427 31.516 181.219 31.708C181.011 31.892 180.755 32.036 180.451 32.14C180.835 32.244 181.159 32.408 181.423 32.632C181.687 32.848 181.923 33.128 182.131 33.472L185.323 38.5H183.835C183.451 38.5 183.155 38.436 182.947 38.308C182.739 38.18 182.559 37.996 182.407 37.756L180.043 33.976C179.667 33.352 179.103 33.04 178.351 33.04H177.043V38.512H174.895V26.344H177.043V31.6H178.195C178.835 31.6 179.335 31.328 179.695 30.784L182.275 26.944ZM197.973 38.5H195.837V28.024H191.997C191.901 29.568 191.757 30.904 191.565 32.032C191.373 33.152 191.141 34.108 190.869 34.9C190.605 35.684 190.305 36.324 189.969 36.82C189.641 37.308 189.293 37.688 188.925 37.96C188.565 38.232 188.189 38.416 187.797 38.512C187.413 38.608 187.029 38.656 186.645 38.656C185.965 38.656 185.625 38.548 185.625 38.332V36.976H186.249C186.521 36.976 186.797 36.928 187.077 36.832C187.357 36.736 187.629 36.552 187.893 36.28C188.165 36.008 188.425 35.628 188.673 35.14C188.921 34.644 189.145 34.004 189.345 33.22C189.553 32.428 189.729 31.472 189.873 30.352C190.025 29.224 190.141 27.888 190.221 26.344H197.973V38.5ZM207.944 33.028C206.96 33.06 206.12 33.14 205.424 33.268C204.736 33.388 204.172 33.548 203.732 33.748C203.3 33.948 202.984 34.184 202.784 34.456C202.592 34.728 202.496 35.032 202.496 35.368C202.496 35.688 202.548 35.964 202.652 36.196C202.756 36.428 202.896 36.62 203.072 36.772C203.256 36.916 203.468 37.024 203.708 37.096C203.956 37.16 204.22 37.192 204.5 37.192C204.876 37.192 205.22 37.156 205.532 37.084C205.844 37.004 206.136 36.892 206.408 36.748C206.688 36.604 206.952 36.432 207.2 36.232C207.456 36.032 207.704 35.804 207.944 35.548V33.028ZM201.044 28.06C201.716 27.412 202.44 26.928 203.216 26.608C203.992 26.288 204.852 26.128 205.796 26.128C206.476 26.128 207.08 26.24 207.608 26.464C208.136 26.688 208.58 27 208.94 27.4C209.3 27.8 209.572 28.284 209.756 28.852C209.94 29.42 210.032 30.044 210.032 30.724V38.5H209.084C208.876 38.5 208.716 38.468 208.604 38.404C208.492 38.332 208.404 38.196 208.34 37.996L208.1 36.844C207.78 37.14 207.468 37.404 207.164 37.636C206.86 37.86 206.54 38.052 206.204 38.212C205.868 38.364 205.508 38.48 205.124 38.56C204.748 38.648 204.328 38.692 203.864 38.692C203.392 38.692 202.948 38.628 202.532 38.5C202.116 38.364 201.752 38.164 201.44 37.9C201.136 37.636 200.892 37.304 200.708 36.904C200.532 36.496 200.444 36.016 200.444 35.464C200.444 34.984 200.576 34.524 200.84 34.084C201.104 33.636 201.532 33.24 202.124 32.896C202.716 32.552 203.488 32.272 204.44 32.056C205.392 31.832 206.56 31.704 207.944 31.672V30.724C207.944 29.78 207.74 29.068 207.332 28.588C206.924 28.1 206.328 27.856 205.544 27.856C205.016 27.856 204.572 27.924 204.212 28.06C203.86 28.188 203.552 28.336 203.288 28.504C203.032 28.664 202.808 28.812 202.616 28.948C202.432 29.076 202.248 29.14 202.064 29.14C201.92 29.14 201.796 29.104 201.692 29.032C201.588 28.952 201.5 28.856 201.428 28.744L201.044 28.06ZM221.662 36.94V28.024H217.81C217.73 29.272 217.618 30.376 217.474 31.336C217.33 32.296 217.162 33.14 216.97 33.868C216.786 34.588 216.578 35.2 216.346 35.704C216.122 36.208 215.886 36.62 215.638 36.94H221.662ZM225.958 36.88V42.028C225.958 42.236 225.898 42.396 225.778 42.508C225.666 42.628 225.518 42.688 225.334 42.688H224.026V38.5H213.802V42.076C213.802 42.228 213.754 42.368 213.658 42.496C213.57 42.624 213.422 42.688 213.214 42.688H211.87V36.94H212.266C212.546 36.94 212.822 36.892 213.094 36.796C213.374 36.7 213.642 36.52 213.898 36.256C214.154 35.984 214.394 35.604 214.618 35.116C214.85 34.628 215.058 33.992 215.242 33.208C215.426 32.424 215.586 31.472 215.722 30.352C215.858 29.224 215.966 27.888 216.046 26.344H223.738V36.88H225.958ZM234.71 33.028C233.726 33.06 232.886 33.14 232.19 33.268C231.502 33.388 230.938 33.548 230.498 33.748C230.066 33.948 229.75 34.184 229.55 34.456C229.358 34.728 229.262 35.032 229.262 35.368C229.262 35.688 229.314 35.964 229.418 36.196C229.522 36.428 229.662 36.62 229.838 36.772C230.022 36.916 230.234 37.024 230.474 37.096C230.722 37.16 230.986 37.192 231.266 37.192C231.642 37.192 231.986 37.156 232.298 37.084C232.61 37.004 232.902 36.892 233.174 36.748C233.454 36.604 233.718 36.432 233.966 36.232C234.222 36.032 234.47 35.804 234.71 35.548V33.028ZM227.81 28.06C228.482 27.412 229.206 26.928 229.982 26.608C230.758 26.288 231.618 26.128 232.562 26.128C233.242 26.128 233.846 26.24 234.374 26.464C234.902 26.688 235.346 27 235.706 27.4C236.066 27.8 236.338 28.284 236.522 28.852C236.706 29.42 236.798 30.044 236.798 30.724V38.5H235.85C235.642 38.5 235.482 38.468 235.37 38.404C235.258 38.332 235.17 38.196 235.106 37.996L234.866 36.844C234.546 37.14 234.234 37.404 233.93 37.636C233.626 37.86 233.306 38.052 232.97 38.212C232.634 38.364 232.274 38.48 231.89 38.56C231.514 38.648 231.094 38.692 230.63 38.692C230.158 38.692 229.714 38.628 229.298 38.5C228.882 38.364 228.518 38.164 228.206 37.9C227.902 37.636 227.658 37.304 227.474 36.904C227.298 36.496 227.21 36.016 227.21 35.464C227.21 34.984 227.342 34.524 227.606 34.084C227.87 33.636 228.298 33.24 228.89 32.896C229.482 32.552 230.254 32.272 231.206 32.056C232.158 31.832 233.326 31.704 234.71 31.672V30.724C234.71 29.78 234.506 29.068 234.098 28.588C233.69 28.1 233.094 27.856 232.31 27.856C231.782 27.856 231.338 27.924 230.978 28.06C230.626 28.188 230.318 28.336 230.054 28.504C229.798 28.664 229.574 28.812 229.382 28.948C229.198 29.076 229.014 29.14 228.83 29.14C228.686 29.14 228.562 29.104 228.458 29.032C228.354 28.952 228.266 28.856 228.194 28.744L227.81 28.06Z" fill="#0B1113"/>
</g>
<defs>
<filter id="filter0_ddd_20_118" x="0.6" y="0.8" width="257.1" height="59.5" filterUnits="userSpaceOnUse" color-interpolation-filters="sRGB">
<feFlood flood-opacity="0" result="BackgroundImageFix"/>
<feColorMatrix in="SourceAlpha" type="matrix" values="0 0 0 0 0 0 0 0 0 0 0 0 0 0 0 0 0 0 127 0" result="hardAlpha"/>
<feOffset dx="0.3" dy="0.5"/>
<feGaussianBlur stdDeviation="0.35"/>
<feComposite in2="hardAlpha" operator="out"/>
<feColorMatrix type="matrix" values="0 0 0 0 0.633333 0 0 0 0 0.633333 0 0 0 0 0.633333 0 0 0 0.23 0"/>
<feBlend mode="normal" in2="BackgroundImageFix" result="effect1_dropShadow_20_118"/>
<feColorMatrix in="SourceAlpha" type="matrix" values="0 0 0 0 0 0 0 0 0 0 0 0 0 0 0 0 0 0 127 0" result="hardAlpha"/>
<feMorphology radius="0.8" operator="erode" in="SourceAlpha" result="effect2_dropShadow_20_118"/>
<feOffset dx="0.6" dy="0.9"/>
<feGaussianBlur stdDeviation="0.65"/>
<feComposite in2="hardAlpha" operator="out"/>
<feColorMatrix type="matrix" values="0 0 0 0 0.631373 0 0 0 0 0.631373 0 0 0 0 0.631373 0 0 0 0.31 0"/>
<feBlend mode="normal" in2="effect1_dropShadow_20_118" result="effect2_dropShadow_20_118"/>
<feColorMatrix in="SourceAlpha" type="matrix" values="0 0 0 0 0 0 0 0 0 0 0 0 0 0 0 0 0 0 127 0" result="hardAlpha"/>
<feMorphology radius="1.7" operator="erode" in="SourceAlpha" result="effect3_dropShadow_20_118"/>
<feOffset dx="1.4" dy="2"/>
<feGaussianBlur stdDeviation="1.5"/>
<feComposite in2="hardAlpha" operator="out"/>
<feColorMatrix type="matrix" values="0 0 0 0 0.631373 0 0 0 0 0.631373 0 0 0 0 0.631373 0 0 0 0.38 0"/>
<feBlend mode="normal" in2="effect2_dropShadow_20_118" result="effect3_dropShadow_20_118"/>
<feBlend mode="normal" in="SourceGraphic" in2="effect3_dropShadow_20_118" result="shape"/>
</filter>
<clipPath id="clip0_20_118">
<rect width="32" height="32" fill="white" transform="translate(17 13)"/>
</clipPath>
</defs>
</svg>
