<svg width="222" height="61" viewBox="0 0 222 61" fill="none" xmlns="http://www.w3.org/2000/svg">
<g filter="url(#filter0_ddd_20_130)">
<rect x="1" y="1" width="218" height="56" rx="6" fill="#27393F"/>
<g clip-path="url(#clip0_20_130)">
<path d="M32.5501 40L24.8501 18.1C24.8501 18.1 43.2001 13.65 43.2001 23.1V37.15C43.2001 37.55 42.7001 38.05 42.3001 38.05L32.5501 40Z" fill="#7A8084"/>
<path d="M20.2999 39.9999C19.8999 39.9999 19.3999 39.4999 19.3999 39.0999V25.0499C19.3999 15.5999 33.4499 15.5999 33.4499 25.0499V39.0999C33.4499 39.4999 32.9499 39.9999 32.5499 39.9999H20.2999Z" fill="#94989B"/>
<path d="M30.1 35.2C29.6 35.2 29.2 35.6 29.2 36.1C29.2 36.6 29.6 37 30.1 37C30.6 37 31 36.6 31 36.1C31 35.6 30.6 35.2 30.1 35.2Z" fill="#ED4C5C"/>
<path d="M22.5501 40.9C22.3001 40.9 22.1001 40.7001 22.1001 40.4501V39.5C22.1001 39.25 22.3001 39.05 22.5501 39.05H30.3001C30.5501 39.05 30.7501 39.25 30.7501 39.5V40.4501C30.7501 40.7001 30.5501 40.9 30.3001 40.9H22.5501Z" fill="#7A8084"/>
<path d="M32.6999 25.4501C32.6999 29.3501 29.7499 33.1001 24.3999 33.1001C20.4999 33.1001 19.8999 24.2001 19.8999 20.3001C19.8999 20.3001 22.0999 18.3501 25.5999 18.3501C29.5499 18.3501 32.6999 21.5501 32.6999 25.4501" fill="#3E4347"/>
<path d="M24.05 33.1C27.9436 33.1 31.1 29.9436 31.1 26.05C31.1 22.1564 27.9436 19 24.05 19C20.1564 19 17 22.1564 17 26.05C17 29.9436 20.1564 33.1 24.05 33.1Z" fill="#788287"/>
<path d="M30.35 26.05C30.35 29.5 27.55 32.35 24.05 32.35C20.6 32.3 17.8 29.5 17.8 26.05C17.8 22.6 20.6 19.75 24.1 19.75C27.55 19.75 30.35 22.55 30.35 26.05Z" fill="#212528"/>
<path d="M24.05 31.15C26.8666 31.15 29.15 28.8666 29.15 26.05C29.15 23.2333 26.8666 20.95 24.05 20.95C21.2333 20.95 18.95 23.2333 18.95 26.05C18.95 28.8666 21.2333 31.15 24.05 31.15Z" fill="#3E4347"/>
<path d="M24.05 28.8C25.5688 28.8 26.8 27.5688 26.8 26.05C26.8 24.5313 25.5688 23.3 24.05 23.3C22.5313 23.3 21.3 24.5313 21.3 26.05C21.3 27.5688 22.5313 28.8 24.05 28.8Z" fill="#212528"/>
<path opacity="0.5" d="M27.7999 23.85C27.7999 24.7 27.0999 25.45 26.1999 25.45C25.3499 25.45 24.5999 24.75 24.5999 23.85C24.5999 23 25.2999 22.25 26.1999 22.25C27.0999 22.25 27.7999 23 27.7999 23.85Z" fill="#F5F5F5"/>
<path opacity="0.5" d="M23.0999 28C23.6521 28 24.0999 27.5523 24.0999 27C24.0999 26.4477 23.6521 26 23.0999 26C22.5476 26 22.0999 26.4477 22.0999 27C22.0999 27.5523 22.5476 28 23.0999 28Z" fill="#F5F5F5"/>
<path opacity="0.5" d="M21.3 29.4C21.6313 29.4 21.9 29.1313 21.9 28.8C21.9 28.4686 21.6313 28.2 21.3 28.2C20.9686 28.2 20.7 28.4686 20.7 28.8C20.7 29.1313 20.9686 29.4 21.3 29.4Z" fill="#F5F5F5"/>
<path d="M42.5999 23.2001C42.5999 23.9501 42.1999 24.6501 41.6499 24.8001C40.9999 25.0001 40.3999 24.4001 40.3999 23.4501C40.3999 22.5001 40.9999 21.8001 41.6499 21.8501C42.1999 21.8001 42.5999 22.4501 42.5999 23.2001ZM39.6499 24.5501C39.6499 24.8501 39.2999 25.2001 38.7999 25.3001C38.2499 25.4001 37.7999 25.2501 37.7999 24.9001C37.7999 24.5501 38.2499 24.2001 38.7999 24.1001C39.2999 24.0001 39.6499 24.2001 39.6499 24.5501V24.5501ZM39.5999 22.9501C39.5999 23.2501 39.2499 23.6001 38.7499 23.7001C38.1999 23.8001 37.7499 23.6501 37.7499 23.3001C37.7499 22.9501 38.1999 22.6001 38.7499 22.5001C39.1999 22.4501 39.5999 22.6501 39.5999 22.9501V22.9501ZM35.3999 27.0001L42.7499 24.9501V29.8501L35.3999 27.0001Z" fill="#3E4347"/>
<path d="M35.85 39.25C35.6 39.25 35.4 39.05 35.4 38.8V27C35.4 26.75 35.6 26.55 35.85 26.55H46.4501C49.9001 26.55 49.9001 39.25 46.4501 39.25H35.85ZM34.05 28.85C34.05 28.6 34.2501 28.45 34.4501 28.45H35C35.25 28.45 35.4 28.65 35.4 28.85V37.05C35.4 37.3 35.2 37.45 35 37.45H34.4501C34.2501 37.45 34.05 37.25 34.05 37.05V28.85Z" fill="#94989B"/>
<path d="M36.3 27.45H46.75V38.35H36.3V27.45Z" fill="#42ADE2"/>
</g>
<path d="M76.824 23.26H71.256V38.5H68.94V23.26H63.36V21.304H76.824V23.26ZM82.7175 33.028C81.7335 33.06 80.8935 33.14 80.1975 33.268C79.5095 33.388 78.9455 33.548 78.5055 33.748C78.0735 33.948 77.7575 34.184 77.5575 34.456C77.3655 34.728 77.2695 35.032 77.2695 35.368C77.2695 35.688 77.3215 35.964 77.4255 36.196C77.5295 36.428 77.6695 36.62 77.8455 36.772C78.0295 36.916 78.2415 37.024 78.4815 37.096C78.7295 37.16 78.9935 37.192 79.2735 37.192C79.6495 37.192 79.9935 37.156 80.3055 37.084C80.6175 37.004 80.9095 36.892 81.1815 36.748C81.4615 36.604 81.7255 36.432 81.9735 36.232C82.2295 36.032 82.4775 35.804 82.7175 35.548V33.028ZM75.8175 28.06C76.4895 27.412 77.2135 26.928 77.9895 26.608C78.7655 26.288 79.6255 26.128 80.5695 26.128C81.2495 26.128 81.8535 26.24 82.3815 26.464C82.9095 26.688 83.3535 27 83.7135 27.4C84.0735 27.8 84.3455 28.284 84.5295 28.852C84.7135 29.42 84.8055 30.044 84.8055 30.724V38.5H83.8575C83.6495 38.5 83.4895 38.468 83.3775 38.404C83.2655 38.332 83.1775 38.196 83.1135 37.996L82.8735 36.844C82.5535 37.14 82.2415 37.404 81.9375 37.636C81.6335 37.86 81.3135 38.052 80.9775 38.212C80.6415 38.364 80.2815 38.48 79.8975 38.56C79.5215 38.648 79.1015 38.692 78.6375 38.692C78.1655 38.692 77.7215 38.628 77.3055 38.5C76.8895 38.364 76.5255 38.164 76.2135 37.9C75.9095 37.636 75.6655 37.304 75.4815 36.904C75.3055 36.496 75.2175 36.016 75.2175 35.464C75.2175 34.984 75.3495 34.524 75.6135 34.084C75.8775 33.636 76.3055 33.24 76.8975 32.896C77.4895 32.552 78.2615 32.272 79.2135 32.056C80.1655 31.832 81.3335 31.704 82.7175 31.672V30.724C82.7175 29.78 82.5135 29.068 82.1055 28.588C81.6975 28.1 81.1015 27.856 80.3175 27.856C79.7895 27.856 79.3455 27.924 78.9855 28.06C78.6335 28.188 78.3255 28.336 78.0615 28.504C77.8055 28.664 77.5815 28.812 77.3895 28.948C77.2055 29.076 77.0215 29.14 76.8375 29.14C76.6935 29.14 76.5695 29.104 76.4655 29.032C76.3615 28.952 76.2735 28.856 76.2015 28.744L75.8175 28.06ZM90.2672 20.824V38.5H88.1312V20.824H90.2672ZM95.8791 20.824V31.228H96.4311C96.5911 31.228 96.7231 31.208 96.8271 31.168C96.9391 31.12 97.0551 31.028 97.1751 30.892L101.015 26.776C101.127 26.64 101.243 26.536 101.363 26.464C101.491 26.384 101.659 26.344 101.867 26.344H103.799L99.3231 31.108C99.1071 31.38 98.8751 31.592 98.6271 31.744C98.7711 31.84 98.8991 31.952 99.0111 32.08C99.1311 32.2 99.2431 32.34 99.3471 32.5L104.099 38.5H102.191C102.007 38.5 101.847 38.472 101.711 38.416C101.583 38.352 101.471 38.24 101.375 38.08L97.3791 33.1C97.2591 32.932 97.1391 32.824 97.0191 32.776C96.9071 32.72 96.7311 32.692 96.4911 32.692H95.8791V38.5H93.7311V20.824H95.8791ZM113.307 30.952C113.307 32.664 113.523 34.328 113.955 35.944C114.395 37.56 115.035 39.096 115.875 40.552C116.003 40.8 116.035 40.988 115.971 41.116C115.907 41.252 115.815 41.36 115.695 41.44L114.747 42.016C114.147 41.096 113.635 40.184 113.211 39.28C112.795 38.376 112.455 37.468 112.191 36.556C111.935 35.644 111.747 34.728 111.627 33.808C111.507 32.88 111.447 31.928 111.447 30.952C111.447 29.984 111.507 29.036 111.627 28.108C111.747 27.18 111.935 26.264 112.191 25.36C112.455 24.448 112.795 23.54 113.211 22.636C113.635 21.732 114.147 20.816 114.747 19.888L115.695 20.476C115.815 20.556 115.907 20.664 115.971 20.8C116.035 20.928 116.003 21.112 115.875 21.352C115.035 22.808 114.395 24.344 113.955 25.96C113.523 27.576 113.307 29.24 113.307 30.952ZM123.726 29.632C124.398 29.632 124.99 29.552 125.502 29.392C126.022 29.224 126.454 28.992 126.798 28.696C127.15 28.392 127.414 28.032 127.59 27.616C127.766 27.2 127.854 26.74 127.854 26.236C127.854 25.212 127.518 24.44 126.846 23.92C126.174 23.4 125.166 23.14 123.822 23.14H121.278V29.632H123.726ZM131.67 38.5H129.606C129.182 38.5 128.87 38.336 128.67 38.008L124.206 31.864C124.07 31.672 123.922 31.536 123.762 31.456C123.61 31.368 123.37 31.324 123.042 31.324H121.278V38.5H118.962V21.304H123.822C124.91 21.304 125.85 21.416 126.642 21.64C127.434 21.856 128.086 22.172 128.598 22.588C129.118 23.004 129.502 23.508 129.75 24.1C129.998 24.684 130.122 25.34 130.122 26.068C130.122 26.676 130.026 27.244 129.834 27.772C129.642 28.3 129.362 28.776 128.994 29.2C128.634 29.616 128.19 29.972 127.662 30.268C127.142 30.564 126.55 30.788 125.886 30.94C126.182 31.108 126.438 31.352 126.654 31.672L131.67 38.5ZM143.008 26.344V38.5H141.736C141.432 38.5 141.24 38.352 141.16 38.056L140.992 36.748C140.464 37.332 139.872 37.804 139.216 38.164C138.56 38.516 137.808 38.692 136.96 38.692C136.296 38.692 135.708 38.584 135.196 38.368C134.692 38.144 134.268 37.832 133.924 37.432C133.58 37.032 133.32 36.548 133.144 35.98C132.976 35.412 132.892 34.784 132.892 34.096V26.344H135.028V34.096C135.028 35.016 135.236 35.728 135.652 36.232C136.076 36.736 136.72 36.988 137.584 36.988C138.216 36.988 138.804 36.84 139.348 36.544C139.9 36.24 140.408 35.824 140.872 35.296V26.344H143.008ZM153.475 28.348C153.379 28.524 153.231 28.612 153.031 28.612C152.911 28.612 152.775 28.568 152.623 28.48C152.471 28.392 152.283 28.296 152.059 28.192C151.843 28.08 151.583 27.98 151.279 27.892C150.975 27.796 150.615 27.748 150.199 27.748C149.839 27.748 149.515 27.796 149.227 27.892C148.939 27.98 148.691 28.104 148.483 28.264C148.283 28.424 148.127 28.612 148.015 28.828C147.911 29.036 147.859 29.264 147.859 29.512C147.859 29.824 147.947 30.084 148.123 30.292C148.307 30.5 148.547 30.68 148.843 30.832C149.139 30.984 149.475 31.12 149.851 31.24C150.227 31.352 150.611 31.476 151.003 31.612C151.403 31.74 151.791 31.884 152.167 32.044C152.543 32.204 152.879 32.404 153.175 32.644C153.471 32.884 153.707 33.18 153.883 33.532C154.067 33.876 154.159 34.292 154.159 34.78C154.159 35.34 154.059 35.86 153.859 36.34C153.659 36.812 153.363 37.224 152.971 37.576C152.579 37.92 152.099 38.192 151.531 38.392C150.963 38.592 150.307 38.692 149.563 38.692C148.715 38.692 147.947 38.556 147.259 38.284C146.571 38.004 145.987 37.648 145.507 37.216L146.011 36.4C146.075 36.296 146.151 36.216 146.239 36.16C146.327 36.104 146.439 36.076 146.575 36.076C146.719 36.076 146.871 36.132 147.031 36.244C147.191 36.356 147.383 36.48 147.607 36.616C147.839 36.752 148.119 36.876 148.447 36.988C148.775 37.1 149.183 37.156 149.671 37.156C150.087 37.156 150.451 37.104 150.763 37C151.075 36.888 151.335 36.74 151.543 36.556C151.751 36.372 151.903 36.16 151.999 35.92C152.103 35.68 152.155 35.424 152.155 35.152C152.155 34.816 152.063 34.54 151.879 34.324C151.703 34.1 151.467 33.912 151.171 33.76C150.875 33.6 150.535 33.464 150.151 33.352C149.775 33.232 149.387 33.108 148.987 32.98C148.595 32.852 148.207 32.708 147.823 32.548C147.447 32.38 147.111 32.172 146.815 31.924C146.519 31.676 146.279 31.372 146.095 31.012C145.919 30.644 145.831 30.2 145.831 29.68C145.831 29.216 145.927 28.772 146.119 28.348C146.311 27.916 146.591 27.54 146.959 27.22C147.327 26.892 147.779 26.632 148.315 26.44C148.851 26.248 149.463 26.152 150.151 26.152C150.951 26.152 151.667 26.28 152.299 26.536C152.939 26.784 153.491 27.128 153.955 27.568L153.475 28.348ZM163.858 28.348C163.762 28.524 163.614 28.612 163.414 28.612C163.294 28.612 163.158 28.568 163.006 28.48C162.854 28.392 162.666 28.296 162.442 28.192C162.226 28.08 161.966 27.98 161.662 27.892C161.358 27.796 160.998 27.748 160.582 27.748C160.222 27.748 159.898 27.796 159.61 27.892C159.322 27.98 159.074 28.104 158.866 28.264C158.666 28.424 158.51 28.612 158.398 28.828C158.294 29.036 158.242 29.264 158.242 29.512C158.242 29.824 158.33 30.084 158.506 30.292C158.69 30.5 158.93 30.68 159.226 30.832C159.522 30.984 159.858 31.12 160.234 31.24C160.61 31.352 160.994 31.476 161.386 31.612C161.786 31.74 162.174 31.884 162.55 32.044C162.926 32.204 163.262 32.404 163.558 32.644C163.854 32.884 164.09 33.18 164.266 33.532C164.45 33.876 164.542 34.292 164.542 34.78C164.542 35.34 164.442 35.86 164.242 36.34C164.042 36.812 163.746 37.224 163.354 37.576C162.962 37.92 162.482 38.192 161.914 38.392C161.346 38.592 160.69 38.692 159.946 38.692C159.098 38.692 158.33 38.556 157.642 38.284C156.954 38.004 156.37 37.648 155.89 37.216L156.394 36.4C156.458 36.296 156.534 36.216 156.622 36.16C156.71 36.104 156.822 36.076 156.958 36.076C157.102 36.076 157.254 36.132 157.414 36.244C157.574 36.356 157.766 36.48 157.99 36.616C158.222 36.752 158.502 36.876 158.83 36.988C159.158 37.1 159.566 37.156 160.054 37.156C160.47 37.156 160.834 37.104 161.146 37C161.458 36.888 161.718 36.74 161.926 36.556C162.134 36.372 162.286 36.16 162.382 35.92C162.486 35.68 162.538 35.424 162.538 35.152C162.538 34.816 162.446 34.54 162.262 34.324C162.086 34.1 161.85 33.912 161.554 33.76C161.258 33.6 160.918 33.464 160.534 33.352C160.158 33.232 159.77 33.108 159.37 32.98C158.978 32.852 158.59 32.708 158.206 32.548C157.83 32.38 157.494 32.172 157.198 31.924C156.902 31.676 156.662 31.372 156.478 31.012C156.302 30.644 156.214 30.2 156.214 29.68C156.214 29.216 156.31 28.772 156.502 28.348C156.694 27.916 156.974 27.54 157.342 27.22C157.71 26.892 158.162 26.632 158.698 26.44C159.234 26.248 159.846 26.152 160.534 26.152C161.334 26.152 162.05 26.28 162.682 26.536C163.322 26.784 163.874 27.128 164.338 27.568L163.858 28.348ZM169.417 26.344V38.5H167.281V26.344H169.417ZM169.873 22.528C169.873 22.736 169.829 22.932 169.741 23.116C169.661 23.292 169.549 23.452 169.405 23.596C169.269 23.732 169.105 23.84 168.913 23.92C168.729 24 168.533 24.04 168.325 24.04C168.117 24.04 167.921 24 167.737 23.92C167.561 23.84 167.405 23.732 167.269 23.596C167.133 23.452 167.025 23.292 166.945 23.116C166.865 22.932 166.825 22.736 166.825 22.528C166.825 22.32 166.865 22.124 166.945 21.94C167.025 21.748 167.133 21.584 167.269 21.448C167.405 21.304 167.561 21.192 167.737 21.112C167.921 21.032 168.117 20.992 168.325 20.992C168.533 20.992 168.729 21.032 168.913 21.112C169.105 21.192 169.269 21.304 169.405 21.448C169.549 21.584 169.661 21.748 169.741 21.94C169.829 22.124 169.873 22.32 169.873 22.528ZM179.514 33.028C178.53 33.06 177.69 33.14 176.994 33.268C176.306 33.388 175.742 33.548 175.302 33.748C174.87 33.948 174.554 34.184 174.354 34.456C174.162 34.728 174.066 35.032 174.066 35.368C174.066 35.688 174.118 35.964 174.222 36.196C174.326 36.428 174.466 36.62 174.642 36.772C174.826 36.916 175.038 37.024 175.278 37.096C175.526 37.16 175.79 37.192 176.07 37.192C176.446 37.192 176.79 37.156 177.102 37.084C177.414 37.004 177.706 36.892 177.978 36.748C178.258 36.604 178.522 36.432 178.77 36.232C179.026 36.032 179.274 35.804 179.514 35.548V33.028ZM172.614 28.06C173.286 27.412 174.01 26.928 174.786 26.608C175.562 26.288 176.422 26.128 177.366 26.128C178.046 26.128 178.65 26.24 179.178 26.464C179.706 26.688 180.15 27 180.51 27.4C180.87 27.8 181.142 28.284 181.326 28.852C181.51 29.42 181.602 30.044 181.602 30.724V38.5H180.654C180.446 38.5 180.286 38.468 180.174 38.404C180.062 38.332 179.974 38.196 179.91 37.996L179.67 36.844C179.35 37.14 179.038 37.404 178.734 37.636C178.43 37.86 178.11 38.052 177.774 38.212C177.438 38.364 177.078 38.48 176.694 38.56C176.318 38.648 175.898 38.692 175.434 38.692C174.962 38.692 174.518 38.628 174.102 38.5C173.686 38.364 173.322 38.164 173.01 37.9C172.706 37.636 172.462 37.304 172.278 36.904C172.102 36.496 172.014 36.016 172.014 35.464C172.014 34.984 172.146 34.524 172.41 34.084C172.674 33.636 173.102 33.24 173.694 32.896C174.286 32.552 175.058 32.272 176.01 32.056C176.962 31.832 178.13 31.704 179.514 31.672V30.724C179.514 29.78 179.31 29.068 178.902 28.588C178.494 28.1 177.898 27.856 177.114 27.856C176.586 27.856 176.142 27.924 175.782 28.06C175.43 28.188 175.122 28.336 174.858 28.504C174.602 28.664 174.378 28.812 174.186 28.948C174.002 29.076 173.818 29.14 173.634 29.14C173.49 29.14 173.366 29.104 173.262 29.032C173.158 28.952 173.07 28.856 172.998 28.744L172.614 28.06ZM186.872 28.108C187.136 27.812 187.416 27.544 187.712 27.304C188.008 27.064 188.32 26.86 188.648 26.692C188.984 26.516 189.336 26.384 189.704 26.296C190.08 26.2 190.484 26.152 190.916 26.152C191.58 26.152 192.164 26.264 192.668 26.488C193.18 26.704 193.604 27.016 193.94 27.424C194.284 27.824 194.544 28.308 194.72 28.876C194.896 29.444 194.984 30.072 194.984 30.76V38.5H192.836V30.76C192.836 29.84 192.624 29.128 192.2 28.624C191.784 28.112 191.148 27.856 190.292 27.856C189.66 27.856 189.068 28.008 188.516 28.312C187.972 28.616 187.468 29.028 187.004 29.548V38.5H184.856V26.344H186.14C186.444 26.344 186.632 26.492 186.704 26.788L186.872 28.108ZM199.593 30.952C199.593 29.24 199.373 27.576 198.933 25.96C198.501 24.344 197.865 22.808 197.025 21.352C196.961 21.232 196.921 21.128 196.905 21.04C196.889 20.944 196.893 20.864 196.917 20.8C196.941 20.728 196.977 20.668 197.025 20.62C197.081 20.564 197.141 20.516 197.205 20.476L198.153 19.888C198.753 20.816 199.261 21.732 199.677 22.636C200.101 23.54 200.441 24.448 200.697 25.36C200.961 26.264 201.153 27.18 201.273 28.108C201.393 29.036 201.453 29.984 201.453 30.952C201.453 31.928 201.393 32.88 201.273 33.808C201.153 34.728 200.961 35.644 200.697 36.556C200.441 37.468 200.101 38.376 199.677 39.28C199.261 40.184 198.753 41.096 198.153 42.016L197.205 41.44C197.141 41.4 197.081 41.352 197.025 41.296C196.977 41.248 196.941 41.188 196.917 41.116C196.893 41.052 196.889 40.972 196.905 40.876C196.921 40.78 196.961 40.672 197.025 40.552C197.865 39.096 198.501 37.56 198.933 35.944C199.373 34.328 199.593 32.664 199.593 30.952Z" fill="#F9FBFB"/>
</g>
<defs>
<filter id="filter0_ddd_20_130" x="0.6" y="0.8" width="221.1" height="59.5" filterUnits="userSpaceOnUse" color-interpolation-filters="sRGB">
<feFlood flood-opacity="0" result="BackgroundImageFix"/>
<feColorMatrix in="SourceAlpha" type="matrix" values="0 0 0 0 0 0 0 0 0 0 0 0 0 0 0 0 0 0 127 0" result="hardAlpha"/>
<feOffset dx="0.3" dy="0.5"/>
<feGaussianBlur stdDeviation="0.35"/>
<feComposite in2="hardAlpha" operator="out"/>
<feColorMatrix type="matrix" values="0 0 0 0 0.633333 0 0 0 0 0.633333 0 0 0 0 0.633333 0 0 0 0.23 0"/>
<feBlend mode="normal" in2="BackgroundImageFix" result="effect1_dropShadow_20_130"/>
<feColorMatrix in="SourceAlpha" type="matrix" values="0 0 0 0 0 0 0 0 0 0 0 0 0 0 0 0 0 0 127 0" result="hardAlpha"/>
<feMorphology radius="0.8" operator="erode" in="SourceAlpha" result="effect2_dropShadow_20_130"/>
<feOffset dx="0.6" dy="0.9"/>
<feGaussianBlur stdDeviation="0.65"/>
<feComposite in2="hardAlpha" operator="out"/>
<feColorMatrix type="matrix" values="0 0 0 0 0.631373 0 0 0 0 0.631373 0 0 0 0 0.631373 0 0 0 0.31 0"/>
<feBlend mode="normal" in2="effect1_dropShadow_20_130" result="effect2_dropShadow_20_130"/>
<feColorMatrix in="SourceAlpha" type="matrix" values="0 0 0 0 0 0 0 0 0 0 0 0 0 0 0 0 0 0 127 0" result="hardAlpha"/>
<feMorphology radius="1.7" operator="erode" in="SourceAlpha" result="effect3_dropShadow_20_130"/>
<feOffset dx="1.4" dy="2"/>
<feGaussianBlur stdDeviation="1.5"/>
<feComposite in2="hardAlpha" operator="out"/>
<feColorMatrix type="matrix" values="0 0 0 0 0.631373 0 0 0 0 0.631373 0 0 0 0 0.631373 0 0 0 0.38 0"/>
<feBlend mode="normal" in2="effect2_dropShadow_20_130" result="effect3_dropShadow_20_130"/>
<feBlend mode="normal" in="SourceGraphic" in2="effect3_dropShadow_20_130" result="shape"/>
</filter>
<clipPath id="clip0_20_130">
<rect width="32" height="32" fill="white" transform="translate(17 13)"/>
</clipPath>
</defs>
</svg>
