<svg width="752" height="396" viewBox="0 0 752 396" fill="none" xmlns="http://www.w3.org/2000/svg">
<path d="M3.9375 242.93L7.10156 243.633C7.57031 251.367 8.10938 264.235 8.71875 282.235C17.8594 265.969 24.1406 252.891 27.5625 243C28.2656 242.438 28.9453 242.156 29.6016 242.156C30.6328 242.156 31.4766 242.766 32.1328 243.985C32.8359 245.203 33.2109 246.586 33.2578 248.133C33.3984 252.492 33.5156 259.852 33.6094 270.211C33.75 280.571 33.9375 288.305 34.1719 293.414C33.75 294.821 32.9531 295.524 31.7812 295.524C30.9375 295.524 30.1172 295.172 29.3203 294.469C28.5234 293.813 28.0312 292.992 27.8438 292.008C27.9844 287.93 28.0547 281.672 28.0547 273.235C28.1016 264.797 28.1484 259.102 28.1953 256.149C27.1641 257.93 25.3594 261.305 22.7812 266.274C20.2031 271.242 17.8125 275.508 15.6094 279.071C13.4531 282.633 11.2266 285.727 8.92969 288.352L9.21094 294.047C8.78906 295.5 7.96875 296.227 6.75 296.227C5.90625 296.227 5.08594 295.875 4.28906 295.172C3.53906 294.469 3.07031 293.625 2.88281 292.641C3.02344 288.656 3.16406 280.852 3.30469 269.227C3.44531 257.602 3.65625 248.836 3.9375 242.93ZM63.6328 259.594L63.2812 262.617C61.3125 262.336 59.625 262.196 58.2188 262.196C54.9844 262.196 52.3125 263.18 50.2031 265.149C48.0938 267.071 46.6406 269.367 45.8438 272.039C45.0938 274.664 44.7188 277.594 44.7188 280.828C44.7188 282.328 44.8125 283.664 45 284.836C45.1875 286.008 45.5156 287.156 45.9844 288.281C46.5 289.406 47.2734 290.297 48.3047 290.953C49.3828 291.563 50.6953 291.867 52.2422 291.867C54.3047 291.867 56.9297 291.469 60.1172 290.672C61.1016 290.297 61.875 290.11 62.4375 290.11C63.5625 290.11 64.2422 291.422 64.4766 294.047C60.3516 295.36 56.5312 296.016 53.0156 296.016C47.9062 296.016 44.4375 294.774 42.6094 292.289C40.8281 289.758 39.9375 285.68 39.9375 280.055C39.9375 276.774 40.1484 273.914 40.5703 271.477C41.0391 268.992 41.8359 266.696 42.9609 264.586C44.0859 262.43 45.7031 260.789 47.8125 259.664C49.9688 258.539 52.5938 257.977 55.6875 257.977C59.1562 257.977 61.8047 258.516 63.6328 259.594ZM68.5547 259.313L92.25 259.524L93.8672 293.625C93.4453 295.031 92.625 295.735 91.4062 295.735C90.5625 295.735 89.7422 295.383 88.9453 294.68C88.1484 294.024 87.6562 293.203 87.4688 292.219C87.5156 291.375 87.5859 288.727 87.6797 284.274C87.8203 279.774 87.9609 275.485 88.1016 271.406C88.2422 267.281 88.3359 264.61 88.3828 263.391C87.0703 263.297 85.125 263.25 82.5469 263.25C79.0312 263.25 76.1016 263.11 73.7578 262.828C73.8984 264.375 74.0156 269.367 74.1094 277.805C74.2031 286.196 74.2969 291.071 74.3906 292.43C73.9688 293.883 73.1484 294.61 71.9297 294.61C71.0859 294.61 70.2656 294.281 69.4688 293.625C68.7188 292.922 68.25 292.078 68.0625 291.094C68.2031 288.75 68.2734 286.406 68.2734 284.063C68.2734 282.844 68.25 280.828 68.2031 278.016C68.1562 275.203 68.1328 272.977 68.1328 271.336C68.1328 266.508 68.2734 262.5 68.5547 259.313ZM100.406 257.485L104.344 258.188C104.344 259.172 104.367 259.899 104.414 260.367C106.992 258.727 109.594 257.906 112.219 257.906C116.484 257.906 119.812 259.735 122.203 263.391C124.594 267.047 125.789 271.196 125.789 275.836C125.789 278.18 125.602 280.43 125.227 282.586C124.898 284.696 124.289 286.875 123.398 289.125C122.508 291.328 121.125 293.11 119.25 294.469C117.422 295.781 115.195 296.438 112.57 296.438C110.086 296.438 107.695 295.781 105.398 294.469C105.586 302.672 105.75 308.766 105.891 312.75C105.469 314.203 104.648 314.93 103.43 314.93C102.586 314.93 101.766 314.578 100.969 313.875C100.219 313.219 99.75 312.399 99.5625 311.414L100.406 257.485ZM104.977 264.938L105.188 287.649C105.75 288.774 106.617 289.688 107.789 290.391C108.961 291.047 110.25 291.375 111.656 291.375C113.484 291.375 115.031 290.789 116.297 289.617C117.609 288.446 118.523 286.899 119.039 284.977C119.602 283.008 119.977 281.18 120.164 279.492C120.398 277.805 120.516 276.024 120.516 274.149C120.516 266.18 117.82 262.196 112.43 262.196C110.695 262.196 109.078 262.453 107.578 262.969C106.125 263.438 105.258 264.094 104.977 264.938ZM134.016 264.094L132.609 260.508C133.828 259.289 135.375 258.328 137.25 257.625C139.125 256.875 140.977 256.5 142.805 256.5C150.727 256.5 154.688 263.344 154.688 277.031C154.688 278.906 154.57 281.672 154.336 285.328C154.148 288.985 154.055 291.727 154.055 293.555C153.68 295.008 152.953 295.735 151.875 295.735C151.031 295.735 150.258 295.313 149.555 294.469C148.852 293.625 148.5 292.688 148.5 291.656C148.5 291.328 148.523 291.094 148.57 290.953C145.664 293.766 142.57 295.172 139.289 295.172C136.805 295.172 134.625 294.281 132.75 292.5C130.922 290.672 130.008 288.469 130.008 285.891C130.008 281.531 131.695 277.594 135.07 274.078C138.492 270.563 142.359 268.805 146.672 268.805C146.859 268.805 147.047 268.828 147.234 268.875C147.422 268.875 147.633 268.899 147.867 268.946C148.148 268.992 148.359 269.016 148.5 269.016C148.125 263.531 145.945 260.789 141.961 260.789C139.617 260.789 136.969 261.891 134.016 264.094ZM148.711 286.102C148.805 282.821 148.852 280.336 148.852 278.649C148.852 277.242 148.805 275.274 148.711 272.742H148.148C144.82 272.789 141.773 274.031 139.008 276.469C136.289 278.906 134.93 281.86 134.93 285.328C134.93 286.828 135.375 288.024 136.266 288.914C137.203 289.805 138.328 290.25 139.641 290.25C141.703 290.25 144.727 288.867 148.711 286.102ZM161.93 258.399C169.195 256.852 173.625 256.078 175.219 256.078C181.5 256.078 184.641 258.774 184.641 264.164C184.641 266.039 184.312 267.867 183.656 269.649C183.047 271.383 182.273 272.531 181.336 273.094C184.992 275.578 186.82 279 186.82 283.36C186.82 287.485 185.461 290.696 182.742 292.992C180.07 295.289 176.531 296.438 172.125 296.438C166.875 296.438 162.961 295.031 160.383 292.219L161.93 258.399ZM165.938 276.047L166.57 290.321C167.742 290.883 169.078 291.164 170.578 291.164C173.484 291.164 176.156 290.25 178.594 288.422C181.031 286.594 182.25 284.461 182.25 282.024C182.25 280.336 181.594 278.789 180.281 277.383C178.969 275.93 177.305 275.203 175.289 275.203C174.117 275.203 171 275.485 165.938 276.047ZM165.234 261.563L165.727 272.391C166.43 272.297 167.508 272.227 168.961 272.18C170.414 272.133 171.586 272.039 172.477 271.899C173.367 271.711 174.352 271.36 175.43 270.844C176.508 270.281 177.352 269.321 177.961 267.961C178.617 266.602 179.062 264.821 179.297 262.617C178.828 261.211 177.398 260.508 175.008 260.508C173.93 260.508 172.242 260.672 169.945 261C167.648 261.328 166.078 261.516 165.234 261.563ZM184.992 300.797L183.867 297.774C185.414 297.164 186.82 296.203 188.086 294.891C189.305 293.578 190.312 292.219 191.109 290.813C191.906 289.36 192.586 287.555 193.148 285.399C193.711 283.242 194.109 281.367 194.344 279.774C194.625 278.133 194.836 276.117 194.977 273.727C195.117 271.336 195.188 269.555 195.188 268.383C195.234 267.164 195.258 265.547 195.258 263.531C195.258 260.672 195.516 258.961 196.031 258.399C196.688 257.696 200.32 257.344 206.93 257.344C212.133 257.344 215.086 257.321 215.789 257.274C215.883 276.305 216.117 288.656 216.492 294.328C216.023 295.735 215.203 296.438 214.031 296.438C213.234 296.438 212.461 296.11 211.711 295.453C210.961 294.797 210.492 294 210.305 293.063C210.258 291.235 210.234 288.516 210.234 284.906C210.234 283.125 210.234 280.43 210.234 276.821C210.281 273.211 210.305 270.492 210.305 268.664C210.305 265.289 210.281 262.758 210.234 261.071C208.266 261.399 206.32 261.586 204.398 261.633C202.477 261.68 201.117 261.75 200.32 261.844C200.18 263.391 200.062 265.688 199.969 268.735C199.875 271.781 199.781 274.477 199.688 276.821C199.641 279.117 199.359 281.742 198.844 284.696C198.328 287.602 197.578 290.086 196.594 292.149C195.656 294.164 194.18 295.969 192.164 297.563C190.195 299.203 187.805 300.281 184.992 300.797ZM250.523 287.649L251.227 290.742C249.164 291.492 246.094 292.336 242.016 293.274C237.984 294.164 234.984 294.61 233.016 294.61C231 294.61 229.242 293.953 227.742 292.641C226.242 291.281 225.117 289.571 224.367 287.508C223.617 285.399 223.055 283.336 222.68 281.321C222.352 279.258 222.188 277.242 222.188 275.274C222.188 263.555 227.484 257.696 238.078 257.696C240.609 257.696 242.836 258.516 244.758 260.156C246.68 261.75 247.641 263.836 247.641 266.414C247.641 267.821 247.242 269.063 246.445 270.141C245.695 271.219 244.758 272.086 243.633 272.742C242.555 273.352 241.148 273.914 239.414 274.43C237.727 274.946 236.227 275.321 234.914 275.555C233.602 275.789 232.031 276.047 230.203 276.328C228.375 276.61 227.109 276.821 226.406 276.961C226.453 278.321 226.523 279.516 226.617 280.547C226.758 281.578 226.992 282.703 227.32 283.922C227.695 285.094 228.164 286.078 228.727 286.875C229.336 287.625 230.156 288.258 231.188 288.774C232.219 289.289 233.438 289.547 234.844 289.547C236.531 289.547 238.594 289.406 241.031 289.125C243.469 288.797 245.625 288.469 247.5 288.141C249.422 287.813 250.43 287.649 250.523 287.649ZM226.688 272.602C233.062 270.774 238.289 268.852 242.367 266.836C242.039 265.289 241.594 264.164 241.031 263.461C240.469 262.758 239.625 262.406 238.5 262.406C235.641 262.406 233.039 263.391 230.695 265.36C228.398 267.328 227.062 269.742 226.688 272.602ZM275.062 258.821L278.227 259.524L279.844 293.625C279.422 295.031 278.602 295.735 277.383 295.735C276.539 295.735 275.719 295.383 274.922 294.68C274.125 294.024 273.633 293.203 273.445 292.219C273.445 292.078 273.656 288.117 274.078 280.336V279.774C272.766 279.68 270.82 279.633 268.242 279.633C264.352 279.633 261.422 279.516 259.453 279.281C259.688 282 259.992 286.383 260.367 292.43C259.945 293.883 259.125 294.61 257.906 294.61C257.062 294.61 256.242 294.281 255.445 293.625C254.695 292.922 254.227 292.078 254.039 291.094C254.18 288.75 254.25 286.406 254.25 284.063C254.25 282.563 254.227 280.313 254.18 277.313C254.133 274.313 254.109 272.086 254.109 270.633C254.109 266.133 254.25 262.36 254.531 259.313L257.695 260.086C258.633 270.258 259.125 275.485 259.172 275.766C267.188 276.188 271.312 276.399 271.547 276.399C273.469 276.399 274.43 276.281 274.43 276.047C274.43 275.11 274.523 272.133 274.711 267.117C274.898 262.102 275.016 259.336 275.062 258.821ZM306.562 258.821L309.727 259.524L311.344 293.625C310.922 295.031 310.102 295.735 308.883 295.735C308.039 295.735 307.219 295.383 306.422 294.68C305.625 294.024 305.133 293.203 304.945 292.219C304.945 292.078 305.156 288.117 305.578 280.336V279.774C304.266 279.68 302.32 279.633 299.742 279.633C295.852 279.633 292.922 279.516 290.953 279.281C291.188 282 291.492 286.383 291.867 292.43C291.445 293.883 290.625 294.61 289.406 294.61C288.562 294.61 287.742 294.281 286.945 293.625C286.195 292.922 285.727 292.078 285.539 291.094C285.68 288.75 285.75 286.406 285.75 284.063C285.75 282.563 285.727 280.313 285.68 277.313C285.633 274.313 285.609 272.086 285.609 270.633C285.609 266.133 285.75 262.36 286.031 259.313L289.195 260.086C290.133 270.258 290.625 275.485 290.672 275.766C298.688 276.188 302.812 276.399 303.047 276.399C304.969 276.399 305.93 276.281 305.93 276.047C305.93 275.11 306.023 272.133 306.211 267.117C306.398 262.102 306.516 259.336 306.562 258.821ZM317.039 279.492C317.039 277.617 317.227 275.531 317.602 273.235C318.023 270.938 318.633 268.524 319.43 265.992C320.227 263.461 321.422 261.352 323.016 259.664C324.609 257.977 326.461 257.133 328.57 257.133C333.07 257.133 336.68 259.172 339.398 263.25C342.117 267.281 343.477 271.781 343.477 276.75C343.477 278.86 343.242 280.969 342.773 283.078C342.352 285.141 341.672 287.18 340.734 289.196C339.797 291.211 338.438 292.899 336.656 294.258C334.922 295.571 332.883 296.321 330.539 296.508C326.227 295.946 322.898 294.117 320.555 291.024C318.211 287.883 317.039 284.039 317.039 279.492ZM328.992 260.789C327.352 260.977 325.969 262.477 324.844 265.289C323.719 268.102 322.992 270.844 322.664 273.516C322.336 276.141 322.172 278.461 322.172 280.477C322.172 283.102 322.969 285.539 324.562 287.789C326.203 289.992 328.031 291.094 330.047 291.094C331.5 291.094 332.812 290.531 333.984 289.406C335.156 288.281 336.07 286.899 336.727 285.258C337.43 283.571 337.945 281.883 338.273 280.196C338.648 278.508 338.836 277.008 338.836 275.696C338.836 271.852 337.969 268.5 336.234 265.641C334.5 262.781 332.086 261.164 328.992 260.789ZM377.508 287.649L378.211 290.742C376.148 291.492 373.078 292.336 369 293.274C364.969 294.164 361.969 294.61 360 294.61C357.984 294.61 356.227 293.953 354.727 292.641C353.227 291.281 352.102 289.571 351.352 287.508C350.602 285.399 350.039 283.336 349.664 281.321C349.336 279.258 349.172 277.242 349.172 275.274C349.172 263.555 354.469 257.696 365.062 257.696C367.594 257.696 369.82 258.516 371.742 260.156C373.664 261.75 374.625 263.836 374.625 266.414C374.625 267.821 374.227 269.063 373.43 270.141C372.68 271.219 371.742 272.086 370.617 272.742C369.539 273.352 368.133 273.914 366.398 274.43C364.711 274.946 363.211 275.321 361.898 275.555C360.586 275.789 359.016 276.047 357.188 276.328C355.359 276.61 354.094 276.821 353.391 276.961C353.438 278.321 353.508 279.516 353.602 280.547C353.742 281.578 353.977 282.703 354.305 283.922C354.68 285.094 355.148 286.078 355.711 286.875C356.32 287.625 357.141 288.258 358.172 288.774C359.203 289.289 360.422 289.547 361.828 289.547C363.516 289.547 365.578 289.406 368.016 289.125C370.453 288.797 372.609 288.469 374.484 288.141C376.406 287.813 377.414 287.649 377.508 287.649ZM353.672 272.602C360.047 270.774 365.273 268.852 369.352 266.836C369.023 265.289 368.578 264.164 368.016 263.461C367.453 262.758 366.609 262.406 365.484 262.406C362.625 262.406 360.023 263.391 357.68 265.36C355.383 267.328 354.047 269.742 353.672 272.602ZM401.625 259.313L425.32 259.524L426.938 293.625C426.516 295.031 425.695 295.735 424.477 295.735C423.633 295.735 422.812 295.383 422.016 294.68C421.219 294.024 420.727 293.203 420.539 292.219C420.586 291.375 420.656 288.727 420.75 284.274C420.891 279.774 421.031 275.485 421.172 271.406C421.312 267.281 421.406 264.61 421.453 263.391C420.141 263.297 418.195 263.25 415.617 263.25C412.102 263.25 409.172 263.11 406.828 262.828C406.969 264.375 407.086 269.367 407.18 277.805C407.273 286.196 407.367 291.071 407.461 292.43C407.039 293.883 406.219 294.61 405 294.61C404.156 294.61 403.336 294.281 402.539 293.625C401.789 292.922 401.32 292.078 401.133 291.094C401.273 288.75 401.344 286.406 401.344 284.063C401.344 282.844 401.32 280.828 401.273 278.016C401.227 275.203 401.203 272.977 401.203 271.336C401.203 266.508 401.344 262.5 401.625 259.313ZM433.477 257.485L437.414 258.188C437.414 259.172 437.438 259.899 437.484 260.367C440.062 258.727 442.664 257.906 445.289 257.906C449.555 257.906 452.883 259.735 455.273 263.391C457.664 267.047 458.859 271.196 458.859 275.836C458.859 278.18 458.672 280.43 458.297 282.586C457.969 284.696 457.359 286.875 456.469 289.125C455.578 291.328 454.195 293.11 452.32 294.469C450.492 295.781 448.266 296.438 445.641 296.438C443.156 296.438 440.766 295.781 438.469 294.469C438.656 302.672 438.82 308.766 438.961 312.75C438.539 314.203 437.719 314.93 436.5 314.93C435.656 314.93 434.836 314.578 434.039 313.875C433.289 313.219 432.82 312.399 432.633 311.414L433.477 257.485ZM438.047 264.938L438.258 287.649C438.82 288.774 439.688 289.688 440.859 290.391C442.031 291.047 443.32 291.375 444.727 291.375C446.555 291.375 448.102 290.789 449.367 289.617C450.68 288.446 451.594 286.899 452.109 284.977C452.672 283.008 453.047 281.18 453.234 279.492C453.469 277.805 453.586 276.024 453.586 274.149C453.586 266.18 450.891 262.196 445.5 262.196C443.766 262.196 442.148 262.453 440.648 262.969C439.195 263.438 438.328 264.094 438.047 264.938ZM470.742 288.633C470.742 289.43 470.789 290.485 470.883 291.797C470.461 293.25 469.641 293.977 468.422 293.977C467.578 293.977 466.758 293.649 465.961 292.992C465.211 292.289 464.742 291.446 464.555 290.461C464.695 286.664 464.859 281.11 465.047 273.797C465.281 266.485 465.445 261.539 465.539 258.961L468.773 258.399C469.336 261.399 469.688 265.383 469.828 270.352C469.969 275.321 470.156 279.024 470.391 281.461C471.281 280.149 473.812 276.727 477.984 271.196C482.156 265.664 484.992 261.539 486.492 258.821C487.523 258.633 488.18 258.539 488.461 258.539C489.352 258.539 489.961 258.938 490.289 259.735C490.664 260.531 490.898 262.031 490.992 264.235L492.328 293.203C491.906 294.61 491.086 295.313 489.867 295.313C489.023 295.313 488.203 294.985 487.406 294.328C486.656 293.625 486.188 292.781 486 291.797C486.047 290.25 486.164 286.477 486.352 280.477C486.586 274.43 486.773 270.141 486.914 267.61C478.898 276.75 473.508 283.758 470.742 288.633ZM490.57 300.797L489.445 297.774C490.992 297.164 492.398 296.203 493.664 294.891C494.883 293.578 495.891 292.219 496.688 290.813C497.484 289.36 498.164 287.555 498.727 285.399C499.289 283.242 499.688 281.367 499.922 279.774C500.203 278.133 500.414 276.117 500.555 273.727C500.695 271.336 500.766 269.555 500.766 268.383C500.812 267.164 500.836 265.547 500.836 263.531C500.836 260.672 501.094 258.961 501.609 258.399C502.266 257.696 505.898 257.344 512.508 257.344C517.711 257.344 520.664 257.321 521.367 257.274C521.461 276.305 521.695 288.656 522.07 294.328C521.602 295.735 520.781 296.438 519.609 296.438C518.812 296.438 518.039 296.11 517.289 295.453C516.539 294.797 516.07 294 515.883 293.063C515.836 291.235 515.812 288.516 515.812 284.906C515.812 283.125 515.812 280.43 515.812 276.821C515.859 273.211 515.883 270.492 515.883 268.664C515.883 265.289 515.859 262.758 515.812 261.071C513.844 261.399 511.898 261.586 509.977 261.633C508.055 261.68 506.695 261.75 505.898 261.844C505.758 263.391 505.641 265.688 505.547 268.735C505.453 271.781 505.359 274.477 505.266 276.821C505.219 279.117 504.938 281.742 504.422 284.696C503.906 287.602 503.156 290.086 502.172 292.149C501.234 294.164 499.758 295.969 497.742 297.563C495.773 299.203 493.383 300.281 490.57 300.797ZM527.766 279.492C527.766 277.617 527.953 275.531 528.328 273.235C528.75 270.938 529.359 268.524 530.156 265.992C530.953 263.461 532.148 261.352 533.742 259.664C535.336 257.977 537.188 257.133 539.297 257.133C543.797 257.133 547.406 259.172 550.125 263.25C552.844 267.281 554.203 271.781 554.203 276.75C554.203 278.86 553.969 280.969 553.5 283.078C553.078 285.141 552.398 287.18 551.461 289.196C550.523 291.211 549.164 292.899 547.383 294.258C545.648 295.571 543.609 296.321 541.266 296.508C536.953 295.946 533.625 294.117 531.281 291.024C528.938 287.883 527.766 284.039 527.766 279.492ZM539.719 260.789C538.078 260.977 536.695 262.477 535.57 265.289C534.445 268.102 533.719 270.844 533.391 273.516C533.062 276.141 532.898 278.461 532.898 280.477C532.898 283.102 533.695 285.539 535.289 287.789C536.93 289.992 538.758 291.094 540.773 291.094C542.227 291.094 543.539 290.531 544.711 289.406C545.883 288.281 546.797 286.899 547.453 285.258C548.156 283.571 548.672 281.883 549 280.196C549.375 278.508 549.562 277.008 549.562 275.696C549.562 271.852 548.695 268.5 546.961 265.641C545.227 262.781 542.812 261.164 539.719 260.789ZM577.266 271.547C577.266 264.375 577.477 259.289 577.898 256.289L581.062 257.485C581.438 259.313 581.625 261.891 581.625 265.219C581.672 268.547 581.719 270.656 581.766 271.547C583.172 271.313 584.391 270.586 585.422 269.367C586.5 268.149 587.367 266.789 588.023 265.289C588.727 263.742 589.453 262.219 590.203 260.719C590.953 259.219 591.914 257.953 593.086 256.922C594.305 255.891 595.734 255.375 597.375 255.375C598.406 255.375 599.742 255.633 601.383 256.149L601.102 258.61C600.82 258.563 600.422 258.539 599.906 258.539C598.359 258.539 597 259.055 595.828 260.086C594.656 261.071 593.695 262.313 592.945 263.813C592.242 265.313 591.586 266.836 590.977 268.383C590.367 269.883 589.641 271.219 588.797 272.391C588 273.563 587.086 274.266 586.055 274.5C587.789 274.922 589.266 276.117 590.484 278.086C591.75 280.008 592.688 282 593.297 284.063C593.953 286.078 594.891 287.93 596.109 289.617C597.328 291.258 598.828 292.078 600.609 292.078C601.078 292.078 601.594 292.008 602.156 291.867L602.367 294.961C601.43 295.196 600.609 295.313 599.906 295.313C598.125 295.313 596.508 294.727 595.055 293.555C593.648 292.383 592.477 290.953 591.539 289.266C590.602 287.578 589.711 285.914 588.867 284.274C588.07 282.586 587.203 281.156 586.266 279.985C585.328 278.813 584.367 278.227 583.383 278.227C582.961 278.227 582.586 278.297 582.258 278.438C582.352 279.797 582.445 281.25 582.539 282.797C582.68 284.297 582.82 285.961 582.961 287.789C583.102 289.617 583.219 291.047 583.312 292.078C582.891 293.531 582.07 294.258 580.852 294.258C580.008 294.258 579.188 293.93 578.391 293.274C577.641 292.571 577.172 291.727 576.984 290.742C577.078 286.805 577.125 282.703 577.125 278.438C576.75 278.297 576.375 278.227 576 278.227C575.016 278.227 574.055 278.813 573.117 279.985C572.18 281.156 571.289 282.586 570.445 284.274C569.648 285.914 568.781 287.578 567.844 289.266C566.906 290.953 565.711 292.383 564.258 293.555C562.852 294.727 561.258 295.313 559.477 295.313C558.773 295.313 557.953 295.196 557.016 294.961L557.227 291.867C557.789 292.008 558.328 292.078 558.844 292.078C560.297 292.078 561.539 291.539 562.57 290.461C563.602 289.383 564.445 288.047 565.102 286.453C565.758 284.813 566.391 283.172 567 281.531C567.656 279.891 568.5 278.391 569.531 277.031C570.609 275.672 571.875 274.828 573.328 274.5C572.297 274.266 571.359 273.563 570.516 272.391C569.719 271.219 569.016 269.883 568.406 268.383C567.797 266.836 567.117 265.313 566.367 263.813C565.664 262.313 564.727 261.071 563.555 260.086C562.383 259.055 561.023 258.539 559.477 258.539C558.961 258.539 558.562 258.563 558.281 258.61L558 256.149C559.406 255.633 560.766 255.375 562.078 255.375C563.719 255.375 565.148 255.891 566.367 256.922C567.586 257.906 568.547 259.149 569.25 260.649C570 262.102 570.703 263.602 571.359 265.149C572.062 266.649 572.906 268.031 573.891 269.297C574.875 270.516 576 271.266 577.266 271.547ZM633.586 287.649L634.289 290.742C632.227 291.492 629.156 292.336 625.078 293.274C621.047 294.164 618.047 294.61 616.078 294.61C614.062 294.61 612.305 293.953 610.805 292.641C609.305 291.281 608.18 289.571 607.43 287.508C606.68 285.399 606.117 283.336 605.742 281.321C605.414 279.258 605.25 277.242 605.25 275.274C605.25 263.555 610.547 257.696 621.141 257.696C623.672 257.696 625.898 258.516 627.82 260.156C629.742 261.75 630.703 263.836 630.703 266.414C630.703 267.821 630.305 269.063 629.508 270.141C628.758 271.219 627.82 272.086 626.695 272.742C625.617 273.352 624.211 273.914 622.477 274.43C620.789 274.946 619.289 275.321 617.977 275.555C616.664 275.789 615.094 276.047 613.266 276.328C611.438 276.61 610.172 276.821 609.469 276.961C609.516 278.321 609.586 279.516 609.68 280.547C609.82 281.578 610.055 282.703 610.383 283.922C610.758 285.094 611.227 286.078 611.789 286.875C612.398 287.625 613.219 288.258 614.25 288.774C615.281 289.289 616.5 289.547 617.906 289.547C619.594 289.547 621.656 289.406 624.094 289.125C626.531 288.797 628.688 288.469 630.562 288.141C632.484 287.813 633.492 287.649 633.586 287.649ZM609.75 272.602C616.125 270.774 621.352 268.852 625.43 266.836C625.102 265.289 624.656 264.164 624.094 263.461C623.531 262.758 622.688 262.406 621.562 262.406C618.703 262.406 616.102 263.391 613.758 265.36C611.461 267.328 610.125 269.742 609.75 272.602ZM658.125 258.821L661.289 259.524L662.906 293.625C662.484 295.031 661.664 295.735 660.445 295.735C659.602 295.735 658.781 295.383 657.984 294.68C657.188 294.024 656.695 293.203 656.508 292.219C656.508 292.078 656.719 288.117 657.141 280.336V279.774C655.828 279.68 653.883 279.633 651.305 279.633C647.414 279.633 644.484 279.516 642.516 279.281C642.75 282 643.055 286.383 643.43 292.43C643.008 293.883 642.188 294.61 640.969 294.61C640.125 294.61 639.305 294.281 638.508 293.625C637.758 292.922 637.289 292.078 637.102 291.094C637.242 288.75 637.312 286.406 637.312 284.063C637.312 282.563 637.289 280.313 637.242 277.313C637.195 274.313 637.172 272.086 637.172 270.633C637.172 266.133 637.312 262.36 637.594 259.313L640.758 260.086C641.695 270.258 642.188 275.485 642.234 275.766C650.25 276.188 654.375 276.399 654.609 276.399C656.531 276.399 657.492 276.281 657.492 276.047C657.492 275.11 657.586 272.133 657.773 267.117C657.961 262.102 658.078 259.336 658.125 258.821ZM674.789 288.633C674.789 289.43 674.836 290.485 674.93 291.797C674.508 293.25 673.688 293.977 672.469 293.977C671.625 293.977 670.805 293.649 670.008 292.992C669.258 292.289 668.789 291.446 668.602 290.461C668.742 286.664 668.906 281.11 669.094 273.797C669.328 266.485 669.492 261.539 669.586 258.961L672.82 258.399C673.383 261.399 673.734 265.383 673.875 270.352C674.016 275.321 674.203 279.024 674.438 281.461C675.328 280.149 677.859 276.727 682.031 271.196C686.203 265.664 689.039 261.539 690.539 258.821C691.57 258.633 692.227 258.539 692.508 258.539C693.398 258.539 694.008 258.938 694.336 259.735C694.711 260.531 694.945 262.031 695.039 264.235L696.375 293.203C695.953 294.61 695.133 295.313 693.914 295.313C693.07 295.313 692.25 294.985 691.453 294.328C690.703 293.625 690.234 292.781 690.047 291.797C690.094 290.25 690.211 286.477 690.398 280.477C690.633 274.43 690.82 270.141 690.961 267.61C682.945 276.75 677.555 283.758 674.789 288.633ZM730.477 287.649L731.18 290.742C729.117 291.492 726.047 292.336 721.969 293.274C717.938 294.164 714.938 294.61 712.969 294.61C710.953 294.61 709.195 293.953 707.695 292.641C706.195 291.281 705.07 289.571 704.32 287.508C703.57 285.399 703.008 283.336 702.633 281.321C702.305 279.258 702.141 277.242 702.141 275.274C702.141 263.555 707.438 257.696 718.031 257.696C720.562 257.696 722.789 258.516 724.711 260.156C726.633 261.75 727.594 263.836 727.594 266.414C727.594 267.821 727.195 269.063 726.398 270.141C725.648 271.219 724.711 272.086 723.586 272.742C722.508 273.352 721.102 273.914 719.367 274.43C717.68 274.946 716.18 275.321 714.867 275.555C713.555 275.789 711.984 276.047 710.156 276.328C708.328 276.61 707.062 276.821 706.359 276.961C706.406 278.321 706.477 279.516 706.57 280.547C706.711 281.578 706.945 282.703 707.273 283.922C707.648 285.094 708.117 286.078 708.68 286.875C709.289 287.625 710.109 288.258 711.141 288.774C712.172 289.289 713.391 289.547 714.797 289.547C716.484 289.547 718.547 289.406 720.984 289.125C723.422 288.797 725.578 288.469 727.453 288.141C729.375 287.813 730.383 287.649 730.477 287.649ZM706.641 272.602C713.016 270.774 718.242 268.852 722.32 266.836C721.992 265.289 721.547 264.164 720.984 263.461C720.422 262.758 719.578 262.406 718.453 262.406C715.594 262.406 712.992 263.391 710.648 265.36C708.352 267.328 707.016 269.742 706.641 272.602ZM26.5781 338.594L26.2266 341.617C24.2578 341.336 22.5703 341.196 21.1641 341.196C17.9297 341.196 15.2578 342.18 13.1484 344.149C11.0391 346.071 9.58594 348.367 8.78906 351.039C8.03906 353.664 7.66406 356.594 7.66406 359.828C7.66406 361.328 7.75781 362.664 7.94531 363.836C8.13281 365.008 8.46094 366.156 8.92969 367.281C9.44531 368.406 10.2188 369.297 11.25 369.953C12.3281 370.563 13.6406 370.867 15.1875 370.867C17.25 370.867 19.875 370.469 23.0625 369.672C24.0469 369.297 24.8203 369.11 25.3828 369.11C26.5078 369.11 27.1875 370.422 27.4219 373.047C23.2969 374.36 19.4766 375.016 15.9609 375.016C10.8516 375.016 7.38281 373.774 5.55469 371.289C3.77344 368.758 2.88281 364.68 2.88281 359.055C2.88281 355.774 3.09375 352.914 3.51562 350.477C3.98438 347.992 4.78125 345.696 5.90625 343.586C7.03125 341.43 8.64844 339.789 10.7578 338.664C12.9141 337.539 15.5391 336.977 18.6328 336.977C22.1016 336.977 24.75 337.516 26.5781 338.594ZM48.8672 341.196L48.2344 338.102C54.5156 337.727 64.4062 337.211 77.9062 336.555C79.0312 336.602 79.9922 337.024 80.7891 337.821C81.5859 338.617 81.9844 339.461 81.9844 340.352C81.9844 341.758 81.0469 342.555 79.1719 342.742L66.0234 342.11C66.2578 345.625 66.375 350.758 66.375 357.508C66.4219 364.211 66.5156 369.11 66.6562 372.203C66.2344 373.563 65.4141 374.242 64.1953 374.242C63.3984 374.242 62.625 373.914 61.875 373.258C61.125 372.602 60.6562 371.805 60.4688 370.867C61.125 359.336 61.8047 349.656 62.5078 341.828L48.8672 341.196ZM110.672 366.649L111.375 369.742C109.312 370.492 106.242 371.336 102.164 372.274C98.1328 373.164 95.1328 373.61 93.1641 373.61C91.1484 373.61 89.3906 372.953 87.8906 371.641C86.3906 370.281 85.2656 368.571 84.5156 366.508C83.7656 364.399 83.2031 362.336 82.8281 360.321C82.5 358.258 82.3359 356.242 82.3359 354.274C82.3359 342.555 87.6328 336.696 98.2266 336.696C100.758 336.696 102.984 337.516 104.906 339.156C106.828 340.75 107.789 342.836 107.789 345.414C107.789 346.821 107.391 348.063 106.594 349.141C105.844 350.219 104.906 351.086 103.781 351.742C102.703 352.352 101.297 352.914 99.5625 353.43C97.875 353.946 96.375 354.321 95.0625 354.555C93.75 354.789 92.1797 355.047 90.3516 355.328C88.5234 355.61 87.2578 355.821 86.5547 355.961C86.6016 357.321 86.6719 358.516 86.7656 359.547C86.9062 360.578 87.1406 361.703 87.4688 362.922C87.8438 364.094 88.3125 365.078 88.875 365.875C89.4844 366.625 90.3047 367.258 91.3359 367.774C92.3672 368.289 93.5859 368.547 94.9922 368.547C96.6797 368.547 98.7422 368.406 101.18 368.125C103.617 367.797 105.773 367.469 107.648 367.141C109.57 366.813 110.578 366.649 110.672 366.649ZM86.8359 351.602C93.2109 349.774 98.4375 347.852 102.516 345.836C102.188 344.289 101.742 343.164 101.18 342.461C100.617 341.758 99.7734 341.406 98.6484 341.406C95.7891 341.406 93.1875 342.391 90.8438 344.36C88.5469 346.328 87.2109 348.742 86.8359 351.602ZM137.883 338.594L137.531 341.617C135.562 341.336 133.875 341.196 132.469 341.196C129.234 341.196 126.562 342.18 124.453 344.149C122.344 346.071 120.891 348.367 120.094 351.039C119.344 353.664 118.969 356.594 118.969 359.828C118.969 361.328 119.062 362.664 119.25 363.836C119.438 365.008 119.766 366.156 120.234 367.281C120.75 368.406 121.523 369.297 122.555 369.953C123.633 370.563 124.945 370.867 126.492 370.867C128.555 370.867 131.18 370.469 134.367 369.672C135.352 369.297 136.125 369.11 136.688 369.11C137.812 369.11 138.492 370.422 138.727 373.047C134.602 374.36 130.781 375.016 127.266 375.016C122.156 375.016 118.688 373.774 116.859 371.289C115.078 368.758 114.188 364.68 114.188 359.055C114.188 355.774 114.398 352.914 114.82 350.477C115.289 347.992 116.086 345.696 117.211 343.586C118.336 341.43 119.953 339.789 122.062 338.664C124.219 337.539 126.844 336.977 129.938 336.977C133.406 336.977 136.055 337.516 137.883 338.594ZM140.062 341.196L139.43 338.102C145.711 337.727 155.602 337.211 169.102 336.555C170.227 336.602 171.188 337.024 171.984 337.821C172.781 338.617 173.18 339.461 173.18 340.352C173.18 341.758 172.242 342.555 170.367 342.742L157.219 342.11C157.453 345.625 157.57 350.758 157.57 357.508C157.617 364.211 157.711 369.11 157.852 372.203C157.43 373.563 156.609 374.242 155.391 374.242C154.594 374.242 153.82 373.914 153.07 373.258C152.32 372.602 151.852 371.805 151.664 370.867C152.32 359.336 153 349.656 153.703 341.828L140.062 341.196ZM178.594 343.094L177.188 339.508C178.406 338.289 179.953 337.328 181.828 336.625C183.703 335.875 185.555 335.5 187.383 335.5C195.305 335.5 199.266 342.344 199.266 356.031C199.266 357.906 199.148 360.672 198.914 364.328C198.727 367.985 198.633 370.727 198.633 372.555C198.258 374.008 197.531 374.735 196.453 374.735C195.609 374.735 194.836 374.313 194.133 373.469C193.43 372.625 193.078 371.688 193.078 370.656C193.078 370.328 193.102 370.094 193.148 369.953C190.242 372.766 187.148 374.172 183.867 374.172C181.383 374.172 179.203 373.281 177.328 371.5C175.5 369.672 174.586 367.469 174.586 364.891C174.586 360.531 176.273 356.594 179.648 353.078C183.07 349.563 186.938 347.805 191.25 347.805C191.438 347.805 191.625 347.828 191.812 347.875C192 347.875 192.211 347.899 192.445 347.946C192.727 347.992 192.938 348.016 193.078 348.016C192.703 342.531 190.523 339.789 186.539 339.789C184.195 339.789 181.547 340.891 178.594 343.094ZM193.289 365.102C193.383 361.821 193.43 359.336 193.43 357.649C193.43 356.242 193.383 354.274 193.289 351.742H192.727C189.398 351.789 186.352 353.031 183.586 355.469C180.867 357.906 179.508 360.86 179.508 364.328C179.508 365.828 179.953 367.024 180.844 367.914C181.781 368.805 182.906 369.25 184.219 369.25C186.281 369.25 189.305 367.867 193.289 365.102ZM232.523 338.805L237.305 338.383C239.648 344.711 242.039 356.5 244.477 373.75C243.68 373.938 242.883 374.031 242.086 374.031C241.383 374.031 240.562 373.914 239.625 373.68C238.969 371.102 238.172 366.555 237.234 360.039C236.344 353.524 235.547 348.906 234.844 346.188C232.547 349.938 229.453 356.828 225.562 366.86C225.234 366.906 224.648 367 223.805 367.141C223.008 367.281 222.398 367.352 221.977 367.352C221.461 367.352 220.852 367.281 220.148 367.141C219.398 365.219 218.273 362.149 216.773 357.93C215.32 353.664 214.148 350.453 213.258 348.297C208.758 359.828 205.945 368.36 204.82 373.891L202.078 373.117C202.312 369.555 203.602 363.344 205.945 354.485C208.289 345.578 209.695 339.906 210.164 337.469C210.727 337.469 211.359 337.539 212.062 337.68C212.812 337.774 213.375 337.821 213.75 337.821C214.969 339.93 216.633 343.985 218.742 349.985C220.852 355.938 222.258 359.664 222.961 361.164C226.523 351.039 229.711 343.586 232.523 338.805ZM253.547 367.633C253.547 368.43 253.594 369.485 253.688 370.797C253.266 372.25 252.445 372.977 251.227 372.977C250.383 372.977 249.562 372.649 248.766 371.992C248.016 371.289 247.547 370.446 247.359 369.461C247.5 365.664 247.664 360.11 247.852 352.797C248.086 345.485 248.25 340.539 248.344 337.961L251.578 337.399C252.141 340.399 252.492 344.383 252.633 349.352C252.773 354.321 252.961 358.024 253.195 360.461C254.086 359.149 256.617 355.727 260.789 350.196C264.961 344.664 267.797 340.539 269.297 337.821C270.328 337.633 270.984 337.539 271.266 337.539C272.156 337.539 272.766 337.938 273.094 338.735C273.469 339.531 273.703 341.031 273.797 343.235L275.133 372.203C274.711 373.61 273.891 374.313 272.672 374.313C271.828 374.313 271.008 373.985 270.211 373.328C269.461 372.625 268.992 371.781 268.805 370.797C268.852 369.25 268.969 365.477 269.156 359.477C269.391 353.43 269.578 349.141 269.719 346.61C261.703 355.75 256.312 362.758 253.547 367.633ZM307.195 367.633C307.195 368.43 307.242 369.485 307.336 370.797C306.914 372.25 306.094 372.977 304.875 372.977C304.031 372.977 303.211 372.649 302.414 371.992C301.664 371.289 301.195 370.446 301.008 369.461C301.148 365.664 301.312 360.11 301.5 352.797C301.734 345.485 301.898 340.539 301.992 337.961L305.227 337.399C305.789 340.399 306.141 344.383 306.281 349.352C306.422 354.321 306.609 358.024 306.844 360.461C307.734 359.149 310.266 355.727 314.438 350.196C318.609 344.664 321.445 340.539 322.945 337.821C323.977 337.633 324.633 337.539 324.914 337.539C325.805 337.539 326.414 337.938 326.742 338.735C327.117 339.531 327.352 341.031 327.445 343.235L328.781 372.203C328.359 373.61 327.539 374.313 326.32 374.313C325.477 374.313 324.656 373.985 323.859 373.328C323.109 372.625 322.641 371.781 322.453 370.797C322.5 369.25 322.617 365.477 322.805 359.477C323.039 353.43 323.227 349.141 323.367 346.61C315.352 355.75 309.961 362.758 307.195 367.633ZM378.352 338.594L378 341.617C376.031 341.336 374.344 341.196 372.938 341.196C369.703 341.196 367.031 342.18 364.922 344.149C362.812 346.071 361.359 348.367 360.562 351.039C359.812 353.664 359.438 356.594 359.438 359.828C359.438 361.328 359.531 362.664 359.719 363.836C359.906 365.008 360.234 366.156 360.703 367.281C361.219 368.406 361.992 369.297 363.023 369.953C364.102 370.563 365.414 370.867 366.961 370.867C369.023 370.867 371.648 370.469 374.836 369.672C375.82 369.297 376.594 369.11 377.156 369.11C378.281 369.11 378.961 370.422 379.195 373.047C375.07 374.36 371.25 375.016 367.734 375.016C362.625 375.016 359.156 373.774 357.328 371.289C355.547 368.758 354.656 364.68 354.656 359.055C354.656 355.774 354.867 352.914 355.289 350.477C355.758 347.992 356.555 345.696 357.68 343.586C358.805 341.43 360.422 339.789 362.531 338.664C364.688 337.539 367.312 336.977 370.406 336.977C373.875 336.977 376.523 337.516 378.352 338.594ZM375.258 379.797L374.133 376.774C375.68 376.164 377.086 375.203 378.352 373.891C379.57 372.578 380.578 371.219 381.375 369.813C382.172 368.36 382.852 366.555 383.414 364.399C383.977 362.242 384.375 360.367 384.609 358.774C384.891 357.133 385.102 355.117 385.242 352.727C385.383 350.336 385.453 348.555 385.453 347.383C385.5 346.164 385.523 344.547 385.523 342.531C385.523 339.672 385.781 337.961 386.297 337.399C386.953 336.696 390.586 336.344 397.195 336.344C402.398 336.344 405.352 336.321 406.055 336.274C406.148 355.305 406.383 367.656 406.758 373.328C406.289 374.735 405.469 375.438 404.297 375.438C403.5 375.438 402.727 375.11 401.977 374.453C401.227 373.797 400.758 373 400.57 372.063C400.523 370.235 400.5 367.516 400.5 363.906C400.5 362.125 400.5 359.43 400.5 355.821C400.547 352.211 400.57 349.492 400.57 347.664C400.57 344.289 400.547 341.758 400.5 340.071C398.531 340.399 396.586 340.586 394.664 340.633C392.742 340.68 391.383 340.75 390.586 340.844C390.445 342.391 390.328 344.688 390.234 347.735C390.141 350.781 390.047 353.477 389.953 355.821C389.906 358.117 389.625 360.742 389.109 363.696C388.594 366.602 387.844 369.086 386.859 371.149C385.922 373.164 384.445 374.969 382.43 376.563C380.461 378.203 378.07 379.281 375.258 379.797ZM414.984 343.094L413.578 339.508C414.797 338.289 416.344 337.328 418.219 336.625C420.094 335.875 421.945 335.5 423.773 335.5C431.695 335.5 435.656 342.344 435.656 356.031C435.656 357.906 435.539 360.672 435.305 364.328C435.117 367.985 435.023 370.727 435.023 372.555C434.648 374.008 433.922 374.735 432.844 374.735C432 374.735 431.227 374.313 430.523 373.469C429.82 372.625 429.469 371.688 429.469 370.656C429.469 370.328 429.492 370.094 429.539 369.953C426.633 372.766 423.539 374.172 420.258 374.172C417.773 374.172 415.594 373.281 413.719 371.5C411.891 369.672 410.977 367.469 410.977 364.891C410.977 360.531 412.664 356.594 416.039 353.078C419.461 349.563 423.328 347.805 427.641 347.805C427.828 347.805 428.016 347.828 428.203 347.875C428.391 347.875 428.602 347.899 428.836 347.946C429.117 347.992 429.328 348.016 429.469 348.016C429.094 342.531 426.914 339.789 422.93 339.789C420.586 339.789 417.938 340.891 414.984 343.094ZM429.68 365.102C429.773 361.821 429.82 359.336 429.82 357.649C429.82 356.242 429.773 354.274 429.68 351.742H429.117C425.789 351.789 422.742 353.031 419.977 355.469C417.258 357.906 415.898 360.86 415.898 364.328C415.898 365.828 416.344 367.024 417.234 367.914C418.172 368.805 419.297 369.25 420.609 369.25C422.672 369.25 425.695 367.867 429.68 365.102ZM447.75 329.735L447.258 327.555C448.383 327.696 449.484 327.766 450.562 327.766C453.797 327.766 456.773 326.875 459.492 325.094C460.57 325.188 461.484 325.516 462.234 326.078C462.984 326.641 463.359 327.297 463.359 328.047C463.359 328.656 463.148 329.149 462.727 329.524C462.305 329.899 461.672 330.18 460.828 330.367C459.984 330.508 459.281 330.602 458.719 330.649C458.156 330.649 457.406 330.649 456.469 330.649C453.422 330.649 450.516 330.344 447.75 329.735ZM447.539 367.633C447.539 368.43 447.586 369.485 447.68 370.797C447.258 372.25 446.438 372.977 445.219 372.977C444.375 372.977 443.555 372.649 442.758 371.992C442.008 371.289 441.539 370.446 441.352 369.461C441.492 365.664 441.656 360.11 441.844 352.797C442.078 345.485 442.242 340.539 442.336 337.961L445.57 337.399C446.133 340.399 446.484 344.383 446.625 349.352C446.766 354.321 446.953 358.024 447.188 360.461C448.078 359.149 450.609 355.727 454.781 350.196C458.953 344.664 461.789 340.539 463.289 337.821C464.32 337.633 464.977 337.539 465.258 337.539C466.148 337.539 466.758 337.938 467.086 338.735C467.461 339.531 467.695 341.031 467.789 343.235L469.125 372.203C468.703 373.61 467.883 374.313 466.664 374.313C465.82 374.313 465 373.985 464.203 373.328C463.453 372.625 462.984 371.781 462.797 370.797C462.844 369.25 462.961 365.477 463.148 359.477C463.383 353.43 463.57 349.141 463.711 346.61C455.695 355.75 450.305 362.758 447.539 367.633ZM475.734 382.68L472.57 381.977C472.57 381.461 472.477 379.938 472.289 377.406C472.102 374.875 472.008 373.047 472.008 371.922C472.008 370.985 472.078 369.977 472.219 368.899H476.789C477.023 368.102 477.398 366.906 477.914 365.313C478.477 363.719 478.852 362.594 479.039 361.938C479.227 361.281 479.484 360.321 479.812 359.055C480.188 357.742 480.422 356.641 480.516 355.75C480.656 354.813 480.773 353.664 480.867 352.305C481.008 350.946 481.078 349.516 481.078 348.016C481.078 344.5 480.938 340.539 480.656 336.133C483.281 336.274 486.047 336.367 488.953 336.414C491.906 336.461 494.32 336.531 496.195 336.625C498.07 336.719 499.992 336.93 501.961 337.258C502.102 340.446 502.242 345.696 502.383 353.008C502.57 360.274 502.734 365.5 502.875 368.688H508.359V370.797C508.359 372.016 508.383 373.75 508.43 376C508.523 378.25 508.57 379.75 508.57 380.5C508.57 381.906 508.523 382.985 508.43 383.735L505.266 383.031C505.078 382.375 504.891 381.531 504.703 380.5C504.562 379.516 504.398 378.438 504.211 377.266C504.023 376.094 503.883 375.25 503.789 374.735C501.117 374.594 496.852 374.313 490.992 373.891C485.18 373.469 480.633 373.188 477.352 373.047L475.734 382.68ZM486.562 340.563C486.516 341.266 486.469 342.742 486.422 344.992C486.375 347.196 486.305 348.883 486.211 350.055C486.164 351.227 486.023 352.867 485.789 354.977C485.602 357.039 485.344 358.774 485.016 360.18C484.688 361.539 484.195 363.039 483.539 364.68C482.93 366.274 482.203 367.656 481.359 368.828H496.758L498.164 341.125C497.508 341.078 495.773 341.008 492.961 340.914C490.195 340.821 488.062 340.703 486.562 340.563ZM513.07 337.821L516.234 338.524C516.328 340.024 516.469 341.781 516.656 343.797C516.891 345.813 517.148 348.11 517.43 350.688C519.305 350.125 521.086 349.844 522.773 349.844C524.789 349.844 526.664 350.242 528.398 351.039C530.133 351.789 531.609 352.797 532.828 354.063C534.047 355.328 535.008 356.781 535.711 358.422C536.414 360.016 536.766 361.656 536.766 363.344C536.766 364.985 536.438 366.485 535.781 367.844C535.172 369.203 534.281 370.375 533.109 371.36C531.984 372.297 530.625 373.024 529.031 373.539C527.484 374.102 525.773 374.383 523.898 374.383C522.773 374.383 521.578 374.313 520.312 374.172C519.047 374.078 517.898 373.938 516.867 373.75C515.836 373.563 514.969 373.352 514.266 373.117C513.609 372.836 513.281 372.531 513.281 372.203C513.281 371.453 513.258 370.375 513.211 368.969C513.211 367.563 513.188 366.016 513.141 364.328C513.141 362.641 513.117 360.86 513.07 358.985C513.023 357.11 512.977 355.305 512.93 353.571C512.93 351.836 512.906 350.266 512.859 348.86C512.859 347.406 512.859 346.235 512.859 345.344C512.859 342.719 512.93 340.211 513.07 337.821ZM518.062 355.047L517.43 369.18C519.305 369.836 521.086 370.164 522.773 370.164C524.086 370.164 525.281 369.953 526.359 369.531C527.484 369.063 528.422 368.477 529.172 367.774C529.922 367.024 530.508 366.18 530.93 365.242C531.352 364.305 531.562 363.321 531.562 362.289C531.562 361.258 531.352 360.297 530.93 359.406C530.508 358.469 529.875 357.649 529.031 356.946C528.188 356.242 527.156 355.703 525.938 355.328C524.719 354.906 523.336 354.696 521.789 354.696C521.273 354.696 520.711 354.742 520.102 354.836C519.492 354.883 518.812 354.953 518.062 355.047ZM540 337.61L543.164 338.313C543.492 342.016 543.844 346.68 544.219 352.305C544.594 357.883 544.992 364.469 545.414 372.063C544.992 373.469 544.172 374.172 542.953 374.172C542.109 374.172 541.289 373.844 540.492 373.188C539.742 372.485 539.273 371.641 539.086 370.656C539.133 369.953 539.156 368.805 539.156 367.211C539.203 365.617 539.25 363.789 539.297 361.727C539.344 359.664 539.391 357.461 539.438 355.117C539.484 352.774 539.531 350.5 539.578 348.297C539.625 346.094 539.672 344.055 539.719 342.18C539.812 340.258 539.906 338.735 540 337.61ZM568.969 341.196L568.336 338.102C574.617 337.727 584.508 337.211 598.008 336.555C599.133 336.602 600.094 337.024 600.891 337.821C601.688 338.617 602.086 339.461 602.086 340.352C602.086 341.758 601.148 342.555 599.273 342.742L586.125 342.11C586.359 345.625 586.477 350.758 586.477 357.508C586.523 364.211 586.617 369.11 586.758 372.203C586.336 373.563 585.516 374.242 584.297 374.242C583.5 374.242 582.727 373.914 581.977 373.258C581.227 372.602 580.758 371.805 580.57 370.867C581.227 359.336 581.906 349.656 582.609 341.828L568.969 341.196ZM610.031 394.281L605.672 391.821C607.594 388.492 610.992 382.164 615.867 372.836C612.07 369.461 609.164 364.352 607.148 357.508C605.133 350.664 603.914 343.821 603.492 336.977L607.57 337.188C607.805 338.313 608.297 340.891 609.047 344.922C609.844 348.906 610.477 351.86 610.945 353.781C611.414 355.703 612.234 358.117 613.406 361.024C614.625 363.883 616.008 366.297 617.555 368.266C624.07 355.75 627.328 345.485 627.328 337.469V336.696C629.766 337.071 631.594 337.516 632.812 338.031C632.062 342.953 630.891 347.969 629.297 353.078C627.703 358.188 625.711 363.344 623.32 368.547C620.93 373.703 618.797 378.039 616.922 381.555C615.094 385.071 612.797 389.313 610.031 394.281ZM633.445 341.196L632.812 338.102C639.094 337.727 648.984 337.211 662.484 336.555C663.609 336.602 664.57 337.024 665.367 337.821C666.164 338.617 666.562 339.461 666.562 340.352C666.562 341.758 665.625 342.555 663.75 342.742L650.602 342.11C650.836 345.625 650.953 350.758 650.953 357.508C651 364.211 651.094 369.11 651.234 372.203C650.812 373.563 649.992 374.242 648.773 374.242C647.977 374.242 647.203 373.914 646.453 373.258C645.703 372.602 645.234 371.805 645.047 370.867C645.703 359.336 646.383 349.656 647.086 341.828L633.445 341.196Z" fill="black"/>
<path d="M388.638 204.5C397.638 168.5 390.845 146.5 390.845 111.647C388.638 83 393.052 66.8786 393.052 44.9383C393.052 30.6672 395.067 15.8574 388.638 3" stroke="black" stroke-width="5" stroke-linecap="round"/>
<path d="M388.734 3.03235C386.359 5.476 385.042 8.75911 382.574 11.1244C381.805 11.8607 381.167 12.7723 380.349 13.4469C379.51 14.1394 378.611 14.5934 377.855 15.4027C377.125 16.185 376.394 16.9198 375.753 17.7741" stroke="black" stroke-width="5" stroke-linecap="round"/>
<path d="M389 3.46899C390.091 5.19623 391.609 5.89802 393.367 6.80054C396.031 8.16792 398.616 9.6921 401.29 11.0389C403.25 12.0262 405.5 12.5332 407.377 13.6213C407.932 13.9433 408.492 14.054 409 14.469" stroke="black" stroke-width="5" stroke-linecap="round"/>
</svg>
