<svg width="230" height="230" viewBox="0 0 230 230" fill="none" xmlns="http://www.w3.org/2000/svg">
<g clip-path="url(#clip0_5_73)">
<rect width="230" height="230" rx="5" fill="white"/>
<path d="M26.294 33.1051V29.7088H26.8778C27.0739 29.5526 27.2571 29.3324 27.4276 29.0483C27.598 28.7642 27.7429 28.375 27.8622 27.8807C27.9815 27.3864 28.0639 26.7472 28.1094 25.9631L28.3395 22.2727H33.9176V29.7088H34.8892V33.0966H33.3722V31H27.8111V33.1051H26.294ZM28.7188 29.7088H32.4006V23.598H29.7628L29.6264 25.9631C29.5895 26.5568 29.5298 27.0881 29.4474 27.5568C29.3651 28.0256 29.2614 28.4389 29.1364 28.7969C29.0114 29.152 28.8722 29.456 28.7188 29.7088ZM37.9925 31.1321C37.5778 31.1321 37.2042 31.0582 36.8718 30.9105C36.5423 30.7599 36.2809 30.5384 36.0877 30.2457C35.8974 29.9531 35.8022 29.5923 35.8022 29.1634C35.8022 28.794 35.8704 28.4886 36.0067 28.2472C36.1431 28.0057 36.3292 27.8125 36.565 27.6676C36.8008 27.5227 37.0664 27.4134 37.3619 27.3395C37.6602 27.2628 37.9684 27.2074 38.2866 27.1733C38.6701 27.1335 38.9812 27.098 39.2198 27.0668C39.4585 27.0327 39.6317 26.9815 39.7397 26.9134C39.8505 26.8423 39.9059 26.733 39.9059 26.5852V26.5597C39.9059 26.2386 39.8107 25.9901 39.6204 25.8139C39.43 25.6378 39.1559 25.5497 38.7979 25.5497C38.4201 25.5497 38.1204 25.6321 37.8988 25.7969C37.68 25.9616 37.5323 26.1562 37.4556 26.3807L36.0153 26.1761C36.1289 25.7784 36.3164 25.446 36.5778 25.179C36.8391 24.9091 37.1587 24.7074 37.5366 24.5739C37.9144 24.4375 38.332 24.3693 38.7894 24.3693C39.1048 24.3693 39.4187 24.4062 39.7312 24.4801C40.0437 24.554 40.3292 24.6761 40.5877 24.8466C40.8462 25.0142 41.0536 25.2429 41.2099 25.5327C41.369 25.8224 41.4485 26.1847 41.4485 26.6193V31H39.9656V30.1009H39.9144C39.8207 30.2827 39.6886 30.4531 39.5181 30.6122C39.3505 30.7685 39.1388 30.8949 38.8832 30.9915C38.6303 31.0852 38.3335 31.1321 37.9925 31.1321ZM38.3931 29.9986C38.7028 29.9986 38.9712 29.9375 39.1985 29.8153C39.4258 29.6903 39.6005 29.5256 39.7227 29.321C39.8477 29.1165 39.9102 28.8935 39.9102 28.652V27.8807C39.8619 27.9205 39.7795 27.9574 39.663 27.9915C39.5494 28.0256 39.4215 28.0554 39.2795 28.081C39.1374 28.1065 38.9968 28.1293 38.8576 28.1491C38.7184 28.169 38.5977 28.1861 38.4954 28.2003C38.2653 28.2315 38.0593 28.2827 37.8775 28.3537C37.6957 28.4247 37.5522 28.5241 37.4471 28.652C37.342 28.777 37.2894 28.9389 37.2894 29.1378C37.2894 29.4219 37.3931 29.6364 37.6005 29.7812C37.8079 29.9261 38.0721 29.9986 38.3931 29.9986ZM45.9762 31V24.4545H48.7248C49.5004 24.4545 50.1126 24.6094 50.5614 24.919C51.0131 25.2287 51.239 25.6605 51.239 26.2145C51.239 26.581 51.1112 26.8807 50.8555 27.1136C50.6026 27.3437 50.2575 27.4986 49.82 27.5781C50.1637 27.6065 50.4648 27.6932 50.7234 27.8381C50.9847 27.983 51.1893 28.1733 51.337 28.4091C51.4847 28.6449 51.5586 28.9162 51.5586 29.223C51.5586 29.5838 51.4634 29.8977 51.2731 30.1648C51.0856 30.429 50.8114 30.6349 50.4506 30.7827C50.0927 30.9276 49.658 31 49.1467 31H45.9762ZM47.4208 29.7855H49.1467C49.4308 29.7855 49.6538 29.7187 49.8157 29.5852C49.9776 29.4489 50.0586 29.2642 50.0586 29.0312C50.0586 28.7614 49.9776 28.5497 49.8157 28.3963C49.6538 28.2401 49.4308 28.1619 49.1467 28.1619H47.4208V29.7855ZM47.4208 27.1648H48.7546C48.9648 27.1648 49.1452 27.1349 49.2958 27.0753C49.4464 27.0128 49.5614 26.9261 49.641 26.8153C49.7205 26.7017 49.7603 26.5668 49.7603 26.4105C49.7603 26.1861 49.668 26.0099 49.4833 25.8821C49.3015 25.7543 49.0487 25.6903 48.7248 25.6903H47.4208V27.1648ZM54.7152 31.1321C54.3004 31.1321 53.9268 31.0582 53.5945 30.9105C53.2649 30.7599 53.0036 30.5384 52.8104 30.2457C52.62 29.9531 52.5249 29.5923 52.5249 29.1634C52.5249 28.794 52.593 28.4886 52.7294 28.2472C52.8658 28.0057 53.0518 27.8125 53.2876 27.6676C53.5234 27.5227 53.7891 27.4134 54.0845 27.3395C54.3828 27.2628 54.6911 27.2074 55.0092 27.1733C55.3928 27.1335 55.7038 27.098 55.9425 27.0668C56.1811 27.0327 56.3544 26.9815 56.4624 26.9134C56.5732 26.8423 56.6286 26.733 56.6286 26.5852V26.5597C56.6286 26.2386 56.5334 25.9901 56.343 25.8139C56.1527 25.6378 55.8786 25.5497 55.5206 25.5497C55.1428 25.5497 54.843 25.6321 54.6214 25.7969C54.4027 25.9616 54.255 26.1562 54.1783 26.3807L52.7379 26.1761C52.8516 25.7784 53.0391 25.446 53.3004 25.179C53.5618 24.9091 53.8814 24.7074 54.2592 24.5739C54.6371 24.4375 55.0547 24.3693 55.5121 24.3693C55.8274 24.3693 56.1413 24.4062 56.4538 24.4801C56.7663 24.554 57.0518 24.6761 57.3104 24.8466C57.5689 25.0142 57.7763 25.2429 57.9325 25.5327C58.0916 25.8224 58.1712 26.1847 58.1712 26.6193V31H56.6882V30.1009H56.6371C56.5433 30.2827 56.4112 30.4531 56.2408 30.6122C56.0732 30.7685 55.8615 30.8949 55.6058 30.9915C55.353 31.0852 55.0561 31.1321 54.7152 31.1321ZM55.1158 29.9986C55.4254 29.9986 55.6939 29.9375 55.9212 29.8153C56.1484 29.6903 56.3232 29.5256 56.4453 29.321C56.5703 29.1165 56.6328 28.8935 56.6328 28.652V27.8807C56.5845 27.9205 56.5021 27.9574 56.3857 27.9915C56.272 28.0256 56.1442 28.0554 56.0021 28.081C55.8601 28.1065 55.7195 28.1293 55.5803 28.1491C55.4411 28.169 55.3203 28.1861 55.218 28.2003C54.9879 28.2315 54.782 28.2827 54.6001 28.3537C54.4183 28.4247 54.2749 28.5241 54.1697 28.652C54.0646 28.777 54.0121 28.9389 54.0121 29.1378C54.0121 29.4219 54.1158 29.6364 54.3232 29.7812C54.5305 29.9261 54.7947 29.9986 55.1158 29.9986ZM59.7223 24.4545H61.2095V29.7301H63.2678V24.4545H64.755V29.7301H66.8132V24.4545H68.3004V31H59.7223V24.4545ZM71.3462 28.9119L73.967 24.4545H75.5522V31H74.0607V26.5384L71.4485 31H69.859V24.4545H71.3462V28.9119ZM79.755 25.7202V24.4545H85.4822V25.7202H83.3643V31H81.8729V25.7202H79.755ZM89.3388 31.1278C88.6825 31.1278 88.1158 30.9915 87.6385 30.7188C87.1641 30.4432 86.799 30.054 86.5433 29.5511C86.2876 29.0455 86.1598 28.4503 86.1598 27.7656C86.1598 27.0923 86.2876 26.5014 86.5433 25.9929C86.8018 25.4815 87.1626 25.0838 87.6257 24.7997C88.0888 24.5128 88.6328 24.3693 89.2578 24.3693C89.6612 24.3693 90.0419 24.4347 90.3999 24.5653C90.7607 24.6932 91.0788 24.892 91.3544 25.1619C91.6328 25.4318 91.8516 25.7756 92.0107 26.1932C92.1697 26.608 92.2493 27.1023 92.2493 27.6761V28.1491H86.8842V27.1094H90.7706C90.7678 26.8139 90.7038 26.5511 90.5788 26.321C90.4538 26.0881 90.2791 25.9048 90.0547 25.7713C89.8331 25.6378 89.5746 25.571 89.2791 25.571C88.9638 25.571 88.6868 25.6477 88.4482 25.8011C88.2095 25.9517 88.0234 26.1506 87.8899 26.3977C87.7592 26.642 87.6925 26.9105 87.6896 27.2031V28.1108C87.6896 28.4915 87.7592 28.8182 87.8984 29.0909C88.0376 29.3608 88.2322 29.5682 88.4822 29.7131C88.7322 29.8551 89.0249 29.9261 89.3601 29.9261C89.5845 29.9261 89.7876 29.8949 89.9695 29.8324C90.1513 29.767 90.3089 29.6719 90.4425 29.5469C90.576 29.4219 90.6768 29.267 90.745 29.0824L92.1854 29.2443C92.0945 29.625 91.9212 29.9574 91.6655 30.2415C91.4126 30.5227 91.0888 30.7415 90.6939 30.8977C90.299 31.0511 89.8473 31.1278 89.3388 31.1278ZM96.4094 31.1278C95.756 31.1278 95.195 30.9844 94.7262 30.6974C94.2603 30.4105 93.9009 30.0142 93.6481 29.5085C93.3981 29 93.2731 28.4148 93.2731 27.7528C93.2731 27.0881 93.4009 26.5014 93.6566 25.9929C93.9123 25.4815 94.2731 25.0838 94.739 24.7997C95.2077 24.5128 95.7617 24.3693 96.4009 24.3693C96.9322 24.3693 97.4023 24.4673 97.8114 24.6634C98.2234 24.8565 98.5515 25.1307 98.7958 25.4858C99.0401 25.8381 99.1793 26.25 99.2134 26.7216H97.739C97.6793 26.4062 97.5373 26.1435 97.3129 25.9332C97.0913 25.7202 96.7944 25.6136 96.4222 25.6136C96.1069 25.6136 95.8299 25.6989 95.5913 25.8693C95.3526 26.0369 95.1665 26.2784 95.033 26.5938C94.9023 26.9091 94.837 27.2869 94.837 27.7273C94.837 28.1733 94.9023 28.5568 95.033 28.8778C95.1637 29.196 95.3469 29.4418 95.5827 29.6151C95.8214 29.7855 96.1012 29.8707 96.4222 29.8707C96.6495 29.8707 96.8526 29.8281 97.0316 29.7429C97.2134 29.6548 97.3654 29.5284 97.4876 29.3636C97.6097 29.1989 97.6935 28.9986 97.739 28.7628H99.2134C99.1765 29.2259 99.0401 29.6364 98.8043 29.9943C98.5685 30.3494 98.2475 30.6278 97.8413 30.8295C97.435 31.0284 96.9577 31.1278 96.4094 31.1278ZM100.005 25.7202V24.4545H105.732V25.7202H103.614V31H102.123V25.7202H100.005ZM111.821 31.1321C111.406 31.1321 111.032 31.0582 110.7 30.9105C110.37 30.7599 110.109 30.5384 109.916 30.2457C109.725 29.9531 109.63 29.5923 109.63 29.1634C109.63 28.794 109.699 28.4886 109.835 28.2472C109.971 28.0057 110.157 27.8125 110.393 27.6676C110.629 27.5227 110.895 27.4134 111.19 27.3395C111.488 27.2628 111.797 27.2074 112.115 27.1733C112.498 27.1335 112.809 27.098 113.048 27.0668C113.287 27.0327 113.46 26.9815 113.568 26.9134C113.679 26.8423 113.734 26.733 113.734 26.5852V26.5597C113.734 26.2386 113.639 25.9901 113.449 25.8139C113.258 25.6378 112.984 25.5497 112.626 25.5497C112.248 25.5497 111.949 25.6321 111.727 25.7969C111.508 25.9616 111.36 26.1562 111.284 26.3807L109.843 26.1761C109.957 25.7784 110.145 25.446 110.406 25.179C110.667 24.9091 110.987 24.7074 111.365 24.5739C111.743 24.4375 112.16 24.3693 112.618 24.3693C112.933 24.3693 113.247 24.4062 113.559 24.4801C113.872 24.554 114.157 24.6761 114.416 24.8466C114.674 25.0142 114.882 25.2429 115.038 25.5327C115.197 25.8224 115.277 26.1847 115.277 26.6193V31H113.794V30.1009H113.743C113.649 30.2827 113.517 30.4531 113.346 30.6122C113.179 30.7685 112.967 30.8949 112.711 30.9915C112.458 31.0852 112.162 31.1321 111.821 31.1321ZM112.221 29.9986C112.531 29.9986 112.799 29.9375 113.027 29.8153C113.254 29.6903 113.429 29.5256 113.551 29.321C113.676 29.1165 113.738 28.8935 113.738 28.652V27.8807C113.69 27.9205 113.608 27.9574 113.491 27.9915C113.377 28.0256 113.25 28.0554 113.108 28.081C112.966 28.1065 112.825 28.1293 112.686 28.1491C112.547 28.169 112.426 28.1861 112.324 28.2003C112.093 28.2315 111.887 28.2827 111.706 28.3537C111.524 28.4247 111.38 28.5241 111.275 28.652C111.17 28.777 111.118 28.9389 111.118 29.1378C111.118 29.4219 111.221 29.6364 111.429 29.7812C111.636 29.9261 111.9 29.9986 112.221 29.9986ZM118.315 28.9119L120.936 24.4545H122.521V31H121.029V26.5384L118.417 31H116.828V24.4545H118.315V28.9119ZM120.514 22.2045H121.669C121.669 22.7017 121.488 23.1051 121.127 23.4148C120.77 23.7216 120.284 23.875 119.67 23.875C119.062 23.875 118.578 23.7216 118.217 23.4148C117.859 23.1051 117.681 22.7017 117.684 22.2045H118.831C118.831 22.4091 118.893 22.5923 119.018 22.7543C119.146 22.9134 119.363 22.9929 119.67 22.9929C119.971 22.9929 120.186 22.9134 120.314 22.7543C120.444 22.5952 120.511 22.4119 120.514 22.2045ZM123.526 32.9006V29.7301H124.045C124.185 29.6222 124.301 29.4759 124.395 29.2912C124.489 29.1037 124.565 28.8835 124.625 28.6307C124.688 28.375 124.739 28.0895 124.778 27.7741C124.818 27.456 124.854 27.1136 124.885 26.7472L125.072 24.4545H129.803V29.7301H130.817V32.9006H129.325V31H125.043V32.9006H123.526ZM125.631 29.7301H128.328V25.6989H126.411L126.308 26.7472C126.251 27.4403 126.176 28.0341 126.082 28.5284C125.989 29.0227 125.838 29.4233 125.631 29.7301ZM133.456 28.9119L136.076 24.4545H137.662V31H136.17V26.5384L133.558 31H131.968V24.4545H133.456V28.9119ZM141.86 29.206H143.39C143.404 29.4503 143.513 29.6392 143.718 29.7727C143.923 29.9062 144.188 29.973 144.515 29.973C144.847 29.973 145.127 29.9006 145.354 29.7557C145.585 29.608 145.7 29.3849 145.7 29.0866C145.7 28.9105 145.656 28.7557 145.567 28.6222C145.479 28.4858 145.356 28.3807 145.197 28.3068C145.038 28.233 144.85 28.196 144.634 28.196H143.633V27.1009H144.634C144.955 27.1009 145.198 27.027 145.363 26.8793C145.531 26.7315 145.614 26.5455 145.614 26.321C145.614 26.0795 145.526 25.8835 145.35 25.733C145.177 25.5824 144.937 25.5071 144.63 25.5071C144.323 25.5071 144.067 25.5767 143.863 25.7159C143.661 25.8551 143.556 26.0341 143.548 26.2528H142.026C142.032 25.8722 142.146 25.5412 142.367 25.2599C142.592 24.9787 142.893 24.7599 143.271 24.6037C143.651 24.4474 144.08 24.3693 144.558 24.3693C145.069 24.3693 145.511 24.446 145.883 24.5994C146.255 24.7528 146.542 24.9673 146.744 25.2429C146.945 25.5156 147.046 25.8366 147.046 26.206C147.046 26.5611 146.935 26.8551 146.714 27.0881C146.492 27.3182 146.194 27.483 145.819 27.5824V27.6506C146.077 27.6648 146.31 27.7386 146.518 27.8722C146.725 28.0028 146.89 28.1804 147.012 28.4048C147.134 28.6293 147.195 28.8892 147.195 29.1847C147.195 29.5852 147.08 29.9318 146.85 30.2244C146.62 30.5142 146.303 30.7372 145.9 30.8935C145.499 31.0497 145.04 31.1278 144.523 31.1278C144.021 31.1278 143.57 31.0526 143.173 30.902C142.778 30.7486 142.464 30.5284 142.231 30.2415C141.998 29.9545 141.874 29.6094 141.86 29.206ZM150.293 31.1321C149.879 31.1321 149.505 31.0582 149.173 30.9105C148.843 30.7599 148.582 30.5384 148.388 30.2457C148.198 29.9531 148.103 29.5923 148.103 29.1634C148.103 28.794 148.171 28.4886 148.308 28.2472C148.444 28.0057 148.63 27.8125 148.866 27.6676C149.102 27.5227 149.367 27.4134 149.663 27.3395C149.961 27.2628 150.269 27.2074 150.587 27.1733C150.971 27.1335 151.282 27.098 151.521 27.0668C151.759 27.0327 151.933 26.9815 152.04 26.9134C152.151 26.8423 152.207 26.733 152.207 26.5852V26.5597C152.207 26.2386 152.112 25.9901 151.921 25.8139C151.731 25.6378 151.457 25.5497 151.099 25.5497C150.721 25.5497 150.421 25.6321 150.2 25.7969C149.981 25.9616 149.833 26.1562 149.756 26.3807L148.316 26.1761C148.43 25.7784 148.617 25.446 148.879 25.179C149.14 24.9091 149.46 24.7074 149.837 24.5739C150.215 24.4375 150.633 24.3693 151.09 24.3693C151.406 24.3693 151.719 24.4062 152.032 24.4801C152.344 24.554 152.63 24.6761 152.888 24.8466C153.147 25.0142 153.354 25.2429 153.511 25.5327C153.67 25.8224 153.749 26.1847 153.749 26.6193V31H152.266V30.1009H152.215C152.121 30.2827 151.989 30.4531 151.819 30.6122C151.651 30.7685 151.44 30.8949 151.184 30.9915C150.931 31.0852 150.634 31.1321 150.293 31.1321ZM150.694 29.9986C151.004 29.9986 151.272 29.9375 151.499 29.8153C151.727 29.6903 151.901 29.5256 152.023 29.321C152.148 29.1165 152.211 28.8935 152.211 28.652V27.8807C152.163 27.9205 152.08 27.9574 151.964 27.9915C151.85 28.0256 151.722 28.0554 151.58 28.081C151.438 28.1065 151.298 28.1293 151.158 28.1491C151.019 28.169 150.898 28.1861 150.796 28.2003C150.566 28.2315 150.36 28.2827 150.178 28.3537C149.996 28.4247 149.853 28.5241 149.748 28.652C149.643 28.777 149.59 28.9389 149.59 29.1378C149.59 29.4219 149.694 29.6364 149.901 29.7812C150.109 29.9261 150.373 29.9986 150.694 29.9986ZM158.156 31.1278C157.502 31.1278 156.941 30.9844 156.472 30.6974C156.006 30.4105 155.647 30.0142 155.394 29.5085C155.144 29 155.019 28.4148 155.019 27.7528C155.019 27.0881 155.147 26.5014 155.403 25.9929C155.658 25.4815 156.019 25.0838 156.485 24.7997C156.954 24.5128 157.508 24.3693 158.147 24.3693C158.678 24.3693 159.148 24.4673 159.558 24.6634C159.969 24.8565 160.298 25.1307 160.542 25.4858C160.786 25.8381 160.925 26.25 160.96 26.7216H159.485C159.425 26.4062 159.283 26.1435 159.059 25.9332C158.837 25.7202 158.54 25.6136 158.168 25.6136C157.853 25.6136 157.576 25.6989 157.337 25.8693C157.099 26.0369 156.913 26.2784 156.779 26.5938C156.648 26.9091 156.583 27.2869 156.583 27.7273C156.583 28.1733 156.648 28.5568 156.779 28.8778C156.91 29.196 157.093 29.4418 157.329 29.6151C157.567 29.7855 157.847 29.8707 158.168 29.8707C158.396 29.8707 158.599 29.8281 158.778 29.7429C158.96 29.6548 159.112 29.5284 159.234 29.3636C159.356 29.1989 159.44 28.9986 159.485 28.7628H160.96C160.923 29.2259 160.786 29.6364 160.55 29.9943C160.315 30.3494 159.994 30.6278 159.587 30.8295C159.181 31.0284 158.704 31.1278 158.156 31.1278ZM165.081 31.1278C164.442 31.1278 163.888 30.9872 163.419 30.706C162.951 30.4247 162.587 30.0312 162.328 29.5256C162.073 29.0199 161.945 28.429 161.945 27.7528C161.945 27.0767 162.073 26.4844 162.328 25.9759C162.587 25.4673 162.951 25.0724 163.419 24.7912C163.888 24.5099 164.442 24.3693 165.081 24.3693C165.721 24.3693 166.275 24.5099 166.743 24.7912C167.212 25.0724 167.574 25.4673 167.83 25.9759C168.088 26.4844 168.218 27.0767 168.218 27.7528C168.218 28.429 168.088 29.0199 167.83 29.5256C167.574 30.0312 167.212 30.4247 166.743 30.706C166.275 30.9872 165.721 31.1278 165.081 31.1278ZM165.09 29.892C165.436 29.892 165.726 29.7969 165.959 29.6065C166.192 29.4134 166.365 29.1548 166.479 28.831C166.596 28.5071 166.654 28.1463 166.654 27.7486C166.654 27.348 166.596 26.9858 166.479 26.6619C166.365 26.3352 166.192 26.0753 165.959 25.8821C165.726 25.6889 165.436 25.5923 165.09 25.5923C164.735 25.5923 164.439 25.6889 164.203 25.8821C163.971 26.0753 163.796 26.3352 163.679 26.6619C163.566 26.9858 163.509 27.348 163.509 27.7486C163.509 28.1463 163.566 28.5071 163.679 28.831C163.796 29.1548 163.971 29.4134 164.203 29.6065C164.439 29.7969 164.735 29.892 165.09 29.892ZM169.527 33.4545V24.4545H171.044V25.5369H171.134C171.213 25.3778 171.325 25.2088 171.47 25.0298C171.615 24.848 171.811 24.6932 172.058 24.5653C172.305 24.4347 172.621 24.3693 173.004 24.3693C173.51 24.3693 173.966 24.4986 174.372 24.7571C174.781 25.0128 175.105 25.392 175.344 25.8949C175.585 26.3949 175.706 27.0085 175.706 27.7358C175.706 28.4545 175.588 29.0653 175.352 29.5682C175.116 30.071 174.795 30.4545 174.389 30.7188C173.983 30.983 173.523 31.1151 173.009 31.1151C172.634 31.1151 172.322 31.0526 172.075 30.9276C171.828 30.8026 171.629 30.652 171.479 30.4759C171.331 30.2969 171.216 30.1278 171.134 29.9688H171.07V33.4545H169.527ZM171.04 27.7273C171.04 28.1506 171.099 28.5213 171.219 28.8395C171.341 29.1577 171.516 29.4062 171.743 29.5852C171.973 29.7614 172.251 29.8494 172.578 29.8494C172.919 29.8494 173.205 29.7585 173.435 29.5767C173.665 29.392 173.838 29.1406 173.955 28.8224C174.074 28.5014 174.134 28.1364 174.134 27.7273C174.134 27.321 174.075 26.9602 173.959 26.6449C173.842 26.3295 173.669 26.0824 173.439 25.9034C173.209 25.7244 172.922 25.6349 172.578 25.6349C172.249 25.6349 171.969 25.7216 171.739 25.8949C171.509 26.0682 171.334 26.3111 171.214 26.6236C171.098 26.9361 171.04 27.304 171.04 27.7273ZM180.896 31V25.7074H179.499C179.143 25.7074 178.871 25.7898 178.68 25.9545C178.49 26.1193 178.396 26.3239 178.399 26.5682C178.396 26.8125 178.486 27.0142 178.668 27.1733C178.849 27.3324 179.109 27.4119 179.447 27.4119H181.382V28.5369H179.447C178.925 28.5369 178.473 28.4545 178.092 28.2898C177.712 28.125 177.419 27.892 177.214 27.5909C177.01 27.2898 176.908 26.9375 176.908 26.5341C176.908 26.1136 177.011 25.7486 177.219 25.4389C177.429 25.1264 177.727 24.8849 178.114 24.7145C178.503 24.5412 178.964 24.4545 179.499 24.4545H182.341V31H180.896ZM176.669 31L178.497 27.642H180.018L178.186 31H176.669ZM187.35 27.1349V28.4048H183.826V27.1349H187.35ZM185.049 24.4545V31H183.502V24.4545H185.049ZM189.327 31.1278C188.697 31.1278 188.15 30.9844 187.687 30.6974C187.227 30.4105 186.87 30.0128 186.617 29.5043C186.364 28.9957 186.238 28.4077 186.238 27.7401C186.238 27.0724 186.364 26.4858 186.617 25.9801C186.87 25.4744 187.227 25.0795 187.687 24.7955C188.15 24.5114 188.697 24.3693 189.327 24.3693C189.955 24.3693 190.499 24.5114 190.96 24.7955C191.423 25.0795 191.781 25.4744 192.033 25.9801C192.289 26.4858 192.417 27.0724 192.417 27.7401C192.417 28.4077 192.289 28.9957 192.033 29.5043C191.781 30.0128 191.423 30.4105 190.96 30.6974C190.499 30.9844 189.955 31.1278 189.327 31.1278ZM189.327 29.8494C189.7 29.8494 190.004 29.7557 190.239 29.5682C190.475 29.3807 190.648 29.1278 190.759 28.8097C190.87 28.4915 190.925 28.1349 190.925 27.7401C190.925 27.3452 190.87 26.9886 190.759 26.6705C190.648 26.3523 190.475 26.1009 190.239 25.9162C190.004 25.7287 189.7 25.6349 189.327 25.6349C188.952 25.6349 188.646 25.7287 188.407 25.9162C188.171 26.1009 187.998 26.3523 187.887 26.6705C187.776 26.9886 187.721 27.3452 187.721 27.7401C187.721 28.1378 187.776 28.4957 187.887 28.8139C187.998 29.1321 188.171 29.3849 188.407 29.5724C188.646 29.7571 188.952 29.8494 189.327 29.8494ZM193.064 25.7202V24.4545H198.791V25.7202H196.673V31H195.181V25.7202H193.064ZM26.7926 46V39.4545H28.3352V42.0966H28.8977L30.8665 39.4545H32.7244L30.2997 42.6676L32.75 46H30.8835L29.0895 43.5327H28.3352V46H26.7926ZM36.2102 46.1278C35.571 46.1278 35.017 45.9872 34.5483 45.706C34.0795 45.4247 33.7159 45.0312 33.4574 44.5256C33.2017 44.0199 33.0739 43.429 33.0739 42.7528C33.0739 42.0767 33.2017 41.4844 33.4574 40.9759C33.7159 40.4673 34.0795 40.0724 34.5483 39.7912C35.017 39.5099 35.571 39.3693 36.2102 39.3693C36.8494 39.3693 37.4034 39.5099 37.8722 39.7912C38.3409 40.0724 38.7031 40.4673 38.9588 40.9759C39.2173 41.4844 39.3466 42.0767 39.3466 42.7528C39.3466 43.429 39.2173 44.0199 38.9588 44.5256C38.7031 45.0312 38.3409 45.4247 37.8722 45.706C37.4034 45.9872 36.8494 46.1278 36.2102 46.1278ZM36.2188 44.892C36.5653 44.892 36.8551 44.7969 37.0881 44.6065C37.321 44.4134 37.4943 44.1548 37.608 43.831C37.7244 43.5071 37.7827 43.1463 37.7827 42.7486C37.7827 42.348 37.7244 41.9858 37.608 41.6619C37.4943 41.3352 37.321 41.0753 37.0881 40.8821C36.8551 40.6889 36.5653 40.5923 36.2188 40.5923C35.8636 40.5923 35.5682 40.6889 35.3324 40.8821C35.0994 41.0753 34.9247 41.3352 34.8082 41.6619C34.6946 41.9858 34.6378 42.348 34.6378 42.7486C34.6378 43.1463 34.6946 43.5071 34.8082 43.831C34.9247 44.1548 35.0994 44.4134 35.3324 44.6065C35.5682 44.7969 35.8636 44.892 36.2188 44.892ZM40.0763 47.9006V44.7301H40.5962C40.7354 44.6222 40.8519 44.4759 40.9457 44.2912C41.0394 44.1037 41.1161 43.8835 41.1758 43.6307C41.2383 43.375 41.2894 43.0895 41.3292 42.7741C41.369 42.456 41.4045 42.1136 41.4357 41.7472L41.6232 39.4545H46.3533V44.7301H47.3675V47.9006H45.8761V46H41.5934V47.9006H40.0763ZM42.1815 44.7301H44.8789V40.6989H42.9613L42.859 41.7472C42.8022 42.4403 42.7269 43.0341 42.6332 43.5284C42.5394 44.0227 42.3888 44.4233 42.1815 44.7301ZM52.983 43.9119L55.6037 39.4545H57.1889V46H55.6974V41.5384L53.0852 46H51.4957V39.4545H52.983V43.9119ZM62.7085 48.4545C62.4982 48.4545 62.3036 48.4375 62.1246 48.4034C61.9485 48.3722 61.8079 48.3352 61.7028 48.2926L62.0607 47.0909C62.2852 47.1563 62.4854 47.1875 62.6616 47.1847C62.8377 47.1818 62.9925 47.1264 63.1261 47.0185C63.2624 46.9134 63.3775 46.7372 63.4712 46.4901L63.6033 46.1364L61.2298 39.4545H62.8661L64.3746 44.3977H64.4428L65.9556 39.4545H67.5962L64.9755 46.7926C64.8533 47.1392 64.6914 47.4361 64.4897 47.6832C64.288 47.9332 64.0408 48.1236 63.7482 48.2543C63.4585 48.3878 63.1119 48.4545 62.7085 48.4545ZM68.6637 46V39.4545H71.4123C72.1879 39.4545 72.8001 39.6094 73.2489 39.919C73.7006 40.2287 73.9265 40.6605 73.9265 41.2145C73.9265 41.581 73.7987 41.8807 73.543 42.1136C73.2901 42.3437 72.945 42.4986 72.5075 42.5781C72.8512 42.6065 73.1523 42.6932 73.4109 42.8381C73.6722 42.983 73.8768 43.1733 74.0245 43.4091C74.1722 43.6449 74.2461 43.9162 74.2461 44.223C74.2461 44.5838 74.1509 44.8977 73.9606 45.1648C73.7731 45.429 73.4989 45.6349 73.1381 45.7827C72.7802 45.9276 72.3455 46 71.8342 46H68.6637ZM70.1083 44.7855H71.8342C72.1183 44.7855 72.3413 44.7187 72.5032 44.5852C72.6651 44.4489 72.7461 44.2642 72.7461 44.0312C72.7461 43.7614 72.6651 43.5497 72.5032 43.3963C72.3413 43.2401 72.1183 43.1619 71.8342 43.1619H70.1083V44.7855ZM70.1083 42.1648H71.4421C71.6523 42.1648 71.8327 42.1349 71.9833 42.0753C72.1339 42.0128 72.2489 41.9261 72.3285 41.8153C72.408 41.7017 72.4478 41.5668 72.4478 41.4105C72.4478 41.1861 72.3555 41.0099 72.1708 40.8821C71.989 40.7543 71.7362 40.6903 71.4123 40.6903H70.1083V42.1648ZM78.4169 46.1278C77.7607 46.1278 77.1939 45.9915 76.7166 45.7188C76.2422 45.4432 75.8771 45.054 75.6214 44.5511C75.3658 44.0455 75.2379 43.4503 75.2379 42.7656C75.2379 42.0923 75.3658 41.5014 75.6214 40.9929C75.88 40.4815 76.2408 40.0838 76.7038 39.7997C77.1669 39.5128 77.7109 39.3693 78.3359 39.3693C78.7393 39.3693 79.12 39.4347 79.478 39.5653C79.8388 39.6932 80.157 39.892 80.4325 40.1619C80.7109 40.4318 80.9297 40.7756 81.0888 41.1932C81.2479 41.608 81.3274 42.1023 81.3274 42.6761V43.1491H75.9624V42.1094H79.8487C79.8459 41.8139 79.782 41.5511 79.657 41.321C79.532 41.0881 79.3572 40.9048 79.1328 40.7713C78.9112 40.6378 78.6527 40.571 78.3572 40.571C78.0419 40.571 77.7649 40.6477 77.5263 40.8011C77.2876 40.9517 77.1016 41.1506 76.968 41.3977C76.8374 41.642 76.7706 41.9105 76.7678 42.2031V43.1108C76.7678 43.4915 76.8374 43.8182 76.9766 44.0909C77.1158 44.3608 77.3104 44.5682 77.5604 44.7131C77.8104 44.8551 78.103 44.9261 78.4382 44.9261C78.6626 44.9261 78.8658 44.8949 79.0476 44.8324C79.2294 44.767 79.3871 44.6719 79.5206 44.5469C79.6541 44.4219 79.755 44.267 79.8232 44.0824L81.2635 44.2443C81.1726 44.625 80.9993 44.9574 80.7436 45.2415C80.4908 45.5227 80.1669 45.7415 79.772 45.8977C79.3771 46.0511 78.9254 46.1278 78.4169 46.1278ZM82.1808 46L82.1722 44.7301H82.3981C82.5685 44.7301 82.712 44.6918 82.8285 44.6151C82.945 44.5384 83.0415 44.4105 83.1183 44.2315C83.195 44.0497 83.2546 43.8054 83.2972 43.4986C83.3398 43.1918 83.3697 42.8097 83.3867 42.3523L83.5018 39.4545H88.2745V46H86.783V40.7202H84.9038L84.8015 42.8295C84.7759 43.375 84.7148 43.848 84.6183 44.2486C84.5245 44.6463 84.391 44.9744 84.2177 45.233C84.0472 45.4915 83.8327 45.6847 83.5742 45.8125C83.3157 45.9375 83.0103 46 82.658 46H82.1808ZM91.315 43.9119L93.9357 39.4545H95.521V46H94.0295V41.5384L91.4173 46H89.8278V39.4545H91.315V43.9119ZM102.572 39.4545V46H101.089V39.4545H102.572ZM101.878 42.4119V43.6733C101.71 43.7472 101.52 43.8139 101.307 43.8736C101.097 43.9304 100.874 43.9759 100.638 44.0099C100.405 44.044 100.172 44.0611 99.9389 44.0611C99.0639 44.0611 98.3722 43.8651 97.8636 43.473C97.358 43.0781 97.1051 42.4631 97.1051 41.6278V39.446H98.5795V41.6278C98.5795 41.9091 98.6293 42.1349 98.7287 42.3054C98.8281 42.4759 98.9787 42.6009 99.1804 42.6804C99.3821 42.7571 99.6349 42.7955 99.9389 42.7955C100.28 42.7955 100.604 42.7614 100.911 42.6932C101.217 42.625 101.54 42.5312 101.878 42.4119ZM105.612 43.9119L108.233 39.4545H109.818V46H108.326V41.5384L105.714 46H104.125V39.4545H105.612V43.9119ZM111.402 46V39.4545H114.151C114.926 39.4545 115.538 39.6094 115.987 39.919C116.439 40.2287 116.665 40.6605 116.665 41.2145C116.665 41.581 116.537 41.8807 116.281 42.1136C116.028 42.3437 115.683 42.4986 115.246 42.5781C115.589 42.6065 115.891 42.6932 116.149 42.8381C116.411 42.983 116.615 43.1733 116.763 43.4091C116.911 43.6449 116.984 43.9162 116.984 44.223C116.984 44.5838 116.889 44.8977 116.699 45.1648C116.511 45.429 116.237 45.6349 115.876 45.7827C115.518 45.9276 115.084 46 114.572 46H111.402ZM112.847 44.7855H114.572C114.857 44.7855 115.08 44.7187 115.241 44.5852C115.403 44.4489 115.484 44.2642 115.484 44.0312C115.484 43.7614 115.403 43.5497 115.241 43.3963C115.08 43.2401 114.857 43.1619 114.572 43.1619H112.847V44.7855ZM112.847 42.1648H114.18C114.391 42.1648 114.571 42.1349 114.722 42.0753C114.872 42.0128 114.987 41.9261 115.067 41.8153C115.146 41.7017 115.186 41.5668 115.186 41.4105C115.186 41.1861 115.094 41.0099 114.909 40.8821C114.727 40.7543 114.474 40.6903 114.151 40.6903H112.847V42.1648ZM120.141 46.1321C119.726 46.1321 119.353 46.0582 119.02 45.9105C118.691 45.7599 118.429 45.5384 118.236 45.2457C118.046 44.9531 117.951 44.5923 117.951 44.1634C117.951 43.794 118.019 43.4886 118.155 43.2472C118.292 43.0057 118.478 42.8125 118.713 42.6676C118.949 42.5227 119.215 42.4134 119.51 42.3395C119.809 42.2628 120.117 42.2074 120.435 42.1733C120.819 42.1335 121.13 42.098 121.368 42.0668C121.607 42.0327 121.78 41.9815 121.888 41.9134C121.999 41.8423 122.054 41.733 122.054 41.5852V41.5597C122.054 41.2386 121.959 40.9901 121.769 40.8139C121.578 40.6378 121.304 40.5497 120.946 40.5497C120.569 40.5497 120.269 40.6321 120.047 40.7969C119.828 40.9616 119.681 41.1562 119.604 41.3807L118.164 41.1761C118.277 40.7784 118.465 40.446 118.726 40.179C118.988 39.9091 119.307 39.7074 119.685 39.5739C120.063 39.4375 120.48 39.3693 120.938 39.3693C121.253 39.3693 121.567 39.4062 121.88 39.4801C122.192 39.554 122.478 39.6761 122.736 39.8466C122.995 40.0142 123.202 40.2429 123.358 40.5327C123.517 40.8224 123.597 41.1847 123.597 41.6193V46H122.114V45.1009H122.063C121.969 45.2827 121.837 45.4531 121.667 45.6122C121.499 45.7685 121.287 45.8949 121.032 45.9915C120.779 46.0852 120.482 46.1321 120.141 46.1321ZM120.542 44.9986C120.851 44.9986 121.12 44.9375 121.347 44.8153C121.574 44.6903 121.749 44.5256 121.871 44.321C121.996 44.1165 122.059 43.8935 122.059 43.652V42.8807C122.01 42.9205 121.928 42.9574 121.811 42.9915C121.698 43.0256 121.57 43.0554 121.428 43.081C121.286 43.1065 121.145 43.1293 121.006 43.1491C120.867 43.169 120.746 43.1861 120.644 43.2003C120.414 43.2315 120.208 43.2827 120.026 43.3537C119.844 43.4247 119.701 43.5241 119.596 43.652C119.49 43.777 119.438 43.9389 119.438 44.1378C119.438 44.4219 119.542 44.6364 119.749 44.7812C119.956 44.9261 120.221 44.9986 120.542 44.9986ZM128.604 42.1349V43.4048H125.08V42.1349H128.604ZM126.303 39.4545V46H124.756V39.4545H126.303ZM130.581 46.1278C129.951 46.1278 129.404 45.9844 128.941 45.6974C128.48 45.4105 128.124 45.0128 127.871 44.5043C127.618 43.9957 127.492 43.4077 127.492 42.7401C127.492 42.0724 127.618 41.4858 127.871 40.9801C128.124 40.4744 128.48 40.0795 128.941 39.7955C129.404 39.5114 129.951 39.3693 130.581 39.3693C131.209 39.3693 131.753 39.5114 132.213 39.7955C132.676 40.0795 133.034 40.4744 133.287 40.9801C133.543 41.4858 133.671 42.0724 133.671 42.7401C133.671 43.4077 133.543 43.9957 133.287 44.5043C133.034 45.0128 132.676 45.4105 132.213 45.6974C131.753 45.9844 131.209 46.1278 130.581 46.1278ZM130.581 44.8494C130.953 44.8494 131.257 44.7557 131.493 44.5682C131.729 44.3807 131.902 44.1278 132.013 43.8097C132.124 43.4915 132.179 43.1349 132.179 42.7401C132.179 42.3452 132.124 41.9886 132.013 41.6705C131.902 41.3523 131.729 41.1009 131.493 40.9162C131.257 40.7287 130.953 40.6349 130.581 40.6349C130.206 40.6349 129.9 40.7287 129.661 40.9162C129.425 41.1009 129.252 41.3523 129.141 41.6705C129.03 41.9886 128.975 42.3452 128.975 42.7401C128.975 43.1378 129.03 43.4957 129.141 43.8139C129.252 44.1321 129.425 44.3849 129.661 44.5724C129.9 44.7571 130.206 44.8494 130.581 44.8494ZM134.317 40.7202V39.4545H140.045V40.7202H137.927V46H136.435V40.7202H134.317ZM144.25 48.4545V39.4545H145.767V40.5369H145.856C145.936 40.3778 146.048 40.2088 146.193 40.0298C146.338 39.848 146.534 39.6932 146.781 39.5653C147.028 39.4347 147.343 39.3693 147.727 39.3693C148.233 39.3693 148.689 39.4986 149.095 39.7571C149.504 40.0128 149.828 40.392 150.066 40.8949C150.308 41.3949 150.429 42.0085 150.429 42.7358C150.429 43.4545 150.311 44.0653 150.075 44.5682C149.839 45.071 149.518 45.4545 149.112 45.7188C148.706 45.983 148.245 46.1151 147.731 46.1151C147.356 46.1151 147.045 46.0526 146.798 45.9276C146.551 45.8026 146.352 45.652 146.201 45.4759C146.054 45.2969 145.939 45.1278 145.856 44.9688H145.792V48.4545H144.25ZM145.762 42.7273C145.762 43.1506 145.822 43.5213 145.941 43.8395C146.064 44.1577 146.238 44.4062 146.466 44.5852C146.696 44.7614 146.974 44.8494 147.301 44.8494C147.642 44.8494 147.927 44.7585 148.157 44.5767C148.387 44.392 148.561 44.1406 148.677 43.8224C148.797 43.5014 148.856 43.1364 148.856 42.7273C148.856 42.321 148.798 41.9602 148.681 41.6449C148.565 41.3295 148.392 41.0824 148.162 40.9034C147.931 40.7244 147.645 40.6349 147.301 40.6349C146.971 40.6349 146.691 40.7216 146.461 40.8949C146.231 41.0682 146.056 41.3111 145.937 41.6236C145.821 41.9361 145.762 42.304 145.762 42.7273ZM153.633 46.1321C153.218 46.1321 152.845 46.0582 152.512 45.9105C152.183 45.7599 151.922 45.5384 151.728 45.2457C151.538 44.9531 151.443 44.5923 151.443 44.1634C151.443 43.794 151.511 43.4886 151.647 43.2472C151.784 43.0057 151.97 42.8125 152.206 42.6676C152.441 42.5227 152.707 42.4134 153.002 42.3395C153.301 42.2628 153.609 42.2074 153.927 42.1733C154.311 42.1335 154.622 42.098 154.86 42.0668C155.099 42.0327 155.272 41.9815 155.38 41.9134C155.491 41.8423 155.547 41.733 155.547 41.5852V41.5597C155.547 41.2386 155.451 40.9901 155.261 40.8139C155.071 40.6378 154.797 40.5497 154.439 40.5497C154.061 40.5497 153.761 40.6321 153.539 40.7969C153.321 40.9616 153.173 41.1562 153.096 41.3807L151.656 41.1761C151.77 40.7784 151.957 40.446 152.218 40.179C152.48 39.9091 152.799 39.7074 153.177 39.5739C153.555 39.4375 153.973 39.3693 154.43 39.3693C154.745 39.3693 155.059 39.4062 155.372 39.4801C155.684 39.554 155.97 39.6761 156.228 39.8466C156.487 40.0142 156.694 40.2429 156.85 40.5327C157.01 40.8224 157.089 41.1847 157.089 41.6193V46H155.606V45.1009H155.555C155.461 45.2827 155.329 45.4531 155.159 45.6122C154.991 45.7685 154.779 45.8949 154.524 45.9915C154.271 46.0852 153.974 46.1321 153.633 46.1321ZM154.034 44.9986C154.343 44.9986 154.612 44.9375 154.839 44.8153C155.066 44.6903 155.241 44.5256 155.363 44.321C155.488 44.1165 155.551 43.8935 155.551 43.652V42.8807C155.502 42.9205 155.42 42.9574 155.304 42.9915C155.19 43.0256 155.062 43.0554 154.92 43.081C154.778 43.1065 154.637 43.1293 154.498 43.1491C154.359 43.169 154.238 43.1861 154.136 43.2003C153.906 43.2315 153.7 43.2827 153.518 43.3537C153.336 43.4247 153.193 43.5241 153.088 43.652C152.983 43.777 152.93 43.9389 152.93 44.1378C152.93 44.4219 153.034 44.6364 153.241 44.7812C153.449 44.9261 153.713 44.9986 154.034 44.9986ZM158.278 44.206H159.808C159.822 44.4503 159.931 44.6392 160.136 44.7727C160.341 44.9062 160.606 44.973 160.933 44.973C161.265 44.973 161.545 44.9006 161.772 44.7557C162.002 44.608 162.118 44.3849 162.118 44.0866C162.118 43.9105 162.074 43.7557 161.985 43.6222C161.897 43.4858 161.774 43.3807 161.615 43.3068C161.456 43.233 161.268 43.196 161.052 43.196H160.051V42.1009H161.052C161.373 42.1009 161.616 42.027 161.781 41.8793C161.949 41.7315 162.032 41.5455 162.032 41.321C162.032 41.0795 161.944 40.8835 161.768 40.733C161.595 40.5824 161.355 40.5071 161.048 40.5071C160.741 40.5071 160.485 40.5767 160.281 40.7159C160.079 40.8551 159.974 41.0341 159.966 41.2528H158.444C158.45 40.8722 158.564 40.5412 158.785 40.2599C159.01 39.9787 159.311 39.7599 159.689 39.6037C160.069 39.4474 160.498 39.3693 160.975 39.3693C161.487 39.3693 161.929 39.446 162.301 39.5994C162.673 39.7528 162.96 39.9673 163.162 40.2429C163.363 40.5156 163.464 40.8366 163.464 41.206C163.464 41.5611 163.353 41.8551 163.132 42.0881C162.91 42.3182 162.612 42.483 162.237 42.5824V42.6506C162.495 42.6648 162.728 42.7386 162.936 42.8722C163.143 43.0028 163.308 43.1804 163.43 43.4048C163.552 43.6293 163.613 43.8892 163.613 44.1847C163.613 44.5852 163.498 44.9318 163.268 45.2244C163.038 45.5142 162.721 45.7372 162.318 45.8935C161.917 46.0497 161.458 46.1278 160.941 46.1278C160.439 46.1278 159.988 46.0526 159.591 45.902C159.196 45.7486 158.882 45.5284 158.649 45.2415C158.416 44.9545 158.292 44.6094 158.278 44.206ZM168.595 44.206L170.538 39.4545H171.782L169.136 46H168.058L165.471 39.4545H166.703L168.595 44.206ZM166.315 39.4545V46H164.828V39.4545H166.315ZM170.939 46V39.4545H172.413V46H170.939ZM176.866 46.1278C176.21 46.1278 175.643 45.9915 175.166 45.7188C174.691 45.4432 174.326 45.054 174.071 44.5511C173.815 44.0455 173.687 43.4503 173.687 42.7656C173.687 42.0923 173.815 41.5014 174.071 40.9929C174.329 40.4815 174.69 40.0838 175.153 39.7997C175.616 39.5128 176.16 39.3693 176.785 39.3693C177.189 39.3693 177.569 39.4347 177.927 39.5653C178.288 39.6932 178.606 39.892 178.882 40.1619C179.16 40.4318 179.379 40.7756 179.538 41.1932C179.697 41.608 179.777 42.1023 179.777 42.6761V43.1491H174.412V42.1094H178.298C178.295 41.8139 178.231 41.5511 178.106 41.321C177.981 41.0881 177.806 40.9048 177.582 40.7713C177.36 40.6378 177.102 40.571 176.806 40.571C176.491 40.571 176.214 40.6477 175.975 40.8011C175.737 40.9517 175.551 41.1506 175.417 41.3977C175.287 41.642 175.22 41.9105 175.217 42.2031V43.1108C175.217 43.4915 175.287 43.8182 175.426 44.0909C175.565 44.3608 175.76 44.5682 176.01 44.7131C176.26 44.8551 176.552 44.9261 176.887 44.9261C177.112 44.9261 177.315 44.8949 177.497 44.8324C177.679 44.767 177.836 44.6719 177.97 44.5469C178.103 44.4219 178.204 44.267 178.272 44.0824L179.713 44.2443C179.622 44.625 179.449 44.9574 179.193 45.2415C178.94 45.5227 178.616 45.7415 178.221 45.8977C177.826 46.0511 177.375 46.1278 176.866 46.1278ZM181.082 48.4545V39.4545H182.599V40.5369H182.688C182.768 40.3778 182.88 40.2088 183.025 40.0298C183.17 39.848 183.366 39.6932 183.613 39.5653C183.86 39.4347 184.175 39.3693 184.559 39.3693C185.065 39.3693 185.521 39.4986 185.927 39.7571C186.336 40.0128 186.66 40.392 186.898 40.8949C187.14 41.3949 187.261 42.0085 187.261 42.7358C187.261 43.4545 187.143 44.0653 186.907 44.5682C186.671 45.071 186.35 45.4545 185.944 45.7188C185.538 45.983 185.077 46.1151 184.563 46.1151C184.188 46.1151 183.877 46.0526 183.63 45.9276C183.383 45.8026 183.184 45.652 183.033 45.4759C182.886 45.2969 182.771 45.1278 182.688 44.9688H182.624V48.4545H181.082ZM182.594 42.7273C182.594 43.1506 182.654 43.5213 182.773 43.8395C182.896 44.1577 183.07 44.4062 183.298 44.5852C183.528 44.7614 183.806 44.8494 184.133 44.8494C184.474 44.8494 184.759 44.7585 184.989 44.5767C185.219 44.392 185.393 44.1406 185.509 43.8224C185.629 43.5014 185.688 43.1364 185.688 42.7273C185.688 42.321 185.63 41.9602 185.513 41.6449C185.397 41.3295 185.224 41.0824 184.994 40.9034C184.763 40.7244 184.477 40.6349 184.133 40.6349C183.803 40.6349 183.523 40.7216 183.293 40.8949C183.063 41.0682 182.888 41.3111 182.769 41.6236C182.653 41.9361 182.594 42.304 182.594 42.7273ZM26.7926 61V54.4545H29.5412C30.3168 54.4545 30.929 54.6094 31.3778 54.919C31.8295 55.2287 32.0554 55.6605 32.0554 56.2145C32.0554 56.581 31.9276 56.8807 31.6719 57.1136C31.419 57.3437 31.0739 57.4986 30.6364 57.5781C30.9801 57.6065 31.2813 57.6932 31.5398 57.8381C31.8011 57.983 32.0057 58.1733 32.1534 58.4091C32.3011 58.6449 32.375 58.9162 32.375 59.223C32.375 59.5838 32.2798 59.8977 32.0895 60.1648C31.902 60.429 31.6278 60.6349 31.267 60.7827C30.9091 60.9276 30.4744 61 29.9631 61H26.7926ZM28.2372 59.7855H29.9631C30.2472 59.7855 30.4702 59.7187 30.6321 59.5852C30.794 59.4489 30.875 59.2642 30.875 59.0312C30.875 58.7614 30.794 58.5497 30.6321 58.3963C30.4702 58.2401 30.2472 58.1619 29.9631 58.1619H28.2372V59.7855ZM28.2372 57.1648H29.571C29.7813 57.1648 29.9616 57.1349 30.1122 57.0753C30.2628 57.0128 30.3778 56.9261 30.4574 56.8153C30.5369 56.7017 30.5767 56.5668 30.5767 56.4105C30.5767 56.1861 30.4844 56.0099 30.2997 55.8821C30.1179 55.7543 29.8651 55.6903 29.5412 55.6903H28.2372V57.1648ZM36.5458 61.1278C35.8896 61.1278 35.3228 60.9915 34.8455 60.7188C34.3711 60.4432 34.006 60.054 33.7504 59.5511C33.4947 59.0455 33.3668 58.4503 33.3668 57.7656C33.3668 57.0923 33.4947 56.5014 33.7504 55.9929C34.0089 55.4815 34.3697 55.0838 34.8327 54.7997C35.2958 54.5128 35.8398 54.3693 36.4648 54.3693C36.8683 54.3693 37.2489 54.4347 37.6069 54.5653C37.9677 54.6932 38.2859 54.892 38.5614 55.1619C38.8398 55.4318 39.0586 55.7756 39.2177 56.1932C39.3768 56.608 39.4563 57.1023 39.4563 57.6761V58.1491H34.0913V57.1094H37.9776C37.9748 56.8139 37.9109 56.5511 37.7859 56.321C37.6609 56.0881 37.4862 55.9048 37.2617 55.7713C37.0401 55.6378 36.7816 55.571 36.4862 55.571C36.1708 55.571 35.8938 55.6477 35.6552 55.8011C35.4165 55.9517 35.2305 56.1506 35.0969 56.3977C34.9663 56.642 34.8995 56.9105 34.8967 57.2031V58.1108C34.8967 58.4915 34.9663 58.8182 35.1055 59.0909C35.2447 59.3608 35.4393 59.5682 35.6893 59.7131C35.9393 59.8551 36.2319 59.9261 36.5671 59.9261C36.7915 59.9261 36.9947 59.8949 37.1765 59.8324C37.3583 59.767 37.516 59.6719 37.6495 59.5469C37.783 59.4219 37.8839 59.267 37.9521 59.0824L39.3924 59.2443C39.3015 59.625 39.1282 59.9574 38.8725 60.2415C38.6197 60.5227 38.2958 60.7415 37.9009 60.8977C37.506 61.0511 37.0543 61.1278 36.5458 61.1278ZM40.7614 63.4545V54.4545H42.2784V55.5369H42.3679C42.4474 55.3778 42.5597 55.2088 42.7045 55.0298C42.8494 54.848 43.0455 54.6932 43.2926 54.5653C43.5398 54.4347 43.8551 54.3693 44.2386 54.3693C44.7443 54.3693 45.2003 54.4986 45.6065 54.7571C46.0156 55.0128 46.3395 55.392 46.5781 55.8949C46.8196 56.3949 46.9403 57.0085 46.9403 57.7358C46.9403 58.4545 46.8224 59.0653 46.5866 59.5682C46.3509 60.071 46.0298 60.4545 45.6236 60.7188C45.2173 60.983 44.7571 61.1151 44.2429 61.1151C43.8679 61.1151 43.5568 61.0526 43.3097 60.9276C43.0625 60.8026 42.8636 60.652 42.7131 60.4759C42.5653 60.2969 42.4503 60.1278 42.3679 59.9688H42.304V63.4545H40.7614ZM42.2741 57.7273C42.2741 58.1506 42.3338 58.5213 42.4531 58.8395C42.5753 59.1577 42.75 59.4062 42.9773 59.5852C43.2074 59.7614 43.4858 59.8494 43.8125 59.8494C44.1534 59.8494 44.4389 59.7585 44.669 59.5767C44.8991 59.392 45.0724 59.1406 45.1889 58.8224C45.3082 58.5014 45.3679 58.1364 45.3679 57.7273C45.3679 57.321 45.3097 56.9602 45.1932 56.6449C45.0767 56.3295 44.9034 56.0824 44.6733 55.9034C44.4432 55.7244 44.1562 55.6349 43.8125 55.6349C43.483 55.6349 43.2031 55.7216 42.973 55.8949C42.7429 56.0682 42.5682 56.3111 42.4489 56.6236C42.3324 56.9361 42.2741 57.304 42.2741 57.7273ZM51.1165 61.1278C50.4631 61.1278 49.902 60.9844 49.4332 60.6974C48.9673 60.4105 48.608 60.0142 48.3551 59.5085C48.1051 59 47.9801 58.4148 47.9801 57.7528C47.9801 57.0881 48.108 56.5014 48.3636 55.9929C48.6193 55.4815 48.9801 55.0838 49.446 54.7997C49.9148 54.5128 50.4688 54.3693 51.108 54.3693C51.6392 54.3693 52.1094 54.4673 52.5185 54.6634C52.9304 54.8565 53.2585 55.1307 53.5028 55.4858C53.7472 55.8381 53.8864 56.25 53.9205 56.7216H52.446C52.3864 56.4062 52.2443 56.1435 52.0199 55.9332C51.7983 55.7202 51.5014 55.6136 51.1293 55.6136C50.8139 55.6136 50.5369 55.6989 50.2983 55.8693C50.0597 56.0369 49.8736 56.2784 49.7401 56.5938C49.6094 56.9091 49.544 57.2869 49.544 57.7273C49.544 58.1733 49.6094 58.5568 49.7401 58.8778C49.8707 59.196 50.054 59.4418 50.2898 59.6151C50.5284 59.7855 50.8082 59.8707 51.1293 59.8707C51.3565 59.8707 51.5597 59.8281 51.7386 59.7429C51.9205 59.6548 52.0724 59.5284 52.1946 59.3636C52.3168 59.1989 52.4006 58.9986 52.446 58.7628H53.9205C53.8835 59.2259 53.7472 59.6364 53.5114 59.9943C53.2756 60.3494 52.9545 60.6278 52.5483 60.8295C52.142 61.0284 51.6648 61.1278 51.1165 61.1278ZM54.712 55.7202V54.4545H60.4393V55.7202H58.3214V61H56.8299V55.7202H54.712ZM61.6676 61V54.4545H63.2102V57.0966H63.7727L65.7415 54.4545H67.5994L65.1747 57.6676L67.625 61H65.7585L63.9645 58.5327H63.2102V61H61.6676ZM69.9869 58.9119L72.6076 54.4545H74.1928V61H72.7013V56.5384L70.0891 61H68.4996V54.4545H69.9869V58.9119ZM78.7536 61V54.4545H81.5021C82.2777 54.4545 82.8899 54.6094 83.3388 54.919C83.7905 55.2287 84.0163 55.6605 84.0163 56.2145C84.0163 56.581 83.8885 56.8807 83.6328 57.1136C83.38 57.3437 83.0348 57.4986 82.5973 57.5781C82.9411 57.6065 83.2422 57.6932 83.5007 57.8381C83.7621 57.983 83.9666 58.1733 84.1143 58.4091C84.2621 58.6449 84.3359 58.9162 84.3359 59.223C84.3359 59.5838 84.2408 59.8977 84.0504 60.1648C83.8629 60.429 83.5888 60.6349 83.228 60.7827C82.87 60.9276 82.4354 61 81.924 61H78.7536ZM80.1982 59.7855H81.924C82.2081 59.7855 82.4311 59.7187 82.593 59.5852C82.755 59.4489 82.8359 59.2642 82.8359 59.0312C82.8359 58.7614 82.755 58.5497 82.593 58.3963C82.4311 58.2401 82.2081 58.1619 81.924 58.1619H80.1982V59.7855ZM80.1982 57.1648H81.532C81.7422 57.1648 81.9226 57.1349 82.0732 57.0753C82.2237 57.0128 82.3388 56.9261 82.4183 56.8153C82.4979 56.7017 82.5376 56.5668 82.5376 56.4105C82.5376 56.1861 82.4453 56.0099 82.2607 55.8821C82.0788 55.7543 81.826 55.6903 81.5021 55.6903H80.1982V57.1648ZM88.5856 61V54.4545H94.1126V61H92.6254V55.7202H90.06V61H88.5856ZM95.6989 63.4545V54.4545H97.2159V55.5369H97.3054C97.3849 55.3778 97.4972 55.2088 97.642 55.0298C97.7869 54.848 97.983 54.6932 98.2301 54.5653C98.4773 54.4347 98.7926 54.3693 99.1761 54.3693C99.6818 54.3693 100.138 54.4986 100.544 54.7571C100.953 55.0128 101.277 55.392 101.516 55.8949C101.757 56.3949 101.878 57.0085 101.878 57.7358C101.878 58.4545 101.76 59.0653 101.524 59.5682C101.288 60.071 100.967 60.4545 100.561 60.7188C100.155 60.983 99.6946 61.1151 99.1804 61.1151C98.8054 61.1151 98.4943 61.0526 98.2472 60.9276C98 60.8026 97.8011 60.652 97.6506 60.4759C97.5028 60.2969 97.3878 60.1278 97.3054 59.9688H97.2415V63.4545H95.6989ZM97.2116 57.7273C97.2116 58.1506 97.2713 58.5213 97.3906 58.8395C97.5128 59.1577 97.6875 59.4062 97.9148 59.5852C98.1449 59.7614 98.4233 59.8494 98.75 59.8494C99.0909 59.8494 99.3764 59.7585 99.6065 59.5767C99.8366 59.392 100.01 59.1406 100.126 58.8224C100.246 58.5014 100.305 58.1364 100.305 57.7273C100.305 57.321 100.247 56.9602 100.131 56.6449C100.014 56.3295 99.8409 56.0824 99.6108 55.9034C99.3807 55.7244 99.0938 55.6349 98.75 55.6349C98.4205 55.6349 98.1406 55.7216 97.9105 55.8949C97.6804 56.0682 97.5057 56.3111 97.3864 56.6236C97.2699 56.9361 97.2116 57.304 97.2116 57.7273ZM106.054 61.1278C105.415 61.1278 104.861 60.9872 104.392 60.706C103.923 60.4247 103.56 60.0312 103.301 59.5256C103.045 59.0199 102.918 58.429 102.918 57.7528C102.918 57.0767 103.045 56.4844 103.301 55.9759C103.56 55.4673 103.923 55.0724 104.392 54.7912C104.861 54.5099 105.415 54.3693 106.054 54.3693C106.693 54.3693 107.247 54.5099 107.716 54.7912C108.185 55.0724 108.547 55.4673 108.803 55.9759C109.061 56.4844 109.19 57.0767 109.19 57.7528C109.19 58.429 109.061 59.0199 108.803 59.5256C108.547 60.0312 108.185 60.4247 107.716 60.706C107.247 60.9872 106.693 61.1278 106.054 61.1278ZM106.062 59.892C106.409 59.892 106.699 59.7969 106.932 59.6065C107.165 59.4134 107.338 59.1548 107.452 58.831C107.568 58.5071 107.626 58.1463 107.626 57.7486C107.626 57.348 107.568 56.9858 107.452 56.6619C107.338 56.3352 107.165 56.0753 106.932 55.8821C106.699 55.6889 106.409 55.5923 106.062 55.5923C105.707 55.5923 105.412 55.6889 105.176 55.8821C104.943 56.0753 104.768 56.3352 104.652 56.6619C104.538 56.9858 104.482 57.348 104.482 57.7486C104.482 58.1463 104.538 58.5071 104.652 58.831C104.768 59.1548 104.943 59.4134 105.176 59.6065C105.412 59.7969 105.707 59.892 106.062 59.892ZM109.92 62.9006V59.7301H110.44C110.579 59.6222 110.696 59.4759 110.789 59.2912C110.883 59.1037 110.96 58.8835 111.02 58.6307C111.082 58.375 111.133 58.0895 111.173 57.7741C111.213 57.456 111.248 57.1136 111.279 56.7472L111.467 54.4545H116.197V59.7301H117.211V62.9006H115.72V61H111.437V62.9006H109.92ZM112.025 59.7301H114.723V55.6989H112.805L112.703 56.7472C112.646 57.4403 112.571 58.0341 112.477 58.5284C112.383 59.0227 112.233 59.4233 112.025 59.7301ZM121.261 61.1278C120.604 61.1278 120.038 60.9915 119.56 60.7188C119.086 60.4432 118.721 60.054 118.465 59.5511C118.21 59.0455 118.082 58.4503 118.082 57.7656C118.082 57.0923 118.21 56.5014 118.465 55.9929C118.724 55.4815 119.085 55.0838 119.548 54.7997C120.011 54.5128 120.555 54.3693 121.18 54.3693C121.583 54.3693 121.964 54.4347 122.322 54.5653C122.683 54.6932 123.001 54.892 123.276 55.1619C123.555 55.4318 123.773 55.7756 123.933 56.1932C124.092 56.608 124.171 57.1023 124.171 57.6761V58.1491H118.806V57.1094H122.692C122.69 56.8139 122.626 56.5511 122.501 56.321C122.376 56.0881 122.201 55.9048 121.977 55.7713C121.755 55.6378 121.496 55.571 121.201 55.571C120.886 55.571 120.609 55.6477 120.37 55.8011C120.131 55.9517 119.945 56.1506 119.812 56.3977C119.681 56.642 119.614 56.9105 119.612 57.2031V58.1108C119.612 58.4915 119.681 58.8182 119.82 59.0909C119.96 59.3608 120.154 59.5682 120.404 59.7131C120.654 59.8551 120.947 59.9261 121.282 59.9261C121.506 59.9261 121.71 59.8949 121.891 59.8324C122.073 59.767 122.231 59.6719 122.364 59.5469C122.498 59.4219 122.599 59.267 122.667 59.0824L124.107 59.2443C124.016 59.625 123.843 59.9574 123.587 60.2415C123.335 60.5227 123.011 60.7415 122.616 60.8977C122.221 61.0511 121.769 61.1278 121.261 61.1278ZM127.364 52.2727L127.223 58.4347H125.851L125.715 52.2727H127.364ZM126.537 61.0938C126.279 61.0938 126.057 61.0028 125.873 60.821C125.691 60.6392 125.6 60.4176 125.6 60.1562C125.6 59.9006 125.691 59.6818 125.873 59.5C126.057 59.3182 126.279 59.2273 126.537 59.2273C126.79 59.2273 127.009 59.3182 127.194 59.5C127.381 59.6818 127.475 59.9006 127.475 60.1562C127.475 60.3295 127.431 60.4872 127.343 60.6293C127.257 60.7713 127.144 60.8849 127.002 60.9702C126.863 61.0526 126.708 61.0938 126.537 61.0938Z" fill="black"/>
<path d="M46.3779 227.597L75.8779 178.597C61.7815 164.337 55.1464 166.665 45.3779 187.597C44.5 189.478 49 190.097 47.5 194.597C45.2117 201.462 39.531 202.662 41.3086 194.889C39.9258 200.735 39.4675 203.597 37.5 203.597C35 203.5 35.3943 200.535 34.8779 194.597C33 197 32.2232 199.84 30 198.5C27.7768 197.16 30.8779 190.097 30.8779 190.097C25.1734 199.223 21.3779 192.097 30.3779 179.097C45.5387 143.529 57.3096 138.31 85.8779 163.097C56.6065 126.79 83.8779 80.0967 127.878 84.26C171.878 88.4233 185.378 162.097 141.378 174.097C153.878 178.097 167.878 187.597 167.878 187.597C176.593 165.179 180.878 157.097 185.378 156.097C189.878 155.097 207.878 156.597 207.378 160.097C206.878 163.597 194.878 162.097 190.378 162.097C200.378 163.097 204.378 170.597 191.878 168.597C201.878 171.097 192.878 174.597 191.378 174.597C188.685 174.597 182.378 210.21 173.878 210.597C165.378 210.983 146.378 197.597 143.878 197.597C141.378 197.597 144.878 203.597 149.378 228.597C147.857 230.07 46.3779 227.597 46.3779 227.597Z" fill="#F95252"/>
<path d="M185.378 156.097C180.878 157.097 176.593 165.179 167.878 187.597C167.878 187.597 153.878 178.097 141.378 174.097C185.378 162.097 171.878 88.4233 127.878 84.26C83.8779 80.0967 56.6065 126.79 85.8779 163.097C57.3096 138.31 45.5387 143.529 30.3779 179.097C21.3779 192.097 25.1734 199.223 30.8779 190.097C30.8779 190.097 27.7768 197.16 30 198.5C32.2232 199.84 33 197 34.8779 194.597C35.3943 200.535 35 203.5 37.5 203.597C39.5 203.597 39.9405 200.639 41.3779 194.597C39.3902 202.691 45.1835 201.546 47.5 194.597C49 190.097 44.5 189.478 45.3779 187.597C55.1464 166.665 61.7815 164.337 75.8779 178.597L46.3779 227.597C46.3779 227.597 147.857 230.07 149.378 228.597C144.878 203.597 141.378 197.597 143.878 197.597C146.378 197.597 165.378 210.983 173.878 210.597C182.378 210.21 188.685 174.597 191.378 174.597M185.378 156.097C189.878 155.097 207.878 156.597 207.378 160.097C206.878 163.597 194.878 162.097 190.378 162.097M185.378 156.097C188.378 158.097 188.878 159.597 190.378 162.097M191.378 174.597C192.878 174.597 201.878 171.097 191.878 168.597M191.378 174.597C184.215 173.757 181.378 169.097 183.378 167.097C185.378 165.097 189.378 171.097 191.878 168.597M190.378 162.097C200.378 163.097 204.378 170.597 191.878 168.597M190.378 162.097C191.878 164.597 192.878 167.597 191.878 168.597" stroke="black" stroke-width="3" stroke-linejoin="round"/>
<circle cx="106" cy="124" r="9" fill="black"/>
<circle cx="154" cy="130" r="9" fill="black"/>
<path d="M100.5 107.5L119.5 116.5" stroke="black" stroke-width="3" stroke-linecap="round" stroke-linejoin="round"/>
<path d="M144 118.5L166 113" stroke="black" stroke-width="3" stroke-linecap="round" stroke-linejoin="round"/>
<path d="M127.5 140C120.5 139 117 140 111 143.5C116.242 134.348 123.038 128.5 130 129.5C136.962 130.5 143.408 136.753 141.5 148C141.5 148 134.5 141 127.5 140Z" fill="black" stroke="black" stroke-width="2" stroke-linejoin="round"/>
<path d="M124.32 134.509C126.789 134.474 129.267 136.212 130.742 138.312C128.605 137.818 127.001 137.461 124.572 137.495C123.431 137.511 121.85 137.794 117.359 138.772C118.927 136.051 121.851 134.543 124.32 134.509Z" fill="#F9BCBC" stroke="#F9BCBC" stroke-width="2" stroke-linejoin="round"/>
</g>
<rect x="1.5" y="1.5" width="227" height="227" rx="3.5" stroke="black" stroke-width="3"/>
<defs>
<clipPath id="clip0_5_73">
<rect width="230" height="230" rx="5" fill="white"/>
</clipPath>
</defs>
</svg>
