<svg width="230" height="230" viewBox="0 0 230 230" fill="none" xmlns="http://www.w3.org/2000/svg">
<rect x="1.5" y="1.5" width="227" height="227" rx="3.5" fill="white"/>
<path d="M25.7173 187V179.727H28.4446C29.0033 179.727 29.4721 179.831 29.8509 180.04C30.232 180.248 30.5196 180.535 30.7138 180.899C30.9103 181.261 31.0085 181.673 31.0085 182.135C31.0085 182.601 30.9103 183.016 30.7138 183.378C30.5173 183.74 30.2273 184.025 29.8438 184.234C29.4602 184.44 28.9879 184.543 28.4268 184.543H26.6193V183.46H28.2493C28.576 183.46 28.8435 183.403 29.0518 183.289C29.2602 183.175 29.4141 183.019 29.5135 182.82C29.6153 182.621 29.6662 182.393 29.6662 182.135C29.6662 181.877 29.6153 181.65 29.5135 181.453C29.4141 181.257 29.259 181.104 29.0483 180.995C28.84 180.884 28.5713 180.828 28.2422 180.828H27.0348V187H25.7173ZM34.4327 187.107C33.8858 187.107 33.4135 186.993 33.0158 186.766C32.6204 186.536 32.3162 186.212 32.1032 185.793C31.8901 185.371 31.7836 184.875 31.7836 184.305C31.7836 183.744 31.8901 183.251 32.1032 182.827C32.3186 182.401 32.6193 182.07 33.0051 181.833C33.391 181.594 33.8444 181.474 34.3652 181.474C34.7014 181.474 35.0186 181.529 35.3169 181.638C35.6176 181.744 35.8828 181.91 36.1124 182.135C36.3444 182.36 36.5267 182.646 36.6593 182.994C36.7918 183.34 36.8581 183.752 36.8581 184.23V184.624H32.3873V183.758H35.6259C35.6235 183.512 35.5703 183.293 35.4661 183.101C35.3619 182.907 35.2163 182.754 35.0293 182.643C34.8446 182.531 34.6292 182.476 34.383 182.476C34.1202 182.476 33.8894 182.54 33.6905 182.668C33.4917 182.793 33.3366 182.959 33.2253 183.165C33.1164 183.368 33.0608 183.592 33.0584 183.836V184.592C33.0584 184.91 33.1164 185.182 33.2324 185.409C33.3484 185.634 33.5106 185.807 33.7189 185.928C33.9273 186.046 34.1711 186.105 34.4505 186.105C34.6375 186.105 34.8068 186.079 34.9583 186.027C35.1098 185.973 35.2412 185.893 35.3525 185.789C35.4637 185.685 35.5478 185.556 35.6046 185.402L36.8049 185.537C36.7291 185.854 36.5847 186.131 36.3716 186.368C36.1609 186.602 35.891 186.785 35.562 186.915C35.2329 187.043 34.8565 187.107 34.4327 187.107ZM42.3171 179.528L42.7646 180.359C42.6059 180.497 42.4284 180.596 42.2319 180.658C42.0354 180.719 41.8046 180.759 41.5394 180.778C41.2766 180.795 40.9641 180.807 40.6019 180.814C40.1947 180.823 39.8621 180.9 39.604 181.045C39.346 181.189 39.1483 181.408 39.011 181.702C38.8737 181.993 38.7837 182.365 38.7411 182.817H38.8015C38.9719 182.483 39.2111 182.228 39.5188 182.053C39.8266 181.878 40.1876 181.79 40.6019 181.79C41.0541 181.79 41.453 181.892 41.7987 182.096C42.1467 182.297 42.4177 182.589 42.6119 182.973C42.8084 183.357 42.9066 183.821 42.9066 184.365C42.9066 184.926 42.8013 185.413 42.5906 185.825C42.3799 186.234 42.0804 186.55 41.6921 186.773C41.3062 186.995 40.8481 187.107 40.3178 187.107C39.7899 187.107 39.3306 186.992 38.94 186.762C38.5517 186.53 38.2511 186.188 38.038 185.736C37.8273 185.281 37.7219 184.721 37.7219 184.056V183.566C37.7219 182.283 37.9611 181.325 38.4393 180.693C38.9175 180.061 39.6265 179.739 40.5664 179.727C40.8458 179.723 41.0955 179.721 41.3157 179.724C41.5382 179.726 41.7324 179.715 41.8981 179.692C42.0638 179.668 42.2035 179.614 42.3171 179.528ZM40.3249 186.077C40.5877 186.077 40.815 186.009 41.0067 185.874C41.1985 185.737 41.3453 185.543 41.4471 185.292C41.5513 185.041 41.6033 184.744 41.6033 184.401C41.6033 184.062 41.5513 183.774 41.4471 183.538C41.3429 183.299 41.195 183.116 41.0032 182.991C40.8114 182.865 40.583 182.803 40.3178 182.803C40.119 182.803 39.9402 182.838 39.7816 182.909C39.623 182.98 39.488 183.084 39.3768 183.222C39.2655 183.359 39.1803 183.526 39.1211 183.722C39.0619 183.919 39.0299 184.145 39.0252 184.401C39.0252 184.914 39.1412 185.323 39.3732 185.626C39.6052 185.926 39.9225 186.077 40.3249 186.077ZM47.2248 187V182.589H46.06C45.7641 182.589 45.5368 182.658 45.3782 182.795C45.2196 182.933 45.1415 183.103 45.1438 183.307C45.1415 183.51 45.216 183.679 45.3675 183.811C45.5191 183.944 45.7357 184.01 46.0174 184.01H47.6296V184.947H46.0174C45.5818 184.947 45.2054 184.879 44.8881 184.741C44.5709 184.604 44.3271 184.41 44.1566 184.159C43.9862 183.908 43.9009 183.615 43.9009 183.278C43.9009 182.928 43.9873 182.624 44.1602 182.366C44.3353 182.105 44.5839 181.904 44.9059 181.762C45.2302 181.618 45.6149 181.545 46.06 181.545H48.4286V187H47.2248ZM43.7021 187L45.2255 184.202H46.4933L44.9663 187H43.7021ZM49.1122 182.6V181.545H53.8849V182.6H52.12V187H50.8771V182.6H49.1122ZM55.617 186.006L55.5708 186.396C55.5377 186.695 55.4785 186.998 55.3933 187.305C55.3104 187.616 55.2228 187.901 55.1305 188.161C55.0382 188.422 54.9636 188.626 54.9068 188.776H54.0403C54.0734 188.631 54.1184 188.435 54.1752 188.186C54.2344 187.938 54.2913 187.658 54.3457 187.348C54.4002 187.038 54.4368 186.723 54.4558 186.403L54.4806 186.006H55.617ZM59.3129 187V181.545H61.6033C62.2496 181.545 62.7598 181.674 63.1339 181.933C63.5103 182.191 63.6985 182.55 63.6985 183.012C63.6985 183.317 63.592 183.567 63.3789 183.761C63.1682 183.953 62.8806 184.082 62.516 184.148C62.8024 184.172 63.0534 184.244 63.2688 184.365C63.4866 184.486 63.6571 184.644 63.7802 184.841C63.9033 185.037 63.9648 185.263 63.9648 185.519C63.9648 185.82 63.8855 186.081 63.7269 186.304C63.5707 186.524 63.3422 186.696 63.0415 186.819C62.7433 186.94 62.381 187 61.9549 187H59.3129ZM60.5167 185.988H61.9549C62.1916 185.988 62.3775 185.932 62.5124 185.821C62.6474 185.707 62.7148 185.554 62.7148 185.359C62.7148 185.134 62.6474 184.958 62.5124 184.83C62.3775 184.7 62.1916 184.635 61.9549 184.635H60.5167V185.988ZM60.5167 183.804H61.6282C61.8034 183.804 61.9537 183.779 62.0792 183.729C62.2047 183.677 62.3005 183.605 62.3668 183.513C62.4331 183.418 62.4663 183.306 62.4663 183.175C62.4663 182.988 62.3893 182.842 62.2354 182.735C62.0839 182.629 61.8732 182.575 61.6033 182.575H60.5167V183.804ZM65.8958 183.321H67.5044C68.2005 183.321 68.7391 183.49 69.1202 183.829C69.5014 184.167 69.6931 184.611 69.6955 185.161C69.6931 185.518 69.6055 185.835 69.4327 186.112C69.2623 186.389 69.0137 186.607 68.687 186.766C68.3626 186.922 67.9685 187 67.5044 187H65.0257V181.545H66.2651V185.945H67.5044C67.7838 185.945 68.0134 185.874 68.1934 185.732C68.3733 185.588 68.4632 185.403 68.4632 185.178C68.4632 184.942 68.3733 184.749 68.1934 184.599C68.0134 184.45 67.7838 184.376 67.5044 184.376H65.8958V183.321ZM70.3738 187V181.545H71.6593V187H70.3738ZM77.8445 187.107C77.3118 187.107 76.8501 186.989 76.4595 186.755C76.0689 186.521 75.7659 186.193 75.5504 185.771C75.3374 185.35 75.2308 184.857 75.2308 184.294C75.2308 183.731 75.3374 183.237 75.5504 182.813C75.7659 182.389 76.0689 182.06 76.4595 181.826C76.8501 181.592 77.3118 181.474 77.8445 181.474C78.3771 181.474 78.8388 181.592 79.2294 181.826C79.62 182.06 79.9219 182.389 80.1349 182.813C80.3504 183.237 80.4581 183.731 80.4581 184.294C80.4581 184.857 80.3504 185.35 80.1349 185.771C79.9219 186.193 79.62 186.521 79.2294 186.755C78.8388 186.989 78.3771 187.107 77.8445 187.107ZM77.8516 186.077C78.1404 186.077 78.3819 185.997 78.576 185.839C78.7701 185.678 78.9145 185.462 79.0092 185.192C79.1063 184.923 79.1548 184.622 79.1548 184.29C79.1548 183.957 79.1063 183.655 79.0092 183.385C78.9145 183.113 78.7701 182.896 78.576 182.735C78.3819 182.574 78.1404 182.494 77.8516 182.494C77.5556 182.494 77.3094 182.574 77.1129 182.735C76.9188 182.896 76.7732 183.113 76.6761 183.385C76.5814 183.655 76.5341 183.957 76.5341 184.29C76.5341 184.622 76.5814 184.923 76.6761 185.192C76.7732 185.462 76.9188 185.678 77.1129 185.839C77.3094 185.997 77.5556 186.077 77.8516 186.077ZM88.5858 181.545V187H87.35V181.545H88.5858ZM88.0069 184.01V185.061C87.8672 185.123 87.7086 185.178 87.5311 185.228C87.3559 185.275 87.17 185.313 86.9735 185.342C86.7794 185.37 86.5853 185.384 86.3912 185.384C85.662 185.384 85.0855 185.221 84.6618 184.894C84.2404 184.565 84.0297 184.053 84.0297 183.357V181.538H85.2583V183.357C85.2583 183.591 85.2998 183.779 85.3826 183.921C85.4655 184.063 85.591 184.167 85.7591 184.234C85.9271 184.298 86.1378 184.33 86.3912 184.33C86.6752 184.33 86.9451 184.301 87.2008 184.244C87.4565 184.188 87.7252 184.109 88.0069 184.01ZM92.294 187.107C91.7472 187.107 91.2749 186.993 90.8771 186.766C90.4818 186.536 90.1776 186.212 89.9645 185.793C89.7514 185.371 89.6449 184.875 89.6449 184.305C89.6449 183.744 89.7514 183.251 89.9645 182.827C90.1799 182.401 90.4806 182.07 90.8665 181.833C91.2524 181.594 91.7057 181.474 92.2266 181.474C92.5627 181.474 92.88 181.529 93.1783 181.638C93.4789 181.744 93.7441 181.91 93.9737 182.135C94.2057 182.36 94.388 182.646 94.5206 182.994C94.6532 183.34 94.7195 183.752 94.7195 184.23V184.624H90.2486V183.758H93.4872C93.4848 183.512 93.4316 183.293 93.3274 183.101C93.2232 182.907 93.0777 182.754 92.8906 182.643C92.706 182.531 92.4905 182.476 92.2443 182.476C91.9815 182.476 91.7507 182.54 91.5518 182.668C91.353 182.793 91.1979 182.959 91.0866 183.165C90.9777 183.368 90.9221 183.592 90.9197 183.836V184.592C90.9197 184.91 90.9777 185.182 91.0938 185.409C91.2098 185.634 91.3719 185.807 91.5803 185.928C91.7886 186.046 92.0324 186.105 92.3118 186.105C92.4988 186.105 92.6681 186.079 92.8196 186.027C92.9711 185.973 93.1025 185.893 93.2138 185.789C93.325 185.685 93.4091 185.556 93.4659 185.402L94.6662 185.537C94.5904 185.854 94.446 186.131 94.233 186.368C94.0223 186.602 93.7524 186.785 93.4233 186.915C93.0942 187.043 92.7178 187.107 92.294 187.107ZM91.1293 180.743C90.9422 180.743 90.7801 180.677 90.6428 180.544C90.5078 180.411 90.4403 180.255 90.4403 180.075C90.4403 179.886 90.5078 179.727 90.6428 179.599C90.7801 179.469 90.9422 179.404 91.1293 179.404C91.321 179.404 91.482 179.469 91.6122 179.599C91.7448 179.727 91.8111 179.886 91.8111 180.075C91.8111 180.255 91.7448 180.411 91.6122 180.544C91.482 180.677 91.321 180.743 91.1293 180.743ZM93.2599 180.743C93.0729 180.743 92.9107 180.677 92.7734 180.544C92.6385 180.411 92.571 180.255 92.571 180.075C92.571 179.886 92.6385 179.727 92.7734 179.599C92.9107 179.469 93.0729 179.404 93.2599 179.404C93.4517 179.404 93.6127 179.469 93.7429 179.599C93.8755 179.727 93.9418 179.886 93.9418 180.075C93.9418 180.255 93.8755 180.411 93.7429 180.544C93.6127 180.677 93.4517 180.743 93.2599 180.743ZM98.9462 185.505L100.566 181.545H101.602L99.3972 187H98.4988L96.3432 181.545H97.3695L98.9462 185.505ZM97.0463 181.545V187H95.807V181.545H97.0463ZM100.899 187V181.545H102.128V187H100.899ZM104.653 184.862V184.77C104.655 184.341 104.695 184 104.774 183.747C104.854 183.494 104.968 183.29 105.115 183.136C105.261 182.98 105.44 182.837 105.651 182.707C105.795 182.617 105.924 182.518 106.038 182.412C106.154 182.303 106.245 182.182 106.311 182.05C106.378 181.915 106.411 181.764 106.411 181.599C106.411 181.412 106.367 181.25 106.279 181.112C106.192 180.975 106.073 180.868 105.924 180.793C105.777 180.717 105.613 180.679 105.431 180.679C105.262 180.679 105.103 180.716 104.951 180.789C104.802 180.86 104.678 180.969 104.578 181.116C104.481 181.26 104.427 181.444 104.415 181.666H103.151C103.163 181.216 103.271 180.84 103.477 180.537C103.686 180.234 103.96 180.007 104.301 179.855C104.645 179.704 105.023 179.628 105.438 179.628C105.89 179.628 106.288 179.707 106.631 179.866C106.977 180.024 107.245 180.25 107.437 180.544C107.631 180.835 107.728 181.181 107.728 181.581C107.728 181.851 107.684 182.092 107.597 182.305C107.512 182.518 107.39 182.708 107.231 182.874C107.072 183.039 106.884 183.187 106.666 183.317C106.475 183.436 106.317 183.559 106.194 183.687C106.073 183.815 105.983 183.965 105.924 184.138C105.867 184.308 105.838 184.519 105.835 184.77V184.862H104.653ZM105.271 187.078C105.058 187.078 104.874 187.002 104.72 186.851C104.566 186.699 104.49 186.515 104.49 186.297C104.49 186.084 104.566 185.902 104.72 185.75C104.874 185.598 105.058 185.523 105.271 185.523C105.481 185.523 105.664 185.598 105.818 185.75C105.974 185.902 106.052 186.084 106.052 186.297C106.052 186.441 106.015 186.573 105.942 186.691C105.871 186.809 105.776 186.904 105.658 186.975C105.542 187.044 105.413 187.078 105.271 187.078ZM25.7173 191.727H27.3295L29.4886 196.997H29.5739L31.733 191.727H33.3452V199H32.081V194.004H32.0135L30.0036 198.979H29.0589L27.049 193.993H26.9815V199H25.7173V191.727ZM38.4695 195.74V196.795H35.5646V195.74H38.4695ZM35.9624 193.545V199H34.723V193.545H35.9624ZM39.3111 193.545V199H38.0753V193.545H39.3111ZM43.0265 199.107C42.4796 199.107 42.0073 198.993 41.6096 198.766C41.2142 198.536 40.91 198.212 40.6969 197.793C40.4838 197.371 40.3773 196.875 40.3773 196.305C40.3773 195.744 40.4838 195.251 40.6969 194.827C40.9123 194.401 41.213 194.07 41.5989 193.833C41.9848 193.594 42.4382 193.474 42.959 193.474C43.2952 193.474 43.6124 193.529 43.9107 193.638C44.2114 193.744 44.4765 193.91 44.7061 194.135C44.9382 194.36 45.1204 194.646 45.253 194.994C45.3856 195.34 45.4519 195.752 45.4519 196.23V196.624H40.981V195.758H44.2196C44.2173 195.512 44.164 195.293 44.0598 195.101C43.9557 194.907 43.8101 194.754 43.623 194.643C43.4384 194.531 43.223 194.476 42.9767 194.476C42.714 194.476 42.4831 194.54 42.2843 194.668C42.0854 194.793 41.9303 194.959 41.8191 195.165C41.7102 195.368 41.6545 195.592 41.6522 195.836V196.592C41.6522 196.91 41.7102 197.182 41.8262 197.409C41.9422 197.634 42.1043 197.807 42.3127 197.928C42.521 198.046 42.7649 198.105 43.0442 198.105C43.2312 198.105 43.4005 198.079 43.552 198.027C43.7035 197.973 43.8349 197.893 43.9462 197.789C44.0575 197.685 44.1415 197.556 44.1983 197.402L45.3986 197.537C45.3229 197.854 45.1784 198.131 44.9654 198.368C44.7547 198.602 44.4848 198.785 44.1557 198.915C43.8266 199.043 43.4502 199.107 43.0265 199.107ZM53.3913 191.528L53.8388 192.359C53.6802 192.497 53.5026 192.596 53.3061 192.658C53.1096 192.719 52.8788 192.759 52.6136 192.778C52.3509 192.795 52.0384 192.807 51.6761 192.814C51.2689 192.823 50.9363 192.9 50.6783 193.045C50.4202 193.189 50.2225 193.408 50.0852 193.702C49.9479 193.993 49.858 194.365 49.8153 194.817H49.8757C50.0462 194.483 50.2853 194.228 50.593 194.053C50.9008 193.878 51.2618 193.79 51.6761 193.79C52.1283 193.79 52.5272 193.892 52.8729 194.096C53.2209 194.297 53.492 194.589 53.6861 194.973C53.8826 195.357 53.9808 195.821 53.9808 196.365C53.9808 196.926 53.8755 197.413 53.6648 197.825C53.4541 198.234 53.1546 198.55 52.7663 198.773C52.3804 198.995 51.9223 199.107 51.392 199.107C50.8641 199.107 50.4048 198.992 50.0142 198.762C49.6259 198.53 49.3253 198.188 49.1122 197.736C48.9015 197.281 48.7962 196.721 48.7962 196.056V195.566C48.7962 194.283 49.0353 193.325 49.5135 192.693C49.9917 192.061 50.7008 191.739 51.6406 191.727C51.92 191.723 52.1697 191.721 52.3899 191.724C52.6125 191.726 52.8066 191.715 52.9723 191.692C53.138 191.668 53.2777 191.614 53.3913 191.528ZM51.3991 198.077C51.6619 198.077 51.8892 198.009 52.081 197.874C52.2727 197.737 52.4195 197.543 52.5213 197.292C52.6255 197.041 52.6776 196.744 52.6776 196.401C52.6776 196.062 52.6255 195.774 52.5213 195.538C52.4171 195.299 52.2692 195.116 52.0774 194.991C51.8857 194.865 51.6572 194.803 51.392 194.803C51.1932 194.803 51.0144 194.838 50.8558 194.909C50.6972 194.98 50.5623 195.084 50.451 195.222C50.3397 195.359 50.2545 195.526 50.1953 195.722C50.1361 195.919 50.1042 196.145 50.0994 196.401C50.0994 196.914 50.2154 197.323 50.4474 197.626C50.6795 197.926 50.9967 198.077 51.3991 198.077ZM55.9446 195.321H57.5533C58.2493 195.321 58.7879 195.49 59.169 195.829C59.5502 196.167 59.742 196.611 59.7443 197.161C59.742 197.518 59.6544 197.835 59.4815 198.112C59.3111 198.389 59.0625 198.607 58.7358 198.766C58.4115 198.922 58.0173 199 57.5533 199H55.0746V193.545H56.3139V197.945H57.5533C57.8326 197.945 58.0623 197.874 58.2422 197.732C58.4221 197.588 58.5121 197.403 58.5121 197.178C58.5121 196.942 58.4221 196.749 58.2422 196.599C58.0623 196.45 57.8326 196.376 57.5533 196.376H55.9446V195.321ZM60.4226 199V193.545H61.7081V199H60.4226ZM65.5708 199V191.727H66.8883V194.806H70.2583V191.727H71.5794V199H70.2583V195.911H66.8883V199H65.5708ZM75.3702 199.107C74.8233 199.107 74.351 198.993 73.9533 198.766C73.5579 198.536 73.2537 198.212 73.0407 197.793C72.8276 197.371 72.7211 196.875 72.7211 196.305C72.7211 195.744 72.8276 195.251 73.0407 194.827C73.2561 194.401 73.5568 194.07 73.9426 193.833C74.3285 193.594 74.7819 193.474 75.3027 193.474C75.6389 193.474 75.9561 193.529 76.2544 193.638C76.5551 193.744 76.8203 193.91 77.0499 194.135C77.2819 194.36 77.4642 194.646 77.5968 194.994C77.7293 195.34 77.7956 195.752 77.7956 196.23V196.624H73.3248V195.758H76.5634C76.561 195.512 76.5078 195.293 76.4036 195.101C76.2994 194.907 76.1538 194.754 75.9668 194.643C75.7821 194.531 75.5667 194.476 75.3205 194.476C75.0577 194.476 74.8269 194.54 74.628 194.668C74.4292 194.793 74.2741 194.959 74.1628 195.165C74.0539 195.368 73.9983 195.592 73.9959 195.836V196.592C73.9959 196.91 74.0539 197.182 74.1699 197.409C74.2859 197.634 74.4481 197.807 74.6564 197.928C74.8648 198.046 75.1086 198.105 75.388 198.105C75.575 198.105 75.7443 198.079 75.8958 198.027C76.0473 197.973 76.1787 197.893 76.29 197.789C76.4012 197.685 76.4853 197.556 76.5421 197.402L77.7424 197.537C77.6666 197.854 77.5222 198.131 77.3091 198.368C77.0984 198.602 76.8285 198.785 76.4995 198.915C76.1704 199.043 75.794 199.107 75.3702 199.107ZM78.4286 194.6V193.545H83.2013V194.6H81.4364V199H80.1935V194.6H78.4286ZM86.4755 200.854V191.727H87.7646V200.854H86.4755ZM86.4755 199.107C86.0754 199.107 85.7096 199.039 85.3782 198.904C85.0468 198.769 84.7603 198.577 84.5188 198.329C84.2797 198.08 84.0939 197.784 83.9613 197.441C83.8311 197.095 83.766 196.713 83.766 196.294C83.766 195.875 83.8311 195.493 83.9613 195.147C84.0939 194.801 84.2797 194.504 84.5188 194.256C84.7603 194.005 85.0468 193.812 85.3782 193.677C85.7096 193.542 86.0754 193.474 86.4755 193.474H86.7489V199.107H86.4755ZM86.4755 198.07H86.6353V194.511H86.4755C86.2482 194.511 86.047 194.559 85.8718 194.653C85.699 194.746 85.5534 194.875 85.435 195.04C85.319 195.204 85.2302 195.393 85.1687 195.609C85.1095 195.822 85.0799 196.05 85.0799 196.294C85.0799 196.618 85.1332 196.915 85.2397 197.185C85.3462 197.453 85.5025 197.667 85.7085 197.828C85.9168 197.989 86.1725 198.07 86.4755 198.07ZM87.7646 199.107H87.4911V193.474H87.7646C88.1647 193.474 88.5304 193.542 88.8619 193.677C89.1933 193.812 89.4786 194.005 89.7177 194.256C89.9592 194.504 90.145 194.801 90.2752 195.147C90.4078 195.493 90.4741 195.875 90.4741 196.294C90.4741 196.713 90.4078 197.095 90.2752 197.441C90.145 197.784 89.9592 198.08 89.7177 198.329C89.4786 198.577 89.1933 198.769 88.8619 198.904C88.5304 199.039 88.1647 199.107 87.7646 199.107ZM87.7646 198.07C87.9942 198.07 88.1954 198.023 88.3683 197.931C88.5411 197.839 88.6855 197.711 88.8015 197.548C88.9199 197.384 89.0086 197.196 89.0678 196.983C89.127 196.768 89.1566 196.538 89.1566 196.294C89.1566 195.97 89.1045 195.673 89.0004 195.403C88.8962 195.133 88.7399 194.917 88.5316 194.756C88.3256 194.593 88.07 194.511 87.7646 194.511H87.6048V198.07H87.7646ZM91.1825 199L91.1754 197.942H91.3636C91.5057 197.942 91.6252 197.91 91.7223 197.846C91.8194 197.782 91.8999 197.675 91.9638 197.526C92.0277 197.375 92.0774 197.171 92.1129 196.915C92.1484 196.66 92.1733 196.341 92.1875 195.96L92.2834 193.545H96.2607V199H95.0178V194.6H93.4517L93.3665 196.358C93.3452 196.812 93.2943 197.207 93.2138 197.54C93.1357 197.872 93.0244 198.145 92.88 198.361C92.7379 198.576 92.5592 198.737 92.3438 198.844C92.1283 198.948 91.8738 199 91.5803 199H91.1825ZM98.7944 197.26L100.978 193.545H102.299V199H101.056V195.282L98.8796 199H97.555V193.545H98.7944V197.26ZM103.619 199V193.545H104.905V195.747H105.374L107.014 193.545H108.563L106.542 196.223L108.584 199H107.029L105.534 196.944H104.905V199H103.619ZM111.468 199.107C110.923 199.107 110.455 198.987 110.065 198.748C109.677 198.509 109.377 198.179 109.166 197.757C108.958 197.333 108.854 196.846 108.854 196.294C108.854 195.74 108.96 195.251 109.173 194.827C109.387 194.401 109.687 194.07 110.075 193.833C110.466 193.594 110.928 193.474 111.46 193.474C111.903 193.474 112.295 193.556 112.636 193.719C112.979 193.88 113.253 194.109 113.456 194.405C113.66 194.698 113.776 195.042 113.804 195.435H112.575C112.526 195.172 112.407 194.953 112.22 194.778C112.036 194.6 111.788 194.511 111.478 194.511C111.215 194.511 110.985 194.582 110.786 194.724C110.587 194.864 110.432 195.065 110.32 195.328C110.212 195.591 110.157 195.906 110.157 196.273C110.157 196.644 110.212 196.964 110.32 197.232C110.429 197.497 110.582 197.701 110.779 197.846C110.977 197.988 111.211 198.059 111.478 198.059C111.668 198.059 111.837 198.023 111.986 197.952C112.137 197.879 112.264 197.774 112.366 197.636C112.468 197.499 112.538 197.332 112.575 197.136H113.804C113.773 197.522 113.66 197.864 113.463 198.162C113.267 198.458 112.999 198.69 112.661 198.858C112.322 199.024 111.924 199.107 111.468 199.107ZM28.0398 211.107C27.5071 211.107 27.0455 210.989 26.6548 210.755C26.2642 210.521 25.9612 210.193 25.7457 209.771C25.5327 209.35 25.4261 208.857 25.4261 208.294C25.4261 207.731 25.5327 207.237 25.7457 206.813C25.9612 206.389 26.2642 206.06 26.6548 205.826C27.0455 205.592 27.5071 205.474 28.0398 205.474C28.5724 205.474 29.0341 205.592 29.4247 205.826C29.8153 206.06 30.1172 206.389 30.3303 206.813C30.5457 207.237 30.6534 207.731 30.6534 208.294C30.6534 208.857 30.5457 209.35 30.3303 209.771C30.1172 210.193 29.8153 210.521 29.4247 210.755C29.0341 210.989 28.5724 211.107 28.0398 211.107ZM28.0469 210.077C28.3357 210.077 28.5772 209.997 28.7713 209.839C28.9654 209.678 29.1098 209.462 29.2045 209.192C29.3016 208.923 29.3501 208.622 29.3501 208.29C29.3501 207.957 29.3016 207.655 29.2045 207.385C29.1098 207.113 28.9654 206.896 28.7713 206.735C28.5772 206.574 28.3357 206.494 28.0469 206.494C27.7509 206.494 27.5047 206.574 27.3082 206.735C27.1141 206.896 26.9685 207.113 26.8714 207.385C26.7768 207.655 26.7294 207.957 26.7294 208.29C26.7294 208.622 26.7768 208.923 26.8714 209.192C26.9685 209.462 27.1141 209.678 27.3082 209.839C27.5047 209.997 27.7509 210.077 28.0469 210.077ZM31.7445 211V205.545H36.3503V211H35.111V206.6H32.9732V211H31.7445ZM37.2958 211L37.2887 209.942H37.4769C37.619 209.942 37.7385 209.91 37.8356 209.846C37.9326 209.782 38.0131 209.675 38.0771 209.526C38.141 209.375 38.1907 209.171 38.2262 208.915C38.2617 208.66 38.2866 208.341 38.3008 207.96L38.3967 205.545H42.3739V211H41.131V206.6H39.565L39.4798 208.358C39.4585 208.812 39.4076 209.207 39.3271 209.54C39.2489 209.872 39.1377 210.145 38.9933 210.361C38.8512 210.576 38.6725 210.737 38.457 210.844C38.2416 210.948 37.9871 211 37.6935 211H37.2958ZM45.2379 211.11C44.8923 211.11 44.581 211.049 44.304 210.925C44.0294 210.8 43.8116 210.615 43.6506 210.371C43.492 210.128 43.4126 209.827 43.4126 209.469C43.4126 209.162 43.4695 208.907 43.5831 208.706C43.6967 208.505 43.8518 208.344 44.0483 208.223C44.2448 208.102 44.4661 208.011 44.7124 207.95C44.9609 207.886 45.2178 207.839 45.483 207.811C45.8026 207.778 46.0618 207.748 46.2607 207.722C46.4595 207.694 46.6039 207.651 46.6939 207.594C46.7862 207.535 46.8324 207.444 46.8324 207.321V207.3C46.8324 207.032 46.7531 206.825 46.5945 206.678C46.4358 206.531 46.2074 206.458 45.9091 206.458C45.5942 206.458 45.3445 206.527 45.1598 206.664C44.9775 206.801 44.8544 206.964 44.7905 207.151L43.5902 206.98C43.6849 206.649 43.8411 206.372 44.0589 206.149C44.2768 205.924 44.5431 205.756 44.858 205.645C45.1728 205.531 45.5208 205.474 45.902 205.474C46.1648 205.474 46.4264 205.505 46.6868 205.567C46.9472 205.628 47.1851 205.73 47.4006 205.872C47.616 206.012 47.7888 206.202 47.919 206.444C48.0516 206.685 48.1179 206.987 48.1179 207.349V211H46.8821V210.251H46.8395C46.7614 210.402 46.6513 210.544 46.5092 210.677C46.3696 210.807 46.1932 210.912 45.9801 210.993C45.7694 211.071 45.522 211.11 45.2379 211.11ZM45.5717 210.165C45.8298 210.165 46.0535 210.115 46.2429 210.013C46.4323 209.909 46.5779 209.771 46.6797 209.601C46.7839 209.43 46.8359 209.245 46.8359 209.043V208.401C46.7957 208.434 46.727 208.464 46.63 208.493C46.5353 208.521 46.4287 208.546 46.3104 208.567C46.192 208.589 46.0748 208.608 45.9588 208.624C45.8428 208.641 45.7422 208.655 45.657 208.667C45.4652 208.693 45.2936 208.736 45.142 208.795C44.9905 208.854 44.871 208.937 44.7834 209.043C44.6958 209.147 44.652 209.282 44.652 209.448C44.652 209.685 44.7384 209.864 44.9112 209.984C45.084 210.105 45.3042 210.165 45.5717 210.165ZM48.7997 206.6V205.545H53.5724V206.6H51.8075V211H50.5646V206.6H48.7997ZM55.8354 209.26L58.0194 205.545H59.3404V211H58.0975V207.282L55.9206 211H54.5961V205.545H55.8354V209.26ZM60.0497 206.6V205.545H64.8224V206.6H63.0575V211H61.8146V206.6H60.0497ZM66.7161 207.321H68.3248C69.0208 207.321 69.5594 207.49 69.9405 207.829C70.3217 208.167 70.5134 208.611 70.5158 209.161C70.5134 209.518 70.4258 209.835 70.253 210.112C70.0826 210.389 69.834 210.607 69.5073 210.766C69.1829 210.922 68.7888 211 68.3248 211H65.8461V205.545H67.0854V209.945H68.3248C68.6041 209.945 68.8337 209.874 69.0137 209.732C69.1936 209.588 69.2836 209.403 69.2836 209.178C69.2836 208.942 69.1936 208.749 69.0137 208.599C68.8337 208.45 68.6041 208.376 68.3248 208.376H66.7161V207.321Z" fill="black"/>
<path d="M40.5 139.5L41.5 92.5C35.9584 93.8168 34.3175 97.4219 33 107C36 109 35.5 112 33 113.5C31.9464 114.132 31.3563 113.681 31 111C29.9325 115.29 28.9112 116.542 26.5 117C24.0888 117.458 21.1502 116.471 21 111C20.969 109.871 22.5 107.5 23.5 107C24.3954 91.3544 28.3294 85.045 44 80C37.2724 73.9369 34.1799 69.9758 34 58.5C33.8201 47.0242 44 35.5 59 35.5C74 35.5 82.9144 49.6233 83 59.5C83.0857 69.3767 79 76 70.5 81L81.5 87C84.4228 78.7213 85.5 74 88.5 73C89.3633 72.7122 92.1303 72.5042 93.5 72.5C96.8903 72.4896 99.4105 73.2878 99.5 74C99.6257 75 97.5 77 95 77C96.1564 78.3552 96.783 79.3469 96.5 81C96.2171 82.6531 95.4636 83.3152 93.5 84.5C89.9072 94.3703 87.6667 99.9692 84.5 100C81.3333 100.031 79.3356 98.6952 73.5 95C74.8744 108.998 75.7216 117.903 75.5 134C78.5 135 80.5 136 80.5 138C80.5 140 73.6611 139.412 63.5 139.5V113H52.5L52 134C54 135 56.4746 135.962 56.5 138C56.5254 140.038 52.4586 139.574 40.5 139.5Z" fill="#F95252"/>
<path d="M95 77C97.5 77 99.6257 75 99.5 74C99.4105 73.2878 96.8903 72.4896 93.5 72.5M95 77C96.1564 78.3552 96.7829 79.3469 96.5 81C96.2171 82.6531 95.4636 83.3152 93.5 84.5M95 77C90 79 89 85.5 93.5 84.5M95 77C90.5 78 89 72.5138 93.5 72.5M93.5 84.5C89.9072 94.3703 87.6667 99.9692 84.5 100C81.3333 100.031 79.3356 98.6952 73.5 95C74.8744 108.998 75.7216 117.903 75.5 134C78.5 135 80.5 136 80.5 138C80.5 140 73.6611 139.412 63.5 139.5V113H52.5L52 134C54 135 56.4746 135.962 56.5 138C56.5254 140.038 52.4586 139.574 40.5 139.5L41.5 92.5C35.9584 93.8168 34.3175 97.4219 33 107C36 109 35.5 112 33 113.5C31.9464 114.132 31.3563 113.681 31 111C29.9325 115.29 28.9112 116.542 26.5 117C24.0888 117.458 21.1502 116.471 21 111C20.969 109.871 22.5 107.5 23.5 107C24.3954 91.3544 28.3294 85.045 44 80C37.2724 73.9369 34.1799 69.9758 34 58.5C33.8201 47.0242 44 35.5 59 35.5C74 35.5 82.9144 49.6233 83 59.5C83.0857 69.3767 79 76 70.5 81L81.5 87C84.4228 78.7213 85.5 74 88.5 73C89.3633 72.7122 92.1303 72.5042 93.5 72.5" stroke="black" stroke-width="3" stroke-linecap="round" stroke-linejoin="round"/>
<circle cx="51" cy="59" r="5" fill="black"/>
<circle cx="73" cy="61" r="5" fill="black"/>
<path d="M61.7368 63C59.3684 63 57 63.9966 57 64.9931C57 65.9897 58.2259 67.139 60.3158 66.9863C62.4057 66.8335 66 66.488 66 65.4914C66 64.4948 64.1053 63 61.7368 63Z" fill="white" stroke="black" stroke-width="2" stroke-linecap="round" stroke-linejoin="round"/>
<path d="M168.005 140L167.005 93C172.547 94.3168 174.188 97.9219 175.505 107.5C172.505 109.5 173.005 112.5 175.505 114C176.559 114.632 177.149 114.181 177.505 111.5C178.573 115.79 179.594 117.042 182.005 117.5C184.416 117.958 187.355 116.971 187.505 111.5C187.536 110.371 186.005 108 185.005 107.5C184.11 91.8544 180.176 85.545 164.505 80.5C171.233 74.4369 174.325 70.4758 174.505 59C174.685 47.5242 164.505 36 149.505 36C134.505 36 125.591 50.1233 125.505 60C125.42 69.8767 129.505 76.5 138.005 81.5L127.005 87.5C124.082 79.2213 123.005 74.5 120.005 73.5C119.142 73.2122 116.375 73.0042 115.005 73C111.615 72.9896 109.095 73.7878 109.005 74.5C108.88 75.5 111.005 77.5 113.505 77.5C112.349 78.8552 111.722 79.8469 112.005 81.5C112.288 83.1531 113.042 83.8152 115.005 85C118.598 94.8703 120.839 100.469 124.005 100.5C127.172 100.531 129.17 99.1952 135.005 95.5C133.631 109.498 132.784 118.403 133.005 134.5C130.005 135.5 128.005 136.5 128.005 138.5C128.005 140.5 134.844 139.912 145.005 140V113.5H156.005L156.505 134.5C154.505 135.5 152.031 136.462 152.005 138.5C151.98 140.538 156.047 140.074 168.005 140Z" fill="#6EA7FB"/>
<path d="M113.505 77.5C111.005 77.5 108.88 75.5 109.005 74.5C109.095 73.7878 111.615 72.9896 115.005 73M113.505 77.5C112.349 78.8552 111.722 79.8469 112.005 81.5C112.288 83.1531 113.042 83.8152 115.005 85M113.505 77.5C118.505 79.5 119.505 86 115.005 85M113.505 77.5C118.005 78.5 119.505 73.0138 115.005 73M115.005 85C118.598 94.8703 120.839 100.469 124.005 100.5C127.172 100.531 129.17 99.1952 135.005 95.5C133.631 109.498 132.784 118.403 133.005 134.5C130.005 135.5 128.005 136.5 128.005 138.5C128.005 140.5 134.844 139.912 145.005 140V113.5H156.005L156.505 134.5C154.505 135.5 152.031 136.462 152.005 138.5C151.98 140.538 156.047 140.074 168.005 140L167.005 93C172.547 94.3168 174.188 97.9219 175.505 107.5C172.505 109.5 173.005 112.5 175.505 114C176.559 114.632 177.149 114.181 177.505 111.5C178.573 115.79 179.594 117.042 182.005 117.5C184.416 117.958 187.355 116.971 187.505 111.5C187.536 110.371 186.005 108 185.005 107.5C184.11 91.8544 180.176 85.545 164.505 80.5C171.233 74.4369 174.325 70.4758 174.505 59C174.685 47.5242 164.505 36 149.505 36C134.505 36 125.591 50.1233 125.505 60C125.42 69.8767 129.505 76.5 138.005 81.5L127.005 87.5C124.082 79.2213 123.005 74.5 120.005 73.5C119.142 73.2122 116.375 73.0042 115.005 73" stroke="black" stroke-width="3" stroke-linecap="round" stroke-linejoin="round"/>
<circle r="5" transform="matrix(-1 0 0 1 161 63)" fill="black"/>
<circle r="5" transform="matrix(-1 0 0 1 137 64)" fill="black"/>
<path d="M149.52 66.9861C147.166 67.2409 144.918 68.4865 145.025 69.4773C145.133 70.4681 146.475 71.4788 148.536 71.1021C150.598 70.7254 154.134 69.9952 154.027 69.0044C153.92 68.0136 151.875 66.7313 149.52 66.9861Z" fill="white" stroke="black" stroke-width="2" stroke-linecap="round" stroke-linejoin="round"/>
<path d="M145.5 214C138.628 218.524 136.779 221.884 135 228.5H186.5C184.866 223.48 183.32 220.828 179 216.5C188.5 214 194.5 204.5 194.5 190C194.5 175.5 180.5 162 164.5 162C148.5 162 135 174 135 190C135 206 145.5 214 145.5 214Z" fill="#FFC962" stroke="black" stroke-width="3" stroke-linecap="round" stroke-linejoin="round"/>
<path d="M150.114 185.273V194H149.057V185.273H150.114ZM152.018 189.244V190.182H149.347V189.244H152.018ZM159.42 189.636C159.42 190.557 159.254 191.352 158.922 192.023C158.589 192.693 158.134 193.21 157.554 193.574C156.974 193.938 156.313 194.119 155.568 194.119C154.824 194.119 154.162 193.938 153.582 193.574C153.003 193.21 152.547 192.693 152.214 192.023C151.882 191.352 151.716 190.557 151.716 189.636C151.716 188.716 151.882 187.92 152.214 187.25C152.547 186.58 153.003 186.062 153.582 185.699C154.162 185.335 154.824 185.153 155.568 185.153C156.313 185.153 156.974 185.335 157.554 185.699C158.134 186.062 158.589 186.58 158.922 187.25C159.254 187.92 159.42 188.716 159.42 189.636ZM158.398 189.636C158.398 188.881 158.271 188.243 158.018 187.723C157.768 187.203 157.429 186.81 157 186.543C156.574 186.276 156.097 186.142 155.568 186.142C155.04 186.142 154.561 186.276 154.132 186.543C153.706 186.81 153.366 187.203 153.114 187.723C152.864 188.243 152.739 188.881 152.739 189.636C152.739 190.392 152.864 191.03 153.114 191.55C153.366 192.07 153.706 192.463 154.132 192.73C154.561 192.997 155.04 193.131 155.568 193.131C156.097 193.131 156.574 192.997 157 192.73C157.429 192.463 157.768 192.07 158.018 191.55C158.271 191.03 158.398 190.392 158.398 189.636ZM160.652 192.33H161.726C161.749 192.625 161.882 192.849 162.126 193.003C162.374 193.156 162.695 193.233 163.089 193.233C163.493 193.233 163.838 193.151 164.125 192.986C164.412 192.818 164.555 192.548 164.555 192.176C164.555 191.957 164.501 191.767 164.393 191.605C164.286 191.44 164.134 191.312 163.938 191.222C163.741 191.131 163.51 191.085 163.243 191.085H162.118V190.182H163.243C163.643 190.182 163.939 190.091 164.129 189.909C164.322 189.727 164.419 189.5 164.419 189.227C164.419 188.935 164.315 188.7 164.108 188.524C163.901 188.345 163.607 188.256 163.226 188.256C162.842 188.256 162.523 188.342 162.267 188.516C162.011 188.686 161.876 188.906 161.862 189.176H160.805C160.817 188.824 160.925 188.513 161.129 188.243C161.334 187.97 161.612 187.757 161.964 187.604C162.317 187.447 162.72 187.369 163.175 187.369C163.635 187.369 164.034 187.45 164.372 187.612C164.713 187.771 164.976 187.989 165.161 188.264C165.348 188.537 165.442 188.847 165.442 189.193C165.442 189.562 165.338 189.861 165.131 190.088C164.923 190.315 164.663 190.477 164.351 190.574V190.642C164.598 190.659 164.812 190.739 164.994 190.881C165.179 191.02 165.322 191.203 165.425 191.43C165.527 191.655 165.578 191.903 165.578 192.176C165.578 192.574 165.472 192.92 165.259 193.216C165.045 193.509 164.753 193.736 164.381 193.898C164.009 194.057 163.584 194.136 163.107 194.136C162.643 194.136 162.229 194.061 161.862 193.911C161.496 193.757 161.205 193.545 160.989 193.276C160.776 193.003 160.663 192.688 160.652 192.33ZM169.735 194.136C169.104 194.136 168.56 193.997 168.103 193.719C167.648 193.438 167.298 193.045 167.05 192.543C166.806 192.037 166.684 191.449 166.684 190.778C166.684 190.108 166.806 189.517 167.05 189.006C167.298 188.491 167.641 188.091 168.082 187.804C168.525 187.514 169.042 187.369 169.633 187.369C169.974 187.369 170.31 187.426 170.643 187.54C170.975 187.653 171.278 187.838 171.55 188.094C171.823 188.347 172.04 188.682 172.202 189.099C172.364 189.517 172.445 190.031 172.445 190.642V191.068H167.4V190.199H171.423C171.423 189.83 171.349 189.5 171.201 189.21C171.056 188.92 170.849 188.692 170.579 188.524C170.312 188.357 169.996 188.273 169.633 188.273C169.232 188.273 168.886 188.372 168.593 188.571C168.303 188.767 168.08 189.023 167.924 189.338C167.768 189.653 167.69 189.991 167.69 190.352V190.932C167.69 191.426 167.775 191.845 167.945 192.189C168.119 192.53 168.359 192.79 168.665 192.969C168.972 193.145 169.329 193.233 169.735 193.233C169.999 193.233 170.238 193.196 170.451 193.122C170.667 193.045 170.853 192.932 171.009 192.781C171.165 192.628 171.286 192.437 171.371 192.21L172.343 192.483C172.241 192.812 172.069 193.102 171.827 193.352C171.586 193.599 171.288 193.793 170.933 193.932C170.577 194.068 170.178 194.136 169.735 194.136ZM173.975 196.455V187.455H174.947V188.494H175.066C175.14 188.381 175.242 188.236 175.373 188.06C175.506 187.881 175.697 187.722 175.944 187.582C176.194 187.44 176.532 187.369 176.958 187.369C177.509 187.369 177.995 187.507 178.415 187.783C178.836 188.058 179.164 188.449 179.4 188.955C179.636 189.46 179.754 190.057 179.754 190.744C179.754 191.438 179.636 192.038 179.4 192.547C179.164 193.053 178.837 193.445 178.42 193.723C178.002 193.999 177.521 194.136 176.975 194.136C176.555 194.136 176.218 194.067 175.965 193.928C175.712 193.786 175.518 193.625 175.381 193.446C175.245 193.264 175.14 193.114 175.066 192.994H174.981V196.455H173.975ZM174.964 190.727C174.964 191.222 175.036 191.658 175.181 192.036C175.326 192.411 175.538 192.705 175.816 192.918C176.094 193.128 176.435 193.233 176.839 193.233C177.259 193.233 177.61 193.122 177.891 192.901C178.175 192.676 178.388 192.375 178.531 191.997C178.675 191.616 178.748 191.193 178.748 190.727C178.748 190.267 178.677 189.852 178.535 189.483C178.396 189.111 178.184 188.817 177.9 188.601C177.619 188.382 177.265 188.273 176.839 188.273C176.43 188.273 176.086 188.376 175.808 188.584C175.529 188.788 175.319 189.075 175.177 189.445C175.035 189.811 174.964 190.239 174.964 190.727Z" fill="white"/>
<path d="M150.114 185.273H151.114V184.273H150.114V185.273ZM150.114 194V195H151.114V194H150.114ZM149.057 194H148.057V195H149.057V194ZM149.057 185.273V184.273H148.057V185.273H149.057ZM152.018 189.244H153.018V188.244H152.018V189.244ZM152.018 190.182V191.182H153.018V190.182H152.018ZM149.347 190.182H148.347V191.182H149.347V190.182ZM149.347 189.244V188.244H148.347V189.244H149.347ZM158.922 192.023L158.026 191.579L158.026 191.579L158.922 192.023ZM157.554 193.574L158.085 194.421L158.085 194.421L157.554 193.574ZM153.582 193.574L153.051 194.421L153.051 194.421L153.582 193.574ZM152.214 192.023L153.11 191.579L153.11 191.579L152.214 192.023ZM152.214 187.25L153.11 187.694L153.11 187.694L152.214 187.25ZM158.922 187.25L158.026 187.694L158.026 187.694L158.922 187.25ZM158.018 187.723L157.117 188.156L157.119 188.16L158.018 187.723ZM157 186.543L156.469 187.39L156.472 187.392L157 186.543ZM154.132 186.543L153.604 185.694L153.601 185.695L154.132 186.543ZM153.114 187.723L152.214 187.286L152.212 187.29L153.114 187.723ZM153.114 191.55L152.212 191.983L152.214 191.987L153.114 191.55ZM154.132 192.73L153.601 193.577L153.604 193.579L154.132 192.73ZM157 192.73L156.472 191.881L156.469 191.883L157 192.73ZM158.018 191.55L157.119 191.112L157.117 191.116L158.018 191.55ZM149.114 185.273V194H151.114V185.273H149.114ZM150.114 193H149.057V195H150.114V193ZM150.057 194V185.273H148.057V194H150.057ZM149.057 186.273H150.114V184.273H149.057V186.273ZM151.018 189.244V190.182H153.018V189.244H151.018ZM152.018 189.182H149.347V191.182H152.018V189.182ZM150.347 190.182V189.244H148.347V190.182H150.347ZM149.347 190.244H152.018V188.244H149.347V190.244ZM158.42 189.636C158.42 190.438 158.276 191.074 158.026 191.579L159.818 192.467C160.233 191.63 160.42 190.676 160.42 189.636H158.42ZM158.026 191.579C157.768 192.1 157.431 192.47 157.022 192.727L158.085 194.421C158.836 193.95 159.411 193.287 159.818 192.467L158.026 191.579ZM157.022 192.727C156.616 192.982 156.142 193.119 155.568 193.119V195.119C156.483 195.119 157.333 194.893 158.085 194.421L157.022 192.727ZM155.568 193.119C154.995 193.119 154.52 192.982 154.114 192.727L153.051 194.421C153.804 194.893 154.653 195.119 155.568 195.119V193.119ZM154.114 192.727C153.705 192.47 153.369 192.1 153.11 191.579L151.319 192.467C151.725 193.287 152.301 193.95 153.051 194.421L154.114 192.727ZM153.11 191.579C152.86 191.074 152.716 190.438 152.716 189.636H150.716C150.716 190.676 150.904 191.63 151.319 192.467L153.11 191.579ZM152.716 189.636C152.716 188.835 152.86 188.198 153.11 187.694L151.319 186.806C150.904 187.642 150.716 188.597 150.716 189.636H152.716ZM153.11 187.694C153.369 187.173 153.705 186.802 154.114 186.546L153.051 184.852C152.301 185.323 151.725 185.986 151.319 186.806L153.11 187.694ZM154.114 186.546C154.52 186.291 154.995 186.153 155.568 186.153V184.153C154.653 184.153 153.804 184.379 153.051 184.852L154.114 186.546ZM155.568 186.153C156.142 186.153 156.616 186.291 157.022 186.546L158.085 184.852C157.333 184.379 156.483 184.153 155.568 184.153V186.153ZM157.022 186.546C157.431 186.802 157.768 187.173 158.026 187.694L159.818 186.806C159.411 185.986 158.836 185.323 158.085 184.852L157.022 186.546ZM158.026 187.694C158.276 188.198 158.42 188.835 158.42 189.636H160.42C160.42 188.597 160.233 187.642 159.818 186.806L158.026 187.694ZM159.398 189.636C159.398 188.774 159.254 187.977 158.918 187.286L157.119 188.16C157.289 188.509 157.398 188.987 157.398 189.636H159.398ZM158.92 187.29C158.599 186.624 158.141 186.075 157.528 185.694L156.472 187.392C156.717 187.545 156.938 187.783 157.117 188.156L158.92 187.29ZM157.531 185.695C156.937 185.323 156.274 185.142 155.568 185.142V187.142C155.919 187.142 156.21 187.228 156.469 187.39L157.531 185.695ZM155.568 185.142C154.862 185.142 154.199 185.323 153.604 185.694L154.661 187.392C154.924 187.228 155.218 187.142 155.568 187.142V185.142ZM153.601 185.695C152.994 186.076 152.537 186.623 152.214 187.286L154.013 188.16C154.196 187.783 154.418 187.543 154.663 187.39L153.601 185.695ZM152.212 187.29C151.88 187.98 151.739 188.775 151.739 189.636H153.739C153.739 188.986 153.847 188.506 154.015 188.156L152.212 187.29ZM151.739 189.636C151.739 190.497 151.88 191.293 152.212 191.983L154.015 191.116C153.847 190.767 153.739 190.287 153.739 189.636H151.739ZM152.214 191.987C152.537 192.65 152.994 193.197 153.601 193.577L154.663 191.883C154.418 191.729 154.196 191.49 154.013 191.112L152.214 191.987ZM153.604 193.579C154.199 193.949 154.862 194.131 155.568 194.131V192.131C155.218 192.131 154.924 192.045 154.661 191.881L153.604 193.579ZM155.568 194.131C156.274 194.131 156.937 193.949 157.531 193.577L156.469 191.883C156.21 192.045 155.919 192.131 155.568 192.131V194.131ZM157.528 193.579C158.141 193.198 158.599 192.649 158.92 191.983L157.117 191.116C156.938 191.49 156.717 191.728 156.472 191.881L157.528 193.579ZM158.918 191.987C159.254 191.296 159.398 190.499 159.398 189.636H157.398C157.398 190.285 157.289 190.764 157.119 191.112L158.918 191.987ZM160.652 192.33V191.33H159.62L159.652 192.361L160.652 192.33ZM161.726 192.33L162.723 192.253L162.652 191.33H161.726V192.33ZM162.126 193.003L161.595 193.85L161.599 193.852L162.126 193.003ZM164.125 192.986L164.623 193.853L164.629 193.849L164.125 192.986ZM164.393 191.605L163.557 192.153L163.561 192.16L164.393 191.605ZM163.938 191.222L163.517 192.129L163.517 192.129L163.938 191.222ZM162.118 191.085H161.118V192.085H162.118V191.085ZM162.118 190.182V189.182H161.118V190.182H162.118ZM164.129 189.909L163.444 189.181L163.439 189.186L164.129 189.909ZM164.108 188.524L163.455 189.281L163.461 189.286L164.108 188.524ZM162.267 188.516L162.822 189.348L162.828 189.343L162.267 188.516ZM161.862 189.176V190.176H162.811L162.861 189.229L161.862 189.176ZM160.805 189.176L159.806 189.144L159.773 190.176H160.805V189.176ZM161.129 188.243L161.926 188.847L161.929 188.843L161.129 188.243ZM161.964 187.604L162.364 188.521L162.37 188.518L161.964 187.604ZM164.372 187.612L163.94 188.514L163.949 188.518L164.372 187.612ZM165.161 188.264L164.33 188.821L164.336 188.831L165.161 188.264ZM165.131 190.088L165.869 190.762L165.869 190.762L165.131 190.088ZM164.351 190.574L164.056 189.618L163.351 189.836V190.574H164.351ZM164.351 190.642H163.351V191.575L164.282 191.64L164.351 190.642ZM164.994 190.881L164.379 191.669L164.385 191.674L164.392 191.679L164.994 190.881ZM165.425 191.43L164.513 191.841L164.515 191.845L165.425 191.43ZM165.259 193.216L166.067 193.805L166.07 193.801L165.259 193.216ZM164.381 193.898L164.774 194.817L164.78 194.815L164.381 193.898ZM161.862 193.911L161.476 194.833L161.482 194.835L161.862 193.911ZM160.989 193.276L160.201 193.891L160.208 193.9L160.989 193.276ZM160.652 193.33H161.726V191.33H160.652V193.33ZM160.729 192.406C160.775 193.008 161.073 193.522 161.595 193.85L162.658 192.156C162.656 192.154 162.661 192.158 162.671 192.167C162.681 192.177 162.692 192.191 162.702 192.208C162.724 192.245 162.724 192.268 162.723 192.253L160.729 192.406ZM161.599 193.852C162.052 194.133 162.573 194.233 163.089 194.233V192.233C162.817 192.233 162.696 192.179 162.654 192.153L161.599 193.852ZM163.089 194.233C163.63 194.233 164.155 194.122 164.623 193.853L163.627 192.119C163.522 192.179 163.356 192.233 163.089 192.233V194.233ZM164.629 193.849C165.265 193.478 165.555 192.852 165.555 192.176H163.555C163.555 192.234 163.545 192.226 163.565 192.188C163.574 192.17 163.587 192.153 163.6 192.14C163.614 192.126 163.622 192.121 163.621 192.122L164.629 193.849ZM165.555 192.176C165.555 191.785 165.456 191.396 165.226 191.05L163.561 192.16C163.559 192.157 163.557 192.153 163.556 192.15C163.554 192.146 163.553 192.143 163.553 192.142C163.552 192.14 163.555 192.149 163.555 192.176H165.555ZM165.23 191.057C165.01 190.721 164.707 190.476 164.358 190.314L163.517 192.129C163.542 192.14 163.552 192.149 163.555 192.151C163.557 192.153 163.557 192.153 163.557 192.153L165.23 191.057ZM164.358 190.314C164.003 190.15 163.622 190.085 163.243 190.085V192.085C163.398 192.085 163.48 192.112 163.517 192.129L164.358 190.314ZM163.243 190.085H162.118V192.085H163.243V190.085ZM163.118 191.085V190.182H161.118V191.085H163.118ZM162.118 191.182H163.243V189.182H162.118V191.182ZM163.243 191.182C163.77 191.182 164.367 191.065 164.82 190.632L163.439 189.186C163.474 189.152 163.496 189.15 163.471 189.158C163.442 189.167 163.371 189.182 163.243 189.182V191.182ZM164.815 190.637C165.215 190.261 165.419 189.767 165.419 189.227H163.419C163.419 189.236 163.418 189.238 163.419 189.234C163.42 189.229 163.422 189.221 163.426 189.211C163.431 189.201 163.436 189.193 163.44 189.186C163.444 189.18 163.447 189.178 163.444 189.181L164.815 190.637ZM165.419 189.227C165.419 188.666 165.205 188.144 164.755 187.762L163.461 189.286C163.46 189.286 163.455 189.281 163.447 189.271C163.439 189.261 163.432 189.249 163.427 189.237C163.415 189.21 163.419 189.201 163.419 189.227H165.419ZM164.761 187.767C164.312 187.38 163.753 187.256 163.226 187.256V189.256C163.46 189.256 163.489 189.311 163.455 189.281L164.761 187.767ZM163.226 187.256C162.691 187.256 162.163 187.378 161.706 187.688L162.828 189.343C162.882 189.307 162.994 189.256 163.226 189.256V187.256ZM161.712 187.684C161.235 188.002 160.897 188.492 160.864 189.124L162.861 189.229C162.86 189.238 162.858 189.254 162.852 189.274C162.846 189.295 162.837 189.314 162.827 189.331C162.805 189.366 162.792 189.368 162.822 189.348L161.712 187.684ZM161.862 188.176H160.805V190.176H161.862V188.176ZM161.805 189.208C161.81 189.054 161.852 188.945 161.926 188.847L160.332 187.639C159.997 188.081 159.824 188.594 159.806 189.144L161.805 189.208ZM161.929 188.843C162.017 188.726 162.15 188.614 162.364 188.521L161.565 186.687C161.075 186.9 160.65 187.215 160.329 187.643L161.929 188.843ZM162.37 188.518C162.574 188.427 162.835 188.369 163.175 188.369V186.369C162.605 186.369 162.06 186.467 161.559 186.69L162.37 188.518ZM163.175 188.369C163.519 188.369 163.764 188.43 163.94 188.514L164.804 186.71C164.304 186.471 163.751 186.369 163.175 186.369V188.369ZM163.949 188.518C164.148 188.611 164.26 188.716 164.33 188.821L165.991 187.708C165.692 187.261 165.279 186.932 164.795 186.706L163.949 188.518ZM164.336 188.831C164.404 188.929 164.442 189.039 164.442 189.193H166.442C166.442 188.654 166.292 188.145 165.985 187.698L164.336 188.831ZM164.442 189.193C164.442 189.366 164.399 189.407 164.392 189.414L165.869 190.762C166.277 190.315 166.442 189.759 166.442 189.193H164.442ZM164.392 189.414C164.312 189.501 164.209 189.571 164.056 189.618L164.646 191.529C165.118 191.384 165.534 191.129 165.869 190.762L164.392 189.414ZM163.351 190.574V190.642H165.351V190.574H163.351ZM164.282 191.64C164.346 191.644 164.366 191.659 164.379 191.669L165.61 190.093C165.259 189.819 164.851 189.674 164.42 189.644L164.282 191.64ZM164.392 191.679C164.432 191.709 164.474 191.755 164.513 191.841L166.337 191.02C166.171 190.652 165.926 190.33 165.596 190.082L164.392 191.679ZM164.515 191.845C164.552 191.926 164.578 192.031 164.578 192.176H166.578C166.578 191.776 166.502 191.384 166.335 191.016L164.515 191.845ZM164.578 192.176C164.578 192.384 164.526 192.522 164.447 192.631L166.07 193.801C166.417 193.319 166.578 192.764 166.578 192.176H164.578ZM164.45 192.627C164.354 192.759 164.211 192.881 163.982 192.981L164.78 194.815C165.295 194.591 165.737 194.258 166.067 193.805L164.45 192.627ZM163.988 192.978C163.76 193.076 163.473 193.136 163.107 193.136V195.136C163.695 195.136 164.257 195.038 164.774 194.817L163.988 192.978ZM163.107 193.136C162.752 193.136 162.47 193.079 162.242 192.986L161.482 194.835C161.988 195.043 162.535 195.136 163.107 195.136V193.136ZM162.248 192.988C162.013 192.89 161.866 192.772 161.77 192.651L160.208 193.9C160.543 194.319 160.978 194.625 161.476 194.833L162.248 192.988ZM161.777 192.66C161.699 192.561 161.656 192.452 161.651 192.298L159.652 192.361C159.67 192.923 159.852 193.445 160.201 193.891L161.777 192.66ZM168.103 193.719L167.577 194.569L167.583 194.573L168.103 193.719ZM167.05 192.543L166.15 192.978L166.153 192.984L167.05 192.543ZM167.05 189.006L166.149 188.572L166.148 188.575L167.05 189.006ZM168.082 187.804L168.628 188.642L168.629 188.641L168.082 187.804ZM170.643 187.54L170.966 186.594L170.966 186.594L170.643 187.54ZM171.55 188.094L170.866 188.823L170.871 188.827L171.55 188.094ZM172.202 189.099L173.135 188.738L173.135 188.738L172.202 189.099ZM172.445 191.068V192.068H173.445V191.068H172.445ZM167.4 191.068H166.4V192.068H167.4V191.068ZM167.4 190.199V189.199H166.4V190.199H167.4ZM171.423 190.199V191.199H172.423V190.199H171.423ZM171.201 189.21L170.307 189.657L170.31 189.664L171.201 189.21ZM170.579 188.524L170.047 189.371L170.051 189.374L170.579 188.524ZM168.593 188.571L169.153 189.399L169.155 189.398L168.593 188.571ZM167.924 189.338L167.028 188.894L167.028 188.894L167.924 189.338ZM167.945 192.189L167.049 192.633L167.054 192.642L167.945 192.189ZM168.665 192.969L168.162 193.833L168.168 193.836L168.665 192.969ZM170.451 193.122L170.779 194.067L170.786 194.064L170.451 193.122ZM171.009 192.781L171.703 193.501L171.71 193.495L171.009 192.781ZM171.371 192.21L171.642 191.247L170.758 190.999L170.435 191.859L171.371 192.21ZM172.343 192.483L173.298 192.779L173.603 191.798L172.613 191.52L172.343 192.483ZM171.827 193.352L172.543 194.051L172.547 194.047L171.827 193.352ZM170.933 193.932L171.291 194.865L171.297 194.863L170.933 193.932ZM169.735 193.136C169.255 193.136 168.898 193.032 168.623 192.865L167.583 194.573C168.223 194.963 168.954 195.136 169.735 195.136V193.136ZM168.629 192.868C168.342 192.691 168.116 192.444 167.948 192.101L166.153 192.984C166.479 193.647 166.955 194.184 167.577 194.569L168.629 192.868ZM167.951 192.108C167.784 191.761 167.684 191.327 167.684 190.778H165.684C165.684 191.571 165.829 192.313 166.15 192.978L167.951 192.108ZM167.684 190.778C167.684 190.23 167.783 189.791 167.953 189.437L166.148 188.575C165.829 189.243 165.684 189.986 165.684 190.778H167.684ZM167.952 189.439C168.127 189.075 168.354 188.82 168.628 188.642L167.536 186.966C166.929 187.361 166.469 187.908 166.149 188.572L167.952 189.439ZM168.629 188.641C168.891 188.47 169.213 188.369 169.633 188.369V186.369C168.871 186.369 168.159 186.559 167.534 186.967L168.629 188.641ZM169.633 188.369C169.86 188.369 170.088 188.407 170.319 188.486L170.966 186.594C170.533 186.445 170.087 186.369 169.633 186.369V188.369ZM170.319 188.486C170.509 188.551 170.69 188.658 170.866 188.823L172.234 187.364C171.865 187.018 171.441 186.756 170.966 186.594L170.319 188.486ZM170.871 188.827C171.012 188.958 171.152 189.156 171.27 189.461L173.135 188.738C172.929 188.207 172.635 187.735 172.23 187.36L170.871 188.827ZM171.27 189.461C171.374 189.73 171.445 190.113 171.445 190.642H173.445C173.445 189.95 173.354 189.304 173.135 188.738L171.27 189.461ZM171.445 190.642V191.068H173.445V190.642H171.445ZM172.445 190.068H167.4V192.068H172.445V190.068ZM168.4 191.068V190.199H166.4V191.068H168.4ZM167.4 191.199H171.423V189.199H167.4V191.199ZM172.423 190.199C172.423 189.693 172.321 189.204 172.092 188.756L170.31 189.664C170.377 189.796 170.423 189.966 170.423 190.199H172.423ZM172.095 188.763C171.87 188.311 171.537 187.942 171.106 187.675L170.051 189.374C170.161 189.442 170.243 189.53 170.307 189.657L172.095 188.763ZM171.11 187.677C170.661 187.395 170.155 187.273 169.633 187.273V189.273C169.838 189.273 169.963 189.318 170.047 189.371L171.11 187.677ZM169.633 187.273C169.059 187.273 168.511 187.418 168.031 187.744L169.155 189.398C169.261 189.326 169.405 189.273 169.633 189.273V187.273ZM168.033 187.743C167.599 188.036 167.261 188.425 167.028 188.894L168.82 189.782C168.9 189.621 169.008 189.498 169.153 189.399L168.033 187.743ZM167.028 188.894C166.802 189.351 166.69 189.841 166.69 190.352H168.69C168.69 190.141 168.734 189.956 168.82 189.782L167.028 188.894ZM166.69 190.352V190.932H168.69V190.352H166.69ZM166.69 190.932C166.69 191.537 166.794 192.117 167.049 192.633L168.841 191.745C168.756 191.573 168.69 191.315 168.69 190.932H166.69ZM167.054 192.642C167.307 193.141 167.676 193.549 168.162 193.833L169.169 192.105C169.041 192.03 168.93 191.919 168.837 191.736L167.054 192.642ZM168.168 193.836C168.647 194.111 169.18 194.233 169.735 194.233V192.233C169.477 192.233 169.297 192.178 169.163 192.101L168.168 193.836ZM169.735 194.233C170.092 194.233 170.444 194.183 170.779 194.067L170.123 192.177C170.032 192.209 169.907 192.233 169.735 192.233V194.233ZM170.786 194.064C171.128 193.943 171.439 193.756 171.703 193.501L170.315 192.061C170.267 192.107 170.206 192.148 170.116 192.18L170.786 194.064ZM171.71 193.495C171.981 193.229 172.177 192.91 172.308 192.561L170.435 191.859C170.395 191.965 170.35 192.027 170.309 192.068L171.71 193.495ZM171.101 193.173L172.073 193.446L172.613 191.52L171.642 191.247L171.101 193.173ZM171.388 192.187C171.332 192.366 171.242 192.519 171.108 192.658L172.547 194.047C172.896 193.685 173.149 193.259 173.298 192.779L171.388 192.187ZM171.112 192.653C170.98 192.789 170.805 192.908 170.568 193.001L171.297 194.863C171.771 194.677 172.192 194.41 172.543 194.051L171.112 192.653ZM170.574 192.998C170.351 193.084 170.076 193.136 169.735 193.136V195.136C170.281 195.136 170.804 195.052 171.291 194.865L170.574 192.998ZM173.975 196.455H172.975V197.455H173.975V196.455ZM173.975 187.455V186.455H172.975V187.455H173.975ZM174.947 187.455H175.947V186.455H174.947V187.455ZM174.947 188.494H173.947V189.494H174.947V188.494ZM175.066 188.494V189.494H175.609L175.904 189.039L175.066 188.494ZM175.373 188.06L174.571 187.462L174.57 187.464L175.373 188.06ZM175.944 187.582L176.435 188.454L176.438 188.452L175.944 187.582ZM178.415 187.783L178.964 186.946L178.964 186.946L178.415 187.783ZM179.4 188.955L180.306 188.532L180.306 188.532L179.4 188.955ZM179.4 192.547L180.306 192.969L180.307 192.968L179.4 192.547ZM178.42 193.723L178.971 194.558L178.974 194.555L178.42 193.723ZM175.965 193.928L175.475 194.799L175.483 194.804L175.965 193.928ZM175.381 193.446L174.581 194.046L174.586 194.052L175.381 193.446ZM175.066 192.994L175.916 192.468L175.623 191.994H175.066V192.994ZM174.981 192.994V191.994H173.981V192.994H174.981ZM174.981 196.455V197.455H175.981V196.455H174.981ZM175.181 192.036L174.247 192.394L174.248 192.396L175.181 192.036ZM175.816 192.918L175.208 193.712L175.213 193.716L175.816 192.918ZM177.891 192.901L178.51 193.686L178.511 193.685L177.891 192.901ZM178.531 191.997L177.596 191.641L177.595 191.645L178.531 191.997ZM178.535 189.483L177.598 189.833L177.601 189.842L178.535 189.483ZM177.9 188.601L177.286 189.39L177.295 189.397L177.9 188.601ZM175.808 188.584L176.4 189.39L176.405 189.386L175.808 188.584ZM175.177 189.445L176.109 189.806L176.11 189.804L175.177 189.445ZM174.975 196.455V187.455H172.975V196.455H174.975ZM173.975 188.455H174.947V186.455H173.975V188.455ZM173.947 187.455V188.494H175.947V187.455H173.947ZM174.947 189.494H175.066V187.494H174.947V189.494ZM175.904 189.039C175.962 188.95 176.051 188.824 176.176 188.656L174.57 187.464C174.433 187.648 174.317 187.811 174.228 187.949L175.904 189.039ZM176.174 188.658C176.205 188.616 176.277 188.542 176.435 188.454L175.453 186.711C175.116 186.901 174.808 187.145 174.571 187.462L176.174 188.658ZM176.438 188.452C176.482 188.427 176.628 188.369 176.958 188.369V186.369C176.436 186.369 175.906 186.454 175.45 186.713L176.438 188.452ZM176.958 188.369C177.334 188.369 177.625 188.46 177.867 188.619L178.964 186.946C178.365 186.554 177.684 186.369 176.958 186.369V188.369ZM177.867 188.619C178.116 188.782 178.327 189.021 178.494 189.377L180.306 188.532C180.001 187.877 179.556 187.335 178.964 186.946L177.867 188.619ZM178.494 189.377C178.655 189.723 178.754 190.17 178.754 190.744H180.754C180.754 189.944 180.616 189.197 180.306 188.532L178.494 189.377ZM178.754 190.744C178.754 191.326 178.655 191.777 178.493 192.126L180.307 192.968C180.617 192.3 180.754 191.549 180.754 190.744H178.754ZM178.494 192.124C178.326 192.483 178.114 192.725 177.865 192.891L178.974 194.555C179.561 194.164 180.002 193.622 180.306 192.969L178.494 192.124ZM177.869 192.888C177.63 193.046 177.343 193.136 176.975 193.136V195.136C177.698 195.136 178.375 194.951 178.971 194.558L177.869 192.888ZM176.975 193.136C176.652 193.136 176.5 193.081 176.447 193.052L175.483 194.804C175.936 195.053 176.458 195.136 176.975 195.136V193.136ZM176.455 193.056C176.288 192.962 176.21 192.884 176.177 192.84L174.586 194.052C174.825 194.366 175.137 194.609 175.475 194.799L176.455 193.056ZM176.181 192.846C176.053 192.675 175.968 192.551 175.916 192.468L174.216 193.521C174.312 193.676 174.437 193.853 174.581 194.046L176.181 192.846ZM175.066 191.994H174.981V193.994H175.066V191.994ZM173.981 192.994V196.455H175.981V192.994H173.981ZM174.981 195.455H173.975V197.455H174.981V195.455ZM173.964 190.727C173.964 191.318 174.05 191.879 174.247 192.394L176.115 191.677C176.022 191.436 175.964 191.125 175.964 190.727H173.964ZM174.248 192.396C174.45 192.917 174.763 193.371 175.208 193.712L176.424 192.123C176.312 192.038 176.202 191.904 176.114 191.675L174.248 192.396ZM175.213 193.716C175.692 194.077 176.253 194.233 176.839 194.233V192.233C176.617 192.233 176.497 192.179 176.419 192.12L175.213 193.716ZM176.839 194.233C177.443 194.233 178.023 194.07 178.51 193.686L177.272 192.115C177.197 192.174 177.075 192.233 176.839 192.233V194.233ZM178.511 193.685C178.954 193.335 179.268 192.877 179.467 192.349L177.595 191.645C177.509 191.873 177.397 192.017 177.271 192.116L178.511 193.685ZM179.465 192.353C179.659 191.843 179.748 191.297 179.748 190.727H177.748C177.748 191.089 177.692 191.389 177.596 191.641L179.465 192.353ZM179.748 190.727C179.748 190.164 179.661 189.625 179.468 189.124L177.601 189.842C177.693 190.08 177.748 190.37 177.748 190.727H179.748ZM179.471 189.133C179.274 188.604 178.956 188.148 178.505 187.805L177.295 189.397C177.412 189.486 177.517 189.617 177.598 189.833L179.471 189.133ZM178.514 187.811C178.024 187.431 177.442 187.273 176.839 187.273V189.273C177.088 189.273 177.213 189.333 177.286 189.39L178.514 187.811ZM176.839 187.273C176.254 187.273 175.691 187.424 175.21 187.782L176.405 189.386C176.481 189.329 176.605 189.273 176.839 189.273V187.273ZM175.215 187.778C174.761 188.112 174.444 188.564 174.244 189.086L176.11 189.804C176.194 189.586 176.297 189.465 176.4 189.39L175.215 187.778ZM174.244 189.083C174.048 189.589 173.964 190.144 173.964 190.727H175.964C175.964 190.333 176.021 190.033 176.109 189.806L174.244 189.083Z" fill="white"/>
<path d="M150.114 185.273V194H149.057V185.273H150.114ZM152.018 189.244V190.182H149.347V189.244H152.018ZM159.42 189.636C159.42 190.557 159.254 191.352 158.922 192.023C158.589 192.693 158.134 193.21 157.554 193.574C156.974 193.938 156.313 194.119 155.568 194.119C154.824 194.119 154.162 193.938 153.582 193.574C153.003 193.21 152.547 192.693 152.214 192.023C151.882 191.352 151.716 190.557 151.716 189.636C151.716 188.716 151.882 187.92 152.214 187.25C152.547 186.58 153.003 186.062 153.582 185.699C154.162 185.335 154.824 185.153 155.568 185.153C156.313 185.153 156.974 185.335 157.554 185.699C158.134 186.062 158.589 186.58 158.922 187.25C159.254 187.92 159.42 188.716 159.42 189.636ZM158.398 189.636C158.398 188.881 158.271 188.243 158.018 187.723C157.768 187.203 157.429 186.81 157 186.543C156.574 186.276 156.097 186.142 155.568 186.142C155.04 186.142 154.561 186.276 154.132 186.543C153.706 186.81 153.366 187.203 153.114 187.723C152.864 188.243 152.739 188.881 152.739 189.636C152.739 190.392 152.864 191.03 153.114 191.55C153.366 192.07 153.706 192.463 154.132 192.73C154.561 192.997 155.04 193.131 155.568 193.131C156.097 193.131 156.574 192.997 157 192.73C157.429 192.463 157.768 192.07 158.018 191.55C158.271 191.03 158.398 190.392 158.398 189.636ZM160.652 192.33H161.726C161.749 192.625 161.882 192.849 162.126 193.003C162.374 193.156 162.695 193.233 163.089 193.233C163.493 193.233 163.838 193.151 164.125 192.986C164.412 192.818 164.555 192.548 164.555 192.176C164.555 191.957 164.501 191.767 164.393 191.605C164.286 191.44 164.134 191.312 163.938 191.222C163.741 191.131 163.51 191.085 163.243 191.085H162.118V190.182H163.243C163.643 190.182 163.939 190.091 164.129 189.909C164.322 189.727 164.419 189.5 164.419 189.227C164.419 188.935 164.315 188.7 164.108 188.524C163.901 188.345 163.607 188.256 163.226 188.256C162.842 188.256 162.523 188.342 162.267 188.516C162.011 188.686 161.876 188.906 161.862 189.176H160.805C160.817 188.824 160.925 188.513 161.129 188.243C161.334 187.97 161.612 187.757 161.964 187.604C162.317 187.447 162.72 187.369 163.175 187.369C163.635 187.369 164.034 187.45 164.372 187.612C164.713 187.771 164.976 187.989 165.161 188.264C165.348 188.537 165.442 188.847 165.442 189.193C165.442 189.562 165.338 189.861 165.131 190.088C164.923 190.315 164.663 190.477 164.351 190.574V190.642C164.598 190.659 164.812 190.739 164.994 190.881C165.179 191.02 165.322 191.203 165.425 191.43C165.527 191.655 165.578 191.903 165.578 192.176C165.578 192.574 165.472 192.92 165.259 193.216C165.045 193.509 164.753 193.736 164.381 193.898C164.009 194.057 163.584 194.136 163.107 194.136C162.643 194.136 162.229 194.061 161.862 193.911C161.496 193.757 161.205 193.545 160.989 193.276C160.776 193.003 160.663 192.688 160.652 192.33ZM169.735 194.136C169.104 194.136 168.56 193.997 168.103 193.719C167.648 193.438 167.298 193.045 167.05 192.543C166.806 192.037 166.684 191.449 166.684 190.778C166.684 190.108 166.806 189.517 167.05 189.006C167.298 188.491 167.641 188.091 168.082 187.804C168.525 187.514 169.042 187.369 169.633 187.369C169.974 187.369 170.31 187.426 170.643 187.54C170.975 187.653 171.278 187.838 171.55 188.094C171.823 188.347 172.04 188.682 172.202 189.099C172.364 189.517 172.445 190.031 172.445 190.642V191.068H167.4V190.199H171.423C171.423 189.83 171.349 189.5 171.201 189.21C171.056 188.92 170.849 188.692 170.579 188.524C170.312 188.357 169.996 188.273 169.633 188.273C169.232 188.273 168.886 188.372 168.593 188.571C168.303 188.767 168.08 189.023 167.924 189.338C167.768 189.653 167.69 189.991 167.69 190.352V190.932C167.69 191.426 167.775 191.845 167.945 192.189C168.119 192.53 168.359 192.79 168.665 192.969C168.972 193.145 169.329 193.233 169.735 193.233C169.999 193.233 170.238 193.196 170.451 193.122C170.667 193.045 170.853 192.932 171.009 192.781C171.165 192.628 171.286 192.437 171.371 192.21L172.343 192.483C172.241 192.812 172.069 193.102 171.827 193.352C171.586 193.599 171.288 193.793 170.933 193.932C170.577 194.068 170.178 194.136 169.735 194.136ZM173.975 196.455V187.455H174.947V188.494H175.066C175.14 188.381 175.242 188.236 175.373 188.06C175.506 187.881 175.697 187.722 175.944 187.582C176.194 187.44 176.532 187.369 176.958 187.369C177.509 187.369 177.995 187.507 178.415 187.783C178.836 188.058 179.164 188.449 179.4 188.955C179.636 189.46 179.754 190.057 179.754 190.744C179.754 191.438 179.636 192.038 179.4 192.547C179.164 193.053 178.837 193.445 178.42 193.723C178.002 193.999 177.521 194.136 176.975 194.136C176.555 194.136 176.218 194.067 175.965 193.928C175.712 193.786 175.518 193.625 175.381 193.446C175.245 193.264 175.14 193.114 175.066 192.994H174.981V196.455H173.975ZM174.964 190.727C174.964 191.222 175.036 191.658 175.181 192.036C175.326 192.411 175.538 192.705 175.816 192.918C176.094 193.128 176.435 193.233 176.839 193.233C177.259 193.233 177.61 193.122 177.891 192.901C178.175 192.676 178.388 192.375 178.531 191.997C178.675 191.616 178.748 191.193 178.748 190.727C178.748 190.267 178.677 189.852 178.535 189.483C178.396 189.111 178.184 188.817 177.9 188.601C177.619 188.382 177.265 188.273 176.839 188.273C176.43 188.273 176.086 188.376 175.808 188.584C175.529 188.788 175.319 189.075 175.177 189.445C175.035 189.811 174.964 190.239 174.964 190.727Z" fill="black"/>
<rect x="1.5" y="1.5" width="227" height="227" rx="3.5" stroke="black" stroke-width="3"/>
</svg>
