<svg width="6751" height="2292" viewBox="0 0 6751 2292" fill="none" xmlns="http://www.w3.org/2000/svg">
<path d="M682.863 2185.72C787.14 2185.72 871.675 1707.36 871.675 1117.26C871.675 527.174 787.14 48.8125 682.863 48.8125C578.582 48.8125 494.047 527.174 494.047 1117.26C494.047 1707.36 578.582 2185.72 682.863 2185.72Z" fill="#38D430"/>
<path d="M444.856 2018.73C510.564 2018.73 563.835 1615.12 563.835 1117.23C563.835 619.338 510.564 215.721 444.856 215.721C379.145 215.721 325.877 619.338 325.877 1117.23C325.877 1615.12 379.145 2018.73 444.856 2018.73Z" fill="#38D430"/>
<path d="M294.852 1803.06C344.849 1803.06 385.38 1496.03 385.38 1117.3C385.38 738.563 344.849 431.535 294.852 431.535C244.855 431.535 204.324 738.563 204.324 1117.3C204.324 1496.03 244.855 1803.06 294.852 1803.06Z" fill="#38D430"/>
<path d="M67.2502 1633.53C104.391 1633.53 134.499 1402.4 134.499 1117.28C134.499 832.168 104.391 601.035 67.2502 601.035C30.1094 601.035 0 832.168 0 1117.28C0 1402.4 30.1094 1633.53 67.2502 1633.53Z" fill="#38D430"/>
<path d="M1249.28 48.8125C1200.14 321.062 1156.17 559.924 1112.2 821.899C1127.71 916.931 1145.82 1014.53 1163.93 1117.26C1145.82 1220 1130.3 1317.6 1112.2 1412.63C1156.17 1672.04 1200.14 1913.47 1249.28 2185.72C1277.74 2034.18 1303.6 1892.92 1326.88 1751.66V485.438C1303.6 344.178 1277.74 200.348 1249.28 48.8125Z" fill="#38D430"/>
<path d="M1112.2 821.885C1063.05 544.501 1019.08 287.66 964.766 0C894.933 387.828 835.439 714.014 768.193 1117.25C835.439 1520.49 894.933 1846.68 964.766 2234.51C1016.5 1944.27 1063.05 1690 1112.2 1412.62C1194.35 1334.58 1248.78 1219.99 1266.89 1117.25C1248.78 1014.52 1130.3 916.917 1112.2 821.885Z" fill="#38D430"/>
<path d="M1438.11 267.061H1670.89V421.165H1678.65C1696.76 392.913 1717.45 369.796 1738.14 346.681C1758.83 323.565 1784.7 305.587 1810.56 287.608C1836.43 272.198 1867.47 259.356 1903.68 249.082C1937.3 238.809 1978.69 236.24 2022.66 236.24C2089.91 236.24 2154.57 251.65 2211.47 282.471C2270.96 313.292 2312.35 359.523 2335.62 421.165C2377.01 364.661 2426.15 318.428 2480.47 285.039C2534.78 251.65 2604.62 236.24 2684.8 236.24C2803.78 236.24 2894.31 264.492 2961.56 320.997C3026.22 377.502 3059.85 475.102 3059.85 608.656V1374.04H2814.13V726.802C2814.13 683.142 2811.54 642.046 2808.95 606.087C2806.37 570.129 2798.61 539.312 2783.09 511.06C2770.16 485.377 2749.46 464.827 2721.01 449.418C2692.56 434.006 2656.35 428.87 2609.79 428.87C2527.03 428.87 2464.95 454.556 2428.74 505.923C2392.53 557.289 2371.84 629.206 2371.84 724.233V1374.04H2126.12V660.027C2126.12 582.973 2113.19 523.9 2084.74 485.377C2056.28 446.849 2004.55 426.301 1929.54 426.301C1898.51 426.301 1867.47 434.006 1836.43 446.849C1807.98 459.689 1782.11 477.67 1758.83 503.354C1735.56 526.468 1717.45 557.289 1704.52 593.248C1691.59 629.202 1683.83 670.298 1683.83 716.531V1376.61H1438.11V267.061Z" fill="black"/>
<path d="M3295.23 886.093C3295.23 929.758 3300.41 970.849 3313.34 1009.38C3326.27 1050.47 3344.38 1083.86 3367.66 1114.68C3390.93 1145.5 3421.97 1168.62 3460.77 1186.6C3496.98 1204.57 3543.54 1212.28 3595.27 1212.28C3667.69 1212.28 3724.59 1196.87 3768.56 1166.05C3812.53 1135.23 3846.16 1089 3866.85 1027.35H4099.63C4086.7 1086.43 4063.43 1140.36 4032.39 1189.16C4001.35 1235.39 3962.55 1276.49 3918.58 1307.31C3874.61 1340.7 3822.88 1363.81 3768.56 1379.23C3714.25 1394.64 3654.76 1404.91 3595.27 1404.91C3507.33 1404.91 3429.73 1389.5 3362.48 1361.25C3295.23 1332.99 3238.33 1291.9 3191.77 1240.53C3145.21 1189.16 3109.01 1127.52 3085.73 1055.61C3062.45 983.693 3049.51 904.074 3049.51 819.318C3049.51 739.695 3062.45 665.213 3088.31 595.865C3114.18 523.948 3150.39 462.311 3196.95 408.373C3243.5 354.436 3300.41 313.342 3367.66 279.953C3434.91 249.132 3509.91 233.721 3592.68 233.721C3680.62 233.721 3758.22 251.7 3830.64 287.658C3900.48 323.616 3957.38 372.414 4003.94 431.487C4050.49 490.559 4084.12 559.907 4104.81 639.53C4125.5 716.58 4130.67 798.768 4120.33 880.955H3295.23V886.093ZM3869.44 724.286C3866.85 685.759 3859.09 647.232 3843.57 613.842C3830.64 577.888 3809.95 547.063 3786.67 521.38C3763.39 495.696 3734.94 472.582 3701.32 457.173C3667.69 441.761 3628.89 431.487 3587.51 431.487C3543.54 431.487 3504.74 439.192 3468.53 454.605C3432.32 470.013 3403.87 490.559 3378 516.242C3352.13 541.93 3331.44 572.751 3318.51 608.709C3302.99 644.663 3295.23 683.19 3292.65 724.286H3869.44Z" fill="black"/>
<path d="M4089.3 267.12H4319.49V482.864H4324.67C4332.43 452.043 4345.36 423.793 4366.04 395.54C4386.73 367.288 4412.6 341.603 4441.08 315.919C4469.52 292.804 4503.14 272.256 4539.37 259.414C4575.56 244.003 4611.75 238.867 4650.56 238.867C4679.04 238.867 4699.72 238.868 4710.04 241.436C4720.41 244.005 4730.73 244.003 4743.67 246.572V482.864C4725.59 480.295 4707.48 477.727 4691.97 475.158C4673.85 472.593 4655.74 472.593 4640.23 472.593C4598.86 472.593 4560.06 480.295 4521.25 498.277C4485.02 513.685 4451.4 539.368 4425.53 570.189C4397.09 603.579 4376.41 642.106 4360.9 688.335C4345.36 734.569 4337.6 791.073 4337.6 852.715V1381.8H4091.88L4089.3 267.12Z" fill="black"/>
<path d="M5656.72 1317.58C5656.72 1484.53 5620.49 1610.38 5524.81 1692.57C5429.09 1774.76 5294.6 1815.85 5116.13 1815.85C5059.21 1815.85 5002.34 1810.72 4945.42 1797.87C4888.5 1787.6 4836.8 1767.05 4790.2 1738.8C4743.65 1710.55 4704.89 1674.59 4671.27 1630.93C4640.22 1587.26 4619.53 1533.33 4614.35 1466.55H4860.06C4867.81 1499.94 4880.75 1528.19 4896.29 1551.31C4914.37 1571.86 4935.05 1589.84 4958.35 1602.68C4981.61 1615.52 5007.48 1623.22 5038.53 1625.79C5066.97 1628.36 5098.02 1630.93 5129.07 1630.93C5227.36 1630.93 5302.35 1607.81 5346.34 1559.01C5392.9 1510.21 5416.15 1440.87 5416.15 1348.41V1178.89H5410.97C5377.35 1240.53 5328.22 1289.33 5268.73 1322.72C5209.24 1356.11 5144.57 1374.09 5074.76 1374.09C4984.22 1374.09 4909.18 1358.68 4847.13 1327.86C4785.07 1297.04 4733.33 1255.94 4691.96 1202C4650.54 1148.07 4622.1 1086.43 4601.41 1017.08C4583.3 947.735 4572.98 870.685 4572.98 791.062C4572.98 716.58 4583.3 644.663 4606.6 577.888C4629.85 511.109 4663.47 452.036 4704.89 400.666C4748.83 349.299 4800.57 308.205 4862.63 279.953C4924.73 249.132 4997.16 233.721 5074.76 233.721C5144.57 233.721 5209.24 249.131 5268.73 277.384C5328.22 305.636 5372.21 351.868 5405.83 416.077H5410.97V264.542H5656.72V1317.58ZM5118.7 1184.03C5173.01 1184.03 5219.57 1173.75 5258.37 1150.64C5297.17 1127.52 5328.22 1099.27 5351.48 1063.31C5374.78 1027.35 5392.9 986.262 5403.22 940.029C5413.58 893.799 5418.76 847.566 5418.76 798.768C5418.76 749.97 5413.58 706.305 5400.65 662.645C5390.28 618.98 5372.21 577.888 5348.91 544.499C5325.65 511.109 5294.6 482.857 5255.8 462.307C5217 441.761 5173.01 431.487 5118.7 431.487C5064.4 431.487 5017.84 441.761 4981.61 464.875C4945.42 487.99 4914.37 516.242 4891.11 554.769C4867.81 590.728 4852.31 631.824 4841.94 678.053C4831.62 724.287 4826.44 770.516 4826.44 816.745C4826.44 862.979 4831.62 906.639 4844.56 950.304C4854.88 993.964 4872.99 1032.49 4896.29 1068.45C4919.55 1101.84 4950.6 1130.09 4986.79 1153.21C5023.02 1176.32 5066.97 1184.03 5118.7 1184.03Z" fill="black"/>
<path d="M5892.09 886.093C5892.09 929.758 5897.27 970.849 5910.21 1009.38C5923.14 1050.47 5941.21 1083.86 5964.51 1114.68C5987.77 1145.5 6018.82 1168.62 6057.62 1186.6C6093.86 1204.57 6140.41 1212.28 6192.11 1212.28C6264.53 1212.28 6321.45 1196.87 6365.44 1166.05C6409.38 1135.23 6443 1089 6463.73 1027.35H6696.51C6683.57 1086.43 6660.27 1140.36 6629.26 1189.16C6598.21 1235.39 6559.41 1276.49 6515.42 1307.31C6471.48 1340.7 6419.74 1363.81 6365.44 1379.23C6311.09 1394.64 6251.6 1404.91 6192.11 1404.91C6104.18 1404.91 6026.57 1389.5 5959.33 1361.25C5892.09 1332.99 5835.17 1291.9 5788.61 1240.53C5742.06 1189.16 5705.87 1127.52 5682.57 1055.61C5659.31 983.693 5646.38 904.074 5646.38 819.318C5646.38 739.695 5659.31 665.213 5685.18 595.865C5711.05 523.948 5747.24 462.311 5793.8 408.373C5840.35 354.436 5897.27 313.342 5964.51 279.953C6031.75 249.132 6106.79 233.721 6189.54 233.721C6277.46 233.721 6355.07 251.7 6427.5 287.658C6497.35 323.616 6554.23 372.414 6600.78 431.487C6647.34 490.559 6680.96 559.907 6701.64 639.53C6722.37 716.58 6727.51 798.768 6717.19 880.955H5892.09V886.093ZM6466.3 724.286C6463.69 685.759 6455.93 647.232 6440.43 613.842C6427.5 577.888 6406.81 547.063 6383.51 521.38C6360.25 495.696 6331.82 472.582 6298.15 457.173C6264.53 441.761 6225.73 431.487 6184.36 431.487C6140.41 431.487 6101.61 439.192 6065.38 454.605C6029.19 470.013 6000.7 490.559 5974.88 516.242C5949.01 541.93 5928.32 572.751 5915.39 608.709C5899.84 644.663 5892.09 683.19 5889.52 724.286H6466.3Z" fill="black"/>
<path d="M1471.73 1854.32H1438.11V1607.75H1471.73V1854.32Z" fill="black"/>
<path d="M1707.12 1805.52V1607.75H1740.75V1854.32H1696.78L1564.87 1651.42V1854.32H1531.24V1607.75H1577.8L1707.12 1805.52Z" fill="black"/>
<path d="M1978.69 1805.52V1607.75H2012.32V1854.32H1968.35L1836.43 1651.42V1854.32H1802.81V1607.75H1849.37L1978.69 1805.52Z" fill="black"/>
<path d="M2325.3 1731.07C2325.3 1749.05 2322.71 1767.03 2314.95 1782.44C2307.19 1797.85 2299.44 1813.26 2286.5 1823.53C2273.57 1833.8 2260.64 1844.08 2245.12 1849.22C2229.6 1854.35 2211.49 1859.49 2193.39 1859.49C2175.28 1859.49 2157.18 1856.92 2141.66 1849.22C2126.14 1844.08 2110.62 1833.8 2100.27 1823.53C2089.93 1813.26 2079.58 1797.85 2071.82 1782.44C2064.06 1767.03 2061.47 1749.05 2061.47 1731.07C2061.47 1710.52 2064.06 1695.11 2071.82 1677.13C2079.58 1661.72 2087.34 1646.31 2100.27 1636.04C2113.21 1625.76 2126.14 1615.49 2141.66 1610.36C2157.18 1605.22 2175.28 1600.08 2193.39 1600.08C2211.49 1600.08 2229.6 1602.65 2245.12 1610.36C2260.64 1615.49 2276.15 1625.76 2286.5 1636.04C2299.44 1646.31 2307.19 1661.72 2314.95 1677.13C2322.71 1695.11 2325.3 1713.09 2325.3 1731.07ZM2289.09 1731.07C2289.09 1718.23 2286.5 1705.39 2281.33 1692.54C2276.15 1679.7 2270.98 1669.43 2263.22 1661.72C2255.46 1654.02 2245.12 1646.31 2234.77 1641.18C2224.42 1636.04 2208.91 1633.47 2195.97 1633.47C2180.46 1633.47 2167.52 1636.04 2157.17 1641.18C2146.83 1646.31 2136.48 1654.02 2128.72 1661.72C2120.97 1672 2113.21 1682.27 2110.62 1692.54C2105.45 1705.39 2102.86 1718.23 2102.86 1731.07C2102.86 1743.91 2105.45 1756.75 2110.62 1769.6C2115.79 1782.44 2120.97 1792.71 2128.72 1800.41C2136.48 1808.12 2146.83 1815.83 2157.17 1820.96C2167.52 1826.1 2180.46 1828.67 2195.97 1828.67C2211.49 1828.67 2224.42 1826.1 2234.77 1820.96C2247.7 1815.83 2255.46 1808.12 2265.81 1800.41C2276.15 1792.71 2281.33 1779.87 2283.91 1769.6C2286.5 1759.32 2289.09 1746.48 2289.09 1731.07Z" fill="black"/>
<path d="M2374.44 1607.75H2449.45C2462.38 1607.75 2475.32 1610.32 2485.66 1612.89C2496.01 1615.46 2506.35 1620.6 2514.11 1625.73C2521.87 1630.87 2527.05 1638.57 2532.22 1646.28C2537.39 1653.99 2537.39 1664.26 2537.39 1677.1C2537.39 1689.94 2534.81 1700.21 2529.63 1707.92C2524.46 1715.63 2519.28 1723.33 2511.53 1728.47C2503.77 1733.6 2493.42 1738.74 2483.07 1741.31C2472.73 1743.88 2459.8 1746.45 2446.87 1746.45H2408.07V1854.32H2374.44V1607.75ZM2408.07 1718.2H2444.28C2452.03 1718.2 2459.8 1718.2 2467.56 1715.63C2475.32 1713.06 2480.49 1713.06 2485.66 1707.92C2490.83 1702.78 2496.01 1700.21 2498.59 1695.08C2501.18 1689.94 2503.77 1684.81 2503.77 1677.1C2503.77 1669.39 2501.18 1664.26 2498.59 1659.12C2496.01 1653.99 2490.83 1648.85 2485.66 1646.28C2480.49 1643.71 2475.32 1641.14 2467.56 1638.57C2459.8 1638.57 2452.03 1636.01 2444.28 1636.01H2405.48L2408.07 1718.2Z" fill="black"/>
<path d="M2834.83 1731.07C2834.83 1749.05 2832.25 1767.03 2824.49 1782.44C2816.73 1797.85 2808.97 1813.26 2796.04 1823.53C2783.1 1833.8 2770.17 1844.08 2754.65 1849.22C2739.13 1854.35 2721.03 1859.49 2702.92 1859.49C2684.82 1859.49 2666.71 1856.92 2651.19 1849.22C2635.67 1844.08 2620.15 1833.8 2609.81 1823.53C2599.46 1813.26 2589.12 1797.85 2581.36 1782.44C2573.6 1767.03 2571.01 1749.05 2571.01 1731.07C2571.01 1710.52 2573.6 1695.11 2581.36 1677.13C2589.12 1661.72 2596.88 1646.31 2609.81 1636.04C2622.74 1625.76 2635.67 1615.49 2651.19 1610.36C2666.71 1605.22 2684.82 1600.08 2702.92 1600.08C2721.03 1600.08 2739.13 1602.65 2754.65 1610.36C2770.17 1615.49 2785.69 1625.76 2796.04 1636.04C2808.97 1646.31 2816.73 1661.72 2824.49 1677.13C2829.66 1695.11 2834.83 1713.09 2834.83 1731.07ZM2796.04 1731.07C2796.04 1718.23 2793.45 1705.39 2788.28 1692.54C2783.1 1679.7 2777.93 1669.43 2770.17 1661.72C2762.41 1654.02 2752.07 1646.31 2741.72 1641.18C2731.37 1636.04 2715.85 1633.47 2702.92 1633.47C2687.4 1633.47 2674.47 1636.04 2664.13 1641.18C2653.78 1646.31 2643.44 1654.02 2635.67 1661.72C2627.91 1672 2620.15 1682.27 2617.57 1692.54C2612.4 1705.39 2609.81 1718.23 2609.81 1731.07C2609.81 1743.91 2612.4 1756.75 2617.57 1769.6C2622.74 1782.44 2627.91 1792.71 2635.67 1800.41C2643.44 1808.12 2653.78 1815.83 2664.13 1820.96C2674.47 1826.1 2687.4 1828.67 2702.92 1828.67C2718.44 1828.67 2731.37 1826.1 2741.72 1820.96C2754.65 1815.83 2762.41 1808.12 2772.76 1800.41C2783.1 1792.71 2788.28 1779.87 2790.87 1769.6C2793.45 1759.32 2796.04 1746.48 2796.04 1731.07Z" fill="black"/>
<path d="M2915.04 1826.13H3026.26V1856.95H2881.42V1610.39H2915.04V1826.13Z" fill="black"/>
<path d="M3096.08 1854.32H3062.46V1607.75H3096.08V1854.32Z" fill="black"/>
<path d="M3279.73 1653.98C3274.55 1646.27 3269.38 1641.13 3259.03 1638.57C3251.28 1633.43 3240.93 1630.86 3230.58 1630.86C3225.41 1630.86 3220.24 1630.86 3212.48 1633.43C3207.3 1636 3202.14 1638.57 3196.96 1641.14C3191.79 1643.71 3189.2 1648.84 3186.61 1653.98C3184.03 1659.11 3181.44 1664.25 3181.44 1671.95C3181.44 1679.66 3184.03 1684.8 3186.61 1689.93C3189.2 1695.07 3191.79 1697.64 3196.96 1700.21C3202.14 1702.77 3207.3 1705.34 3212.48 1707.91C3217.65 1710.48 3225.41 1713.05 3233.17 1715.62C3240.93 1718.19 3251.28 1720.76 3259.03 1723.32C3266.79 1725.89 3274.55 1731.03 3282.32 1736.16C3290.07 1741.3 3295.25 1749.01 3300.42 1756.71C3305.59 1764.42 3308.18 1774.69 3308.18 1787.53C3308.18 1800.37 3305.59 1810.65 3300.42 1820.92C3295.25 1831.2 3290.07 1838.9 3282.32 1844.04C3274.55 1849.17 3264.21 1854.31 3253.86 1856.88C3243.52 1859.45 3233.17 1862.02 3222.83 1862.02C3207.3 1862.02 3191.79 1859.45 3176.27 1851.74C3160.75 1846.6 3150.4 1836.33 3140.06 1826.06L3165.92 1802.94C3171.09 1810.65 3178.85 1818.36 3189.2 1823.49C3199.55 1828.63 3209.89 1831.2 3220.24 1831.2C3225.41 1831.2 3233.17 1831.2 3238.34 1828.63C3243.52 1826.06 3248.69 1823.49 3253.86 1820.92C3259.04 1818.36 3261.62 1813.22 3266.79 1808.08C3269.38 1802.94 3271.97 1795.24 3271.97 1790.1C3271.97 1784.97 3269.38 1777.26 3266.79 1772.12C3264.21 1766.98 3259.04 1761.85 3253.86 1759.28C3248.69 1756.71 3240.93 1751.58 3235.76 1751.58C3230.59 1751.58 3220.24 1746.44 3212.48 1743.87C3204.72 1741.3 3196.96 1738.73 3189.2 1736.16C3181.44 1733.6 3173.68 1728.46 3168.51 1723.32C3163.34 1718.19 3158.16 1710.48 3152.99 1702.77C3150.4 1695.07 3147.81 1684.8 3147.81 1674.52C3147.81 1661.68 3150.4 1651.41 3155.58 1643.7C3160.75 1636 3165.92 1628.29 3176.27 1620.59C3186.61 1612.88 3194.37 1610.31 3204.72 1607.74C3215.07 1605.18 3225.41 1602.61 3235.76 1602.61C3251.28 1602.61 3264.21 1605.18 3277.14 1610.32C3290.07 1615.45 3300.42 1623.16 3308.18 1630.86L3279.73 1653.98Z" fill="black"/>
<path d="M1601.06 2252.5H1438.11V2221.68L1536.4 2124.08C1544.16 2116.37 1549.33 2108.67 1554.5 2100.96C1559.67 2093.26 1562.26 2082.98 1562.26 2072.71C1562.26 2065.01 1562.26 2059.87 1559.67 2054.73C1557.09 2049.59 1554.5 2044.46 1549.33 2041.89C1544.16 2039.32 1541.57 2034.19 1536.4 2034.19C1531.22 2031.62 1526.05 2031.62 1518.29 2031.62C1505.36 2031.62 1495.01 2036.75 1487.25 2044.46C1479.49 2052.16 1474.32 2062.44 1471.73 2075.28L1438.11 2070.14C1440.69 2059.87 1443.28 2052.16 1445.87 2044.46C1451.04 2036.75 1456.22 2029.05 1463.97 2023.91C1471.73 2018.77 1479.49 2013.64 1487.25 2011.07C1497.6 2008.5 1505.36 2005.93 1515.71 2005.93C1526.05 2005.93 1536.4 2008.5 1544.15 2011.07C1554.5 2013.64 1562.26 2018.77 1570.02 2023.91C1577.78 2029.05 1582.95 2036.75 1588.12 2047.03C1593.3 2054.73 1595.89 2065.01 1595.89 2077.85C1595.89 2085.55 1595.89 2093.26 1593.3 2100.96C1590.71 2108.67 1588.12 2113.8 1585.54 2118.94C1582.95 2124.08 1577.78 2131.79 1572.61 2136.92C1567.43 2142.06 1562.26 2147.19 1557.09 2152.33L1476.91 2229.38H1598.47L1601.06 2252.5Z" fill="black"/>
<path d="M1719.73 2001.87C1735.25 2001.87 1748.18 2004.44 1758.53 2012.15C1768.87 2019.85 1779.22 2027.56 1784.4 2040.4C1792.16 2053.24 1797.33 2066.08 1799.91 2081.49C1802.5 2096.9 1805.09 2114.88 1805.09 2132.86C1805.09 2150.84 1802.5 2168.82 1799.91 2184.23C1797.33 2199.64 1792.16 2212.48 1784.4 2225.32C1776.63 2238.16 1768.87 2245.87 1758.53 2253.58C1748.18 2261.28 1735.25 2263.85 1719.73 2263.85C1704.22 2263.85 1691.28 2261.28 1680.93 2253.58C1670.59 2245.87 1660.24 2238.16 1655.07 2225.32C1647.31 2212.48 1642.14 2199.64 1639.55 2184.23C1636.97 2168.82 1634.38 2150.84 1634.38 2132.86C1634.38 2114.88 1636.97 2096.9 1639.55 2081.49C1642.14 2066.08 1647.31 2050.68 1655.07 2040.4C1662.83 2027.56 1670.59 2019.85 1680.93 2012.15C1691.28 2004.44 1704.22 2001.87 1719.73 2001.87ZM1719.73 2030.13C1709.39 2030.13 1701.63 2032.69 1693.87 2040.4C1686.11 2048.11 1680.93 2055.81 1678.35 2066.08C1675.76 2076.36 1673.17 2086.63 1670.59 2099.47C1668 2112.31 1668 2122.59 1668 2132.86C1668 2143.13 1668 2153.41 1670.59 2166.25C1673.17 2179.09 1675.76 2189.37 1678.35 2199.64C1680.93 2209.91 1686.11 2217.62 1693.87 2225.32C1701.63 2233.03 1709.39 2235.6 1719.73 2235.6C1730.08 2235.6 1737.84 2233.03 1745.6 2225.32C1750.77 2217.62 1755.94 2209.91 1761.11 2199.64C1763.7 2189.37 1766.29 2179.09 1768.88 2166.25C1771.46 2153.41 1771.46 2143.13 1771.46 2132.86C1771.46 2122.59 1771.46 2112.31 1768.88 2099.47C1766.29 2086.63 1763.7 2076.36 1761.11 2066.08C1758.53 2055.81 1753.36 2048.11 1745.6 2040.4C1737.84 2032.69 1730.08 2030.13 1719.73 2030.13Z" fill="black"/>
<path d="M2000.42 2252.5H1837.47V2221.68L1935.75 2124.08C1943.51 2116.37 1948.69 2108.67 1953.86 2100.96C1959.03 2093.26 1961.62 2082.98 1961.62 2072.71C1961.62 2065.01 1961.62 2059.87 1959.04 2054.73C1956.45 2049.59 1953.86 2044.46 1948.69 2041.89C1943.51 2039.32 1940.93 2034.19 1935.75 2034.19C1930.58 2031.62 1925.41 2031.62 1917.65 2031.62C1904.72 2031.62 1894.37 2036.75 1886.61 2044.46C1878.85 2052.16 1873.68 2062.44 1871.09 2075.28L1837.47 2070.14C1840.06 2059.87 1842.64 2052.16 1845.23 2044.46C1850.4 2036.75 1855.57 2029.05 1863.33 2023.91C1871.09 2018.77 1878.85 2013.64 1886.61 2011.07C1896.96 2008.5 1904.71 2005.93 1915.06 2005.93C1925.41 2005.93 1935.76 2008.5 1943.51 2011.07C1953.86 2013.64 1961.62 2018.77 1969.38 2023.91C1977.14 2029.05 1982.31 2036.75 1987.49 2047.03C1992.66 2054.73 1995.25 2065.01 1995.25 2077.85C1995.25 2085.55 1995.24 2093.26 1992.66 2100.96C1990.07 2108.67 1987.49 2113.8 1984.9 2118.94C1982.31 2124.08 1977.14 2131.79 1971.97 2136.92C1966.79 2142.06 1961.62 2147.19 1956.45 2152.33L1876.26 2229.38H1997.83L2000.42 2252.5Z" fill="black"/>
<path d="M2193.83 2252.5H2030.89V2221.68L2129.17 2124.08C2136.93 2116.37 2142.11 2108.67 2147.28 2100.96C2152.45 2093.26 2155.04 2082.98 2155.04 2072.71C2155.04 2065.01 2155.04 2059.87 2152.45 2054.73C2149.87 2049.59 2147.28 2044.46 2142.11 2041.89C2136.93 2039.32 2134.34 2034.19 2129.17 2034.19C2124 2031.62 2118.83 2031.62 2111.07 2031.62C2098.14 2031.62 2087.79 2036.75 2080.03 2044.46C2072.27 2052.16 2067.09 2062.44 2064.51 2075.28L2030.89 2070.14C2033.47 2059.87 2036.06 2052.16 2038.64 2044.46C2043.82 2036.75 2048.99 2029.05 2056.75 2023.91C2064.51 2018.77 2072.27 2013.64 2080.03 2011.07C2090.38 2008.5 2098.13 2005.93 2108.48 2005.93C2118.83 2005.93 2129.18 2008.5 2136.93 2011.07C2147.28 2013.64 2155.04 2018.77 2162.8 2023.91C2170.56 2029.05 2175.73 2036.75 2180.9 2047.03C2186.07 2054.73 2188.67 2065.01 2188.67 2077.85C2188.67 2085.55 2188.66 2093.26 2186.08 2100.96C2183.49 2108.67 2180.9 2113.8 2178.32 2118.94C2175.73 2124.08 2170.56 2131.79 2165.38 2136.92C2160.21 2142.06 2155.04 2147.19 2149.87 2152.33L2069.68 2229.38H2191.25L2193.83 2252.5Z" fill="black"/>
</svg>
