<svg width="924" height="351" viewBox="0 0 924 351" fill="none" xmlns="http://www.w3.org/2000/svg">
<path d="M3.9375 198.461L7.10156 199.164C7.57031 206.898 8.10938 219.766 8.71875 237.766C17.8594 221.5 24.1406 208.422 27.5625 198.531C28.2656 197.969 28.9453 197.688 29.6016 197.688C30.6328 197.688 31.4766 198.297 32.1328 199.516C32.8359 200.734 33.2109 202.117 33.2578 203.664C33.3984 208.023 33.5156 215.383 33.6094 225.742C33.75 236.102 33.9375 243.836 34.1719 248.945C33.75 250.352 32.9531 251.055 31.7812 251.055C30.9375 251.055 30.1172 250.703 29.3203 250C28.5234 249.344 28.0312 248.523 27.8438 247.539C27.9844 243.461 28.0547 237.203 28.0547 228.766C28.1016 220.328 28.1484 214.633 28.1953 211.68C27.1641 213.461 25.3594 216.836 22.7812 221.805C20.2031 226.773 17.8125 231.039 15.6094 234.602C13.4531 238.164 11.2266 241.258 8.92969 243.883L9.21094 249.578C8.78906 251.031 7.96875 251.758 6.75 251.758C5.90625 251.758 5.08594 251.406 4.28906 250.703C3.53906 250 3.07031 249.156 2.88281 248.172C3.02344 244.188 3.16406 236.383 3.30469 224.758C3.44531 213.133 3.65625 204.367 3.9375 198.461ZM63.6328 215.125L63.2812 218.148C61.3125 217.867 59.625 217.727 58.2188 217.727C54.9844 217.727 52.3125 218.711 50.2031 220.68C48.0938 222.602 46.6406 224.898 45.8438 227.57C45.0938 230.195 44.7188 233.125 44.7188 236.359C44.7188 237.859 44.8125 239.195 45 240.367C45.1875 241.539 45.5156 242.688 45.9844 243.812C46.5 244.938 47.2734 245.828 48.3047 246.484C49.3828 247.094 50.6953 247.398 52.2422 247.398C54.3047 247.398 56.9297 247 60.1172 246.203C61.1016 245.828 61.875 245.641 62.4375 245.641C63.5625 245.641 64.2422 246.953 64.4766 249.578C60.3516 250.891 56.5312 251.547 53.0156 251.547C47.9062 251.547 44.4375 250.305 42.6094 247.82C40.8281 245.289 39.9375 241.211 39.9375 235.586C39.9375 232.305 40.1484 229.445 40.5703 227.008C41.0391 224.523 41.8359 222.227 42.9609 220.117C44.0859 217.961 45.7031 216.32 47.8125 215.195C49.9688 214.07 52.5938 213.508 55.6875 213.508C59.1562 213.508 61.8047 214.047 63.6328 215.125ZM68.5547 214.844L92.25 215.055L93.8672 249.156C93.4453 250.562 92.625 251.266 91.4062 251.266C90.5625 251.266 89.7422 250.914 88.9453 250.211C88.1484 249.555 87.6562 248.734 87.4688 247.75C87.5156 246.906 87.5859 244.258 87.6797 239.805C87.8203 235.305 87.9609 231.016 88.1016 226.938C88.2422 222.812 88.3359 220.141 88.3828 218.922C87.0703 218.828 85.125 218.781 82.5469 218.781C79.0312 218.781 76.1016 218.641 73.7578 218.359C73.8984 219.906 74.0156 224.898 74.1094 233.336C74.2031 241.727 74.2969 246.602 74.3906 247.961C73.9688 249.414 73.1484 250.141 71.9297 250.141C71.0859 250.141 70.2656 249.812 69.4688 249.156C68.7188 248.453 68.25 247.609 68.0625 246.625C68.2031 244.281 68.2734 241.938 68.2734 239.594C68.2734 238.375 68.25 236.359 68.2031 233.547C68.1562 230.734 68.1328 228.508 68.1328 226.867C68.1328 222.039 68.2734 218.031 68.5547 214.844ZM100.406 213.016L104.344 213.719C104.344 214.703 104.367 215.43 104.414 215.898C106.992 214.258 109.594 213.438 112.219 213.438C116.484 213.438 119.812 215.266 122.203 218.922C124.594 222.578 125.789 226.727 125.789 231.367C125.789 233.711 125.602 235.961 125.227 238.117C124.898 240.227 124.289 242.406 123.398 244.656C122.508 246.859 121.125 248.641 119.25 250C117.422 251.312 115.195 251.969 112.57 251.969C110.086 251.969 107.695 251.312 105.398 250C105.586 258.203 105.75 264.297 105.891 268.281C105.469 269.734 104.648 270.461 103.43 270.461C102.586 270.461 101.766 270.109 100.969 269.406C100.219 268.75 99.75 267.93 99.5625 266.945L100.406 213.016ZM104.977 220.469L105.188 243.18C105.75 244.305 106.617 245.219 107.789 245.922C108.961 246.578 110.25 246.906 111.656 246.906C113.484 246.906 115.031 246.32 116.297 245.148C117.609 243.977 118.523 242.43 119.039 240.508C119.602 238.539 119.977 236.711 120.164 235.023C120.398 233.336 120.516 231.555 120.516 229.68C120.516 221.711 117.82 217.727 112.43 217.727C110.695 217.727 109.078 217.984 107.578 218.5C106.125 218.969 105.258 219.625 104.977 220.469ZM134.016 219.625L132.609 216.039C133.828 214.82 135.375 213.859 137.25 213.156C139.125 212.406 140.977 212.031 142.805 212.031C150.727 212.031 154.688 218.875 154.688 232.562C154.688 234.438 154.57 237.203 154.336 240.859C154.148 244.516 154.055 247.258 154.055 249.086C153.68 250.539 152.953 251.266 151.875 251.266C151.031 251.266 150.258 250.844 149.555 250C148.852 249.156 148.5 248.219 148.5 247.188C148.5 246.859 148.523 246.625 148.57 246.484C145.664 249.297 142.57 250.703 139.289 250.703C136.805 250.703 134.625 249.812 132.75 248.031C130.922 246.203 130.008 244 130.008 241.422C130.008 237.062 131.695 233.125 135.07 229.609C138.492 226.094 142.359 224.336 146.672 224.336C146.859 224.336 147.047 224.359 147.234 224.406C147.422 224.406 147.633 224.43 147.867 224.477C148.148 224.523 148.359 224.547 148.5 224.547C148.125 219.062 145.945 216.32 141.961 216.32C139.617 216.32 136.969 217.422 134.016 219.625ZM148.711 241.633C148.805 238.352 148.852 235.867 148.852 234.18C148.852 232.773 148.805 230.805 148.711 228.273H148.148C144.82 228.32 141.773 229.562 139.008 232C136.289 234.438 134.93 237.391 134.93 240.859C134.93 242.359 135.375 243.555 136.266 244.445C137.203 245.336 138.328 245.781 139.641 245.781C141.703 245.781 144.727 244.398 148.711 241.633ZM161.93 213.93C169.195 212.383 173.625 211.609 175.219 211.609C181.5 211.609 184.641 214.305 184.641 219.695C184.641 221.57 184.312 223.398 183.656 225.18C183.047 226.914 182.273 228.062 181.336 228.625C184.992 231.109 186.82 234.531 186.82 238.891C186.82 243.016 185.461 246.227 182.742 248.523C180.07 250.82 176.531 251.969 172.125 251.969C166.875 251.969 162.961 250.562 160.383 247.75L161.93 213.93ZM165.938 231.578L166.57 245.852C167.742 246.414 169.078 246.695 170.578 246.695C173.484 246.695 176.156 245.781 178.594 243.953C181.031 242.125 182.25 239.992 182.25 237.555C182.25 235.867 181.594 234.32 180.281 232.914C178.969 231.461 177.305 230.734 175.289 230.734C174.117 230.734 171 231.016 165.938 231.578ZM165.234 217.094L165.727 227.922C166.43 227.828 167.508 227.758 168.961 227.711C170.414 227.664 171.586 227.57 172.477 227.43C173.367 227.242 174.352 226.891 175.43 226.375C176.508 225.812 177.352 224.852 177.961 223.492C178.617 222.133 179.062 220.352 179.297 218.148C178.828 216.742 177.398 216.039 175.008 216.039C173.93 216.039 172.242 216.203 169.945 216.531C167.648 216.859 166.078 217.047 165.234 217.094ZM184.992 256.328L183.867 253.305C185.414 252.695 186.82 251.734 188.086 250.422C189.305 249.109 190.312 247.75 191.109 246.344C191.906 244.891 192.586 243.086 193.148 240.93C193.711 238.773 194.109 236.898 194.344 235.305C194.625 233.664 194.836 231.648 194.977 229.258C195.117 226.867 195.188 225.086 195.188 223.914C195.234 222.695 195.258 221.078 195.258 219.062C195.258 216.203 195.516 214.492 196.031 213.93C196.688 213.227 200.32 212.875 206.93 212.875C212.133 212.875 215.086 212.852 215.789 212.805C215.883 231.836 216.117 244.188 216.492 249.859C216.023 251.266 215.203 251.969 214.031 251.969C213.234 251.969 212.461 251.641 211.711 250.984C210.961 250.328 210.492 249.531 210.305 248.594C210.258 246.766 210.234 244.047 210.234 240.438C210.234 238.656 210.234 235.961 210.234 232.352C210.281 228.742 210.305 226.023 210.305 224.195C210.305 220.82 210.281 218.289 210.234 216.602C208.266 216.93 206.32 217.117 204.398 217.164C202.477 217.211 201.117 217.281 200.32 217.375C200.18 218.922 200.062 221.219 199.969 224.266C199.875 227.312 199.781 230.008 199.688 232.352C199.641 234.648 199.359 237.273 198.844 240.227C198.328 243.133 197.578 245.617 196.594 247.68C195.656 249.695 194.18 251.5 192.164 253.094C190.195 254.734 187.805 255.812 184.992 256.328ZM250.523 243.18L251.227 246.273C249.164 247.023 246.094 247.867 242.016 248.805C237.984 249.695 234.984 250.141 233.016 250.141C231 250.141 229.242 249.484 227.742 248.172C226.242 246.812 225.117 245.102 224.367 243.039C223.617 240.93 223.055 238.867 222.68 236.852C222.352 234.789 222.188 232.773 222.188 230.805C222.188 219.086 227.484 213.227 238.078 213.227C240.609 213.227 242.836 214.047 244.758 215.688C246.68 217.281 247.641 219.367 247.641 221.945C247.641 223.352 247.242 224.594 246.445 225.672C245.695 226.75 244.758 227.617 243.633 228.273C242.555 228.883 241.148 229.445 239.414 229.961C237.727 230.477 236.227 230.852 234.914 231.086C233.602 231.32 232.031 231.578 230.203 231.859C228.375 232.141 227.109 232.352 226.406 232.492C226.453 233.852 226.523 235.047 226.617 236.078C226.758 237.109 226.992 238.234 227.32 239.453C227.695 240.625 228.164 241.609 228.727 242.406C229.336 243.156 230.156 243.789 231.188 244.305C232.219 244.82 233.438 245.078 234.844 245.078C236.531 245.078 238.594 244.938 241.031 244.656C243.469 244.328 245.625 244 247.5 243.672C249.422 243.344 250.43 243.18 250.523 243.18ZM226.688 228.133C233.062 226.305 238.289 224.383 242.367 222.367C242.039 220.82 241.594 219.695 241.031 218.992C240.469 218.289 239.625 217.938 238.5 217.938C235.641 217.938 233.039 218.922 230.695 220.891C228.398 222.859 227.062 225.273 226.688 228.133ZM275.062 214.352L278.227 215.055L279.844 249.156C279.422 250.562 278.602 251.266 277.383 251.266C276.539 251.266 275.719 250.914 274.922 250.211C274.125 249.555 273.633 248.734 273.445 247.75C273.445 247.609 273.656 243.648 274.078 235.867V235.305C272.766 235.211 270.82 235.164 268.242 235.164C264.352 235.164 261.422 235.047 259.453 234.812C259.688 237.531 259.992 241.914 260.367 247.961C259.945 249.414 259.125 250.141 257.906 250.141C257.062 250.141 256.242 249.812 255.445 249.156C254.695 248.453 254.227 247.609 254.039 246.625C254.18 244.281 254.25 241.938 254.25 239.594C254.25 238.094 254.227 235.844 254.18 232.844C254.133 229.844 254.109 227.617 254.109 226.164C254.109 221.664 254.25 217.891 254.531 214.844L257.695 215.617C258.633 225.789 259.125 231.016 259.172 231.297C267.188 231.719 271.312 231.93 271.547 231.93C273.469 231.93 274.43 231.812 274.43 231.578C274.43 230.641 274.523 227.664 274.711 222.648C274.898 217.633 275.016 214.867 275.062 214.352ZM306.562 214.352L309.727 215.055L311.344 249.156C310.922 250.562 310.102 251.266 308.883 251.266C308.039 251.266 307.219 250.914 306.422 250.211C305.625 249.555 305.133 248.734 304.945 247.75C304.945 247.609 305.156 243.648 305.578 235.867V235.305C304.266 235.211 302.32 235.164 299.742 235.164C295.852 235.164 292.922 235.047 290.953 234.812C291.188 237.531 291.492 241.914 291.867 247.961C291.445 249.414 290.625 250.141 289.406 250.141C288.562 250.141 287.742 249.812 286.945 249.156C286.195 248.453 285.727 247.609 285.539 246.625C285.68 244.281 285.75 241.938 285.75 239.594C285.75 238.094 285.727 235.844 285.68 232.844C285.633 229.844 285.609 227.617 285.609 226.164C285.609 221.664 285.75 217.891 286.031 214.844L289.195 215.617C290.133 225.789 290.625 231.016 290.672 231.297C298.688 231.719 302.812 231.93 303.047 231.93C304.969 231.93 305.93 231.812 305.93 231.578C305.93 230.641 306.023 227.664 306.211 222.648C306.398 217.633 306.516 214.867 306.562 214.352ZM317.039 235.023C317.039 233.148 317.227 231.062 317.602 228.766C318.023 226.469 318.633 224.055 319.43 221.523C320.227 218.992 321.422 216.883 323.016 215.195C324.609 213.508 326.461 212.664 328.57 212.664C333.07 212.664 336.68 214.703 339.398 218.781C342.117 222.812 343.477 227.312 343.477 232.281C343.477 234.391 343.242 236.5 342.773 238.609C342.352 240.672 341.672 242.711 340.734 244.727C339.797 246.742 338.438 248.43 336.656 249.789C334.922 251.102 332.883 251.852 330.539 252.039C326.227 251.477 322.898 249.648 320.555 246.555C318.211 243.414 317.039 239.57 317.039 235.023ZM328.992 216.32C327.352 216.508 325.969 218.008 324.844 220.82C323.719 223.633 322.992 226.375 322.664 229.047C322.336 231.672 322.172 233.992 322.172 236.008C322.172 238.633 322.969 241.07 324.562 243.32C326.203 245.523 328.031 246.625 330.047 246.625C331.5 246.625 332.812 246.062 333.984 244.938C335.156 243.812 336.07 242.43 336.727 240.789C337.43 239.102 337.945 237.414 338.273 235.727C338.648 234.039 338.836 232.539 338.836 231.227C338.836 227.383 337.969 224.031 336.234 221.172C334.5 218.312 332.086 216.695 328.992 216.32ZM377.508 243.18L378.211 246.273C376.148 247.023 373.078 247.867 369 248.805C364.969 249.695 361.969 250.141 360 250.141C357.984 250.141 356.227 249.484 354.727 248.172C353.227 246.812 352.102 245.102 351.352 243.039C350.602 240.93 350.039 238.867 349.664 236.852C349.336 234.789 349.172 232.773 349.172 230.805C349.172 219.086 354.469 213.227 365.062 213.227C367.594 213.227 369.82 214.047 371.742 215.688C373.664 217.281 374.625 219.367 374.625 221.945C374.625 223.352 374.227 224.594 373.43 225.672C372.68 226.75 371.742 227.617 370.617 228.273C369.539 228.883 368.133 229.445 366.398 229.961C364.711 230.477 363.211 230.852 361.898 231.086C360.586 231.32 359.016 231.578 357.188 231.859C355.359 232.141 354.094 232.352 353.391 232.492C353.438 233.852 353.508 235.047 353.602 236.078C353.742 237.109 353.977 238.234 354.305 239.453C354.68 240.625 355.148 241.609 355.711 242.406C356.32 243.156 357.141 243.789 358.172 244.305C359.203 244.82 360.422 245.078 361.828 245.078C363.516 245.078 365.578 244.938 368.016 244.656C370.453 244.328 372.609 244 374.484 243.672C376.406 243.344 377.414 243.18 377.508 243.18ZM353.672 228.133C360.047 226.305 365.273 224.383 369.352 222.367C369.023 220.82 368.578 219.695 368.016 218.992C367.453 218.289 366.609 217.938 365.484 217.938C362.625 217.938 360.023 218.922 357.68 220.891C355.383 222.859 354.047 225.273 353.672 228.133ZM401.625 214.844L425.32 215.055L426.938 249.156C426.516 250.562 425.695 251.266 424.477 251.266C423.633 251.266 422.812 250.914 422.016 250.211C421.219 249.555 420.727 248.734 420.539 247.75C420.586 246.906 420.656 244.258 420.75 239.805C420.891 235.305 421.031 231.016 421.172 226.938C421.312 222.812 421.406 220.141 421.453 218.922C420.141 218.828 418.195 218.781 415.617 218.781C412.102 218.781 409.172 218.641 406.828 218.359C406.969 219.906 407.086 224.898 407.18 233.336C407.273 241.727 407.367 246.602 407.461 247.961C407.039 249.414 406.219 250.141 405 250.141C404.156 250.141 403.336 249.812 402.539 249.156C401.789 248.453 401.32 247.609 401.133 246.625C401.273 244.281 401.344 241.938 401.344 239.594C401.344 238.375 401.32 236.359 401.273 233.547C401.227 230.734 401.203 228.508 401.203 226.867C401.203 222.039 401.344 218.031 401.625 214.844ZM433.477 213.016L437.414 213.719C437.414 214.703 437.438 215.43 437.484 215.898C440.062 214.258 442.664 213.438 445.289 213.438C449.555 213.438 452.883 215.266 455.273 218.922C457.664 222.578 458.859 226.727 458.859 231.367C458.859 233.711 458.672 235.961 458.297 238.117C457.969 240.227 457.359 242.406 456.469 244.656C455.578 246.859 454.195 248.641 452.32 250C450.492 251.312 448.266 251.969 445.641 251.969C443.156 251.969 440.766 251.312 438.469 250C438.656 258.203 438.82 264.297 438.961 268.281C438.539 269.734 437.719 270.461 436.5 270.461C435.656 270.461 434.836 270.109 434.039 269.406C433.289 268.75 432.82 267.93 432.633 266.945L433.477 213.016ZM438.047 220.469L438.258 243.18C438.82 244.305 439.688 245.219 440.859 245.922C442.031 246.578 443.32 246.906 444.727 246.906C446.555 246.906 448.102 246.32 449.367 245.148C450.68 243.977 451.594 242.43 452.109 240.508C452.672 238.539 453.047 236.711 453.234 235.023C453.469 233.336 453.586 231.555 453.586 229.68C453.586 221.711 450.891 217.727 445.5 217.727C443.766 217.727 442.148 217.984 440.648 218.5C439.195 218.969 438.328 219.625 438.047 220.469ZM470.742 244.164C470.742 244.961 470.789 246.016 470.883 247.328C470.461 248.781 469.641 249.508 468.422 249.508C467.578 249.508 466.758 249.18 465.961 248.523C465.211 247.82 464.742 246.977 464.555 245.992C464.695 242.195 464.859 236.641 465.047 229.328C465.281 222.016 465.445 217.07 465.539 214.492L468.773 213.93C469.336 216.93 469.688 220.914 469.828 225.883C469.969 230.852 470.156 234.555 470.391 236.992C471.281 235.68 473.812 232.258 477.984 226.727C482.156 221.195 484.992 217.07 486.492 214.352C487.523 214.164 488.18 214.07 488.461 214.07C489.352 214.07 489.961 214.469 490.289 215.266C490.664 216.062 490.898 217.562 490.992 219.766L492.328 248.734C491.906 250.141 491.086 250.844 489.867 250.844C489.023 250.844 488.203 250.516 487.406 249.859C486.656 249.156 486.188 248.312 486 247.328C486.047 245.781 486.164 242.008 486.352 236.008C486.586 229.961 486.773 225.672 486.914 223.141C478.898 232.281 473.508 239.289 470.742 244.164ZM490.57 256.328L489.445 253.305C490.992 252.695 492.398 251.734 493.664 250.422C494.883 249.109 495.891 247.75 496.688 246.344C497.484 244.891 498.164 243.086 498.727 240.93C499.289 238.773 499.688 236.898 499.922 235.305C500.203 233.664 500.414 231.648 500.555 229.258C500.695 226.867 500.766 225.086 500.766 223.914C500.812 222.695 500.836 221.078 500.836 219.062C500.836 216.203 501.094 214.492 501.609 213.93C502.266 213.227 505.898 212.875 512.508 212.875C517.711 212.875 520.664 212.852 521.367 212.805C521.461 231.836 521.695 244.188 522.07 249.859C521.602 251.266 520.781 251.969 519.609 251.969C518.812 251.969 518.039 251.641 517.289 250.984C516.539 250.328 516.07 249.531 515.883 248.594C515.836 246.766 515.812 244.047 515.812 240.438C515.812 238.656 515.812 235.961 515.812 232.352C515.859 228.742 515.883 226.023 515.883 224.195C515.883 220.82 515.859 218.289 515.812 216.602C513.844 216.93 511.898 217.117 509.977 217.164C508.055 217.211 506.695 217.281 505.898 217.375C505.758 218.922 505.641 221.219 505.547 224.266C505.453 227.312 505.359 230.008 505.266 232.352C505.219 234.648 504.938 237.273 504.422 240.227C503.906 243.133 503.156 245.617 502.172 247.68C501.234 249.695 499.758 251.5 497.742 253.094C495.773 254.734 493.383 255.812 490.57 256.328ZM527.766 235.023C527.766 233.148 527.953 231.062 528.328 228.766C528.75 226.469 529.359 224.055 530.156 221.523C530.953 218.992 532.148 216.883 533.742 215.195C535.336 213.508 537.188 212.664 539.297 212.664C543.797 212.664 547.406 214.703 550.125 218.781C552.844 222.812 554.203 227.312 554.203 232.281C554.203 234.391 553.969 236.5 553.5 238.609C553.078 240.672 552.398 242.711 551.461 244.727C550.523 246.742 549.164 248.43 547.383 249.789C545.648 251.102 543.609 251.852 541.266 252.039C536.953 251.477 533.625 249.648 531.281 246.555C528.938 243.414 527.766 239.57 527.766 235.023ZM539.719 216.32C538.078 216.508 536.695 218.008 535.57 220.82C534.445 223.633 533.719 226.375 533.391 229.047C533.062 231.672 532.898 233.992 532.898 236.008C532.898 238.633 533.695 241.07 535.289 243.32C536.93 245.523 538.758 246.625 540.773 246.625C542.227 246.625 543.539 246.062 544.711 244.938C545.883 243.812 546.797 242.43 547.453 240.789C548.156 239.102 548.672 237.414 549 235.727C549.375 234.039 549.562 232.539 549.562 231.227C549.562 227.383 548.695 224.031 546.961 221.172C545.227 218.312 542.812 216.695 539.719 216.32ZM577.266 227.078C577.266 219.906 577.477 214.82 577.898 211.82L581.062 213.016C581.438 214.844 581.625 217.422 581.625 220.75C581.672 224.078 581.719 226.188 581.766 227.078C583.172 226.844 584.391 226.117 585.422 224.898C586.5 223.68 587.367 222.32 588.023 220.82C588.727 219.273 589.453 217.75 590.203 216.25C590.953 214.75 591.914 213.484 593.086 212.453C594.305 211.422 595.734 210.906 597.375 210.906C598.406 210.906 599.742 211.164 601.383 211.68L601.102 214.141C600.82 214.094 600.422 214.07 599.906 214.07C598.359 214.07 597 214.586 595.828 215.617C594.656 216.602 593.695 217.844 592.945 219.344C592.242 220.844 591.586 222.367 590.977 223.914C590.367 225.414 589.641 226.75 588.797 227.922C588 229.094 587.086 229.797 586.055 230.031C587.789 230.453 589.266 231.648 590.484 233.617C591.75 235.539 592.688 237.531 593.297 239.594C593.953 241.609 594.891 243.461 596.109 245.148C597.328 246.789 598.828 247.609 600.609 247.609C601.078 247.609 601.594 247.539 602.156 247.398L602.367 250.492C601.43 250.727 600.609 250.844 599.906 250.844C598.125 250.844 596.508 250.258 595.055 249.086C593.648 247.914 592.477 246.484 591.539 244.797C590.602 243.109 589.711 241.445 588.867 239.805C588.07 238.117 587.203 236.688 586.266 235.516C585.328 234.344 584.367 233.758 583.383 233.758C582.961 233.758 582.586 233.828 582.258 233.969C582.352 235.328 582.445 236.781 582.539 238.328C582.68 239.828 582.82 241.492 582.961 243.32C583.102 245.148 583.219 246.578 583.312 247.609C582.891 249.062 582.07 249.789 580.852 249.789C580.008 249.789 579.188 249.461 578.391 248.805C577.641 248.102 577.172 247.258 576.984 246.273C577.078 242.336 577.125 238.234 577.125 233.969C576.75 233.828 576.375 233.758 576 233.758C575.016 233.758 574.055 234.344 573.117 235.516C572.18 236.688 571.289 238.117 570.445 239.805C569.648 241.445 568.781 243.109 567.844 244.797C566.906 246.484 565.711 247.914 564.258 249.086C562.852 250.258 561.258 250.844 559.477 250.844C558.773 250.844 557.953 250.727 557.016 250.492L557.227 247.398C557.789 247.539 558.328 247.609 558.844 247.609C560.297 247.609 561.539 247.07 562.57 245.992C563.602 244.914 564.445 243.578 565.102 241.984C565.758 240.344 566.391 238.703 567 237.062C567.656 235.422 568.5 233.922 569.531 232.562C570.609 231.203 571.875 230.359 573.328 230.031C572.297 229.797 571.359 229.094 570.516 227.922C569.719 226.75 569.016 225.414 568.406 223.914C567.797 222.367 567.117 220.844 566.367 219.344C565.664 217.844 564.727 216.602 563.555 215.617C562.383 214.586 561.023 214.07 559.477 214.07C558.961 214.07 558.562 214.094 558.281 214.141L558 211.68C559.406 211.164 560.766 210.906 562.078 210.906C563.719 210.906 565.148 211.422 566.367 212.453C567.586 213.438 568.547 214.68 569.25 216.18C570 217.633 570.703 219.133 571.359 220.68C572.062 222.18 572.906 223.562 573.891 224.828C574.875 226.047 576 226.797 577.266 227.078ZM633.586 243.18L634.289 246.273C632.227 247.023 629.156 247.867 625.078 248.805C621.047 249.695 618.047 250.141 616.078 250.141C614.062 250.141 612.305 249.484 610.805 248.172C609.305 246.812 608.18 245.102 607.43 243.039C606.68 240.93 606.117 238.867 605.742 236.852C605.414 234.789 605.25 232.773 605.25 230.805C605.25 219.086 610.547 213.227 621.141 213.227C623.672 213.227 625.898 214.047 627.82 215.688C629.742 217.281 630.703 219.367 630.703 221.945C630.703 223.352 630.305 224.594 629.508 225.672C628.758 226.75 627.82 227.617 626.695 228.273C625.617 228.883 624.211 229.445 622.477 229.961C620.789 230.477 619.289 230.852 617.977 231.086C616.664 231.32 615.094 231.578 613.266 231.859C611.438 232.141 610.172 232.352 609.469 232.492C609.516 233.852 609.586 235.047 609.68 236.078C609.82 237.109 610.055 238.234 610.383 239.453C610.758 240.625 611.227 241.609 611.789 242.406C612.398 243.156 613.219 243.789 614.25 244.305C615.281 244.82 616.5 245.078 617.906 245.078C619.594 245.078 621.656 244.938 624.094 244.656C626.531 244.328 628.688 244 630.562 243.672C632.484 243.344 633.492 243.18 633.586 243.18ZM609.75 228.133C616.125 226.305 621.352 224.383 625.43 222.367C625.102 220.82 624.656 219.695 624.094 218.992C623.531 218.289 622.688 217.938 621.562 217.938C618.703 217.938 616.102 218.922 613.758 220.891C611.461 222.859 610.125 225.273 609.75 228.133ZM658.125 214.352L661.289 215.055L662.906 249.156C662.484 250.562 661.664 251.266 660.445 251.266C659.602 251.266 658.781 250.914 657.984 250.211C657.188 249.555 656.695 248.734 656.508 247.75C656.508 247.609 656.719 243.648 657.141 235.867V235.305C655.828 235.211 653.883 235.164 651.305 235.164C647.414 235.164 644.484 235.047 642.516 234.812C642.75 237.531 643.055 241.914 643.43 247.961C643.008 249.414 642.188 250.141 640.969 250.141C640.125 250.141 639.305 249.812 638.508 249.156C637.758 248.453 637.289 247.609 637.102 246.625C637.242 244.281 637.312 241.938 637.312 239.594C637.312 238.094 637.289 235.844 637.242 232.844C637.195 229.844 637.172 227.617 637.172 226.164C637.172 221.664 637.312 217.891 637.594 214.844L640.758 215.617C641.695 225.789 642.188 231.016 642.234 231.297C650.25 231.719 654.375 231.93 654.609 231.93C656.531 231.93 657.492 231.812 657.492 231.578C657.492 230.641 657.586 227.664 657.773 222.648C657.961 217.633 658.078 214.867 658.125 214.352ZM674.789 244.164C674.789 244.961 674.836 246.016 674.93 247.328C674.508 248.781 673.688 249.508 672.469 249.508C671.625 249.508 670.805 249.18 670.008 248.523C669.258 247.82 668.789 246.977 668.602 245.992C668.742 242.195 668.906 236.641 669.094 229.328C669.328 222.016 669.492 217.07 669.586 214.492L672.82 213.93C673.383 216.93 673.734 220.914 673.875 225.883C674.016 230.852 674.203 234.555 674.438 236.992C675.328 235.68 677.859 232.258 682.031 226.727C686.203 221.195 689.039 217.07 690.539 214.352C691.57 214.164 692.227 214.07 692.508 214.07C693.398 214.07 694.008 214.469 694.336 215.266C694.711 216.062 694.945 217.562 695.039 219.766L696.375 248.734C695.953 250.141 695.133 250.844 693.914 250.844C693.07 250.844 692.25 250.516 691.453 249.859C690.703 249.156 690.234 248.312 690.047 247.328C690.094 245.781 690.211 242.008 690.398 236.008C690.633 229.961 690.82 225.672 690.961 223.141C682.945 232.281 677.555 239.289 674.789 244.164ZM730.477 243.18L731.18 246.273C729.117 247.023 726.047 247.867 721.969 248.805C717.938 249.695 714.938 250.141 712.969 250.141C710.953 250.141 709.195 249.484 707.695 248.172C706.195 246.812 705.07 245.102 704.32 243.039C703.57 240.93 703.008 238.867 702.633 236.852C702.305 234.789 702.141 232.773 702.141 230.805C702.141 219.086 707.438 213.227 718.031 213.227C720.562 213.227 722.789 214.047 724.711 215.688C726.633 217.281 727.594 219.367 727.594 221.945C727.594 223.352 727.195 224.594 726.398 225.672C725.648 226.75 724.711 227.617 723.586 228.273C722.508 228.883 721.102 229.445 719.367 229.961C717.68 230.477 716.18 230.852 714.867 231.086C713.555 231.32 711.984 231.578 710.156 231.859C708.328 232.141 707.062 232.352 706.359 232.492C706.406 233.852 706.477 235.047 706.57 236.078C706.711 237.109 706.945 238.234 707.273 239.453C707.648 240.625 708.117 241.609 708.68 242.406C709.289 243.156 710.109 243.789 711.141 244.305C712.172 244.82 713.391 245.078 714.797 245.078C716.484 245.078 718.547 244.938 720.984 244.656C723.422 244.328 725.578 244 727.453 243.672C729.375 243.344 730.383 243.18 730.477 243.18ZM706.641 228.133C713.016 226.305 718.242 224.383 722.32 222.367C721.992 220.82 721.547 219.695 720.984 218.992C720.422 218.289 719.578 217.938 718.453 217.938C715.594 217.938 712.992 218.922 710.648 220.891C708.352 222.859 707.016 225.273 706.641 228.133ZM26.5781 294.125L26.2266 297.148C24.2578 296.867 22.5703 296.727 21.1641 296.727C17.9297 296.727 15.2578 297.711 13.1484 299.68C11.0391 301.602 9.58594 303.898 8.78906 306.57C8.03906 309.195 7.66406 312.125 7.66406 315.359C7.66406 316.859 7.75781 318.195 7.94531 319.367C8.13281 320.539 8.46094 321.688 8.92969 322.812C9.44531 323.938 10.2188 324.828 11.25 325.484C12.3281 326.094 13.6406 326.398 15.1875 326.398C17.25 326.398 19.875 326 23.0625 325.203C24.0469 324.828 24.8203 324.641 25.3828 324.641C26.5078 324.641 27.1875 325.953 27.4219 328.578C23.2969 329.891 19.4766 330.547 15.9609 330.547C10.8516 330.547 7.38281 329.305 5.55469 326.82C3.77344 324.289 2.88281 320.211 2.88281 314.586C2.88281 311.305 3.09375 308.445 3.51562 306.008C3.98438 303.523 4.78125 301.227 5.90625 299.117C7.03125 296.961 8.64844 295.32 10.7578 294.195C12.9141 293.07 15.5391 292.508 18.6328 292.508C22.1016 292.508 24.75 293.047 26.5781 294.125ZM48.8672 296.727L48.2344 293.633C54.5156 293.258 64.4062 292.742 77.9062 292.086C79.0312 292.133 79.9922 292.555 80.7891 293.352C81.5859 294.148 81.9844 294.992 81.9844 295.883C81.9844 297.289 81.0469 298.086 79.1719 298.273L66.0234 297.641C66.2578 301.156 66.375 306.289 66.375 313.039C66.4219 319.742 66.5156 324.641 66.6562 327.734C66.2344 329.094 65.4141 329.773 64.1953 329.773C63.3984 329.773 62.625 329.445 61.875 328.789C61.125 328.133 60.6562 327.336 60.4688 326.398C61.125 314.867 61.8047 305.188 62.5078 297.359L48.8672 296.727ZM110.672 322.18L111.375 325.273C109.312 326.023 106.242 326.867 102.164 327.805C98.1328 328.695 95.1328 329.141 93.1641 329.141C91.1484 329.141 89.3906 328.484 87.8906 327.172C86.3906 325.812 85.2656 324.102 84.5156 322.039C83.7656 319.93 83.2031 317.867 82.8281 315.852C82.5 313.789 82.3359 311.773 82.3359 309.805C82.3359 298.086 87.6328 292.227 98.2266 292.227C100.758 292.227 102.984 293.047 104.906 294.688C106.828 296.281 107.789 298.367 107.789 300.945C107.789 302.352 107.391 303.594 106.594 304.672C105.844 305.75 104.906 306.617 103.781 307.273C102.703 307.883 101.297 308.445 99.5625 308.961C97.875 309.477 96.375 309.852 95.0625 310.086C93.75 310.32 92.1797 310.578 90.3516 310.859C88.5234 311.141 87.2578 311.352 86.5547 311.492C86.6016 312.852 86.6719 314.047 86.7656 315.078C86.9062 316.109 87.1406 317.234 87.4688 318.453C87.8438 319.625 88.3125 320.609 88.875 321.406C89.4844 322.156 90.3047 322.789 91.3359 323.305C92.3672 323.82 93.5859 324.078 94.9922 324.078C96.6797 324.078 98.7422 323.938 101.18 323.656C103.617 323.328 105.773 323 107.648 322.672C109.57 322.344 110.578 322.18 110.672 322.18ZM86.8359 307.133C93.2109 305.305 98.4375 303.383 102.516 301.367C102.188 299.82 101.742 298.695 101.18 297.992C100.617 297.289 99.7734 296.938 98.6484 296.938C95.7891 296.938 93.1875 297.922 90.8438 299.891C88.5469 301.859 87.2109 304.273 86.8359 307.133ZM137.883 294.125L137.531 297.148C135.562 296.867 133.875 296.727 132.469 296.727C129.234 296.727 126.562 297.711 124.453 299.68C122.344 301.602 120.891 303.898 120.094 306.57C119.344 309.195 118.969 312.125 118.969 315.359C118.969 316.859 119.062 318.195 119.25 319.367C119.438 320.539 119.766 321.688 120.234 322.812C120.75 323.938 121.523 324.828 122.555 325.484C123.633 326.094 124.945 326.398 126.492 326.398C128.555 326.398 131.18 326 134.367 325.203C135.352 324.828 136.125 324.641 136.688 324.641C137.812 324.641 138.492 325.953 138.727 328.578C134.602 329.891 130.781 330.547 127.266 330.547C122.156 330.547 118.688 329.305 116.859 326.82C115.078 324.289 114.188 320.211 114.188 314.586C114.188 311.305 114.398 308.445 114.82 306.008C115.289 303.523 116.086 301.227 117.211 299.117C118.336 296.961 119.953 295.32 122.062 294.195C124.219 293.07 126.844 292.508 129.938 292.508C133.406 292.508 136.055 293.047 137.883 294.125ZM140.062 296.727L139.43 293.633C145.711 293.258 155.602 292.742 169.102 292.086C170.227 292.133 171.188 292.555 171.984 293.352C172.781 294.148 173.18 294.992 173.18 295.883C173.18 297.289 172.242 298.086 170.367 298.273L157.219 297.641C157.453 301.156 157.57 306.289 157.57 313.039C157.617 319.742 157.711 324.641 157.852 327.734C157.43 329.094 156.609 329.773 155.391 329.773C154.594 329.773 153.82 329.445 153.07 328.789C152.32 328.133 151.852 327.336 151.664 326.398C152.32 314.867 153 305.188 153.703 297.359L140.062 296.727ZM178.594 298.625L177.188 295.039C178.406 293.82 179.953 292.859 181.828 292.156C183.703 291.406 185.555 291.031 187.383 291.031C195.305 291.031 199.266 297.875 199.266 311.562C199.266 313.438 199.148 316.203 198.914 319.859C198.727 323.516 198.633 326.258 198.633 328.086C198.258 329.539 197.531 330.266 196.453 330.266C195.609 330.266 194.836 329.844 194.133 329C193.43 328.156 193.078 327.219 193.078 326.188C193.078 325.859 193.102 325.625 193.148 325.484C190.242 328.297 187.148 329.703 183.867 329.703C181.383 329.703 179.203 328.812 177.328 327.031C175.5 325.203 174.586 323 174.586 320.422C174.586 316.062 176.273 312.125 179.648 308.609C183.07 305.094 186.938 303.336 191.25 303.336C191.438 303.336 191.625 303.359 191.812 303.406C192 303.406 192.211 303.43 192.445 303.477C192.727 303.523 192.938 303.547 193.078 303.547C192.703 298.062 190.523 295.32 186.539 295.32C184.195 295.32 181.547 296.422 178.594 298.625ZM193.289 320.633C193.383 317.352 193.43 314.867 193.43 313.18C193.43 311.773 193.383 309.805 193.289 307.273H192.727C189.398 307.32 186.352 308.562 183.586 311C180.867 313.438 179.508 316.391 179.508 319.859C179.508 321.359 179.953 322.555 180.844 323.445C181.781 324.336 182.906 324.781 184.219 324.781C186.281 324.781 189.305 323.398 193.289 320.633ZM232.523 294.336L237.305 293.914C239.648 300.242 242.039 312.031 244.477 329.281C243.68 329.469 242.883 329.562 242.086 329.562C241.383 329.562 240.562 329.445 239.625 329.211C238.969 326.633 238.172 322.086 237.234 315.57C236.344 309.055 235.547 304.438 234.844 301.719C232.547 305.469 229.453 312.359 225.562 322.391C225.234 322.438 224.648 322.531 223.805 322.672C223.008 322.812 222.398 322.883 221.977 322.883C221.461 322.883 220.852 322.812 220.148 322.672C219.398 320.75 218.273 317.68 216.773 313.461C215.32 309.195 214.148 305.984 213.258 303.828C208.758 315.359 205.945 323.891 204.82 329.422L202.078 328.648C202.312 325.086 203.602 318.875 205.945 310.016C208.289 301.109 209.695 295.438 210.164 293C210.727 293 211.359 293.07 212.062 293.211C212.812 293.305 213.375 293.352 213.75 293.352C214.969 295.461 216.633 299.516 218.742 305.516C220.852 311.469 222.258 315.195 222.961 316.695C226.523 306.57 229.711 299.117 232.523 294.336ZM253.547 323.164C253.547 323.961 253.594 325.016 253.688 326.328C253.266 327.781 252.445 328.508 251.227 328.508C250.383 328.508 249.562 328.18 248.766 327.523C248.016 326.82 247.547 325.977 247.359 324.992C247.5 321.195 247.664 315.641 247.852 308.328C248.086 301.016 248.25 296.07 248.344 293.492L251.578 292.93C252.141 295.93 252.492 299.914 252.633 304.883C252.773 309.852 252.961 313.555 253.195 315.992C254.086 314.68 256.617 311.258 260.789 305.727C264.961 300.195 267.797 296.07 269.297 293.352C270.328 293.164 270.984 293.07 271.266 293.07C272.156 293.07 272.766 293.469 273.094 294.266C273.469 295.062 273.703 296.562 273.797 298.766L275.133 327.734C274.711 329.141 273.891 329.844 272.672 329.844C271.828 329.844 271.008 329.516 270.211 328.859C269.461 328.156 268.992 327.312 268.805 326.328C268.852 324.781 268.969 321.008 269.156 315.008C269.391 308.961 269.578 304.672 269.719 302.141C261.703 311.281 256.312 318.289 253.547 323.164ZM307.195 323.164C307.195 323.961 307.242 325.016 307.336 326.328C306.914 327.781 306.094 328.508 304.875 328.508C304.031 328.508 303.211 328.18 302.414 327.523C301.664 326.82 301.195 325.977 301.008 324.992C301.148 321.195 301.312 315.641 301.5 308.328C301.734 301.016 301.898 296.07 301.992 293.492L305.227 292.93C305.789 295.93 306.141 299.914 306.281 304.883C306.422 309.852 306.609 313.555 306.844 315.992C307.734 314.68 310.266 311.258 314.438 305.727C318.609 300.195 321.445 296.07 322.945 293.352C323.977 293.164 324.633 293.07 324.914 293.07C325.805 293.07 326.414 293.469 326.742 294.266C327.117 295.062 327.352 296.562 327.445 298.766L328.781 327.734C328.359 329.141 327.539 329.844 326.32 329.844C325.477 329.844 324.656 329.516 323.859 328.859C323.109 328.156 322.641 327.312 322.453 326.328C322.5 324.781 322.617 321.008 322.805 315.008C323.039 308.961 323.227 304.672 323.367 302.141C315.352 311.281 309.961 318.289 307.195 323.164ZM378.352 294.125L378 297.148C376.031 296.867 374.344 296.727 372.938 296.727C369.703 296.727 367.031 297.711 364.922 299.68C362.812 301.602 361.359 303.898 360.562 306.57C359.812 309.195 359.438 312.125 359.438 315.359C359.438 316.859 359.531 318.195 359.719 319.367C359.906 320.539 360.234 321.688 360.703 322.812C361.219 323.938 361.992 324.828 363.023 325.484C364.102 326.094 365.414 326.398 366.961 326.398C369.023 326.398 371.648 326 374.836 325.203C375.82 324.828 376.594 324.641 377.156 324.641C378.281 324.641 378.961 325.953 379.195 328.578C375.07 329.891 371.25 330.547 367.734 330.547C362.625 330.547 359.156 329.305 357.328 326.82C355.547 324.289 354.656 320.211 354.656 314.586C354.656 311.305 354.867 308.445 355.289 306.008C355.758 303.523 356.555 301.227 357.68 299.117C358.805 296.961 360.422 295.32 362.531 294.195C364.688 293.07 367.312 292.508 370.406 292.508C373.875 292.508 376.523 293.047 378.352 294.125ZM375.258 335.328L374.133 332.305C375.68 331.695 377.086 330.734 378.352 329.422C379.57 328.109 380.578 326.75 381.375 325.344C382.172 323.891 382.852 322.086 383.414 319.93C383.977 317.773 384.375 315.898 384.609 314.305C384.891 312.664 385.102 310.648 385.242 308.258C385.383 305.867 385.453 304.086 385.453 302.914C385.5 301.695 385.523 300.078 385.523 298.062C385.523 295.203 385.781 293.492 386.297 292.93C386.953 292.227 390.586 291.875 397.195 291.875C402.398 291.875 405.352 291.852 406.055 291.805C406.148 310.836 406.383 323.188 406.758 328.859C406.289 330.266 405.469 330.969 404.297 330.969C403.5 330.969 402.727 330.641 401.977 329.984C401.227 329.328 400.758 328.531 400.57 327.594C400.523 325.766 400.5 323.047 400.5 319.438C400.5 317.656 400.5 314.961 400.5 311.352C400.547 307.742 400.57 305.023 400.57 303.195C400.57 299.82 400.547 297.289 400.5 295.602C398.531 295.93 396.586 296.117 394.664 296.164C392.742 296.211 391.383 296.281 390.586 296.375C390.445 297.922 390.328 300.219 390.234 303.266C390.141 306.312 390.047 309.008 389.953 311.352C389.906 313.648 389.625 316.273 389.109 319.227C388.594 322.133 387.844 324.617 386.859 326.68C385.922 328.695 384.445 330.5 382.43 332.094C380.461 333.734 378.07 334.812 375.258 335.328ZM414.984 298.625L413.578 295.039C414.797 293.82 416.344 292.859 418.219 292.156C420.094 291.406 421.945 291.031 423.773 291.031C431.695 291.031 435.656 297.875 435.656 311.562C435.656 313.438 435.539 316.203 435.305 319.859C435.117 323.516 435.023 326.258 435.023 328.086C434.648 329.539 433.922 330.266 432.844 330.266C432 330.266 431.227 329.844 430.523 329C429.82 328.156 429.469 327.219 429.469 326.188C429.469 325.859 429.492 325.625 429.539 325.484C426.633 328.297 423.539 329.703 420.258 329.703C417.773 329.703 415.594 328.812 413.719 327.031C411.891 325.203 410.977 323 410.977 320.422C410.977 316.062 412.664 312.125 416.039 308.609C419.461 305.094 423.328 303.336 427.641 303.336C427.828 303.336 428.016 303.359 428.203 303.406C428.391 303.406 428.602 303.43 428.836 303.477C429.117 303.523 429.328 303.547 429.469 303.547C429.094 298.062 426.914 295.32 422.93 295.32C420.586 295.32 417.938 296.422 414.984 298.625ZM429.68 320.633C429.773 317.352 429.82 314.867 429.82 313.18C429.82 311.773 429.773 309.805 429.68 307.273H429.117C425.789 307.32 422.742 308.562 419.977 311C417.258 313.438 415.898 316.391 415.898 319.859C415.898 321.359 416.344 322.555 417.234 323.445C418.172 324.336 419.297 324.781 420.609 324.781C422.672 324.781 425.695 323.398 429.68 320.633ZM447.75 285.266L447.258 283.086C448.383 283.227 449.484 283.297 450.562 283.297C453.797 283.297 456.773 282.406 459.492 280.625C460.57 280.719 461.484 281.047 462.234 281.609C462.984 282.172 463.359 282.828 463.359 283.578C463.359 284.188 463.148 284.68 462.727 285.055C462.305 285.43 461.672 285.711 460.828 285.898C459.984 286.039 459.281 286.133 458.719 286.18C458.156 286.18 457.406 286.18 456.469 286.18C453.422 286.18 450.516 285.875 447.75 285.266ZM447.539 323.164C447.539 323.961 447.586 325.016 447.68 326.328C447.258 327.781 446.438 328.508 445.219 328.508C444.375 328.508 443.555 328.18 442.758 327.523C442.008 326.82 441.539 325.977 441.352 324.992C441.492 321.195 441.656 315.641 441.844 308.328C442.078 301.016 442.242 296.07 442.336 293.492L445.57 292.93C446.133 295.93 446.484 299.914 446.625 304.883C446.766 309.852 446.953 313.555 447.188 315.992C448.078 314.68 450.609 311.258 454.781 305.727C458.953 300.195 461.789 296.07 463.289 293.352C464.32 293.164 464.977 293.07 465.258 293.07C466.148 293.07 466.758 293.469 467.086 294.266C467.461 295.062 467.695 296.562 467.789 298.766L469.125 327.734C468.703 329.141 467.883 329.844 466.664 329.844C465.82 329.844 465 329.516 464.203 328.859C463.453 328.156 462.984 327.312 462.797 326.328C462.844 324.781 462.961 321.008 463.148 315.008C463.383 308.961 463.57 304.672 463.711 302.141C455.695 311.281 450.305 318.289 447.539 323.164ZM475.734 338.211L472.57 337.508C472.57 336.992 472.477 335.469 472.289 332.938C472.102 330.406 472.008 328.578 472.008 327.453C472.008 326.516 472.078 325.508 472.219 324.43H476.789C477.023 323.633 477.398 322.438 477.914 320.844C478.477 319.25 478.852 318.125 479.039 317.469C479.227 316.812 479.484 315.852 479.812 314.586C480.188 313.273 480.422 312.172 480.516 311.281C480.656 310.344 480.773 309.195 480.867 307.836C481.008 306.477 481.078 305.047 481.078 303.547C481.078 300.031 480.938 296.07 480.656 291.664C483.281 291.805 486.047 291.898 488.953 291.945C491.906 291.992 494.32 292.062 496.195 292.156C498.07 292.25 499.992 292.461 501.961 292.789C502.102 295.977 502.242 301.227 502.383 308.539C502.57 315.805 502.734 321.031 502.875 324.219H508.359V326.328C508.359 327.547 508.383 329.281 508.43 331.531C508.523 333.781 508.57 335.281 508.57 336.031C508.57 337.438 508.523 338.516 508.43 339.266L505.266 338.562C505.078 337.906 504.891 337.062 504.703 336.031C504.562 335.047 504.398 333.969 504.211 332.797C504.023 331.625 503.883 330.781 503.789 330.266C501.117 330.125 496.852 329.844 490.992 329.422C485.18 329 480.633 328.719 477.352 328.578L475.734 338.211ZM486.562 296.094C486.516 296.797 486.469 298.273 486.422 300.523C486.375 302.727 486.305 304.414 486.211 305.586C486.164 306.758 486.023 308.398 485.789 310.508C485.602 312.57 485.344 314.305 485.016 315.711C484.688 317.07 484.195 318.57 483.539 320.211C482.93 321.805 482.203 323.188 481.359 324.359H496.758L498.164 296.656C497.508 296.609 495.773 296.539 492.961 296.445C490.195 296.352 488.062 296.234 486.562 296.094ZM513.07 293.352L516.234 294.055C516.328 295.555 516.469 297.312 516.656 299.328C516.891 301.344 517.148 303.641 517.43 306.219C519.305 305.656 521.086 305.375 522.773 305.375C524.789 305.375 526.664 305.773 528.398 306.57C530.133 307.32 531.609 308.328 532.828 309.594C534.047 310.859 535.008 312.312 535.711 313.953C536.414 315.547 536.766 317.188 536.766 318.875C536.766 320.516 536.438 322.016 535.781 323.375C535.172 324.734 534.281 325.906 533.109 326.891C531.984 327.828 530.625 328.555 529.031 329.07C527.484 329.633 525.773 329.914 523.898 329.914C522.773 329.914 521.578 329.844 520.312 329.703C519.047 329.609 517.898 329.469 516.867 329.281C515.836 329.094 514.969 328.883 514.266 328.648C513.609 328.367 513.281 328.062 513.281 327.734C513.281 326.984 513.258 325.906 513.211 324.5C513.211 323.094 513.188 321.547 513.141 319.859C513.141 318.172 513.117 316.391 513.07 314.516C513.023 312.641 512.977 310.836 512.93 309.102C512.93 307.367 512.906 305.797 512.859 304.391C512.859 302.938 512.859 301.766 512.859 300.875C512.859 298.25 512.93 295.742 513.07 293.352ZM518.062 310.578L517.43 324.711C519.305 325.367 521.086 325.695 522.773 325.695C524.086 325.695 525.281 325.484 526.359 325.062C527.484 324.594 528.422 324.008 529.172 323.305C529.922 322.555 530.508 321.711 530.93 320.773C531.352 319.836 531.562 318.852 531.562 317.82C531.562 316.789 531.352 315.828 530.93 314.938C530.508 314 529.875 313.18 529.031 312.477C528.188 311.773 527.156 311.234 525.938 310.859C524.719 310.438 523.336 310.227 521.789 310.227C521.273 310.227 520.711 310.273 520.102 310.367C519.492 310.414 518.812 310.484 518.062 310.578ZM540 293.141L543.164 293.844C543.492 297.547 543.844 302.211 544.219 307.836C544.594 313.414 544.992 320 545.414 327.594C544.992 329 544.172 329.703 542.953 329.703C542.109 329.703 541.289 329.375 540.492 328.719C539.742 328.016 539.273 327.172 539.086 326.188C539.133 325.484 539.156 324.336 539.156 322.742C539.203 321.148 539.25 319.32 539.297 317.258C539.344 315.195 539.391 312.992 539.438 310.648C539.484 308.305 539.531 306.031 539.578 303.828C539.625 301.625 539.672 299.586 539.719 297.711C539.812 295.789 539.906 294.266 540 293.141ZM568.969 296.727L568.336 293.633C574.617 293.258 584.508 292.742 598.008 292.086C599.133 292.133 600.094 292.555 600.891 293.352C601.688 294.148 602.086 294.992 602.086 295.883C602.086 297.289 601.148 298.086 599.273 298.273L586.125 297.641C586.359 301.156 586.477 306.289 586.477 313.039C586.523 319.742 586.617 324.641 586.758 327.734C586.336 329.094 585.516 329.773 584.297 329.773C583.5 329.773 582.727 329.445 581.977 328.789C581.227 328.133 580.758 327.336 580.57 326.398C581.227 314.867 581.906 305.188 582.609 297.359L568.969 296.727ZM610.031 349.812L605.672 347.352C607.594 344.023 610.992 337.695 615.867 328.367C612.07 324.992 609.164 319.883 607.148 313.039C605.133 306.195 603.914 299.352 603.492 292.508L607.57 292.719C607.805 293.844 608.297 296.422 609.047 300.453C609.844 304.438 610.477 307.391 610.945 309.312C611.414 311.234 612.234 313.648 613.406 316.555C614.625 319.414 616.008 321.828 617.555 323.797C624.07 311.281 627.328 301.016 627.328 293V292.227C629.766 292.602 631.594 293.047 632.812 293.562C632.062 298.484 630.891 303.5 629.297 308.609C627.703 313.719 625.711 318.875 623.32 324.078C620.93 329.234 618.797 333.57 616.922 337.086C615.094 340.602 612.797 344.844 610.031 349.812ZM633.445 296.727L632.812 293.633C639.094 293.258 648.984 292.742 662.484 292.086C663.609 292.133 664.57 292.555 665.367 293.352C666.164 294.148 666.562 294.992 666.562 295.883C666.562 297.289 665.625 298.086 663.75 298.273L650.602 297.641C650.836 301.156 650.953 306.289 650.953 313.039C651 319.742 651.094 324.641 651.234 327.734C650.812 329.094 649.992 329.773 648.773 329.773C647.977 329.773 647.203 329.445 646.453 328.789C645.703 328.133 645.234 327.336 645.047 326.398C645.703 314.867 646.383 305.188 647.086 297.359L633.445 296.727Z" fill="black"/>
<path d="M781.445 271.819C815.832 257.424 853.243 238.267 873.66 205.601C892.364 175.674 896.003 144.962 902.845 111.178C907.211 89.6223 905.052 66.4096 905.052 44.4694C905.052 30.1982 907.066 15.3884 900.638 2.53101" stroke="black" stroke-width="5" stroke-linecap="round"/>
<path d="M900.734 2.56335C898.359 5.007 897.042 8.29012 894.574 10.6554C893.805 11.3917 893.167 12.3033 892.349 12.9779C891.51 13.6704 890.611 14.1244 889.855 14.9337C889.125 15.716 888.394 16.4508 887.753 17.3051" stroke="black" stroke-width="5" stroke-linecap="round"/>
<path d="M901 3C902.091 4.72723 903.609 5.42902 905.367 6.33154C908.031 7.69893 910.616 9.22311 913.29 10.5699C915.25 11.5572 917.5 12.0642 919.377 13.1523C919.932 13.4743 920.492 13.585 921 14" stroke="black" stroke-width="5" stroke-linecap="round"/>
</svg>
