<svg width="230" height="230" viewBox="0 0 230 230" fill="none" xmlns="http://www.w3.org/2000/svg">
<g clip-path="url(#clip0_5_45)">
<rect width="230" height="230" rx="5" fill="white"/>
<path d="M25.294 33.1051V29.7088H25.8778C26.0739 29.5526 26.2571 29.3324 26.4276 29.0483C26.598 28.7642 26.7429 28.375 26.8622 27.8807C26.9815 27.3864 27.0639 26.7472 27.1094 25.9631L27.3395 22.2727H32.9176V29.7088H33.8892V33.0966H32.3722V31H26.8111V33.1051H25.294ZM27.7188 29.7088H31.4006V23.598H28.7628L28.6264 25.9631C28.5895 26.5568 28.5298 27.0881 28.4474 27.5568C28.3651 28.0256 28.2614 28.4389 28.1364 28.7969C28.0114 29.152 27.8722 29.456 27.7188 29.7088ZM36.9925 31.1321C36.5778 31.1321 36.2042 31.0582 35.8718 30.9105C35.5423 30.7599 35.2809 30.5384 35.0877 30.2457C34.8974 29.9531 34.8022 29.5923 34.8022 29.1634C34.8022 28.794 34.8704 28.4886 35.0067 28.2472C35.1431 28.0057 35.3292 27.8125 35.565 27.6676C35.8008 27.5227 36.0664 27.4134 36.3619 27.3395C36.6602 27.2628 36.9684 27.2074 37.2866 27.1733C37.6701 27.1335 37.9812 27.098 38.2198 27.0668C38.4585 27.0327 38.6317 26.9815 38.7397 26.9134C38.8505 26.8423 38.9059 26.733 38.9059 26.5852V26.5597C38.9059 26.2386 38.8107 25.9901 38.6204 25.8139C38.43 25.6378 38.1559 25.5497 37.7979 25.5497C37.4201 25.5497 37.1204 25.6321 36.8988 25.7969C36.68 25.9616 36.5323 26.1562 36.4556 26.3807L35.0153 26.1761C35.1289 25.7784 35.3164 25.446 35.5778 25.179C35.8391 24.9091 36.1587 24.7074 36.5366 24.5739C36.9144 24.4375 37.332 24.3693 37.7894 24.3693C38.1048 24.3693 38.4187 24.4062 38.7312 24.4801C39.0437 24.554 39.3292 24.6761 39.5877 24.8466C39.8462 25.0142 40.0536 25.2429 40.2099 25.5327C40.369 25.8224 40.4485 26.1847 40.4485 26.6193V31H38.9656V30.1009H38.9144C38.8207 30.2827 38.6886 30.4531 38.5181 30.6122C38.3505 30.7685 38.1388 30.8949 37.8832 30.9915C37.6303 31.0852 37.3335 31.1321 36.9925 31.1321ZM37.3931 29.9986C37.7028 29.9986 37.9712 29.9375 38.1985 29.8153C38.4258 29.6903 38.6005 29.5256 38.7227 29.321C38.8477 29.1165 38.9102 28.8935 38.9102 28.652V27.8807C38.8619 27.9205 38.7795 27.9574 38.663 27.9915C38.5494 28.0256 38.4215 28.0554 38.2795 28.081C38.1374 28.1065 37.9968 28.1293 37.8576 28.1491C37.7184 28.169 37.5977 28.1861 37.4954 28.2003C37.2653 28.2315 37.0593 28.2827 36.8775 28.3537C36.6957 28.4247 36.5522 28.5241 36.4471 28.652C36.342 28.777 36.2894 28.9389 36.2894 29.1378C36.2894 29.4219 36.3931 29.6364 36.6005 29.7812C36.8079 29.9261 37.0721 29.9986 37.3931 29.9986ZM44.9762 31V24.4545H47.7248C48.5004 24.4545 49.1126 24.6094 49.5614 24.919C50.0131 25.2287 50.239 25.6605 50.239 26.2145C50.239 26.581 50.1112 26.8807 49.8555 27.1136C49.6026 27.3437 49.2575 27.4986 48.82 27.5781C49.1637 27.6065 49.4648 27.6932 49.7234 27.8381C49.9847 27.983 50.1893 28.1733 50.337 28.4091C50.4847 28.6449 50.5586 28.9162 50.5586 29.223C50.5586 29.5838 50.4634 29.8977 50.2731 30.1648C50.0856 30.429 49.8114 30.6349 49.4506 30.7827C49.0927 30.9276 48.658 31 48.1467 31H44.9762ZM46.4208 29.7855H48.1467C48.4308 29.7855 48.6538 29.7187 48.8157 29.5852C48.9776 29.4489 49.0586 29.2642 49.0586 29.0312C49.0586 28.7614 48.9776 28.5497 48.8157 28.3963C48.6538 28.2401 48.4308 28.1619 48.1467 28.1619H46.4208V29.7855ZM46.4208 27.1648H47.7546C47.9648 27.1648 48.1452 27.1349 48.2958 27.0753C48.4464 27.0128 48.5614 26.9261 48.641 26.8153C48.7205 26.7017 48.7603 26.5668 48.7603 26.4105C48.7603 26.1861 48.668 26.0099 48.4833 25.8821C48.3015 25.7543 48.0487 25.6903 47.7248 25.6903H46.4208V27.1648ZM53.7152 31.1321C53.3004 31.1321 52.9268 31.0582 52.5945 30.9105C52.2649 30.7599 52.0036 30.5384 51.8104 30.2457C51.62 29.9531 51.5249 29.5923 51.5249 29.1634C51.5249 28.794 51.593 28.4886 51.7294 28.2472C51.8658 28.0057 52.0518 27.8125 52.2876 27.6676C52.5234 27.5227 52.7891 27.4134 53.0845 27.3395C53.3828 27.2628 53.6911 27.2074 54.0092 27.1733C54.3928 27.1335 54.7038 27.098 54.9425 27.0668C55.1811 27.0327 55.3544 26.9815 55.4624 26.9134C55.5732 26.8423 55.6286 26.733 55.6286 26.5852V26.5597C55.6286 26.2386 55.5334 25.9901 55.343 25.8139C55.1527 25.6378 54.8786 25.5497 54.5206 25.5497C54.1428 25.5497 53.843 25.6321 53.6214 25.7969C53.4027 25.9616 53.255 26.1562 53.1783 26.3807L51.7379 26.1761C51.8516 25.7784 52.0391 25.446 52.3004 25.179C52.5618 24.9091 52.8814 24.7074 53.2592 24.5739C53.6371 24.4375 54.0547 24.3693 54.5121 24.3693C54.8274 24.3693 55.1413 24.4062 55.4538 24.4801C55.7663 24.554 56.0518 24.6761 56.3104 24.8466C56.5689 25.0142 56.7763 25.2429 56.9325 25.5327C57.0916 25.8224 57.1712 26.1847 57.1712 26.6193V31H55.6882V30.1009H55.6371C55.5433 30.2827 55.4112 30.4531 55.2408 30.6122C55.0732 30.7685 54.8615 30.8949 54.6058 30.9915C54.353 31.0852 54.0561 31.1321 53.7152 31.1321ZM54.1158 29.9986C54.4254 29.9986 54.6939 29.9375 54.9212 29.8153C55.1484 29.6903 55.3232 29.5256 55.4453 29.321C55.5703 29.1165 55.6328 28.8935 55.6328 28.652V27.8807C55.5845 27.9205 55.5021 27.9574 55.3857 27.9915C55.272 28.0256 55.1442 28.0554 55.0021 28.081C54.8601 28.1065 54.7195 28.1293 54.5803 28.1491C54.4411 28.169 54.3203 28.1861 54.218 28.2003C53.9879 28.2315 53.782 28.2827 53.6001 28.3537C53.4183 28.4247 53.2749 28.5241 53.1697 28.652C53.0646 28.777 53.0121 28.9389 53.0121 29.1378C53.0121 29.4219 53.1158 29.6364 53.3232 29.7812C53.5305 29.9261 53.7947 29.9986 54.1158 29.9986ZM58.7223 24.4545H60.2095V29.7301H62.2678V24.4545H63.755V29.7301H65.8132V24.4545H67.3004V31H58.7223V24.4545ZM70.3462 28.9119L72.967 24.4545H74.5522V31H73.0607V26.5384L70.4485 31H68.859V24.4545H70.3462V28.9119ZM81.968 31.1278C81.3146 31.1278 80.7536 30.9844 80.2848 30.6974C79.8189 30.4105 79.4595 30.0142 79.2067 29.5085C78.9567 29 78.8317 28.4148 78.8317 27.7528C78.8317 27.0881 78.9595 26.5014 79.2152 25.9929C79.4709 25.4815 79.8317 25.0838 80.2976 24.7997C80.7663 24.5128 81.3203 24.3693 81.9595 24.3693C82.4908 24.3693 82.9609 24.4673 83.37 24.6634C83.782 24.8565 84.1101 25.1307 84.3544 25.4858C84.5987 25.8381 84.7379 26.25 84.772 26.7216H83.2976C83.2379 26.4062 83.0959 26.1435 82.8714 25.9332C82.6499 25.7202 82.353 25.6136 81.9808 25.6136C81.6655 25.6136 81.3885 25.6989 81.1499 25.8693C80.9112 26.0369 80.7251 26.2784 80.5916 26.5938C80.4609 26.9091 80.3956 27.2869 80.3956 27.7273C80.3956 28.1733 80.4609 28.5568 80.5916 28.8778C80.7223 29.196 80.9055 29.4418 81.1413 29.6151C81.38 29.7855 81.6598 29.8707 81.9808 29.8707C82.2081 29.8707 82.4112 29.8281 82.5902 29.7429C82.772 29.6548 82.924 29.5284 83.0462 29.3636C83.1683 29.1989 83.2521 28.9986 83.2976 28.7628H84.772C84.7351 29.2259 84.5987 29.6364 84.3629 29.9943C84.1271 30.3494 83.8061 30.6278 83.3999 30.8295C82.9936 31.0284 82.5163 31.1278 81.968 31.1278ZM88.9364 31.1278C88.2802 31.1278 87.7134 30.9915 87.2362 30.7188C86.7617 30.4432 86.3967 30.054 86.141 29.5511C85.8853 29.0455 85.7575 28.4503 85.7575 27.7656C85.7575 27.0923 85.8853 26.5014 86.141 25.9929C86.3995 25.4815 86.7603 25.0838 87.2234 24.7997C87.6864 24.5128 88.2305 24.3693 88.8555 24.3693C89.2589 24.3693 89.6396 24.4347 89.9975 24.5653C90.3583 24.6932 90.6765 24.892 90.9521 25.1619C91.2305 25.4318 91.4492 25.7756 91.6083 26.1932C91.7674 26.608 91.8469 27.1023 91.8469 27.6761V28.1491H86.4819V27.1094H90.3683C90.3654 26.8139 90.3015 26.5511 90.1765 26.321C90.0515 26.0881 89.8768 25.9048 89.6523 25.7713C89.4308 25.6378 89.1722 25.571 88.8768 25.571C88.5614 25.571 88.2844 25.6477 88.0458 25.8011C87.8072 25.9517 87.6211 26.1506 87.4876 26.3977C87.3569 26.642 87.2901 26.9105 87.2873 27.2031V28.1108C87.2873 28.4915 87.3569 28.8182 87.4961 29.0909C87.6353 29.3608 87.8299 29.5682 88.0799 29.7131C88.3299 29.8551 88.6225 29.9261 88.9577 29.9261C89.1822 29.9261 89.3853 29.8949 89.5671 29.8324C89.7489 29.767 89.9066 29.6719 90.0401 29.5469C90.1737 29.4219 90.2745 29.267 90.3427 29.0824L91.783 29.2443C91.6921 29.625 91.5188 29.9574 91.2631 30.2415C91.0103 30.5227 90.6864 30.7415 90.2915 30.8977C89.8967 31.0511 89.445 31.1278 88.9364 31.1278ZM92.7003 31L92.6918 29.7301H92.9176C93.0881 29.7301 93.2315 29.6918 93.348 29.6151C93.4645 29.5384 93.5611 29.4105 93.6378 29.2315C93.7145 29.0497 93.7741 28.8054 93.8168 28.4986C93.8594 28.1918 93.8892 27.8097 93.9062 27.3523L94.0213 24.4545H98.794V31H97.3026V25.7202H95.4233L95.321 27.8295C95.2955 28.375 95.2344 28.848 95.1378 29.2486C95.044 29.6463 94.9105 29.9744 94.7372 30.233C94.5668 30.4915 94.3523 30.6847 94.0938 30.8125C93.8352 30.9375 93.5298 31 93.1776 31H92.7003ZM103.245 31.1278C102.589 31.1278 102.022 30.9915 101.545 30.7188C101.07 30.4432 100.705 30.054 100.45 29.5511C100.194 29.0455 100.066 28.4503 100.066 27.7656C100.066 27.0923 100.194 26.5014 100.45 25.9929C100.708 25.4815 101.069 25.0838 101.532 24.7997C101.995 24.5128 102.539 24.3693 103.164 24.3693C103.567 24.3693 103.948 24.4347 104.306 24.5653C104.667 24.6932 104.985 24.892 105.261 25.1619C105.539 25.4318 105.758 25.7756 105.917 26.1932C106.076 26.608 106.156 27.1023 106.156 27.6761V28.1491H100.79V27.1094H104.677C104.674 26.8139 104.61 26.5511 104.485 26.321C104.36 26.0881 104.185 25.9048 103.961 25.7713C103.739 25.6378 103.481 25.571 103.185 25.571C102.87 25.571 102.593 25.6477 102.354 25.8011C102.116 25.9517 101.93 26.1506 101.796 26.3977C101.665 26.642 101.599 26.9105 101.596 27.2031V28.1108C101.596 28.4915 101.665 28.8182 101.805 29.0909C101.944 29.3608 102.138 29.5682 102.388 29.7131C102.638 29.8551 102.931 29.9261 103.266 29.9261C103.491 29.9261 103.694 29.8949 103.876 29.8324C104.058 29.767 104.215 29.6719 104.349 29.5469C104.482 29.4219 104.583 29.267 104.651 29.0824L106.092 29.2443C106.001 29.625 105.827 29.9574 105.572 30.2415C105.319 30.5227 104.995 30.7415 104.6 30.8977C104.205 31.0511 103.754 31.1278 103.245 31.1278ZM107.461 31V24.4545H109.003V27.0966H109.566L111.534 24.4545H113.392L110.968 27.6676L113.418 31H111.551L109.757 28.5327H109.003V31H107.461ZM113.935 25.7202V24.4545H119.662V25.7202H117.544V31H116.053V25.7202H113.935ZM123.476 31.1278C122.837 31.1278 122.283 30.9872 121.814 30.706C121.345 30.4247 120.982 30.0312 120.723 29.5256C120.467 29.0199 120.339 28.429 120.339 27.7528C120.339 27.0767 120.467 26.4844 120.723 25.9759C120.982 25.4673 121.345 25.0724 121.814 24.7912C122.283 24.5099 122.837 24.3693 123.476 24.3693C124.115 24.3693 124.669 24.5099 125.138 24.7912C125.607 25.0724 125.969 25.4673 126.224 25.9759C126.483 26.4844 126.612 27.0767 126.612 27.7528C126.612 28.429 126.483 29.0199 126.224 29.5256C125.969 30.0312 125.607 30.4247 125.138 30.706C124.669 30.9872 124.115 31.1278 123.476 31.1278ZM123.484 29.892C123.831 29.892 124.121 29.7969 124.354 29.6065C124.587 29.4134 124.76 29.1548 124.874 28.831C124.99 28.5071 125.048 28.1463 125.048 27.7486C125.048 27.348 124.99 26.9858 124.874 26.6619C124.76 26.3352 124.587 26.0753 124.354 25.8821C124.121 25.6889 123.831 25.5923 123.484 25.5923C123.129 25.5923 122.834 25.6889 122.598 25.8821C122.365 26.0753 122.19 26.3352 122.074 26.6619C121.96 26.9858 121.903 27.348 121.903 27.7486C121.903 28.1463 121.96 28.5071 122.074 28.831C122.19 29.1548 122.365 29.4134 122.598 29.6065C122.834 29.7969 123.129 29.892 123.484 29.892ZM127.922 33.4545V24.4545H129.439V25.5369H129.528C129.608 25.3778 129.72 25.2088 129.865 25.0298C130.01 24.848 130.206 24.6932 130.453 24.5653C130.7 24.4347 131.015 24.3693 131.399 24.3693C131.904 24.3693 132.36 24.4986 132.767 24.7571C133.176 25.0128 133.5 25.392 133.738 25.8949C133.98 26.3949 134.1 27.0085 134.1 27.7358C134.1 28.4545 133.983 29.0653 133.747 29.5682C133.511 30.071 133.19 30.4545 132.784 30.7188C132.377 30.983 131.917 31.1151 131.403 31.1151C131.028 31.1151 130.717 31.0526 130.47 30.9276C130.223 30.8026 130.024 30.652 129.873 30.4759C129.725 30.2969 129.61 30.1278 129.528 29.9688H129.464V33.4545H127.922ZM129.434 27.7273C129.434 28.1506 129.494 28.5213 129.613 28.8395C129.735 29.1577 129.91 29.4062 130.137 29.5852C130.368 29.7614 130.646 29.8494 130.973 29.8494C131.314 29.8494 131.599 29.7585 131.829 29.5767C132.059 29.392 132.233 29.1406 132.349 28.8224C132.468 28.5014 132.528 28.1364 132.528 27.7273C132.528 27.321 132.47 26.9602 132.353 26.6449C132.237 26.3295 132.064 26.0824 131.833 25.9034C131.603 25.7244 131.316 25.6349 130.973 25.6349C130.643 25.6349 130.363 25.7216 130.133 25.8949C129.903 26.0682 129.728 26.3111 129.609 26.6236C129.493 26.9361 129.434 27.304 129.434 27.7273ZM136.466 26.5852H138.396C139.231 26.5852 139.877 26.7884 140.335 27.1946C140.792 27.6009 141.022 28.1335 141.025 28.7926C141.022 29.2216 140.917 29.6023 140.71 29.9347C140.505 30.267 140.207 30.5284 139.815 30.7188C139.426 30.9062 138.953 31 138.396 31H135.422V24.4545H136.909V29.7344H138.396C138.731 29.7344 139.007 29.6491 139.223 29.4787C139.439 29.3054 139.547 29.0838 139.547 28.8139C139.547 28.5298 139.439 28.2983 139.223 28.1193C139.007 27.9403 138.731 27.8509 138.396 27.8509H136.466V26.5852ZM141.839 31V24.4545H143.382V31H141.839ZM30.2884 42.0881V43.3537H26.8026V42.0881H30.2884ZM27.2798 39.4545V46H25.7926V39.4545H27.2798ZM31.2983 39.4545V46H29.8153V39.4545H31.2983ZM35.7567 46.1278C35.1005 46.1278 34.5337 45.9915 34.0565 45.7188C33.582 45.4432 33.217 45.054 32.9613 44.5511C32.7056 44.0455 32.5778 43.4503 32.5778 42.7656C32.5778 42.0923 32.7056 41.5014 32.9613 40.9929C33.2198 40.4815 33.5806 40.0838 34.0437 39.7997C34.5067 39.5128 35.0508 39.3693 35.6758 39.3693C36.0792 39.3693 36.4599 39.4347 36.8178 39.5653C37.1786 39.6932 37.4968 39.892 37.7724 40.1619C38.0508 40.4318 38.2695 40.7756 38.4286 41.1932C38.5877 41.608 38.6673 42.1023 38.6673 42.6761V43.1491H33.3022V42.1094H37.1886C37.1857 41.8139 37.1218 41.5511 36.9968 41.321C36.8718 41.0881 36.6971 40.9048 36.4727 40.7713C36.2511 40.6378 35.9925 40.571 35.6971 40.571C35.3817 40.571 35.1048 40.6477 34.8661 40.8011C34.6275 40.9517 34.4414 41.1506 34.3079 41.3977C34.1772 41.642 34.1104 41.9105 34.1076 42.2031V43.1108C34.1076 43.4915 34.1772 43.8182 34.3164 44.0909C34.4556 44.3608 34.6502 44.5682 34.9002 44.7131C35.1502 44.8551 35.4428 44.9261 35.7781 44.9261C36.0025 44.9261 36.2056 44.8949 36.3874 44.8324C36.5692 44.767 36.7269 44.6719 36.8604 44.5469C36.994 44.4219 37.0948 44.267 37.163 44.0824L38.6033 44.2443C38.5124 44.625 38.3391 44.9574 38.0835 45.2415C37.8306 45.5227 37.5067 45.7415 37.1119 45.8977C36.717 46.0511 36.2653 46.1278 35.7567 46.1278ZM45.4396 39.4545V46H43.9567V39.4545H45.4396ZM44.745 42.4119V43.6733C44.5774 43.7472 44.3871 43.8139 44.174 43.8736C43.9638 43.9304 43.7408 43.9759 43.505 44.0099C43.272 44.044 43.0391 44.0611 42.8061 44.0611C41.9311 44.0611 41.2393 43.8651 40.7308 43.473C40.2251 43.0781 39.9723 42.4631 39.9723 41.6278V39.446H41.4467V41.6278C41.4467 41.9091 41.4964 42.1349 41.5959 42.3054C41.6953 42.4759 41.8459 42.6009 42.0476 42.6804C42.2493 42.7571 42.5021 42.7955 42.8061 42.7955C43.147 42.7955 43.4709 42.7614 43.7777 42.6932C44.0845 42.625 44.407 42.5312 44.745 42.4119ZM48.479 43.9119L51.0998 39.4545H52.685V46H51.1935V41.5384L48.5813 46H46.9918V39.4545H48.479V43.9119ZM53.5362 40.7202V39.4545H59.2635V40.7202H57.1456V46H55.6541V40.7202H53.5362ZM62.1058 46.1321C61.6911 46.1321 61.3175 46.0582 60.9851 45.9105C60.6555 45.7599 60.3942 45.5384 60.201 45.2457C60.0107 44.9531 59.9155 44.5923 59.9155 44.1634C59.9155 43.794 59.9837 43.4886 60.12 43.2472C60.2564 43.0057 60.4425 42.8125 60.6783 42.6676C60.9141 42.5227 61.1797 42.4134 61.4751 42.3395C61.7734 42.2628 62.0817 42.2074 62.3999 42.1733C62.7834 42.1335 63.0945 42.098 63.3331 42.0668C63.5717 42.0327 63.745 41.9815 63.853 41.9134C63.9638 41.8423 64.0192 41.733 64.0192 41.5852V41.5597C64.0192 41.2386 63.924 40.9901 63.7337 40.8139C63.5433 40.6378 63.2692 40.5497 62.9112 40.5497C62.5334 40.5497 62.2337 40.6321 62.0121 40.7969C61.7933 40.9616 61.6456 41.1562 61.5689 41.3807L60.1286 41.1761C60.2422 40.7784 60.4297 40.446 60.6911 40.179C60.9524 39.9091 61.272 39.7074 61.6499 39.5739C62.0277 39.4375 62.4453 39.3693 62.9027 39.3693C63.218 39.3693 63.532 39.4062 63.8445 39.4801C64.157 39.554 64.4425 39.6761 64.701 39.8466C64.9595 40.0142 65.1669 40.2429 65.3232 40.5327C65.4822 40.8224 65.5618 41.1847 65.5618 41.6193V46H64.0788V45.1009H64.0277C63.9339 45.2827 63.8018 45.4531 63.6314 45.6122C63.4638 45.7685 63.2521 45.8949 62.9964 45.9915C62.7436 46.0852 62.4467 46.1321 62.1058 46.1321ZM62.5064 44.9986C62.8161 44.9986 63.0845 44.9375 63.3118 44.8153C63.5391 44.6903 63.7138 44.5256 63.8359 44.321C63.9609 44.1165 64.0234 43.8935 64.0234 43.652V42.8807C63.9751 42.9205 63.8928 42.9574 63.7763 42.9915C63.6626 43.0256 63.5348 43.0554 63.3928 43.081C63.2507 43.1065 63.1101 43.1293 62.9709 43.1491C62.8317 43.169 62.7109 43.1861 62.6087 43.2003C62.3786 43.2315 62.1726 43.2827 61.9908 43.3537C61.8089 43.4247 61.6655 43.5241 61.5604 43.652C61.4553 43.777 61.4027 43.9389 61.4027 44.1378C61.4027 44.4219 61.5064 44.6364 61.7138 44.7812C61.9212 44.9261 62.1854 44.9986 62.5064 44.9986ZM70.0107 46.1278C69.3544 46.1278 68.7876 45.9915 68.3104 45.7188C67.8359 45.4432 67.4709 45.054 67.2152 44.5511C66.9595 44.0455 66.8317 43.4503 66.8317 42.7656C66.8317 42.0923 66.9595 41.5014 67.2152 40.9929C67.4737 40.4815 67.8345 40.0838 68.2976 39.7997C68.7607 39.5128 69.3047 39.3693 69.9297 39.3693C70.3331 39.3693 70.7138 39.4347 71.0717 39.5653C71.4325 39.6932 71.7507 39.892 72.0263 40.1619C72.3047 40.4318 72.5234 40.7756 72.6825 41.1932C72.8416 41.608 72.9212 42.1023 72.9212 42.6761V43.1491H67.5561V42.1094H71.4425C71.4396 41.8139 71.3757 41.5511 71.2507 41.321C71.1257 41.0881 70.951 40.9048 70.7266 40.7713C70.505 40.6378 70.2464 40.571 69.951 40.571C69.6357 40.571 69.3587 40.6477 69.12 40.8011C68.8814 40.9517 68.6953 41.1506 68.5618 41.3977C68.4311 41.642 68.3643 41.9105 68.3615 42.2031V43.1108C68.3615 43.4915 68.4311 43.8182 68.5703 44.0909C68.7095 44.3608 68.9041 44.5682 69.1541 44.7131C69.4041 44.8551 69.6967 44.9261 70.032 44.9261C70.2564 44.9261 70.4595 44.8949 70.6413 44.8324C70.8232 44.767 70.9808 44.6719 71.1143 44.5469C71.2479 44.4219 71.3487 44.267 71.4169 44.0824L72.8572 44.2443C72.7663 44.625 72.593 44.9574 72.3374 45.2415C72.0845 45.5227 71.7607 45.7415 71.3658 45.8977C70.9709 46.0511 70.5192 46.1278 70.0107 46.1278ZM77.9933 44.206L79.9364 39.4545H81.1808L78.5344 46H77.4563L74.8697 39.4545H76.1012L77.9933 44.206ZM75.7134 39.4545V46H74.2262V39.4545H75.7134ZM80.337 46V39.4545H81.8114V46H80.337ZM84.4109 41.5852H86.3413C87.1765 41.5852 87.8228 41.7884 88.2802 42.1946C88.7376 42.6009 88.9677 43.1335 88.9705 43.7926C88.9677 44.2216 88.8626 44.6023 88.6552 44.9347C88.4506 45.267 88.1523 45.5284 87.7603 45.7188C87.3711 45.9062 86.8981 46 86.3413 46H83.3668V39.4545H84.854V44.7344H86.3413C86.6765 44.7344 86.9521 44.6491 87.168 44.4787C87.3839 44.3054 87.4918 44.0838 87.4918 43.8139C87.4918 43.5298 87.3839 43.2983 87.168 43.1193C86.9521 42.9403 86.6765 42.8509 86.3413 42.8509H84.4109V41.5852ZM89.7844 46V39.4545H91.3271V46H89.7844ZM95.8153 46.1278C95.1591 46.1278 94.5923 45.9915 94.1151 45.7188C93.6406 45.4432 93.2756 45.054 93.0199 44.5511C92.7642 44.0455 92.6364 43.4503 92.6364 42.7656C92.6364 42.0923 92.7642 41.5014 93.0199 40.9929C93.2784 40.4815 93.6392 40.0838 94.1023 39.7997C94.5653 39.5128 95.1094 39.3693 95.7344 39.3693C96.1378 39.3693 96.5185 39.4347 96.8764 39.5653C97.2372 39.6932 97.5554 39.892 97.831 40.1619C98.1094 40.4318 98.3281 40.7756 98.4872 41.1932C98.6463 41.608 98.7259 42.1023 98.7259 42.6761V43.1491H93.3608V42.1094H97.2472C97.2443 41.8139 97.1804 41.5511 97.0554 41.321C96.9304 41.0881 96.7557 40.9048 96.5312 40.7713C96.3097 40.6378 96.0511 40.571 95.7557 40.571C95.4403 40.571 95.1634 40.6477 94.9247 40.8011C94.6861 40.9517 94.5 41.1506 94.3665 41.3977C94.2358 41.642 94.169 41.9105 94.1662 42.2031V43.1108C94.1662 43.4915 94.2358 43.8182 94.375 44.0909C94.5142 44.3608 94.7088 44.5682 94.9588 44.7131C95.2088 44.8551 95.5014 44.9261 95.8366 44.9261C96.0611 44.9261 96.2642 44.8949 96.446 44.8324C96.6278 44.767 96.7855 44.6719 96.919 44.5469C97.0526 44.4219 97.1534 44.267 97.2216 44.0824L98.6619 44.2443C98.571 44.625 98.3977 44.9574 98.142 45.2415C97.8892 45.5227 97.5653 45.7415 97.1705 45.8977C96.7756 46.0511 96.3239 46.1278 95.8153 46.1278ZM104.495 43.9119L107.115 39.4545H108.701V46H107.209V41.5384L104.597 46H103.007V39.4545H104.495V43.9119ZM112.81 46L112.801 44.7301H113.027C113.197 44.7301 113.341 44.6918 113.457 44.6151C113.574 44.5384 113.67 44.4105 113.747 44.2315C113.824 44.0497 113.884 43.8054 113.926 43.4986C113.969 43.1918 113.999 42.8097 114.016 42.3523L114.131 39.4545H118.903V46H117.412V40.7202H115.533L115.43 42.8295C115.405 43.375 115.344 43.848 115.247 44.2486C115.153 44.6463 115.02 44.9744 114.847 45.233C114.676 45.4915 114.462 45.6847 114.203 45.8125C113.945 45.9375 113.639 46 113.287 46H112.81ZM123.312 46.1278C122.673 46.1278 122.119 45.9872 121.65 45.706C121.181 45.4247 120.817 45.0312 120.559 44.5256C120.303 44.0199 120.175 43.429 120.175 42.7528C120.175 42.0767 120.303 41.4844 120.559 40.9759C120.817 40.4673 121.181 40.0724 121.65 39.7912C122.119 39.5099 122.673 39.3693 123.312 39.3693C123.951 39.3693 124.505 39.5099 124.974 39.7912C125.442 40.0724 125.805 40.4673 126.06 40.9759C126.319 41.4844 126.448 42.0767 126.448 42.7528C126.448 43.429 126.319 44.0199 126.06 44.5256C125.805 45.0312 125.442 45.4247 124.974 45.706C124.505 45.9872 123.951 46.1278 123.312 46.1278ZM123.32 44.892C123.667 44.892 123.957 44.7969 124.19 44.6065C124.423 44.4134 124.596 44.1548 124.71 43.831C124.826 43.5071 124.884 43.1463 124.884 42.7486C124.884 42.348 124.826 41.9858 124.71 41.6619C124.596 41.3352 124.423 41.0753 124.19 40.8821C123.957 40.6889 123.667 40.5923 123.32 40.5923C122.965 40.5923 122.67 40.6889 122.434 40.8821C122.201 41.0753 122.026 41.3352 121.91 41.6619C121.796 41.9858 121.739 42.348 121.739 42.7486C121.739 43.1463 121.796 43.5071 121.91 43.831C122.026 44.1548 122.201 44.4134 122.434 44.6065C122.67 44.7969 122.965 44.892 123.32 44.892ZM131.525 44.206L133.468 39.4545H134.712L132.066 46H130.988L128.401 39.4545H129.632L131.525 44.206ZM129.245 39.4545V46H127.757V39.4545H129.245ZM133.868 46V39.4545H135.343V46H133.868ZM138.782 46.1321C138.367 46.1321 137.993 46.0582 137.661 45.9105C137.331 45.7599 137.07 45.5384 136.877 45.2457C136.686 44.9531 136.591 44.5923 136.591 44.1634C136.591 43.794 136.659 43.4886 136.796 43.2472C136.932 43.0057 137.118 42.8125 137.354 42.6676C137.59 42.5227 137.855 42.4134 138.151 42.3395C138.449 42.2628 138.757 42.2074 139.076 42.1733C139.459 42.1335 139.77 42.098 140.009 42.0668C140.248 42.0327 140.421 41.9815 140.529 41.9134C140.64 41.8423 140.695 41.733 140.695 41.5852V41.5597C140.695 41.2386 140.6 40.9901 140.409 40.8139C140.219 40.6378 139.945 40.5497 139.587 40.5497C139.209 40.5497 138.909 40.6321 138.688 40.7969C138.469 40.9616 138.321 41.1562 138.245 41.3807L136.804 41.1761C136.918 40.7784 137.105 40.446 137.367 40.179C137.628 39.9091 137.948 39.7074 138.326 39.5739C138.703 39.4375 139.121 39.3693 139.578 39.3693C139.894 39.3693 140.208 39.4062 140.52 39.4801C140.833 39.554 141.118 39.6761 141.377 39.8466C141.635 40.0142 141.843 40.2429 141.999 40.5327C142.158 40.8224 142.238 41.1847 142.238 41.6193V46H140.755V45.1009H140.703C140.61 45.2827 140.478 45.4531 140.307 45.6122C140.14 45.7685 139.928 45.8949 139.672 45.9915C139.419 46.0852 139.123 46.1321 138.782 46.1321ZM139.182 44.9986C139.492 44.9986 139.76 44.9375 139.988 44.8153C140.215 44.6903 140.39 44.5256 140.512 44.321C140.637 44.1165 140.699 43.8935 140.699 43.652V42.8807C140.651 42.9205 140.569 42.9574 140.452 42.9915C140.338 43.0256 140.211 43.0554 140.069 43.081C139.926 43.1065 139.786 43.1293 139.647 43.1491C139.507 43.169 139.387 43.1861 139.284 43.2003C139.054 43.2315 138.848 43.2827 138.667 43.3537C138.485 43.4247 138.341 43.5241 138.236 43.652C138.131 43.777 138.078 43.9389 138.078 44.1378C138.078 44.4219 138.182 44.6364 138.39 44.7812C138.597 44.9261 138.861 44.9986 139.182 44.9986ZM147.245 42.1349V43.4048H143.721V42.1349H147.245ZM144.944 39.4545V46H143.397V39.4545H144.944ZM149.222 46.1278C148.591 46.1278 148.044 45.9844 147.581 45.6974C147.121 45.4105 146.765 45.0128 146.512 44.5043C146.259 43.9957 146.132 43.4077 146.132 42.7401C146.132 42.0724 146.259 41.4858 146.512 40.9801C146.765 40.4744 147.121 40.0795 147.581 39.7955C148.044 39.5114 148.591 39.3693 149.222 39.3693C149.85 39.3693 150.394 39.5114 150.854 39.7955C151.317 40.0795 151.675 40.4744 151.928 40.9801C152.184 41.4858 152.311 42.0724 152.311 42.7401C152.311 43.4077 152.184 43.9957 151.928 44.5043C151.675 45.0128 151.317 45.4105 150.854 45.6974C150.394 45.9844 149.85 46.1278 149.222 46.1278ZM149.222 44.8494C149.594 44.8494 149.898 44.7557 150.134 44.5682C150.37 44.3807 150.543 44.1278 150.654 43.8097C150.765 43.4915 150.82 43.1349 150.82 42.7401C150.82 42.3452 150.765 41.9886 150.654 41.6705C150.543 41.3523 150.37 41.1009 150.134 40.9162C149.898 40.7287 149.594 40.6349 149.222 40.6349C148.847 40.6349 148.54 40.7287 148.301 40.9162C148.066 41.1009 147.892 41.3523 147.782 41.6705C147.671 41.9886 147.615 42.3452 147.615 42.7401C147.615 43.1378 147.671 43.4957 147.782 43.8139C147.892 44.1321 148.066 44.3849 148.301 44.5724C148.54 44.7571 148.847 44.8494 149.222 44.8494ZM152.958 40.7202V39.4545H158.685V40.7202H156.567V46H155.076V40.7202H152.958ZM162.499 46.1278C161.846 46.1278 161.285 45.9844 160.816 45.6974C160.35 45.4105 159.991 45.0142 159.738 44.5085C159.488 44 159.363 43.4148 159.363 42.7528C159.363 42.0881 159.491 41.5014 159.746 40.9929C160.002 40.4815 160.363 40.0838 160.829 39.7997C161.298 39.5128 161.852 39.3693 162.491 39.3693C163.022 39.3693 163.492 39.4673 163.901 39.6634C164.313 39.8565 164.641 40.1307 164.886 40.4858C165.13 40.8381 165.269 41.25 165.303 41.7216H163.829C163.769 41.4062 163.627 41.1435 163.403 40.9332C163.181 40.7202 162.884 40.6136 162.512 40.6136C162.197 40.6136 161.92 40.6989 161.681 40.8693C161.442 41.0369 161.256 41.2784 161.123 41.5938C160.992 41.9091 160.927 42.2869 160.927 42.7273C160.927 43.1733 160.992 43.5568 161.123 43.8778C161.254 44.196 161.437 44.4418 161.673 44.6151C161.911 44.7855 162.191 44.8707 162.512 44.8707C162.739 44.8707 162.942 44.8281 163.121 44.7429C163.303 44.6548 163.455 44.5284 163.577 44.3636C163.7 44.1989 163.783 43.9986 163.829 43.7628H165.303C165.266 44.2259 165.13 44.6364 164.894 44.9943C164.658 45.3494 164.337 45.6278 163.931 45.8295C163.525 46.0284 163.048 46.1278 162.499 46.1278ZM170.439 46V40.7074H169.042C168.686 40.7074 168.414 40.7898 168.223 40.9545C168.033 41.1193 167.939 41.3239 167.942 41.5682C167.939 41.8125 168.029 42.0142 168.211 42.1733C168.392 42.3324 168.652 42.4119 168.99 42.4119H170.925V43.5369H168.99C168.468 43.5369 168.016 43.4545 167.635 43.2898C167.255 43.125 166.962 42.892 166.757 42.5909C166.553 42.2898 166.451 41.9375 166.451 41.5341C166.451 41.1136 166.554 40.7486 166.762 40.4389C166.972 40.1264 167.27 39.8849 167.657 39.7145C168.046 39.5412 168.507 39.4545 169.042 39.4545H171.884V46H170.439ZM166.212 46L168.04 42.642H169.561L167.729 46H166.212ZM25.7926 61V54.4545H31.3196V61H29.8324V55.7202H27.267V61H25.7926ZM35.761 61.1278C35.1218 61.1278 34.5678 60.9872 34.0991 60.706C33.6303 60.4247 33.2667 60.0312 33.0082 59.5256C32.7525 59.0199 32.6246 58.429 32.6246 57.7528C32.6246 57.0767 32.7525 56.4844 33.0082 55.9759C33.2667 55.4673 33.6303 55.0724 34.0991 54.7912C34.5678 54.5099 35.1218 54.3693 35.761 54.3693C36.4002 54.3693 36.9542 54.5099 37.4229 54.7912C37.8917 55.0724 38.2539 55.4673 38.5096 55.9759C38.7681 56.4844 38.8974 57.0767 38.8974 57.7528C38.8974 58.429 38.7681 59.0199 38.5096 59.5256C38.2539 60.0312 37.8917 60.4247 37.4229 60.706C36.9542 60.9872 36.4002 61.1278 35.761 61.1278ZM35.7695 59.892C36.1161 59.892 36.4059 59.7969 36.6388 59.6065C36.8718 59.4134 37.0451 59.1548 37.1587 58.831C37.2752 58.5071 37.3335 58.1463 37.3335 57.7486C37.3335 57.348 37.2752 56.9858 37.1587 56.6619C37.0451 56.3352 36.8718 56.0753 36.6388 55.8821C36.4059 55.6889 36.1161 55.5923 35.7695 55.5923C35.4144 55.5923 35.119 55.6889 34.8832 55.8821C34.6502 56.0753 34.4755 56.3352 34.359 56.6619C34.2454 56.9858 34.1886 57.348 34.1886 57.7486C34.1886 58.1463 34.2454 58.5071 34.359 58.831C34.4755 59.1548 34.6502 59.4134 34.8832 59.6065C35.119 59.7969 35.4144 59.892 35.7695 59.892ZM43.0618 61.1278C42.4084 61.1278 41.8473 60.9844 41.3786 60.6974C40.9126 60.4105 40.5533 60.0142 40.3004 59.5085C40.0504 59 39.9254 58.4148 39.9254 57.7528C39.9254 57.0881 40.0533 56.5014 40.3089 55.9929C40.5646 55.4815 40.9254 55.0838 41.3913 54.7997C41.8601 54.5128 42.4141 54.3693 43.0533 54.3693C43.5845 54.3693 44.0547 54.4673 44.4638 54.6634C44.8757 54.8565 45.2038 55.1307 45.4482 55.4858C45.6925 55.8381 45.8317 56.25 45.8658 56.7216H44.3913C44.3317 56.4062 44.1896 56.1435 43.9652 55.9332C43.7436 55.7202 43.4467 55.6136 43.0746 55.6136C42.7592 55.6136 42.4822 55.6989 42.2436 55.8693C42.005 56.0369 41.8189 56.2784 41.6854 56.5938C41.5547 56.9091 41.4893 57.2869 41.4893 57.7273C41.4893 58.1733 41.5547 58.5568 41.6854 58.8778C41.8161 59.196 41.9993 59.4418 42.2351 59.6151C42.4737 59.7855 42.7536 59.8707 43.0746 59.8707C43.3018 59.8707 43.505 59.8281 43.6839 59.7429C43.8658 59.6548 44.0178 59.5284 44.1399 59.3636C44.2621 59.1989 44.3459 58.9986 44.3913 58.7628H45.8658C45.8288 59.2259 45.6925 59.6364 45.4567 59.9943C45.2209 60.3494 44.8999 60.6278 44.4936 60.8295C44.0874 61.0284 43.6101 61.1278 43.0618 61.1278ZM46.6808 61L46.6722 59.7301H46.8981C47.0685 59.7301 47.212 59.6918 47.3285 59.6151C47.445 59.5384 47.5415 59.4105 47.6183 59.2315C47.695 59.0497 47.7546 58.8054 47.7972 58.4986C47.8398 58.1918 47.8697 57.8097 47.8867 57.3523L48.0018 54.4545H52.7745V61H51.283V55.7202H49.4038L49.3015 57.8295C49.2759 58.375 49.2148 58.848 49.1183 59.2486C49.0245 59.6463 48.891 59.9744 48.7177 60.233C48.5472 60.4915 48.3327 60.6847 48.0742 60.8125C47.8157 60.9375 47.5103 61 47.158 61H46.6808ZM57.2255 61.1278C56.5692 61.1278 56.0025 60.9915 55.5252 60.7188C55.0508 60.4432 54.6857 60.054 54.43 59.5511C54.1744 59.0455 54.0465 58.4503 54.0465 57.7656C54.0465 57.0923 54.1744 56.5014 54.43 55.9929C54.6886 55.4815 55.0494 55.0838 55.5124 54.7997C55.9755 54.5128 56.5195 54.3693 57.1445 54.3693C57.5479 54.3693 57.9286 54.4347 58.2866 54.5653C58.6474 54.6932 58.9656 54.892 59.2411 55.1619C59.5195 55.4318 59.7383 55.7756 59.8974 56.1932C60.0565 56.608 60.136 57.1023 60.136 57.6761V58.1491H54.771V57.1094H58.6573C58.6545 56.8139 58.5906 56.5511 58.4656 56.321C58.3406 56.0881 58.1658 55.9048 57.9414 55.7713C57.7198 55.6378 57.4613 55.571 57.1658 55.571C56.8505 55.571 56.5735 55.6477 56.3349 55.8011C56.0962 55.9517 55.9102 56.1506 55.7766 56.3977C55.646 56.642 55.5792 56.9105 55.5763 57.2031V58.1108C55.5763 58.4915 55.646 58.8182 55.7852 59.0909C55.9244 59.3608 56.119 59.5682 56.369 59.7131C56.619 59.8551 56.9116 59.9261 57.2468 59.9261C57.4712 59.9261 57.6744 59.8949 57.8562 59.8324C58.038 59.767 58.1957 59.6719 58.3292 59.5469C58.4627 59.4219 58.5636 59.267 58.6317 59.0824L60.0721 59.2443C59.9812 59.625 59.8079 59.9574 59.5522 60.2415C59.2994 60.5227 58.9755 60.7415 58.5806 60.8977C58.1857 61.0511 57.734 61.1278 57.2255 61.1278ZM64.4176 61V54.4545H69.9446V61H68.4574V55.7202H65.892V61H64.4176ZM74.4286 61.1278C73.7724 61.1278 73.2056 60.9915 72.7283 60.7188C72.2539 60.4432 71.8888 60.054 71.6332 59.5511C71.3775 59.0455 71.2496 58.4503 71.2496 57.7656C71.2496 57.0923 71.3775 56.5014 71.6332 55.9929C71.8917 55.4815 72.2525 55.0838 72.7156 54.7997C73.1786 54.5128 73.7227 54.3693 74.3477 54.3693C74.7511 54.3693 75.1317 54.4347 75.4897 54.5653C75.8505 54.6932 76.1687 54.892 76.4442 55.1619C76.7227 55.4318 76.9414 55.7756 77.1005 56.1932C77.2596 56.608 77.3391 57.1023 77.3391 57.6761V58.1491H71.9741V57.1094H75.8604C75.8576 56.8139 75.7937 56.5511 75.6687 56.321C75.5437 56.0881 75.369 55.9048 75.1445 55.7713C74.9229 55.6378 74.6644 55.571 74.369 55.571C74.0536 55.571 73.7766 55.6477 73.538 55.8011C73.2994 55.9517 73.1133 56.1506 72.9798 56.3977C72.8491 56.642 72.7823 56.9105 72.7795 57.2031V58.1108C72.7795 58.4915 72.8491 58.8182 72.9883 59.0909C73.1275 59.3608 73.3221 59.5682 73.5721 59.7131C73.8221 59.8551 74.1147 59.9261 74.4499 59.9261C74.6744 59.9261 74.8775 59.8949 75.0593 59.8324C75.2411 59.767 75.3988 59.6719 75.5323 59.5469C75.6658 59.4219 75.7667 59.267 75.8349 59.0824L77.2752 59.2443C77.1843 59.625 77.011 59.9574 76.7553 60.2415C76.5025 60.5227 76.1786 60.7415 75.7837 60.8977C75.3888 61.0511 74.9371 61.1278 74.4286 61.1278ZM78.6442 63.4545V54.4545H80.1612V55.5369H80.2507C80.3303 55.3778 80.4425 55.2088 80.5874 55.0298C80.7322 54.848 80.9283 54.6932 81.1754 54.5653C81.4226 54.4347 81.7379 54.3693 82.1214 54.3693C82.6271 54.3693 83.0831 54.4986 83.4893 54.7571C83.8984 55.0128 84.2223 55.392 84.4609 55.8949C84.7024 56.3949 84.8232 57.0085 84.8232 57.7358C84.8232 58.4545 84.7053 59.0653 84.4695 59.5682C84.2337 60.071 83.9126 60.4545 83.5064 60.7188C83.1001 60.983 82.6399 61.1151 82.1257 61.1151C81.7507 61.1151 81.4396 61.0526 81.1925 60.9276C80.9453 60.8026 80.7464 60.652 80.5959 60.4759C80.4482 60.2969 80.3331 60.1278 80.2507 59.9688H80.1868V63.4545H78.6442ZM80.157 57.7273C80.157 58.1506 80.2166 58.5213 80.3359 58.8395C80.4581 59.1577 80.6328 59.4062 80.8601 59.5852C81.0902 59.7614 81.3686 59.8494 81.6953 59.8494C82.0362 59.8494 82.3217 59.7585 82.5518 59.5767C82.782 59.392 82.9553 59.1406 83.0717 58.8224C83.1911 58.5014 83.2507 58.1364 83.2507 57.7273C83.2507 57.321 83.1925 56.9602 83.076 56.6449C82.9595 56.3295 82.7862 56.0824 82.5561 55.9034C82.326 55.7244 82.0391 55.6349 81.6953 55.6349C81.3658 55.6349 81.0859 55.7216 80.8558 55.8949C80.6257 56.0682 80.451 56.3111 80.3317 56.6236C80.2152 56.9361 80.157 57.304 80.157 57.7273ZM86.1442 61V54.4545H88.8928C89.6683 54.4545 90.2805 54.6094 90.7294 54.919C91.1811 55.2287 91.407 55.6605 91.407 56.2145C91.407 56.581 91.2791 56.8807 91.0234 57.1136C90.7706 57.3437 90.4254 57.4986 89.9879 57.5781C90.3317 57.6065 90.6328 57.6932 90.8913 57.8381C91.1527 57.983 91.3572 58.1733 91.505 58.4091C91.6527 58.6449 91.7266 58.9162 91.7266 59.223C91.7266 59.5838 91.6314 59.8977 91.4411 60.1648C91.2536 60.429 90.9794 60.6349 90.6186 60.7827C90.2607 60.9276 89.826 61 89.3146 61H86.1442ZM87.5888 59.7855H89.3146C89.5987 59.7855 89.8217 59.7187 89.9837 59.5852C90.1456 59.4489 90.2266 59.2642 90.2266 59.0312C90.2266 58.7614 90.1456 58.5497 89.9837 58.3963C89.8217 58.2401 89.5987 58.1619 89.3146 58.1619H87.5888V59.7855ZM87.5888 57.1648H88.9226C89.1328 57.1648 89.3132 57.1349 89.4638 57.0753C89.6143 57.0128 89.7294 56.9261 89.8089 56.8153C89.8885 56.7017 89.9283 56.5668 89.9283 56.4105C89.9283 56.1861 89.8359 56.0099 89.6513 55.8821C89.4695 55.7543 89.2166 55.6903 88.8928 55.6903H87.5888V57.1648ZM95.8548 61.1278C95.2156 61.1278 94.6616 60.9872 94.1928 60.706C93.7241 60.4247 93.3604 60.0312 93.1019 59.5256C92.8462 59.0199 92.7184 58.429 92.7184 57.7528C92.7184 57.0767 92.8462 56.4844 93.1019 55.9759C93.3604 55.4673 93.7241 55.0724 94.1928 54.7912C94.6616 54.5099 95.2156 54.3693 95.8548 54.3693C96.494 54.3693 97.0479 54.5099 97.5167 54.7912C97.9854 55.0724 98.3477 55.4673 98.6033 55.9759C98.8619 56.4844 98.9911 57.0767 98.9911 57.7528C98.9911 58.429 98.8619 59.0199 98.6033 59.5256C98.3477 60.0312 97.9854 60.4247 97.5167 60.706C97.0479 60.9872 96.494 61.1278 95.8548 61.1278ZM95.8633 59.892C96.2099 59.892 96.4996 59.7969 96.7326 59.6065C96.9656 59.4134 97.1388 59.1548 97.2525 58.831C97.369 58.5071 97.4272 58.1463 97.4272 57.7486C97.4272 57.348 97.369 56.9858 97.2525 56.6619C97.1388 56.3352 96.9656 56.0753 96.7326 55.8821C96.4996 55.6889 96.2099 55.5923 95.8633 55.5923C95.5082 55.5923 95.2127 55.6889 94.9769 55.8821C94.744 56.0753 94.5692 56.3352 94.4528 56.6619C94.3391 56.9858 94.2823 57.348 94.2823 57.7486C94.2823 58.1463 94.3391 58.5071 94.4528 58.831C94.5692 59.1548 94.744 59.4134 94.9769 59.6065C95.2127 59.7969 95.5082 59.892 95.8633 59.892ZM104.63 54.4545V55.7202H101.809V61H100.3V54.4545H104.63ZM108.452 61.1278C107.813 61.1278 107.259 60.9872 106.79 60.706C106.322 60.4247 105.958 60.0312 105.7 59.5256C105.444 59.0199 105.316 58.429 105.316 57.7528C105.316 57.0767 105.444 56.4844 105.7 55.9759C105.958 55.4673 106.322 55.0724 106.79 54.7912C107.259 54.5099 107.813 54.3693 108.452 54.3693C109.092 54.3693 109.646 54.5099 110.114 54.7912C110.583 55.0724 110.945 55.4673 111.201 55.9759C111.46 56.4844 111.589 57.0767 111.589 57.7528C111.589 58.429 111.46 59.0199 111.201 59.5256C110.945 60.0312 110.583 60.4247 110.114 60.706C109.646 60.9872 109.092 61.1278 108.452 61.1278ZM108.461 59.892C108.808 59.892 109.097 59.7969 109.33 59.6065C109.563 59.4134 109.737 59.1548 109.85 58.831C109.967 58.5071 110.025 58.1463 110.025 57.7486C110.025 57.348 109.967 56.9858 109.85 56.6619C109.737 56.3352 109.563 56.0753 109.33 55.8821C109.097 55.6889 108.808 55.5923 108.461 55.5923C108.106 55.5923 107.81 55.6889 107.575 55.8821C107.342 56.0753 107.167 56.3352 107.05 56.6619C106.937 56.9858 106.88 57.348 106.88 57.7486C106.88 58.1463 106.937 58.5071 107.05 58.831C107.167 59.1548 107.342 59.4134 107.575 59.6065C107.81 59.7969 108.106 59.892 108.461 59.892ZM115.875 63.4545V54.4545H117.392V55.5369H117.481C117.561 55.3778 117.673 55.2088 117.818 55.0298C117.963 54.848 118.159 54.6932 118.406 54.5653C118.653 54.4347 118.968 54.3693 119.352 54.3693C119.858 54.3693 120.314 54.4986 120.72 54.7571C121.129 55.0128 121.453 55.392 121.691 55.8949C121.933 56.3949 122.054 57.0085 122.054 57.7358C122.054 58.4545 121.936 59.0653 121.7 59.5682C121.464 60.071 121.143 60.4545 120.737 60.7188C120.331 60.983 119.87 61.1151 119.356 61.1151C118.981 61.1151 118.67 61.0526 118.423 60.9276C118.176 60.8026 117.977 60.652 117.826 60.4759C117.679 60.2969 117.564 60.1278 117.481 59.9688H117.417V63.4545H115.875ZM117.387 57.7273C117.387 58.1506 117.447 58.5213 117.566 58.8395C117.689 59.1577 117.863 59.4062 118.091 59.5852C118.321 59.7614 118.599 59.8494 118.926 59.8494C119.267 59.8494 119.552 59.7585 119.782 59.5767C120.012 59.392 120.186 59.1406 120.302 58.8224C120.422 58.5014 120.481 58.1364 120.481 57.7273C120.481 57.321 120.423 56.9602 120.306 56.6449C120.19 56.3295 120.017 56.0824 119.787 55.9034C119.556 55.7244 119.27 55.6349 118.926 55.6349C118.596 55.6349 118.316 55.7216 118.086 55.8949C117.856 56.0682 117.681 56.3111 117.562 56.6236C117.446 56.9361 117.387 57.304 117.387 57.7273ZM126.272 61.1278C125.616 61.1278 125.049 60.9915 124.572 60.7188C124.098 60.4432 123.733 60.054 123.477 59.5511C123.221 59.0455 123.093 58.4503 123.093 57.7656C123.093 57.0923 123.221 56.5014 123.477 55.9929C123.735 55.4815 124.096 55.0838 124.559 54.7997C125.022 54.5128 125.566 54.3693 126.191 54.3693C126.595 54.3693 126.975 54.4347 127.333 54.5653C127.694 54.6932 128.012 54.892 128.288 55.1619C128.566 55.4318 128.785 55.7756 128.944 56.1932C129.103 56.608 129.183 57.1023 129.183 57.6761V58.1491H123.818V57.1094H127.704C127.701 56.8139 127.637 56.5511 127.512 56.321C127.387 56.0881 127.213 55.9048 126.988 55.7713C126.767 55.6378 126.508 55.571 126.213 55.571C125.897 55.571 125.62 55.6477 125.382 55.8011C125.143 55.9517 124.957 56.1506 124.824 56.3977C124.693 56.642 124.626 56.9105 124.623 57.2031V58.1108C124.623 58.4915 124.693 58.8182 124.832 59.0909C124.971 59.3608 125.166 59.5682 125.416 59.7131C125.666 59.8551 125.958 59.9261 126.294 59.9261C126.518 59.9261 126.721 59.8949 126.903 59.8324C127.085 59.767 127.243 59.6719 127.376 59.5469C127.51 59.4219 127.61 59.267 127.679 59.0824L129.119 59.2443C129.028 59.625 128.855 59.9574 128.599 60.2415C128.346 60.5227 128.022 60.7415 127.627 60.8977C127.233 61.0511 126.781 61.1278 126.272 61.1278ZM133.458 63.2244V52.2727H135.005V63.2244H133.458ZM133.458 61.1278C132.978 61.1278 132.539 61.0469 132.141 60.8849C131.744 60.723 131.4 60.4929 131.11 60.1946C130.823 59.8963 130.6 59.5412 130.441 59.1293C130.285 58.7145 130.207 58.2557 130.207 57.7528C130.207 57.25 130.285 56.7912 130.441 56.3764C130.6 55.9616 130.823 55.6051 131.11 55.3068C131.4 55.0057 131.744 54.7741 132.141 54.6122C132.539 54.4503 132.978 54.3693 133.458 54.3693H133.786V61.1278H133.458ZM133.458 59.8835H133.65V55.6136H133.458C133.185 55.6136 132.944 55.6705 132.734 55.7841C132.526 55.8949 132.352 56.0497 132.21 56.2486C132.07 56.4446 131.964 56.6719 131.89 56.9304C131.819 57.1861 131.783 57.4602 131.783 57.7528C131.783 58.142 131.847 58.4986 131.975 58.8224C132.103 59.1435 132.29 59.4006 132.538 59.5938C132.788 59.7869 133.094 59.8835 133.458 59.8835ZM135.005 61.1278H134.677V54.3693H135.005C135.485 54.3693 135.924 54.4503 136.322 54.6122C136.719 54.7741 137.062 55.0057 137.349 55.3068C137.638 55.6051 137.862 55.9616 138.018 56.3764C138.177 56.7912 138.256 57.25 138.256 57.7528C138.256 58.2557 138.177 58.7145 138.018 59.1293C137.862 59.5412 137.638 59.8963 137.349 60.1946C137.062 60.4929 136.719 60.723 136.322 60.8849C135.924 61.0469 135.485 61.1278 135.005 61.1278ZM135.005 59.8835C135.281 59.8835 135.522 59.8281 135.729 59.7173C135.937 59.6065 136.11 59.4531 136.249 59.2571C136.391 59.0611 136.498 58.8352 136.569 58.5795C136.64 58.321 136.675 58.0455 136.675 57.7528C136.675 57.3636 136.613 57.0071 136.488 56.6832C136.363 56.3594 136.175 56.1009 135.925 55.9077C135.678 55.7116 135.371 55.6136 135.005 55.6136H134.813V59.8835H135.005ZM141.442 61.1321C141.027 61.1321 140.653 61.0582 140.321 60.9105C139.991 60.7599 139.73 60.5384 139.537 60.2457C139.347 59.9531 139.251 59.5923 139.251 59.1634C139.251 58.794 139.32 58.4886 139.456 58.2472C139.592 58.0057 139.778 57.8125 140.014 57.6676C140.25 57.5227 140.516 57.4134 140.811 57.3395C141.109 57.2628 141.418 57.2074 141.736 57.1733C142.119 57.1335 142.43 57.098 142.669 57.0668C142.908 57.0327 143.081 56.9815 143.189 56.9134C143.3 56.8423 143.355 56.733 143.355 56.5852V56.5597C143.355 56.2386 143.26 55.9901 143.07 55.8139C142.879 55.6378 142.605 55.5497 142.247 55.5497C141.869 55.5497 141.57 55.6321 141.348 55.7969C141.129 55.9616 140.982 56.1562 140.905 56.3807L139.464 56.1761C139.578 55.7784 139.766 55.446 140.027 55.179C140.288 54.9091 140.608 54.7074 140.986 54.5739C141.364 54.4375 141.781 54.3693 142.239 54.3693C142.554 54.3693 142.868 54.4062 143.18 54.4801C143.493 54.554 143.778 54.6761 144.037 54.8466C144.295 55.0142 144.503 55.2429 144.659 55.5327C144.818 55.8224 144.898 56.1847 144.898 56.6193V61H143.415V60.1009H143.364C143.27 60.2827 143.138 60.4531 142.967 60.6122C142.8 60.7685 142.588 60.8949 142.332 60.9915C142.08 61.0852 141.783 61.1321 141.442 61.1321ZM141.842 59.9986C142.152 59.9986 142.42 59.9375 142.648 59.8153C142.875 59.6903 143.05 59.5256 143.172 59.321C143.297 59.1165 143.359 58.8935 143.359 58.652V57.8807C143.311 57.9205 143.229 57.9574 143.112 57.9915C142.999 58.0256 142.871 58.0554 142.729 58.081C142.587 58.1065 142.446 58.1293 142.307 58.1491C142.168 58.169 142.047 58.1861 141.945 58.2003C141.714 58.2315 141.509 58.2827 141.327 58.3537C141.145 58.4247 141.001 58.5241 140.896 58.652C140.791 58.777 140.739 58.9389 140.739 59.1378C140.739 59.4219 140.842 59.6364 141.05 59.7812C141.257 59.9261 141.521 59.9986 141.842 59.9986ZM146.449 61V54.4545H147.991V57.0966H148.554L150.523 54.4545H152.381L149.956 57.6676L152.406 61H150.54L148.746 58.5327H147.991V61H146.449ZM152.923 55.7202V54.4545H158.65V55.7202H156.532V61H155.041V55.7202H152.923ZM162.464 61.1278C161.825 61.1278 161.271 60.9872 160.802 60.706C160.333 60.4247 159.97 60.0312 159.711 59.5256C159.456 59.0199 159.328 58.429 159.328 57.7528C159.328 57.0767 159.456 56.4844 159.711 55.9759C159.97 55.4673 160.333 55.0724 160.802 54.7912C161.271 54.5099 161.825 54.3693 162.464 54.3693C163.103 54.3693 163.657 54.5099 164.126 54.7912C164.595 55.0724 164.957 55.4673 165.213 55.9759C165.471 56.4844 165.6 57.0767 165.6 57.7528C165.6 58.429 165.471 59.0199 165.213 59.5256C164.957 60.0312 164.595 60.4247 164.126 60.706C163.657 60.9872 163.103 61.1278 162.464 61.1278ZM162.473 59.892C162.819 59.892 163.109 59.7969 163.342 59.6065C163.575 59.4134 163.748 59.1548 163.862 58.831C163.978 58.5071 164.037 58.1463 164.037 57.7486C164.037 57.348 163.978 56.9858 163.862 56.6619C163.748 56.3352 163.575 56.0753 163.342 55.8821C163.109 55.6889 162.819 55.5923 162.473 55.5923C162.118 55.5923 161.822 55.6889 161.586 55.8821C161.353 56.0753 161.179 56.3352 161.062 56.6619C160.949 56.9858 160.892 57.348 160.892 57.7486C160.892 58.1463 160.949 58.5071 161.062 58.831C161.179 59.1548 161.353 59.4134 161.586 59.6065C161.822 59.7969 162.118 59.892 162.473 59.892ZM166.91 63.4545V54.4545H168.427V55.5369H168.516C168.596 55.3778 168.708 55.2088 168.853 55.0298C168.998 54.848 169.194 54.6932 169.441 54.5653C169.688 54.4347 170.004 54.3693 170.387 54.3693C170.893 54.3693 171.349 54.4986 171.755 54.7571C172.164 55.0128 172.488 55.392 172.727 55.8949C172.968 56.3949 173.089 57.0085 173.089 57.7358C173.089 58.4545 172.971 59.0653 172.735 59.5682C172.499 60.071 172.178 60.4545 171.772 60.7188C171.366 60.983 170.906 61.1151 170.391 61.1151C170.016 61.1151 169.705 61.0526 169.458 60.9276C169.211 60.8026 169.012 60.652 168.862 60.4759C168.714 60.2969 168.599 60.1278 168.516 59.9688H168.452V63.4545H166.91ZM168.423 57.7273C168.423 58.1506 168.482 58.5213 168.602 58.8395C168.724 59.1577 168.898 59.4062 169.126 59.5852C169.356 59.7614 169.634 59.8494 169.961 59.8494C170.302 59.8494 170.587 59.7585 170.817 59.5767C171.048 59.392 171.221 59.1406 171.337 58.8224C171.457 58.5014 171.516 58.1364 171.516 57.7273C171.516 57.321 171.458 56.9602 171.342 56.6449C171.225 56.3295 171.052 56.0824 170.822 55.9034C170.592 55.7244 170.305 55.6349 169.961 55.6349C169.631 55.6349 169.352 55.7216 169.121 55.8949C168.891 56.0682 168.717 56.3111 168.597 56.6236C168.481 56.9361 168.423 57.304 168.423 57.7273ZM176.293 61.1321C175.879 61.1321 175.505 61.0582 175.173 60.9105C174.843 60.7599 174.582 60.5384 174.388 60.2457C174.198 59.9531 174.103 59.5923 174.103 59.1634C174.103 58.794 174.171 58.4886 174.308 58.2472C174.444 58.0057 174.63 57.8125 174.866 57.6676C175.102 57.5227 175.367 57.4134 175.663 57.3395C175.961 57.2628 176.269 57.2074 176.587 57.1733C176.971 57.1335 177.282 57.098 177.521 57.0668C177.759 57.0327 177.933 56.9815 178.04 56.9134C178.151 56.8423 178.207 56.733 178.207 56.5852V56.5597C178.207 56.2386 178.112 55.9901 177.921 55.8139C177.731 55.6378 177.457 55.5497 177.099 55.5497C176.721 55.5497 176.421 55.6321 176.2 55.7969C175.981 55.9616 175.833 56.1562 175.756 56.3807L174.316 56.1761C174.43 55.7784 174.617 55.446 174.879 55.179C175.14 54.9091 175.46 54.7074 175.837 54.5739C176.215 54.4375 176.633 54.3693 177.09 54.3693C177.406 54.3693 177.719 54.4062 178.032 54.4801C178.344 54.554 178.63 54.6761 178.888 54.8466C179.147 55.0142 179.354 55.2429 179.511 55.5327C179.67 55.8224 179.749 56.1847 179.749 56.6193V61H178.266V60.1009H178.215C178.121 60.2827 177.989 60.4531 177.819 60.6122C177.651 60.7685 177.44 60.8949 177.184 60.9915C176.931 61.0852 176.634 61.1321 176.293 61.1321ZM176.694 59.9986C177.004 59.9986 177.272 59.9375 177.499 59.8153C177.727 59.6903 177.901 59.5256 178.023 59.321C178.148 59.1165 178.211 58.8935 178.211 58.652V57.8807C178.163 57.9205 178.08 57.9574 177.964 57.9915C177.85 58.0256 177.722 58.0554 177.58 58.081C177.438 58.1065 177.298 58.1293 177.158 58.1491C177.019 58.169 176.898 58.1861 176.796 58.2003C176.566 58.2315 176.36 58.2827 176.178 58.3537C175.996 58.4247 175.853 58.5241 175.748 58.652C175.643 58.777 175.59 58.9389 175.59 59.1378C175.59 59.4219 175.694 59.6364 175.901 59.7812C176.109 59.9261 176.373 59.9986 176.694 59.9986ZM183.188 52.2727L183.048 58.4347H181.675L181.539 52.2727H183.188ZM182.362 61.0938C182.103 61.0938 181.881 61.0028 181.697 60.821C181.515 60.6392 181.424 60.4176 181.424 60.1562C181.424 59.9006 181.515 59.6818 181.697 59.5C181.881 59.3182 182.103 59.2273 182.362 59.2273C182.614 59.2273 182.833 59.3182 183.018 59.5C183.205 59.6818 183.299 59.9006 183.299 60.1562C183.299 60.3295 183.255 60.4872 183.167 60.6293C183.082 60.7713 182.968 60.8849 182.826 60.9702C182.687 61.0526 182.532 61.0938 182.362 61.0938Z" fill="black"/>
<path d="M186.01 227.597L156.51 178.597C170.607 164.337 177.242 166.665 187.01 187.597C187.888 189.478 183.388 190.097 184.888 194.597C187.176 201.462 192.857 202.662 191.079 194.889C192.462 200.735 192.921 203.597 194.888 203.597C197.388 203.5 196.994 200.535 197.51 194.597C199.388 197 200.165 199.84 202.388 198.5C204.611 197.16 201.51 190.097 201.51 190.097C207.215 199.223 211.01 192.097 202.01 179.097C186.849 143.529 175.078 138.31 146.51 163.097C175.782 126.79 148.51 80.0967 104.51 84.26C60.5102 88.4233 47.0102 162.097 91.0102 174.097C78.5102 178.097 64.5102 187.597 64.5102 187.597C55.7948 165.179 51.5102 157.097 47.0102 156.097C42.5102 155.097 24.5102 156.597 25.0102 160.097C25.5102 163.597 37.5102 162.097 42.0102 162.097C32.0102 163.097 28.0102 170.597 40.5102 168.597C30.5102 171.097 39.5102 174.597 41.0102 174.597C43.7028 174.597 50.0102 210.21 58.5102 210.597C67.0102 210.983 86.0102 197.597 88.5102 197.597C91.0102 197.597 87.5102 203.597 83.0102 228.597C84.5312 230.07 186.01 227.597 186.01 227.597Z" fill="#6EA7FB"/>
<path d="M47.0102 156.097C51.5102 157.097 55.7948 165.179 64.5102 187.597C64.5102 187.597 78.5102 178.097 91.0102 174.097C47.0102 162.097 60.5102 88.4233 104.51 84.26C148.51 80.0967 175.782 126.79 146.51 163.097C175.078 138.31 186.849 143.529 202.01 179.097C211.01 192.097 207.215 199.223 201.51 190.097C201.51 190.097 204.611 197.16 202.388 198.5C200.165 199.84 199.388 197 197.51 194.597C196.994 200.535 197.388 203.5 194.888 203.597C192.888 203.597 192.448 200.639 191.01 194.597C192.998 202.691 187.205 201.546 184.888 194.597C183.388 190.097 187.888 189.478 187.01 187.597C177.242 166.665 170.607 164.337 156.51 178.597L186.01 227.597C186.01 227.597 84.5312 230.07 83.0102 228.597C87.5102 203.597 91.0102 197.597 88.5102 197.597C86.0102 197.597 67.0102 210.983 58.5102 210.597C50.0102 210.21 43.7028 174.597 41.0102 174.597M47.0102 156.097C42.5102 155.097 24.5102 156.597 25.0102 160.097C25.5102 163.597 37.5102 162.097 42.0102 162.097M47.0102 156.097C44.0102 158.097 43.5102 159.597 42.0102 162.097M41.0102 174.597C39.5102 174.597 30.5102 171.097 40.5102 168.597M41.0102 174.597C48.173 173.757 51.0102 169.097 49.0102 167.097C47.0102 165.097 43.0102 171.097 40.5102 168.597M42.0102 162.097C32.0102 163.097 28.0102 170.597 40.5102 168.597M42.0102 162.097C40.5102 164.597 39.5102 167.597 40.5102 168.597" stroke="black" stroke-width="2" stroke-linejoin="round"/>
<path d="M106 142C110.5 141.357 116 142 122 143.5C118 134 110.962 127 104 128C97.0375 129 90.0921 137.753 92 149C92 149 101.5 142.643 106 142Z" fill="black" stroke="black" stroke-width="2" stroke-linejoin="round"/>
<path d="M113 135.5C110.531 135.466 106.475 138.69 105 140.79C107.137 140.296 108.741 139.479 111.17 139.513C112.311 139.529 113.891 139.812 118.383 140.79C116.815 138.069 115.469 135.534 113 135.5Z" fill="#F9BCBC" stroke="#F9BCBC" stroke-width="2" stroke-linejoin="round"/>
<path d="M103.5 131.801C101.394 132.03 97 134 97 134C98.9962 132.276 101 130.5 103.5 130.047C106 129.594 109.26 130.03 110 131.509C107.015 131.737 105.606 131.573 103.5 131.801Z" fill="white" stroke="white" stroke-width="2" stroke-linejoin="round"/>
<circle r="9" transform="matrix(-1 0 0 1 128 126)" fill="black"/>
<circle r="9" transform="matrix(-1 0 0 1 79 130)" fill="black"/>
<path d="M138 99.5L111.5 118L109 115" stroke="black" stroke-width="3" stroke-linecap="round" stroke-linejoin="round"/>
<path d="M132.5 137C137 134 138.5 132.5 139.5 128.5" stroke="black" stroke-width="2" stroke-linecap="round" stroke-linejoin="round"/>
<path d="M60 110.5L90 118.5L92 115.5" stroke="black" stroke-width="3" stroke-linecap="round" stroke-linejoin="round"/>
<path d="M71 140C74.8501 143.026 76.7873 143.186 81.5 143" stroke="black" stroke-width="2" stroke-linecap="round" stroke-linejoin="round"/>
</g>
<rect x="1.5" y="1.5" width="227" height="227" rx="3.5" stroke="black" stroke-width="3"/>
<defs>
<clipPath id="clip0_5_45">
<rect width="230" height="230" rx="5" fill="white"/>
</clipPath>
</defs>
</svg>
